%FSLAX45Y45*%
G04 Gerber Fmt 4.5, Leading zero omitted, Abs format (unit mm)*
G04 Created by KiCad (PCBNEW (5.1.10)-1) date 2023-01-23 12:40:16*
%MOMM*%
%LPD*%
G01*
G04 APERTURE LIST*
%TA.AperFunction,Profile*%
%ADD10C,0.050000*%
%TD*%
%ADD11C,0.200000*%
%ADD12C,0.300000*%
G04 APERTURE END LIST*
D10*
X5873750Y-13811250D02*
X5873750Y-2381250D01*
X16271875Y-13811250D02*
X5873750Y-13811250D01*
X16271875Y-2381250D02*
X16271875Y-13811250D01*
X5873750Y-2381250D02*
X16271875Y-2381250D01*
D11*
X6885625Y-8949375D02*
X6925625Y-8989375D01*
X6925625Y-8949375D02*
X6885625Y-8989375D01*
X8552500Y-3075625D02*
X8592500Y-3115625D01*
X8592500Y-3075625D02*
X8552500Y-3115625D01*
X8870000Y-3710625D02*
X8910000Y-3750625D01*
X8910000Y-3710625D02*
X8870000Y-3750625D01*
X9325325Y-6944075D02*
X9365325Y-6984075D01*
X9365325Y-6944075D02*
X9325325Y-6984075D01*
X9325325Y-10754075D02*
X9365325Y-10794075D01*
X9365325Y-10754075D02*
X9325325Y-10794075D01*
X9424375Y-9268125D02*
X9464375Y-9308125D01*
X9464375Y-9268125D02*
X9424375Y-9308125D01*
X9425625Y-5456875D02*
X9465625Y-5496875D01*
X9465625Y-5456875D02*
X9425625Y-5496875D01*
X9663750Y-7044375D02*
X9703750Y-7084375D01*
X9703750Y-7044375D02*
X9663750Y-7084375D01*
X9663750Y-10854375D02*
X9703750Y-10894375D01*
X9703750Y-10854375D02*
X9663750Y-10894375D01*
X10456250Y-13078125D02*
X10496250Y-13118125D01*
X10496250Y-13078125D02*
X10456250Y-13118125D01*
X11410000Y-10854375D02*
X11450000Y-10894375D01*
X11450000Y-10854375D02*
X11410000Y-10894375D01*
X11648125Y-7044375D02*
X11688125Y-7084375D01*
X11688125Y-7044375D02*
X11648125Y-7084375D01*
X8215625Y-4762500D02*
G75*
G03*
X8215625Y-4762500I-40000J0D01*
G01*
X8215625Y-5524500D02*
G75*
G03*
X8215625Y-5524500I-40000J0D01*
G01*
X8215625Y-6667500D02*
G75*
G03*
X8215625Y-6667500I-40000J0D01*
G01*
X8215625Y-7429500D02*
G75*
G03*
X8215625Y-7429500I-40000J0D01*
G01*
X8215625Y-8572500D02*
G75*
G03*
X8215625Y-8572500I-40000J0D01*
G01*
X8215625Y-9334500D02*
G75*
G03*
X8215625Y-9334500I-40000J0D01*
G01*
X8215625Y-10477500D02*
G75*
G03*
X8215625Y-10477500I-40000J0D01*
G01*
X8215625Y-11239500D02*
G75*
G03*
X8215625Y-11239500I-40000J0D01*
G01*
X9168125Y-12382500D02*
G75*
G03*
X9168125Y-12382500I-40000J0D01*
G01*
X9168125Y-13144500D02*
G75*
G03*
X9168125Y-13144500I-40000J0D01*
G01*
X10120625Y-4762500D02*
G75*
G03*
X10120625Y-4762500I-40000J0D01*
G01*
X10120625Y-5524500D02*
G75*
G03*
X10120625Y-5524500I-40000J0D01*
G01*
X10120625Y-6667500D02*
G75*
G03*
X10120625Y-6667500I-40000J0D01*
G01*
X10120625Y-7429500D02*
G75*
G03*
X10120625Y-7429500I-40000J0D01*
G01*
X10120625Y-8572500D02*
G75*
G03*
X10120625Y-8572500I-40000J0D01*
G01*
X10120625Y-9334500D02*
G75*
G03*
X10120625Y-9334500I-40000J0D01*
G01*
X10120625Y-10477500D02*
G75*
G03*
X10120625Y-10477500I-40000J0D01*
G01*
X10120625Y-11239500D02*
G75*
G03*
X10120625Y-11239500I-40000J0D01*
G01*
X12025625Y-4762500D02*
G75*
G03*
X12025625Y-4762500I-40000J0D01*
G01*
X12025625Y-5524500D02*
G75*
G03*
X12025625Y-5524500I-40000J0D01*
G01*
X12025625Y-6667500D02*
G75*
G03*
X12025625Y-6667500I-40000J0D01*
G01*
X12025625Y-7429500D02*
G75*
G03*
X12025625Y-7429500I-40000J0D01*
G01*
X12025625Y-8572500D02*
G75*
G03*
X12025625Y-8572500I-40000J0D01*
G01*
X12025625Y-9334500D02*
G75*
G03*
X12025625Y-9334500I-40000J0D01*
G01*
X12025625Y-10477500D02*
G75*
G03*
X12025625Y-10477500I-40000J0D01*
G01*
X12025625Y-11239500D02*
G75*
G03*
X12025625Y-11239500I-40000J0D01*
G01*
X12025625Y-12382500D02*
G75*
G03*
X12025625Y-12382500I-40000J0D01*
G01*
X12025625Y-13144500D02*
G75*
G03*
X12025625Y-13144500I-40000J0D01*
G01*
X13930625Y-4762500D02*
G75*
G03*
X13930625Y-4762500I-40000J0D01*
G01*
X13930625Y-5524500D02*
G75*
G03*
X13930625Y-5524500I-40000J0D01*
G01*
X13930625Y-7620000D02*
G75*
G03*
X13930625Y-7620000I-40000J0D01*
G01*
X13930625Y-8382000D02*
G75*
G03*
X13930625Y-8382000I-40000J0D01*
G01*
X13930625Y-11430000D02*
G75*
G03*
X13930625Y-11430000I-40000J0D01*
G01*
X13930625Y-12192000D02*
G75*
G03*
X13930625Y-12192000I-40000J0D01*
G01*
X6508750Y-7157250D02*
X6508750Y-7257250D01*
X6458750Y-7207250D02*
X6558750Y-7207250D01*
X6508750Y-7411250D02*
X6508750Y-7511250D01*
X6458750Y-7461250D02*
X6558750Y-7461250D01*
X6508750Y-7665250D02*
X6508750Y-7765250D01*
X6458750Y-7715250D02*
X6558750Y-7715250D01*
X6508750Y-7919250D02*
X6508750Y-8019250D01*
X6458750Y-7969250D02*
X6558750Y-7969250D01*
X6508750Y-8173250D02*
X6508750Y-8273250D01*
X6458750Y-8223250D02*
X6558750Y-8223250D01*
X6508750Y-8427250D02*
X6508750Y-8527250D01*
X6458750Y-8477250D02*
X6558750Y-8477250D01*
X6508750Y-8681250D02*
X6508750Y-8781250D01*
X6458750Y-8731250D02*
X6558750Y-8731250D01*
X6508750Y-8935250D02*
X6508750Y-9035250D01*
X6458750Y-8985250D02*
X6558750Y-8985250D01*
X6508750Y-9189250D02*
X6508750Y-9289250D01*
X6458750Y-9239250D02*
X6558750Y-9239250D01*
X6508750Y-9443250D02*
X6508750Y-9543250D01*
X6458750Y-9493250D02*
X6558750Y-9493250D01*
X6508750Y-9697250D02*
X6508750Y-9797250D01*
X6458750Y-9747250D02*
X6558750Y-9747250D01*
X6508750Y-9951250D02*
X6508750Y-10051250D01*
X6458750Y-10001250D02*
X6558750Y-10001250D01*
X6508750Y-10205250D02*
X6508750Y-10305250D01*
X6458750Y-10255250D02*
X6558750Y-10255250D01*
X15954375Y-11141875D02*
X15954375Y-11241875D01*
X15904375Y-11191875D02*
X16004375Y-11191875D01*
X15954375Y-11395875D02*
X15954375Y-11495875D01*
X15904375Y-11445875D02*
X16004375Y-11445875D01*
D12*
X6157678Y-14279464D02*
X6157678Y-13979464D01*
X6229107Y-13979464D01*
X6271964Y-13993750D01*
X6300536Y-14022321D01*
X6314821Y-14050893D01*
X6329107Y-14108036D01*
X6329107Y-14150893D01*
X6314821Y-14208036D01*
X6300536Y-14236607D01*
X6271964Y-14265179D01*
X6229107Y-14279464D01*
X6157678Y-14279464D01*
X6457678Y-14279464D02*
X6457678Y-14079464D01*
X6457678Y-14136607D02*
X6471964Y-14108036D01*
X6486250Y-14093750D01*
X6514821Y-14079464D01*
X6543393Y-14079464D01*
X6643393Y-14279464D02*
X6643393Y-14079464D01*
X6643393Y-13979464D02*
X6629107Y-13993750D01*
X6643393Y-14008036D01*
X6657678Y-13993750D01*
X6643393Y-13979464D01*
X6643393Y-14008036D01*
X6829107Y-14279464D02*
X6800536Y-14265179D01*
X6786250Y-14236607D01*
X6786250Y-13979464D01*
X6986250Y-14279464D02*
X6957678Y-14265179D01*
X6943393Y-14236607D01*
X6943393Y-13979464D01*
X7329107Y-14279464D02*
X7329107Y-13979464D01*
X7429107Y-14193750D01*
X7529107Y-13979464D01*
X7529107Y-14279464D01*
X7800536Y-14279464D02*
X7800536Y-14122321D01*
X7786250Y-14093750D01*
X7757678Y-14079464D01*
X7700536Y-14079464D01*
X7671964Y-14093750D01*
X7800536Y-14265179D02*
X7771964Y-14279464D01*
X7700536Y-14279464D01*
X7671964Y-14265179D01*
X7657678Y-14236607D01*
X7657678Y-14208036D01*
X7671964Y-14179464D01*
X7700536Y-14165179D01*
X7771964Y-14165179D01*
X7800536Y-14150893D01*
X7943393Y-14079464D02*
X7943393Y-14379464D01*
X7943393Y-14093750D02*
X7971964Y-14079464D01*
X8029107Y-14079464D01*
X8057678Y-14093750D01*
X8071964Y-14108036D01*
X8086250Y-14136607D01*
X8086250Y-14222321D01*
X8071964Y-14250893D01*
X8057678Y-14265179D01*
X8029107Y-14279464D01*
X7971964Y-14279464D01*
X7943393Y-14265179D01*
X8214821Y-14250893D02*
X8229107Y-14265179D01*
X8214821Y-14279464D01*
X8200536Y-14265179D01*
X8214821Y-14250893D01*
X8214821Y-14279464D01*
X8214821Y-14093750D02*
X8229107Y-14108036D01*
X8214821Y-14122321D01*
X8200536Y-14108036D01*
X8214821Y-14093750D01*
X8214821Y-14122321D01*
X5831250Y-14753750D02*
X5871250Y-14793750D01*
X5871250Y-14753750D02*
X5831250Y-14793750D01*
X6214821Y-14609464D02*
X6243393Y-14609464D01*
X6271964Y-14623750D01*
X6286250Y-14638036D01*
X6300536Y-14666607D01*
X6314821Y-14723750D01*
X6314821Y-14795179D01*
X6300536Y-14852321D01*
X6286250Y-14880893D01*
X6271964Y-14895179D01*
X6243393Y-14909464D01*
X6214821Y-14909464D01*
X6186250Y-14895179D01*
X6171964Y-14880893D01*
X6157678Y-14852321D01*
X6143393Y-14795179D01*
X6143393Y-14723750D01*
X6157678Y-14666607D01*
X6171964Y-14638036D01*
X6186250Y-14623750D01*
X6214821Y-14609464D01*
X6443393Y-14880893D02*
X6457678Y-14895179D01*
X6443393Y-14909464D01*
X6429107Y-14895179D01*
X6443393Y-14880893D01*
X6443393Y-14909464D01*
X6714821Y-14709464D02*
X6714821Y-14909464D01*
X6643393Y-14595179D02*
X6571964Y-14809464D01*
X6757678Y-14809464D01*
X6929107Y-14609464D02*
X6957678Y-14609464D01*
X6986250Y-14623750D01*
X7000536Y-14638036D01*
X7014821Y-14666607D01*
X7029107Y-14723750D01*
X7029107Y-14795179D01*
X7014821Y-14852321D01*
X7000536Y-14880893D01*
X6986250Y-14895179D01*
X6957678Y-14909464D01*
X6929107Y-14909464D01*
X6900536Y-14895179D01*
X6886250Y-14880893D01*
X6871964Y-14852321D01*
X6857678Y-14795179D01*
X6857678Y-14723750D01*
X6871964Y-14666607D01*
X6886250Y-14638036D01*
X6900536Y-14623750D01*
X6929107Y-14609464D01*
X7214821Y-14609464D02*
X7243393Y-14609464D01*
X7271964Y-14623750D01*
X7286250Y-14638036D01*
X7300536Y-14666607D01*
X7314821Y-14723750D01*
X7314821Y-14795179D01*
X7300536Y-14852321D01*
X7286250Y-14880893D01*
X7271964Y-14895179D01*
X7243393Y-14909464D01*
X7214821Y-14909464D01*
X7186250Y-14895179D01*
X7171964Y-14880893D01*
X7157678Y-14852321D01*
X7143393Y-14795179D01*
X7143393Y-14723750D01*
X7157678Y-14666607D01*
X7171964Y-14638036D01*
X7186250Y-14623750D01*
X7214821Y-14609464D01*
X7443393Y-14909464D02*
X7443393Y-14709464D01*
X7443393Y-14738036D02*
X7457678Y-14723750D01*
X7486250Y-14709464D01*
X7529107Y-14709464D01*
X7557678Y-14723750D01*
X7571964Y-14752321D01*
X7571964Y-14909464D01*
X7571964Y-14752321D02*
X7586250Y-14723750D01*
X7614821Y-14709464D01*
X7657678Y-14709464D01*
X7686250Y-14723750D01*
X7700536Y-14752321D01*
X7700536Y-14909464D01*
X7843393Y-14909464D02*
X7843393Y-14709464D01*
X7843393Y-14738036D02*
X7857678Y-14723750D01*
X7886250Y-14709464D01*
X7929107Y-14709464D01*
X7957678Y-14723750D01*
X7971964Y-14752321D01*
X7971964Y-14909464D01*
X7971964Y-14752321D02*
X7986250Y-14723750D01*
X8014821Y-14709464D01*
X8057678Y-14709464D01*
X8086250Y-14723750D01*
X8100536Y-14752321D01*
X8100536Y-14909464D01*
X8686250Y-14595179D02*
X8429107Y-14980893D01*
X9071964Y-14609464D02*
X9100536Y-14609464D01*
X9129107Y-14623750D01*
X9143393Y-14638036D01*
X9157678Y-14666607D01*
X9171964Y-14723750D01*
X9171964Y-14795179D01*
X9157678Y-14852321D01*
X9143393Y-14880893D01*
X9129107Y-14895179D01*
X9100536Y-14909464D01*
X9071964Y-14909464D01*
X9043393Y-14895179D01*
X9029107Y-14880893D01*
X9014821Y-14852321D01*
X9000536Y-14795179D01*
X9000536Y-14723750D01*
X9014821Y-14666607D01*
X9029107Y-14638036D01*
X9043393Y-14623750D01*
X9071964Y-14609464D01*
X9300536Y-14880893D02*
X9314821Y-14895179D01*
X9300536Y-14909464D01*
X9286250Y-14895179D01*
X9300536Y-14880893D01*
X9300536Y-14909464D01*
X9500536Y-14609464D02*
X9529107Y-14609464D01*
X9557678Y-14623750D01*
X9571964Y-14638036D01*
X9586250Y-14666607D01*
X9600536Y-14723750D01*
X9600536Y-14795179D01*
X9586250Y-14852321D01*
X9571964Y-14880893D01*
X9557678Y-14895179D01*
X9529107Y-14909464D01*
X9500536Y-14909464D01*
X9471964Y-14895179D01*
X9457678Y-14880893D01*
X9443393Y-14852321D01*
X9429107Y-14795179D01*
X9429107Y-14723750D01*
X9443393Y-14666607D01*
X9457678Y-14638036D01*
X9471964Y-14623750D01*
X9500536Y-14609464D01*
X9886250Y-14909464D02*
X9714821Y-14909464D01*
X9800536Y-14909464D02*
X9800536Y-14609464D01*
X9771964Y-14652321D01*
X9743393Y-14680893D01*
X9714821Y-14695179D01*
X10157678Y-14609464D02*
X10014821Y-14609464D01*
X10000536Y-14752321D01*
X10014821Y-14738036D01*
X10043393Y-14723750D01*
X10114821Y-14723750D01*
X10143393Y-14738036D01*
X10157678Y-14752321D01*
X10171964Y-14780893D01*
X10171964Y-14852321D01*
X10157678Y-14880893D01*
X10143393Y-14895179D01*
X10114821Y-14909464D01*
X10043393Y-14909464D01*
X10014821Y-14895179D01*
X10000536Y-14880893D01*
X10271964Y-14609464D02*
X10471964Y-14609464D01*
X10343393Y-14909464D01*
X10571964Y-14609464D02*
X10571964Y-14666607D01*
X10686250Y-14609464D02*
X10686250Y-14666607D01*
X11129107Y-15023750D02*
X11114821Y-15009464D01*
X11086250Y-14966607D01*
X11071964Y-14938036D01*
X11057678Y-14895179D01*
X11043393Y-14823750D01*
X11043393Y-14766607D01*
X11057678Y-14695179D01*
X11071964Y-14652321D01*
X11086250Y-14623750D01*
X11114821Y-14580893D01*
X11129107Y-14566607D01*
X11400536Y-14909464D02*
X11229107Y-14909464D01*
X11314821Y-14909464D02*
X11314821Y-14609464D01*
X11286250Y-14652321D01*
X11257678Y-14680893D01*
X11229107Y-14695179D01*
X11514821Y-14638036D02*
X11529107Y-14623750D01*
X11557678Y-14609464D01*
X11629107Y-14609464D01*
X11657678Y-14623750D01*
X11671964Y-14638036D01*
X11686250Y-14666607D01*
X11686250Y-14695179D01*
X11671964Y-14738036D01*
X11500536Y-14909464D01*
X11686250Y-14909464D01*
X12043393Y-14909464D02*
X12043393Y-14609464D01*
X12171964Y-14909464D02*
X12171964Y-14752321D01*
X12157678Y-14723750D01*
X12129107Y-14709464D01*
X12086250Y-14709464D01*
X12057678Y-14723750D01*
X12043393Y-14738036D01*
X12357678Y-14909464D02*
X12329107Y-14895179D01*
X12314821Y-14880893D01*
X12300536Y-14852321D01*
X12300536Y-14766607D01*
X12314821Y-14738036D01*
X12329107Y-14723750D01*
X12357678Y-14709464D01*
X12400536Y-14709464D01*
X12429107Y-14723750D01*
X12443393Y-14738036D01*
X12457678Y-14766607D01*
X12457678Y-14852321D01*
X12443393Y-14880893D01*
X12429107Y-14895179D01*
X12400536Y-14909464D01*
X12357678Y-14909464D01*
X12629107Y-14909464D02*
X12600536Y-14895179D01*
X12586250Y-14866607D01*
X12586250Y-14609464D01*
X12857678Y-14895179D02*
X12829107Y-14909464D01*
X12771964Y-14909464D01*
X12743393Y-14895179D01*
X12729107Y-14866607D01*
X12729107Y-14752321D01*
X12743393Y-14723750D01*
X12771964Y-14709464D01*
X12829107Y-14709464D01*
X12857678Y-14723750D01*
X12871964Y-14752321D01*
X12871964Y-14780893D01*
X12729107Y-14809464D01*
X12986250Y-14895179D02*
X13014821Y-14909464D01*
X13071964Y-14909464D01*
X13100536Y-14895179D01*
X13114821Y-14866607D01*
X13114821Y-14852321D01*
X13100536Y-14823750D01*
X13071964Y-14809464D01*
X13029107Y-14809464D01*
X13000536Y-14795179D01*
X12986250Y-14766607D01*
X12986250Y-14752321D01*
X13000536Y-14723750D01*
X13029107Y-14709464D01*
X13071964Y-14709464D01*
X13100536Y-14723750D01*
X13214821Y-15023750D02*
X13229107Y-15009464D01*
X13257678Y-14966607D01*
X13271964Y-14938036D01*
X13286250Y-14895179D01*
X13300536Y-14823750D01*
X13300536Y-14766607D01*
X13286250Y-14695179D01*
X13271964Y-14652321D01*
X13257678Y-14623750D01*
X13229107Y-14580893D01*
X13214821Y-14566607D01*
X5871250Y-15169750D02*
G75*
G03*
X5871250Y-15169750I-40000J0D01*
G01*
X6214821Y-15005464D02*
X6243393Y-15005464D01*
X6271964Y-15019750D01*
X6286250Y-15034036D01*
X6300536Y-15062607D01*
X6314821Y-15119750D01*
X6314821Y-15191179D01*
X6300536Y-15248321D01*
X6286250Y-15276893D01*
X6271964Y-15291179D01*
X6243393Y-15305464D01*
X6214821Y-15305464D01*
X6186250Y-15291179D01*
X6171964Y-15276893D01*
X6157678Y-15248321D01*
X6143393Y-15191179D01*
X6143393Y-15119750D01*
X6157678Y-15062607D01*
X6171964Y-15034036D01*
X6186250Y-15019750D01*
X6214821Y-15005464D01*
X6443393Y-15276893D02*
X6457678Y-15291179D01*
X6443393Y-15305464D01*
X6429107Y-15291179D01*
X6443393Y-15276893D01*
X6443393Y-15305464D01*
X6629107Y-15134036D02*
X6600536Y-15119750D01*
X6586250Y-15105464D01*
X6571964Y-15076893D01*
X6571964Y-15062607D01*
X6586250Y-15034036D01*
X6600536Y-15019750D01*
X6629107Y-15005464D01*
X6686250Y-15005464D01*
X6714821Y-15019750D01*
X6729107Y-15034036D01*
X6743393Y-15062607D01*
X6743393Y-15076893D01*
X6729107Y-15105464D01*
X6714821Y-15119750D01*
X6686250Y-15134036D01*
X6629107Y-15134036D01*
X6600536Y-15148321D01*
X6586250Y-15162607D01*
X6571964Y-15191179D01*
X6571964Y-15248321D01*
X6586250Y-15276893D01*
X6600536Y-15291179D01*
X6629107Y-15305464D01*
X6686250Y-15305464D01*
X6714821Y-15291179D01*
X6729107Y-15276893D01*
X6743393Y-15248321D01*
X6743393Y-15191179D01*
X6729107Y-15162607D01*
X6714821Y-15148321D01*
X6686250Y-15134036D01*
X6929107Y-15005464D02*
X6957678Y-15005464D01*
X6986250Y-15019750D01*
X7000536Y-15034036D01*
X7014821Y-15062607D01*
X7029107Y-15119750D01*
X7029107Y-15191179D01*
X7014821Y-15248321D01*
X7000536Y-15276893D01*
X6986250Y-15291179D01*
X6957678Y-15305464D01*
X6929107Y-15305464D01*
X6900536Y-15291179D01*
X6886250Y-15276893D01*
X6871964Y-15248321D01*
X6857678Y-15191179D01*
X6857678Y-15119750D01*
X6871964Y-15062607D01*
X6886250Y-15034036D01*
X6900536Y-15019750D01*
X6929107Y-15005464D01*
X7214821Y-15005464D02*
X7243393Y-15005464D01*
X7271964Y-15019750D01*
X7286250Y-15034036D01*
X7300536Y-15062607D01*
X7314821Y-15119750D01*
X7314821Y-15191179D01*
X7300536Y-15248321D01*
X7286250Y-15276893D01*
X7271964Y-15291179D01*
X7243393Y-15305464D01*
X7214821Y-15305464D01*
X7186250Y-15291179D01*
X7171964Y-15276893D01*
X7157678Y-15248321D01*
X7143393Y-15191179D01*
X7143393Y-15119750D01*
X7157678Y-15062607D01*
X7171964Y-15034036D01*
X7186250Y-15019750D01*
X7214821Y-15005464D01*
X7443393Y-15305464D02*
X7443393Y-15105464D01*
X7443393Y-15134036D02*
X7457678Y-15119750D01*
X7486250Y-15105464D01*
X7529107Y-15105464D01*
X7557678Y-15119750D01*
X7571964Y-15148321D01*
X7571964Y-15305464D01*
X7571964Y-15148321D02*
X7586250Y-15119750D01*
X7614821Y-15105464D01*
X7657678Y-15105464D01*
X7686250Y-15119750D01*
X7700536Y-15148321D01*
X7700536Y-15305464D01*
X7843393Y-15305464D02*
X7843393Y-15105464D01*
X7843393Y-15134036D02*
X7857678Y-15119750D01*
X7886250Y-15105464D01*
X7929107Y-15105464D01*
X7957678Y-15119750D01*
X7971964Y-15148321D01*
X7971964Y-15305464D01*
X7971964Y-15148321D02*
X7986250Y-15119750D01*
X8014821Y-15105464D01*
X8057678Y-15105464D01*
X8086250Y-15119750D01*
X8100536Y-15148321D01*
X8100536Y-15305464D01*
X8686250Y-14991179D02*
X8429107Y-15376893D01*
X9071964Y-15005464D02*
X9100536Y-15005464D01*
X9129107Y-15019750D01*
X9143393Y-15034036D01*
X9157678Y-15062607D01*
X9171964Y-15119750D01*
X9171964Y-15191179D01*
X9157678Y-15248321D01*
X9143393Y-15276893D01*
X9129107Y-15291179D01*
X9100536Y-15305464D01*
X9071964Y-15305464D01*
X9043393Y-15291179D01*
X9029107Y-15276893D01*
X9014821Y-15248321D01*
X9000536Y-15191179D01*
X9000536Y-15119750D01*
X9014821Y-15062607D01*
X9029107Y-15034036D01*
X9043393Y-15019750D01*
X9071964Y-15005464D01*
X9300536Y-15276893D02*
X9314821Y-15291179D01*
X9300536Y-15305464D01*
X9286250Y-15291179D01*
X9300536Y-15276893D01*
X9300536Y-15305464D01*
X9500536Y-15005464D02*
X9529107Y-15005464D01*
X9557678Y-15019750D01*
X9571964Y-15034036D01*
X9586250Y-15062607D01*
X9600536Y-15119750D01*
X9600536Y-15191179D01*
X9586250Y-15248321D01*
X9571964Y-15276893D01*
X9557678Y-15291179D01*
X9529107Y-15305464D01*
X9500536Y-15305464D01*
X9471964Y-15291179D01*
X9457678Y-15276893D01*
X9443393Y-15248321D01*
X9429107Y-15191179D01*
X9429107Y-15119750D01*
X9443393Y-15062607D01*
X9457678Y-15034036D01*
X9471964Y-15019750D01*
X9500536Y-15005464D01*
X9700536Y-15005464D02*
X9886250Y-15005464D01*
X9786250Y-15119750D01*
X9829107Y-15119750D01*
X9857678Y-15134036D01*
X9871964Y-15148321D01*
X9886250Y-15176893D01*
X9886250Y-15248321D01*
X9871964Y-15276893D01*
X9857678Y-15291179D01*
X9829107Y-15305464D01*
X9743393Y-15305464D01*
X9714821Y-15291179D01*
X9700536Y-15276893D01*
X10171964Y-15305464D02*
X10000536Y-15305464D01*
X10086250Y-15305464D02*
X10086250Y-15005464D01*
X10057678Y-15048321D01*
X10029107Y-15076893D01*
X10000536Y-15091179D01*
X10443393Y-15005464D02*
X10300536Y-15005464D01*
X10286250Y-15148321D01*
X10300536Y-15134036D01*
X10329107Y-15119750D01*
X10400536Y-15119750D01*
X10429107Y-15134036D01*
X10443393Y-15148321D01*
X10457678Y-15176893D01*
X10457678Y-15248321D01*
X10443393Y-15276893D01*
X10429107Y-15291179D01*
X10400536Y-15305464D01*
X10329107Y-15305464D01*
X10300536Y-15291179D01*
X10286250Y-15276893D01*
X10571964Y-15005464D02*
X10571964Y-15062607D01*
X10686250Y-15005464D02*
X10686250Y-15062607D01*
X11129107Y-15419750D02*
X11114821Y-15405464D01*
X11086250Y-15362607D01*
X11071964Y-15334036D01*
X11057678Y-15291179D01*
X11043393Y-15219750D01*
X11043393Y-15162607D01*
X11057678Y-15091179D01*
X11071964Y-15048321D01*
X11086250Y-15019750D01*
X11114821Y-14976893D01*
X11129107Y-14962607D01*
X11214821Y-15005464D02*
X11400536Y-15005464D01*
X11300536Y-15119750D01*
X11343393Y-15119750D01*
X11371964Y-15134036D01*
X11386250Y-15148321D01*
X11400536Y-15176893D01*
X11400536Y-15248321D01*
X11386250Y-15276893D01*
X11371964Y-15291179D01*
X11343393Y-15305464D01*
X11257678Y-15305464D01*
X11229107Y-15291179D01*
X11214821Y-15276893D01*
X11657678Y-15105464D02*
X11657678Y-15305464D01*
X11586250Y-14991179D02*
X11514821Y-15205464D01*
X11700536Y-15205464D01*
X12043393Y-15305464D02*
X12043393Y-15005464D01*
X12171964Y-15305464D02*
X12171964Y-15148321D01*
X12157678Y-15119750D01*
X12129107Y-15105464D01*
X12086250Y-15105464D01*
X12057678Y-15119750D01*
X12043393Y-15134036D01*
X12357678Y-15305464D02*
X12329107Y-15291179D01*
X12314821Y-15276893D01*
X12300536Y-15248321D01*
X12300536Y-15162607D01*
X12314821Y-15134036D01*
X12329107Y-15119750D01*
X12357678Y-15105464D01*
X12400536Y-15105464D01*
X12429107Y-15119750D01*
X12443393Y-15134036D01*
X12457678Y-15162607D01*
X12457678Y-15248321D01*
X12443393Y-15276893D01*
X12429107Y-15291179D01*
X12400536Y-15305464D01*
X12357678Y-15305464D01*
X12629107Y-15305464D02*
X12600536Y-15291179D01*
X12586250Y-15262607D01*
X12586250Y-15005464D01*
X12857678Y-15291179D02*
X12829107Y-15305464D01*
X12771964Y-15305464D01*
X12743393Y-15291179D01*
X12729107Y-15262607D01*
X12729107Y-15148321D01*
X12743393Y-15119750D01*
X12771964Y-15105464D01*
X12829107Y-15105464D01*
X12857678Y-15119750D01*
X12871964Y-15148321D01*
X12871964Y-15176893D01*
X12729107Y-15205464D01*
X12986250Y-15291179D02*
X13014821Y-15305464D01*
X13071964Y-15305464D01*
X13100536Y-15291179D01*
X13114821Y-15262607D01*
X13114821Y-15248321D01*
X13100536Y-15219750D01*
X13071964Y-15205464D01*
X13029107Y-15205464D01*
X13000536Y-15191179D01*
X12986250Y-15162607D01*
X12986250Y-15148321D01*
X13000536Y-15119750D01*
X13029107Y-15105464D01*
X13071964Y-15105464D01*
X13100536Y-15119750D01*
X13214821Y-15419750D02*
X13229107Y-15405464D01*
X13257678Y-15362607D01*
X13271964Y-15334036D01*
X13286250Y-15291179D01*
X13300536Y-15219750D01*
X13300536Y-15162607D01*
X13286250Y-15091179D01*
X13271964Y-15048321D01*
X13257678Y-15019750D01*
X13229107Y-14976893D01*
X13214821Y-14962607D01*
X5821250Y-15515750D02*
X5821250Y-15615750D01*
X5771250Y-15565750D02*
X5871250Y-15565750D01*
X6314821Y-15701464D02*
X6143393Y-15701464D01*
X6229107Y-15701464D02*
X6229107Y-15401464D01*
X6200536Y-15444321D01*
X6171964Y-15472893D01*
X6143393Y-15487179D01*
X6443393Y-15672893D02*
X6457678Y-15687179D01*
X6443393Y-15701464D01*
X6429107Y-15687179D01*
X6443393Y-15672893D01*
X6443393Y-15701464D01*
X6643393Y-15401464D02*
X6671964Y-15401464D01*
X6700536Y-15415750D01*
X6714821Y-15430036D01*
X6729107Y-15458607D01*
X6743393Y-15515750D01*
X6743393Y-15587179D01*
X6729107Y-15644321D01*
X6714821Y-15672893D01*
X6700536Y-15687179D01*
X6671964Y-15701464D01*
X6643393Y-15701464D01*
X6614821Y-15687179D01*
X6600536Y-15672893D01*
X6586250Y-15644321D01*
X6571964Y-15587179D01*
X6571964Y-15515750D01*
X6586250Y-15458607D01*
X6600536Y-15430036D01*
X6614821Y-15415750D01*
X6643393Y-15401464D01*
X6929107Y-15401464D02*
X6957678Y-15401464D01*
X6986250Y-15415750D01*
X7000536Y-15430036D01*
X7014821Y-15458607D01*
X7029107Y-15515750D01*
X7029107Y-15587179D01*
X7014821Y-15644321D01*
X7000536Y-15672893D01*
X6986250Y-15687179D01*
X6957678Y-15701464D01*
X6929107Y-15701464D01*
X6900536Y-15687179D01*
X6886250Y-15672893D01*
X6871964Y-15644321D01*
X6857678Y-15587179D01*
X6857678Y-15515750D01*
X6871964Y-15458607D01*
X6886250Y-15430036D01*
X6900536Y-15415750D01*
X6929107Y-15401464D01*
X7214821Y-15401464D02*
X7243393Y-15401464D01*
X7271964Y-15415750D01*
X7286250Y-15430036D01*
X7300536Y-15458607D01*
X7314821Y-15515750D01*
X7314821Y-15587179D01*
X7300536Y-15644321D01*
X7286250Y-15672893D01*
X7271964Y-15687179D01*
X7243393Y-15701464D01*
X7214821Y-15701464D01*
X7186250Y-15687179D01*
X7171964Y-15672893D01*
X7157678Y-15644321D01*
X7143393Y-15587179D01*
X7143393Y-15515750D01*
X7157678Y-15458607D01*
X7171964Y-15430036D01*
X7186250Y-15415750D01*
X7214821Y-15401464D01*
X7443393Y-15701464D02*
X7443393Y-15501464D01*
X7443393Y-15530036D02*
X7457678Y-15515750D01*
X7486250Y-15501464D01*
X7529107Y-15501464D01*
X7557678Y-15515750D01*
X7571964Y-15544321D01*
X7571964Y-15701464D01*
X7571964Y-15544321D02*
X7586250Y-15515750D01*
X7614821Y-15501464D01*
X7657678Y-15501464D01*
X7686250Y-15515750D01*
X7700536Y-15544321D01*
X7700536Y-15701464D01*
X7843393Y-15701464D02*
X7843393Y-15501464D01*
X7843393Y-15530036D02*
X7857678Y-15515750D01*
X7886250Y-15501464D01*
X7929107Y-15501464D01*
X7957678Y-15515750D01*
X7971964Y-15544321D01*
X7971964Y-15701464D01*
X7971964Y-15544321D02*
X7986250Y-15515750D01*
X8014821Y-15501464D01*
X8057678Y-15501464D01*
X8086250Y-15515750D01*
X8100536Y-15544321D01*
X8100536Y-15701464D01*
X8686250Y-15387179D02*
X8429107Y-15772893D01*
X9071964Y-15401464D02*
X9100536Y-15401464D01*
X9129107Y-15415750D01*
X9143393Y-15430036D01*
X9157678Y-15458607D01*
X9171964Y-15515750D01*
X9171964Y-15587179D01*
X9157678Y-15644321D01*
X9143393Y-15672893D01*
X9129107Y-15687179D01*
X9100536Y-15701464D01*
X9071964Y-15701464D01*
X9043393Y-15687179D01*
X9029107Y-15672893D01*
X9014821Y-15644321D01*
X9000536Y-15587179D01*
X9000536Y-15515750D01*
X9014821Y-15458607D01*
X9029107Y-15430036D01*
X9043393Y-15415750D01*
X9071964Y-15401464D01*
X9300536Y-15672893D02*
X9314821Y-15687179D01*
X9300536Y-15701464D01*
X9286250Y-15687179D01*
X9300536Y-15672893D01*
X9300536Y-15701464D01*
X9500536Y-15401464D02*
X9529107Y-15401464D01*
X9557678Y-15415750D01*
X9571964Y-15430036D01*
X9586250Y-15458607D01*
X9600536Y-15515750D01*
X9600536Y-15587179D01*
X9586250Y-15644321D01*
X9571964Y-15672893D01*
X9557678Y-15687179D01*
X9529107Y-15701464D01*
X9500536Y-15701464D01*
X9471964Y-15687179D01*
X9457678Y-15672893D01*
X9443393Y-15644321D01*
X9429107Y-15587179D01*
X9429107Y-15515750D01*
X9443393Y-15458607D01*
X9457678Y-15430036D01*
X9471964Y-15415750D01*
X9500536Y-15401464D01*
X9700536Y-15401464D02*
X9886250Y-15401464D01*
X9786250Y-15515750D01*
X9829107Y-15515750D01*
X9857678Y-15530036D01*
X9871964Y-15544321D01*
X9886250Y-15572893D01*
X9886250Y-15644321D01*
X9871964Y-15672893D01*
X9857678Y-15687179D01*
X9829107Y-15701464D01*
X9743393Y-15701464D01*
X9714821Y-15687179D01*
X9700536Y-15672893D01*
X10029107Y-15701464D02*
X10086250Y-15701464D01*
X10114821Y-15687179D01*
X10129107Y-15672893D01*
X10157678Y-15630036D01*
X10171964Y-15572893D01*
X10171964Y-15458607D01*
X10157678Y-15430036D01*
X10143393Y-15415750D01*
X10114821Y-15401464D01*
X10057678Y-15401464D01*
X10029107Y-15415750D01*
X10014821Y-15430036D01*
X10000536Y-15458607D01*
X10000536Y-15530036D01*
X10014821Y-15558607D01*
X10029107Y-15572893D01*
X10057678Y-15587179D01*
X10114821Y-15587179D01*
X10143393Y-15572893D01*
X10157678Y-15558607D01*
X10171964Y-15530036D01*
X10429107Y-15501464D02*
X10429107Y-15701464D01*
X10357678Y-15387179D02*
X10286250Y-15601464D01*
X10471964Y-15601464D01*
X10571964Y-15401464D02*
X10571964Y-15458607D01*
X10686250Y-15401464D02*
X10686250Y-15458607D01*
X11129107Y-15815750D02*
X11114821Y-15801464D01*
X11086250Y-15758607D01*
X11071964Y-15730036D01*
X11057678Y-15687179D01*
X11043393Y-15615750D01*
X11043393Y-15558607D01*
X11057678Y-15487179D01*
X11071964Y-15444321D01*
X11086250Y-15415750D01*
X11114821Y-15372893D01*
X11129107Y-15358607D01*
X11400536Y-15701464D02*
X11229107Y-15701464D01*
X11314821Y-15701464D02*
X11314821Y-15401464D01*
X11286250Y-15444321D01*
X11257678Y-15472893D01*
X11229107Y-15487179D01*
X11671964Y-15401464D02*
X11529107Y-15401464D01*
X11514821Y-15544321D01*
X11529107Y-15530036D01*
X11557678Y-15515750D01*
X11629107Y-15515750D01*
X11657678Y-15530036D01*
X11671964Y-15544321D01*
X11686250Y-15572893D01*
X11686250Y-15644321D01*
X11671964Y-15672893D01*
X11657678Y-15687179D01*
X11629107Y-15701464D01*
X11557678Y-15701464D01*
X11529107Y-15687179D01*
X11514821Y-15672893D01*
X12043393Y-15701464D02*
X12043393Y-15401464D01*
X12171964Y-15701464D02*
X12171964Y-15544321D01*
X12157678Y-15515750D01*
X12129107Y-15501464D01*
X12086250Y-15501464D01*
X12057678Y-15515750D01*
X12043393Y-15530036D01*
X12357678Y-15701464D02*
X12329107Y-15687179D01*
X12314821Y-15672893D01*
X12300536Y-15644321D01*
X12300536Y-15558607D01*
X12314821Y-15530036D01*
X12329107Y-15515750D01*
X12357678Y-15501464D01*
X12400536Y-15501464D01*
X12429107Y-15515750D01*
X12443393Y-15530036D01*
X12457678Y-15558607D01*
X12457678Y-15644321D01*
X12443393Y-15672893D01*
X12429107Y-15687179D01*
X12400536Y-15701464D01*
X12357678Y-15701464D01*
X12629107Y-15701464D02*
X12600536Y-15687179D01*
X12586250Y-15658607D01*
X12586250Y-15401464D01*
X12857678Y-15687179D02*
X12829107Y-15701464D01*
X12771964Y-15701464D01*
X12743393Y-15687179D01*
X12729107Y-15658607D01*
X12729107Y-15544321D01*
X12743393Y-15515750D01*
X12771964Y-15501464D01*
X12829107Y-15501464D01*
X12857678Y-15515750D01*
X12871964Y-15544321D01*
X12871964Y-15572893D01*
X12729107Y-15601464D01*
X12986250Y-15687179D02*
X13014821Y-15701464D01*
X13071964Y-15701464D01*
X13100536Y-15687179D01*
X13114821Y-15658607D01*
X13114821Y-15644321D01*
X13100536Y-15615750D01*
X13071964Y-15601464D01*
X13029107Y-15601464D01*
X13000536Y-15587179D01*
X12986250Y-15558607D01*
X12986250Y-15544321D01*
X13000536Y-15515750D01*
X13029107Y-15501464D01*
X13071964Y-15501464D01*
X13100536Y-15515750D01*
X13214821Y-15815750D02*
X13229107Y-15801464D01*
X13257678Y-15758607D01*
X13271964Y-15730036D01*
X13286250Y-15687179D01*
X13300536Y-15615750D01*
X13300536Y-15558607D01*
X13286250Y-15487179D01*
X13271964Y-15444321D01*
X13257678Y-15415750D01*
X13229107Y-15372893D01*
X13214821Y-15358607D01*
M02*
