M48
; DRILL file {KiCad (5.1.10)-1} date 01/23/23 12:40:15
; FORMAT={-:-/ absolute / metric / decimal}
; #@! TF.CreationDate,2023-01-23T12:40:15+01:00
; #@! TF.GenerationSoftware,Kicad,Pcbnew,(5.1.10)-1
; #@! TF.FileFunction,Plated,1,2,PTH
FMAT,2
METRIC
T1C0.400
T2C0.800
T3C1.000
%
G90
G05
T1
X69.056Y-89.694
X85.725Y-30.956
X88.9Y-37.306
X93.453Y-69.641
X93.453Y-107.741
X94.444Y-92.881
X94.456Y-54.769
X96.837Y-70.644
X96.837Y-108.744
X104.762Y-130.981
X114.3Y-108.744
X116.681Y-70.644
T2
X81.756Y-47.625
X81.756Y-55.245
X81.756Y-66.675
X81.756Y-74.295
X81.756Y-85.725
X81.756Y-93.345
X81.756Y-104.775
X81.756Y-112.395
X91.281Y-123.825
X91.281Y-131.445
X100.806Y-47.625
X100.806Y-55.245
X100.806Y-66.675
X100.806Y-74.295
X100.806Y-85.725
X100.806Y-93.345
X100.806Y-104.775
X100.806Y-112.395
X119.856Y-47.625
X119.856Y-55.245
X119.856Y-66.675
X119.856Y-74.295
X119.856Y-85.725
X119.856Y-93.345
X119.856Y-104.775
X119.856Y-112.395
X119.856Y-123.825
X119.856Y-131.445
X138.906Y-47.625
X138.906Y-55.245
X138.906Y-76.2
X138.906Y-83.82
X138.906Y-114.3
X138.906Y-121.92
T3
X65.087Y-72.072
X65.087Y-74.612
X65.087Y-77.153
X65.087Y-79.692
X65.087Y-82.233
X65.087Y-84.772
X65.087Y-87.312
X65.087Y-89.852
X65.087Y-92.392
X65.087Y-94.932
X65.087Y-97.472
X65.087Y-100.012
X65.087Y-102.552
X159.544Y-111.919
X159.544Y-114.459
T0
M30
