M48
; DRILL file {KiCad (5.1.10)-1} date 01/23/23 12:40:15
; FORMAT={-:-/ absolute / metric / decimal}
; #@! TF.CreationDate,2023-01-23T12:40:15+01:00
; #@! TF.GenerationSoftware,Kicad,Pcbnew,(5.1.10)-1
; #@! TF.FileFunction,NonPlated,1,2,NPTH
FMAT,2
METRIC
T1C1.702
T2C3.000
T3C3.988
%
G90
G05
T1
X84.614Y-47.625
X84.614Y-66.675
X84.614Y-85.725
X84.614Y-104.775
X94.139Y-123.825
X94.774Y-47.625
X94.774Y-66.675
X94.774Y-85.725
X94.774Y-104.775
X103.664Y-47.625
X103.664Y-66.675
X103.664Y-85.725
X103.664Y-104.775
X104.299Y-123.825
X113.824Y-47.625
X113.824Y-66.675
X113.824Y-85.725
X113.824Y-104.775
X122.714Y-47.625
X122.714Y-66.675
X122.714Y-85.725
X122.714Y-104.775
X122.714Y-123.825
X132.874Y-47.625
X132.874Y-66.675
X132.874Y-85.725
X132.874Y-104.775
X132.874Y-123.825
X141.764Y-47.625
X141.764Y-76.2
X141.764Y-114.3
X151.924Y-47.625
X151.924Y-76.2
X151.924Y-114.3
T2
X85.884Y-45.085
X85.884Y-64.135
X85.884Y-83.185
X85.884Y-102.235
X92.234Y-42.545
X92.234Y-61.595
X92.234Y-80.645
X92.234Y-99.695
X95.409Y-121.285
X101.759Y-118.745
X104.934Y-45.085
X104.934Y-64.135
X104.934Y-83.185
X104.934Y-102.235
X111.284Y-42.545
X111.284Y-61.595
X111.284Y-80.645
X111.284Y-99.695
X123.984Y-45.085
X123.984Y-64.135
X123.984Y-83.185
X123.984Y-102.235
X123.984Y-121.285
X130.334Y-42.545
X130.334Y-61.595
X130.334Y-80.645
X130.334Y-99.695
X130.334Y-118.745
X143.034Y-45.085
X143.034Y-73.66
X143.034Y-111.76
X149.384Y-42.545
X149.384Y-71.12
X149.384Y-109.22
T3
X89.694Y-47.625
X89.694Y-66.675
X89.694Y-85.725
X89.694Y-104.775
X99.219Y-123.825
X108.744Y-47.625
X108.744Y-66.675
X108.744Y-85.725
X108.744Y-104.775
X127.794Y-47.625
X127.794Y-66.675
X127.794Y-85.725
X127.794Y-104.775
X127.794Y-123.825
X146.844Y-47.625
X146.844Y-76.2
X146.844Y-114.3
T0
M30
