G04 #@! TF.GenerationSoftware,KiCad,Pcbnew,(5.1.10)-1*
G04 #@! TF.CreationDate,2023-01-23T12:40:00+01:00*
G04 #@! TF.ProjectId,numpad,6e756d70-6164-42e6-9b69-6361645f7063,rev?*
G04 #@! TF.SameCoordinates,Original*
G04 #@! TF.FileFunction,Soldermask,Top*
G04 #@! TF.FilePolarity,Negative*
%FSLAX46Y46*%
G04 Gerber Fmt 4.6, Leading zero omitted, Abs format (unit mm)*
G04 Created by KiCad (PCBNEW (5.1.10)-1) date 2023-01-23 12:40:00*
%MOMM*%
%LPD*%
G01*
G04 APERTURE LIST*
%ADD10C,1.701800*%
%ADD11C,3.987800*%
%ADD12C,3.000000*%
%ADD13R,1.800000X1.200000*%
%ADD14O,1.600000X1.600000*%
%ADD15R,1.600000X1.600000*%
%ADD16O,1.700000X1.700000*%
%ADD17R,1.700000X1.700000*%
G04 APERTURE END LIST*
D10*
X122713750Y-123825000D03*
X132873750Y-123825000D03*
D11*
X127793750Y-123825000D03*
D12*
X123983750Y-121285000D03*
X130333750Y-118745000D03*
D10*
X122713750Y-85725000D03*
X132873750Y-85725000D03*
D11*
X127793750Y-85725000D03*
D12*
X123983750Y-83185000D03*
X130333750Y-80645000D03*
D13*
X87293750Y-34143750D03*
X92093750Y-34143750D03*
X92093750Y-32543750D03*
X87293750Y-32543750D03*
X87293750Y-30943750D03*
X92093750Y-30943750D03*
D10*
X94138750Y-123825000D03*
X104298750Y-123825000D03*
D11*
X99218750Y-123825000D03*
D12*
X95408750Y-121285000D03*
X101758750Y-118745000D03*
D10*
X141763750Y-114300000D03*
X151923750Y-114300000D03*
D11*
X146843750Y-114300000D03*
D12*
X143033750Y-111760000D03*
X149383750Y-109220000D03*
D10*
X141763750Y-76200000D03*
X151923750Y-76200000D03*
D11*
X146843750Y-76200000D03*
D12*
X143033750Y-73660000D03*
X149383750Y-71120000D03*
D10*
X84613750Y-47625000D03*
X94773750Y-47625000D03*
D11*
X89693750Y-47625000D03*
D12*
X85883750Y-45085000D03*
X92233750Y-42545000D03*
D14*
X100806250Y-112395000D03*
D15*
X100806250Y-104775000D03*
D13*
X92093750Y-51581250D03*
X87293750Y-51581250D03*
X87293750Y-53181250D03*
X92093750Y-53181250D03*
X92093750Y-54781250D03*
X87293750Y-54781250D03*
D10*
X84613750Y-66675000D03*
X94773750Y-66675000D03*
D11*
X89693750Y-66675000D03*
D12*
X85883750Y-64135000D03*
X92233750Y-61595000D03*
D16*
X65087500Y-72072500D03*
X65087500Y-74612500D03*
X65087500Y-77152500D03*
X65087500Y-79692500D03*
X65087500Y-82232500D03*
X65087500Y-84772500D03*
X65087500Y-87312500D03*
X65087500Y-89852500D03*
X65087500Y-92392500D03*
X65087500Y-94932500D03*
X65087500Y-97472500D03*
X65087500Y-100012500D03*
D17*
X65087500Y-102552500D03*
D16*
X159543750Y-114458750D03*
D17*
X159543750Y-111918750D03*
D14*
X138906250Y-55245000D03*
D15*
X138906250Y-47625000D03*
D14*
X81756250Y-55245000D03*
D15*
X81756250Y-47625000D03*
D14*
X119856250Y-55245000D03*
D15*
X119856250Y-47625000D03*
D14*
X138906250Y-121920000D03*
D15*
X138906250Y-114300000D03*
D14*
X119856250Y-131445000D03*
D15*
X119856250Y-123825000D03*
D14*
X100806250Y-55245000D03*
D15*
X100806250Y-47625000D03*
D14*
X138906250Y-83820000D03*
D15*
X138906250Y-76200000D03*
D14*
X119856250Y-74295000D03*
D15*
X119856250Y-66675000D03*
D14*
X100806250Y-74295000D03*
D15*
X100806250Y-66675000D03*
D14*
X81756250Y-74295000D03*
D15*
X81756250Y-66675000D03*
D14*
X119856250Y-93345000D03*
D15*
X119856250Y-85725000D03*
D14*
X100806250Y-93345000D03*
D15*
X100806250Y-85725000D03*
D14*
X81756250Y-93345000D03*
D15*
X81756250Y-85725000D03*
D14*
X119856250Y-112395000D03*
D15*
X119856250Y-104775000D03*
D14*
X81756250Y-112395000D03*
D15*
X81756250Y-104775000D03*
D14*
X91281250Y-131445000D03*
D15*
X91281250Y-123825000D03*
D13*
X149243750Y-51581250D03*
X144443750Y-51581250D03*
X144443750Y-53181250D03*
X149243750Y-53181250D03*
X149243750Y-54781250D03*
X144443750Y-54781250D03*
X130193750Y-51581250D03*
X125393750Y-51581250D03*
X125393750Y-53181250D03*
X130193750Y-53181250D03*
X130193750Y-54781250D03*
X125393750Y-54781250D03*
X149243750Y-118256250D03*
X144443750Y-118256250D03*
X144443750Y-119856250D03*
X149243750Y-119856250D03*
X149243750Y-121456250D03*
X144443750Y-121456250D03*
X130193750Y-127781250D03*
X125393750Y-127781250D03*
X125393750Y-129381250D03*
X130193750Y-129381250D03*
X130193750Y-130981250D03*
X125393750Y-130981250D03*
X111143750Y-51581250D03*
X106343750Y-51581250D03*
X106343750Y-53181250D03*
X111143750Y-53181250D03*
X111143750Y-54781250D03*
X106343750Y-54781250D03*
X149243750Y-80156250D03*
X144443750Y-80156250D03*
X144443750Y-81756250D03*
X149243750Y-81756250D03*
X149243750Y-83356250D03*
X144443750Y-83356250D03*
X125393750Y-73831250D03*
X130193750Y-73831250D03*
X130193750Y-72231250D03*
X125393750Y-72231250D03*
X125393750Y-70631250D03*
X130193750Y-70631250D03*
X106343750Y-73831250D03*
X111143750Y-73831250D03*
X111143750Y-72231250D03*
X106343750Y-72231250D03*
X106343750Y-70631250D03*
X111143750Y-70631250D03*
X87293750Y-73831250D03*
X92093750Y-73831250D03*
X92093750Y-72231250D03*
X87293750Y-72231250D03*
X87293750Y-70631250D03*
X92093750Y-70631250D03*
X130193750Y-89681250D03*
X125393750Y-89681250D03*
X125393750Y-91281250D03*
X130193750Y-91281250D03*
X130193750Y-92881250D03*
X125393750Y-92881250D03*
X111143750Y-89681250D03*
X106343750Y-89681250D03*
X106343750Y-91281250D03*
X111143750Y-91281250D03*
X111143750Y-92881250D03*
X106343750Y-92881250D03*
X92093750Y-89681250D03*
X87293750Y-89681250D03*
X87293750Y-91281250D03*
X92093750Y-91281250D03*
X92093750Y-92881250D03*
X87293750Y-92881250D03*
X125393750Y-111931250D03*
X130193750Y-111931250D03*
X130193750Y-110331250D03*
X125393750Y-110331250D03*
X125393750Y-108731250D03*
X130193750Y-108731250D03*
X106343750Y-111931250D03*
X111143750Y-111931250D03*
X111143750Y-110331250D03*
X106343750Y-110331250D03*
X106343750Y-108731250D03*
X111143750Y-108731250D03*
X87293750Y-111931250D03*
X92093750Y-111931250D03*
X92093750Y-110331250D03*
X87293750Y-110331250D03*
X87293750Y-108731250D03*
X92093750Y-108731250D03*
X101618750Y-127781250D03*
X96818750Y-127781250D03*
X96818750Y-129381250D03*
X101618750Y-129381250D03*
X101618750Y-130981250D03*
X96818750Y-130981250D03*
D10*
X141763750Y-47625000D03*
X151923750Y-47625000D03*
D11*
X146843750Y-47625000D03*
D12*
X143033750Y-45085000D03*
X149383750Y-42545000D03*
D10*
X122713750Y-47625000D03*
X132873750Y-47625000D03*
D11*
X127793750Y-47625000D03*
D12*
X123983750Y-45085000D03*
X130333750Y-42545000D03*
D10*
X103663750Y-47625000D03*
X113823750Y-47625000D03*
D11*
X108743750Y-47625000D03*
D12*
X104933750Y-45085000D03*
X111283750Y-42545000D03*
D10*
X122713750Y-66675000D03*
X132873750Y-66675000D03*
D11*
X127793750Y-66675000D03*
D12*
X123983750Y-64135000D03*
X130333750Y-61595000D03*
D10*
X103663750Y-66675000D03*
X113823750Y-66675000D03*
D11*
X108743750Y-66675000D03*
D12*
X104933750Y-64135000D03*
X111283750Y-61595000D03*
D10*
X103663750Y-85725000D03*
X113823750Y-85725000D03*
D11*
X108743750Y-85725000D03*
D12*
X104933750Y-83185000D03*
X111283750Y-80645000D03*
D10*
X84613750Y-85725000D03*
X94773750Y-85725000D03*
D11*
X89693750Y-85725000D03*
D12*
X85883750Y-83185000D03*
X92233750Y-80645000D03*
D10*
X122713750Y-104775000D03*
X132873750Y-104775000D03*
D11*
X127793750Y-104775000D03*
D12*
X123983750Y-102235000D03*
X130333750Y-99695000D03*
D10*
X103663750Y-104775000D03*
X113823750Y-104775000D03*
D11*
X108743750Y-104775000D03*
D12*
X104933750Y-102235000D03*
X111283750Y-99695000D03*
D10*
X84613750Y-104775000D03*
X94773750Y-104775000D03*
D11*
X89693750Y-104775000D03*
D12*
X85883750Y-102235000D03*
X92233750Y-99695000D03*
M02*
