M48
; DRILL file {KiCad 7.0.2} date Tue Nov  7 01:17:31 2023
; FORMAT={-:-/ absolute / metric / decimal}
; #@! TF.CreationDate,2023-11-07T01:17:31+01:00
; #@! TF.GenerationSoftware,Kicad,Pcbnew,7.0.2
; #@! TF.FileFunction,NonPlated,1,2,NPTH
FMAT,2
METRIC
; #@! TA.AperFunction,NonPlated,NPTH,ComponentDrill
T1C1.750
; #@! TA.AperFunction,NonPlated,NPTH,ComponentDrill
T2C3.048
; #@! TA.AperFunction,NonPlated,NPTH,ComponentDrill
T3C3.050
; #@! TA.AperFunction,NonPlated,NPTH,ComponentDrill
T4C3.988
; #@! TA.AperFunction,NonPlated,NPTH,ComponentDrill
T5C4.000
%
G90
G05
T1
X40.378Y-90.488
X40.378Y-61.913
X42.779Y-166.687
X45.14Y-109.538
X47.522Y-128.588
X50.538Y-90.488
X50.538Y-61.913
X52.284Y-147.638
X52.939Y-166.687
X55.3Y-109.538
X57.682Y-128.588
X59.408Y-90.488
X62.444Y-147.638
X66.552Y-166.687
X68.953Y-109.538
X69.568Y-90.488
X73.715Y-128.588
X76.712Y-166.687
X78.478Y-61.913
X78.478Y-90.488
X79.113Y-109.538
X83.24Y-147.638
X83.875Y-128.588
X88.003Y-109.538
X88.638Y-61.913
X88.638Y-90.488
X90.364Y-166.687
X92.765Y-128.588
X93.4Y-147.638
X97.528Y-61.913
X97.528Y-90.488
X98.163Y-109.538
X100.524Y-166.687
X102.29Y-147.638
X102.925Y-128.588
X107.053Y-109.538
X107.688Y-61.913
X107.688Y-90.488
X111.815Y-128.588
X112.45Y-147.638
X116.578Y-61.913
X116.578Y-90.488
X117.213Y-109.538
X121.34Y-147.638
X121.975Y-128.588
X126.103Y-109.538
X126.738Y-61.913
X126.738Y-90.488
X130.865Y-128.588
X131.5Y-147.638
X135.628Y-61.913
X135.628Y-90.488
X136.263Y-109.538
X140.39Y-147.638
X141.025Y-128.588
X145.153Y-109.538
X145.788Y-61.913
X145.788Y-90.488
X149.915Y-128.588
X150.55Y-147.638
X154.678Y-90.488
X155.313Y-109.538
X159.44Y-147.638
X160.075Y-128.588
X161.802Y-166.687
X164.203Y-61.913
X164.203Y-109.538
X164.838Y-90.488
X168.965Y-128.588
X169.6Y-147.638
X171.962Y-166.687
X173.728Y-90.488
X174.363Y-61.913
X174.363Y-109.538
X178.49Y-147.638
X179.125Y-128.588
X183.253Y-61.913
X183.253Y-109.538
X183.888Y-90.488
X188.015Y-128.588
X188.65Y-147.638
X192.778Y-90.488
X193.413Y-61.913
X193.413Y-109.538
X197.54Y-147.638
X198.175Y-128.588
X202.303Y-61.913
X202.303Y-109.538
X202.938Y-90.488
X207.065Y-128.588
X207.7Y-147.638
X211.828Y-90.488
X212.463Y-61.913
X212.463Y-109.538
X216.59Y-147.638
X217.225Y-128.588
X221.353Y-61.913
X221.353Y-109.538
X221.988Y-90.488
X226.116Y-128.588
X226.75Y-147.638
X230.878Y-90.488
X231.513Y-61.913
X231.513Y-109.538
X233.239Y-166.687
X235.641Y-147.638
X236.276Y-128.588
X240.403Y-109.538
X241.038Y-90.488
X243.399Y-166.687
X245.166Y-128.588
X245.801Y-147.638
X249.928Y-61.913
X249.928Y-90.488
X250.563Y-109.538
X254.691Y-147.638
X255.326Y-128.588
X257.052Y-166.687
X259.453Y-109.538
X260.088Y-61.913
X260.088Y-90.488
X264.216Y-128.588
X264.851Y-147.638
X267.212Y-166.687
X268.978Y-61.913
X268.978Y-90.488
X269.613Y-109.538
X274.376Y-128.588
X278.503Y-109.538
X279.138Y-61.913
X279.138Y-90.488
X280.864Y-166.687
X288.028Y-61.913
X288.663Y-109.538
X290.409Y-147.638
X291.024Y-166.687
X295.172Y-128.588
X297.553Y-90.488
X298.188Y-61.913
X300.569Y-147.638
X302.316Y-109.538
X304.676Y-166.687
X305.332Y-128.588
X307.078Y-61.913
X307.713Y-90.488
X312.476Y-109.538
X314.836Y-166.687
X317.238Y-61.913
X330.891Y-61.913
X330.891Y-90.488
X330.891Y-109.538
X330.891Y-166.688
X341.051Y-61.913
X341.051Y-90.488
X341.051Y-109.538
X341.051Y-166.688
X349.941Y-61.913
X349.941Y-90.488
X349.941Y-109.538
X349.941Y-147.638
X349.941Y-166.688
X360.101Y-61.913
X360.101Y-90.488
X360.101Y-109.538
X360.101Y-147.638
X360.101Y-166.688
X368.991Y-61.913
X368.991Y-90.488
X368.991Y-109.538
X368.991Y-166.688
X379.151Y-61.913
X379.151Y-90.488
X379.151Y-109.538
X379.151Y-166.688
T2
X45.426Y-140.653
X69.302Y-140.653
X116.882Y-159.702
X216.882Y-159.702
X283.551Y-140.653
X288.314Y-121.603
X290.695Y-83.503
X307.427Y-140.653
X312.19Y-121.603
X314.571Y-83.503
T3
X42.918Y-95.568
X42.918Y-66.993
X45.319Y-171.767
X47.68Y-114.618
X49.268Y-93.028
X49.268Y-64.453
X50.062Y-133.668
X51.669Y-169.227
X54.03Y-112.078
X54.824Y-152.718
X56.412Y-131.128
X61.174Y-150.178
X61.948Y-95.568
X68.298Y-93.028
X69.092Y-171.767
X71.493Y-114.618
X75.442Y-169.227
X76.255Y-133.668
X77.843Y-112.078
X81.018Y-66.993
X81.018Y-95.568
X82.605Y-131.128
X85.78Y-152.718
X87.368Y-64.453
X87.368Y-93.028
X90.543Y-114.618
X92.13Y-150.178
X92.904Y-171.767
X95.305Y-133.668
X96.893Y-112.078
X99.254Y-169.227
X100.068Y-66.993
X100.068Y-95.568
X101.655Y-131.128
X104.83Y-152.718
X106.418Y-64.453
X106.418Y-93.028
X109.593Y-114.618
X111.18Y-150.178
X114.355Y-133.668
X115.943Y-112.078
X119.118Y-66.993
X119.118Y-95.568
X120.705Y-131.128
X123.88Y-152.718
X125.468Y-64.453
X125.468Y-93.028
X128.643Y-114.618
X130.23Y-150.178
X133.405Y-133.668
X134.993Y-112.078
X138.168Y-66.993
X138.168Y-95.568
X139.755Y-131.128
X142.93Y-152.718
X144.518Y-64.453
X144.518Y-93.028
X147.693Y-114.618
X149.28Y-150.178
X152.455Y-133.668
X154.043Y-112.078
X157.218Y-95.568
X158.805Y-131.128
X161.98Y-152.718
X163.568Y-93.028
X164.342Y-171.767
X166.743Y-66.993
X166.743Y-114.618
X168.33Y-150.178
X170.692Y-169.227
X171.505Y-133.668
X173.093Y-64.453
X173.093Y-112.078
X176.268Y-95.568
X177.855Y-131.128
X181.03Y-152.718
X182.618Y-93.028
X185.793Y-66.993
X185.793Y-114.618
X187.38Y-150.178
X190.555Y-133.668
X192.143Y-64.453
X192.143Y-112.078
X195.318Y-95.568
X196.905Y-131.128
X200.08Y-152.718
X201.668Y-93.028
X204.843Y-66.993
X204.843Y-114.618
X206.43Y-150.178
X209.605Y-133.668
X211.193Y-64.453
X211.193Y-112.078
X214.368Y-95.568
X215.955Y-131.128
X219.13Y-152.718
X220.718Y-93.028
X223.893Y-66.993
X223.893Y-114.618
X225.48Y-150.178
X228.656Y-133.668
X230.243Y-64.453
X230.243Y-112.078
X233.418Y-95.568
X235.006Y-131.128
X235.779Y-171.767
X238.181Y-152.718
X239.768Y-93.028
X242.129Y-169.227
X242.943Y-114.618
X244.531Y-150.178
X247.706Y-133.668
X249.293Y-112.078
X252.468Y-66.993
X252.468Y-95.568
X254.056Y-131.128
X257.231Y-152.718
X258.818Y-64.453
X258.818Y-93.028
X259.592Y-171.767
X261.993Y-114.618
X263.581Y-150.178
X265.942Y-169.227
X266.756Y-133.668
X268.343Y-112.078
X271.518Y-66.993
X271.518Y-95.568
X273.106Y-131.128
X277.868Y-64.453
X277.868Y-93.028
X281.043Y-114.618
X283.404Y-171.767
X287.393Y-112.078
X289.754Y-169.227
X290.568Y-66.993
X292.949Y-152.718
X296.918Y-64.453
X297.712Y-133.668
X299.299Y-150.178
X300.093Y-95.568
X304.062Y-131.128
X304.856Y-114.618
X306.443Y-93.028
X307.216Y-171.767
X309.618Y-66.993
X311.206Y-112.078
X313.566Y-169.227
X315.968Y-64.453
X333.431Y-66.993
X333.431Y-95.568
X333.431Y-114.618
X333.431Y-171.768
X339.781Y-64.453
X339.781Y-93.028
X339.781Y-112.078
X339.781Y-169.228
X352.481Y-66.993
X352.481Y-95.568
X352.481Y-114.618
X352.481Y-152.718
X352.481Y-171.768
X358.831Y-64.453
X358.831Y-93.028
X358.831Y-112.078
X358.831Y-150.178
X358.831Y-169.228
X371.531Y-66.993
X371.531Y-95.568
X371.531Y-114.618
X371.531Y-171.768
X377.881Y-64.453
X377.881Y-93.028
X377.881Y-112.078
X377.881Y-169.228
T4
X45.426Y-155.863
X69.302Y-155.863
X116.882Y-174.912
X216.882Y-174.912
X283.551Y-155.863
X288.314Y-136.813
X290.695Y-98.713
X307.427Y-155.863
X312.19Y-136.813
X314.571Y-98.713
T5
X45.458Y-90.488
X45.458Y-61.913
X47.859Y-166.687
X50.22Y-109.538
X52.602Y-128.588
X57.364Y-147.638
X64.488Y-90.488
X71.632Y-166.687
X74.033Y-109.538
X78.795Y-128.588
X83.558Y-61.913
X83.558Y-90.488
X88.32Y-147.638
X93.083Y-109.538
X95.444Y-166.687
X97.845Y-128.588
X102.608Y-61.913
X102.608Y-90.488
X107.37Y-147.638
X112.133Y-109.538
X116.895Y-128.588
X121.658Y-61.913
X121.658Y-90.488
X126.42Y-147.638
X131.183Y-109.538
X135.945Y-128.588
X140.708Y-61.913
X140.708Y-90.488
X145.47Y-147.638
X150.233Y-109.538
X154.995Y-128.588
X159.758Y-90.488
X164.52Y-147.638
X166.882Y-166.687
X169.283Y-61.913
X169.283Y-109.538
X174.045Y-128.588
X178.808Y-90.488
X183.57Y-147.638
X188.333Y-61.913
X188.333Y-109.538
X193.095Y-128.588
X197.858Y-90.488
X202.62Y-147.638
X207.383Y-61.913
X207.383Y-109.538
X212.145Y-128.588
X216.908Y-90.488
X221.67Y-147.638
X226.433Y-61.913
X226.433Y-109.538
X231.196Y-128.588
X235.958Y-90.488
X238.319Y-166.687
X240.721Y-147.638
X245.483Y-109.538
X250.246Y-128.588
X255.008Y-61.913
X255.008Y-90.488
X259.771Y-147.638
X262.132Y-166.687
X264.533Y-109.538
X269.296Y-128.588
X274.058Y-61.913
X274.058Y-90.488
X283.583Y-109.538
X285.944Y-166.687
X293.108Y-61.913
X295.489Y-147.638
X300.252Y-128.588
X302.633Y-90.488
X307.396Y-109.538
X309.756Y-166.687
X312.158Y-61.913
X335.971Y-61.913
X335.971Y-90.488
X335.971Y-109.538
X335.971Y-166.688
X355.021Y-61.913
X355.021Y-90.488
X355.021Y-109.538
X355.021Y-147.638
X355.021Y-166.688
X374.071Y-61.913
X374.071Y-90.488
X374.071Y-109.538
X374.071Y-166.688
T0
M30
