%TF.GenerationSoftware,KiCad,Pcbnew,7.0.2*%
%TF.CreationDate,2023-11-07T01:18:50+01:00*%
%TF.ProjectId,TKLTheSecond,544b4c54-6865-4536-9563-6f6e642e6b69,rev?*%
%TF.SameCoordinates,Original*%
%TF.FileFunction,Drillmap*%
%TF.FilePolarity,Positive*%
%FSLAX45Y45*%
G04 Gerber Fmt 4.5, Leading zero omitted, Abs format (unit mm)*
G04 Created by KiCad (PCBNEW 7.0.2) date 2023-11-07 01:18:50*
%MOMM*%
%LPD*%
G01*
G04 APERTURE LIST*
%ADD10C,0.100000*%
%ADD11C,0.200000*%
%ADD12C,0.175000*%
%ADD13C,0.304800*%
%ADD14C,0.305000*%
%ADD15C,0.398780*%
%ADD16C,0.400000*%
G04 APERTURE END LIST*
D10*
X3031200Y-3810000D02*
X39031200Y-3810000D01*
X39031200Y-17818000D01*
X3031200Y-17818000D01*
X3031200Y-3810000D01*
D11*
D12*
X3950283Y-8961254D02*
X4125283Y-9136254D01*
X4125283Y-8961254D02*
X3950283Y-9136254D01*
X3950285Y-6103755D02*
X4125285Y-6278755D01*
X4125285Y-6103755D02*
X3950285Y-6278755D01*
X4190390Y-16581244D02*
X4365391Y-16756244D01*
X4365391Y-16581244D02*
X4190390Y-16756244D01*
X4426533Y-10866254D02*
X4601533Y-11041254D01*
X4601533Y-10866254D02*
X4426533Y-11041254D01*
X4664658Y-12771254D02*
X4839658Y-12946254D01*
X4839658Y-12771254D02*
X4664658Y-12946254D01*
X4966283Y-8961254D02*
X5141283Y-9136254D01*
X5141283Y-8961254D02*
X4966283Y-9136254D01*
X4966285Y-6103755D02*
X5141285Y-6278755D01*
X5141285Y-6103755D02*
X4966285Y-6278755D01*
X5140908Y-14676254D02*
X5315908Y-14851254D01*
X5315908Y-14676254D02*
X5140908Y-14851254D01*
X5206391Y-16581244D02*
X5381391Y-16756244D01*
X5381391Y-16581244D02*
X5206391Y-16756244D01*
X5442533Y-10866254D02*
X5617533Y-11041254D01*
X5617533Y-10866254D02*
X5442533Y-11041254D01*
X5680658Y-12771254D02*
X5855658Y-12946254D01*
X5855658Y-12771254D02*
X5680658Y-12946254D01*
X5853294Y-8961250D02*
X6028294Y-9136250D01*
X6028294Y-8961250D02*
X5853294Y-9136250D01*
X6156908Y-14676254D02*
X6331908Y-14851254D01*
X6331908Y-14676254D02*
X6156908Y-14851254D01*
X6567669Y-16581244D02*
X6742669Y-16756244D01*
X6742669Y-16581244D02*
X6567669Y-16756244D01*
X6807787Y-10866259D02*
X6982787Y-11041259D01*
X6982787Y-10866259D02*
X6807787Y-11041259D01*
X6869294Y-8961250D02*
X7044294Y-9136250D01*
X7044294Y-8961250D02*
X6869294Y-9136250D01*
X7284038Y-12771261D02*
X7459038Y-12946261D01*
X7459038Y-12771261D02*
X7284038Y-12946261D01*
X7583669Y-16581244D02*
X7758669Y-16756244D01*
X7758669Y-16581244D02*
X7583669Y-16756244D01*
X7760288Y-6103755D02*
X7935288Y-6278755D01*
X7935288Y-6103755D02*
X7760288Y-6278755D01*
X7760288Y-8961258D02*
X7935288Y-9136258D01*
X7935288Y-8961258D02*
X7760288Y-9136258D01*
X7823787Y-10866259D02*
X7998787Y-11041259D01*
X7998787Y-10866259D02*
X7823787Y-11041259D01*
X8236538Y-14676262D02*
X8411539Y-14851262D01*
X8411539Y-14676262D02*
X8236538Y-14851262D01*
X8300038Y-12771261D02*
X8475038Y-12946261D01*
X8475038Y-12771261D02*
X8300038Y-12946261D01*
X8712789Y-10866259D02*
X8887789Y-11041259D01*
X8887789Y-10866259D02*
X8712789Y-11041259D01*
X8776288Y-6103755D02*
X8951288Y-6278755D01*
X8951288Y-6103755D02*
X8776288Y-6278755D01*
X8776288Y-8961258D02*
X8951288Y-9136258D01*
X8951288Y-8961258D02*
X8776288Y-9136258D01*
X8948917Y-16581244D02*
X9123917Y-16756244D01*
X9123917Y-16581244D02*
X8948917Y-16756244D01*
X9189039Y-12771261D02*
X9364039Y-12946261D01*
X9364039Y-12771261D02*
X9189039Y-12946261D01*
X9252539Y-14676262D02*
X9427539Y-14851262D01*
X9427539Y-14676262D02*
X9252539Y-14851262D01*
X9665290Y-6103755D02*
X9840290Y-6278755D01*
X9840290Y-6103755D02*
X9665290Y-6278755D01*
X9665290Y-8961258D02*
X9840290Y-9136258D01*
X9840290Y-8961258D02*
X9665290Y-9136258D01*
X9728789Y-10866259D02*
X9903789Y-11041259D01*
X9903789Y-10866259D02*
X9728789Y-11041259D01*
X9964917Y-16581244D02*
X10139917Y-16756244D01*
X10139917Y-16581244D02*
X9964917Y-16756244D01*
X10141540Y-14676262D02*
X10316540Y-14851262D01*
X10316540Y-14676262D02*
X10141540Y-14851262D01*
X10205039Y-12771261D02*
X10380039Y-12946261D01*
X10380039Y-12771261D02*
X10205039Y-12946261D01*
X10617791Y-10866259D02*
X10792791Y-11041259D01*
X10792791Y-10866259D02*
X10617791Y-11041259D01*
X10681290Y-6103755D02*
X10856290Y-6278755D01*
X10856290Y-6103755D02*
X10681290Y-6278755D01*
X10681290Y-8961258D02*
X10856290Y-9136258D01*
X10856290Y-8961258D02*
X10681290Y-9136258D01*
X11094041Y-12771261D02*
X11269041Y-12946261D01*
X11269041Y-12771261D02*
X11094041Y-12946261D01*
X11157540Y-14676262D02*
X11332540Y-14851262D01*
X11332540Y-14676262D02*
X11157540Y-14851262D01*
X11570291Y-6103755D02*
X11745291Y-6278755D01*
X11745291Y-6103755D02*
X11570291Y-6278755D01*
X11570291Y-8961258D02*
X11745291Y-9136258D01*
X11745291Y-8961258D02*
X11570291Y-9136258D01*
X11633790Y-10866259D02*
X11808790Y-11041259D01*
X11808790Y-10866259D02*
X11633790Y-11041259D01*
X12046542Y-14676262D02*
X12221542Y-14851262D01*
X12221542Y-14676262D02*
X12046542Y-14851262D01*
X12110041Y-12771261D02*
X12285041Y-12946261D01*
X12285041Y-12771261D02*
X12110041Y-12946261D01*
X12522792Y-10866259D02*
X12697792Y-11041259D01*
X12697792Y-10866259D02*
X12522792Y-11041259D01*
X12586291Y-6103755D02*
X12761291Y-6278755D01*
X12761291Y-6103755D02*
X12586291Y-6278755D01*
X12586291Y-8961258D02*
X12761291Y-9136258D01*
X12761291Y-8961258D02*
X12586291Y-9136258D01*
X12999042Y-12771261D02*
X13174042Y-12946261D01*
X13174042Y-12771261D02*
X12999042Y-12946261D01*
X13062542Y-14676262D02*
X13237542Y-14851262D01*
X13237542Y-14676262D02*
X13062542Y-14851262D01*
X13475293Y-6103755D02*
X13650293Y-6278755D01*
X13650293Y-6103755D02*
X13475293Y-6278755D01*
X13475293Y-8961258D02*
X13650293Y-9136258D01*
X13650293Y-8961258D02*
X13475293Y-9136258D01*
X13538792Y-10866259D02*
X13713792Y-11041259D01*
X13713792Y-10866259D02*
X13538792Y-11041259D01*
X13951543Y-14676262D02*
X14126543Y-14851262D01*
X14126543Y-14676262D02*
X13951543Y-14851262D01*
X14015042Y-12771261D02*
X14190042Y-12946261D01*
X14190042Y-12771261D02*
X14015042Y-12946261D01*
X14427794Y-10866259D02*
X14602794Y-11041259D01*
X14602794Y-10866259D02*
X14427794Y-11041259D01*
X14491293Y-6103755D02*
X14666293Y-6278755D01*
X14666293Y-6103755D02*
X14491293Y-6278755D01*
X14491293Y-8961258D02*
X14666293Y-9136258D01*
X14666293Y-8961258D02*
X14491293Y-9136258D01*
X14904044Y-12771261D02*
X15079044Y-12946261D01*
X15079044Y-12771261D02*
X14904044Y-12946261D01*
X14967543Y-14676262D02*
X15142543Y-14851262D01*
X15142543Y-14676262D02*
X14967543Y-14851262D01*
X15380294Y-8961258D02*
X15555294Y-9136258D01*
X15555294Y-8961258D02*
X15380294Y-9136258D01*
X15443794Y-10866259D02*
X15618794Y-11041259D01*
X15618794Y-10866259D02*
X15443794Y-11041259D01*
X15856545Y-14676262D02*
X16031545Y-14851262D01*
X16031545Y-14676262D02*
X15856545Y-14851262D01*
X15920044Y-12771261D02*
X16095044Y-12946261D01*
X16095044Y-12771261D02*
X15920044Y-12946261D01*
X16092661Y-16581244D02*
X16267661Y-16756244D01*
X16267661Y-16581244D02*
X16092661Y-16756244D01*
X16332795Y-6103755D02*
X16507795Y-6278755D01*
X16507795Y-6103755D02*
X16332795Y-6278755D01*
X16332795Y-10866259D02*
X16507795Y-11041259D01*
X16507795Y-10866259D02*
X16332795Y-11041259D01*
X16396294Y-8961258D02*
X16571294Y-9136258D01*
X16571294Y-8961258D02*
X16396294Y-9136258D01*
X16809046Y-12771261D02*
X16984046Y-12946261D01*
X16984046Y-12771261D02*
X16809046Y-12946261D01*
X16872545Y-14676262D02*
X17047545Y-14851262D01*
X17047545Y-14676262D02*
X16872545Y-14851262D01*
X17108661Y-16581244D02*
X17283661Y-16756244D01*
X17283661Y-16581244D02*
X17108661Y-16756244D01*
X17285296Y-8961258D02*
X17460296Y-9136258D01*
X17460296Y-8961258D02*
X17285296Y-9136258D01*
X17348795Y-6103755D02*
X17523795Y-6278755D01*
X17523795Y-6103755D02*
X17348795Y-6278755D01*
X17348795Y-10866259D02*
X17523795Y-11041259D01*
X17523795Y-10866259D02*
X17348795Y-11041259D01*
X17761547Y-14676262D02*
X17936547Y-14851262D01*
X17936547Y-14676262D02*
X17761547Y-14851262D01*
X17825046Y-12771261D02*
X18000046Y-12946261D01*
X18000046Y-12771261D02*
X17825046Y-12946261D01*
X18237797Y-6103755D02*
X18412797Y-6278755D01*
X18412797Y-6103755D02*
X18237797Y-6278755D01*
X18237797Y-10866259D02*
X18412797Y-11041259D01*
X18412797Y-10866259D02*
X18237797Y-11041259D01*
X18301296Y-8961258D02*
X18476296Y-9136258D01*
X18476296Y-8961258D02*
X18301296Y-9136258D01*
X18714047Y-12771261D02*
X18889047Y-12946261D01*
X18889047Y-12771261D02*
X18714047Y-12946261D01*
X18777547Y-14676262D02*
X18952547Y-14851262D01*
X18952547Y-14676262D02*
X18777547Y-14851262D01*
X19190298Y-8961258D02*
X19365298Y-9136258D01*
X19365298Y-8961258D02*
X19190298Y-9136258D01*
X19253797Y-6103755D02*
X19428797Y-6278755D01*
X19428797Y-6103755D02*
X19253797Y-6278755D01*
X19253797Y-10866259D02*
X19428797Y-11041259D01*
X19428797Y-10866259D02*
X19253797Y-11041259D01*
X19666548Y-14676262D02*
X19841548Y-14851262D01*
X19841548Y-14676262D02*
X19666548Y-14851262D01*
X19730047Y-12771261D02*
X19905047Y-12946261D01*
X19905047Y-12771261D02*
X19730047Y-12946261D01*
X20142799Y-6103755D02*
X20317799Y-6278755D01*
X20317799Y-6103755D02*
X20142799Y-6278755D01*
X20142799Y-10866259D02*
X20317799Y-11041259D01*
X20317799Y-10866259D02*
X20142799Y-11041259D01*
X20206298Y-8961258D02*
X20381298Y-9136258D01*
X20381298Y-8961258D02*
X20206298Y-9136258D01*
X20619049Y-12771261D02*
X20794049Y-12946261D01*
X20794049Y-12771261D02*
X20619049Y-12946261D01*
X20682548Y-14676262D02*
X20857548Y-14851262D01*
X20857548Y-14676262D02*
X20682548Y-14851262D01*
X21095299Y-8961258D02*
X21270299Y-9136258D01*
X21270299Y-8961258D02*
X21095299Y-9136258D01*
X21158799Y-6103755D02*
X21333799Y-6278755D01*
X21333799Y-6103755D02*
X21158799Y-6278755D01*
X21158799Y-10866259D02*
X21333799Y-11041259D01*
X21333799Y-10866259D02*
X21158799Y-11041259D01*
X21571550Y-14676262D02*
X21746550Y-14851262D01*
X21746550Y-14676262D02*
X21571550Y-14851262D01*
X21635049Y-12771261D02*
X21810049Y-12946261D01*
X21810049Y-12771261D02*
X21635049Y-12946261D01*
X22047800Y-6103755D02*
X22222800Y-6278755D01*
X22222800Y-6103755D02*
X22047800Y-6278755D01*
X22047800Y-10866259D02*
X22222800Y-11041259D01*
X22222800Y-10866259D02*
X22047800Y-11041259D01*
X22111299Y-8961258D02*
X22286299Y-9136258D01*
X22286299Y-8961258D02*
X22111299Y-9136258D01*
X22524050Y-12771261D02*
X22699050Y-12946261D01*
X22699050Y-12771261D02*
X22524050Y-12946261D01*
X22587550Y-14676262D02*
X22762550Y-14851262D01*
X22762550Y-14676262D02*
X22587550Y-14851262D01*
X23000301Y-8961258D02*
X23175301Y-9136258D01*
X23175301Y-8961258D02*
X23000301Y-9136258D01*
X23063800Y-6103755D02*
X23238800Y-6278755D01*
X23238800Y-6103755D02*
X23063800Y-6278755D01*
X23063800Y-10866259D02*
X23238800Y-11041259D01*
X23238800Y-10866259D02*
X23063800Y-11041259D01*
X23236405Y-16581244D02*
X23411405Y-16756244D01*
X23411405Y-16581244D02*
X23236405Y-16756244D01*
X23476551Y-14676262D02*
X23651551Y-14851262D01*
X23651551Y-14676262D02*
X23476551Y-14851262D01*
X23540050Y-12771261D02*
X23715050Y-12946261D01*
X23715050Y-12771261D02*
X23540050Y-12946261D01*
X23952802Y-10866259D02*
X24127802Y-11041259D01*
X24127802Y-10866259D02*
X23952802Y-11041259D01*
X24016301Y-8961258D02*
X24191301Y-9136258D01*
X24191301Y-8961258D02*
X24016301Y-9136258D01*
X24252405Y-16581244D02*
X24427405Y-16756244D01*
X24427405Y-16581244D02*
X24252405Y-16756244D01*
X24429052Y-12771261D02*
X24604052Y-12946261D01*
X24604052Y-12771261D02*
X24429052Y-12946261D01*
X24492551Y-14676262D02*
X24667551Y-14851262D01*
X24667551Y-14676262D02*
X24492551Y-14851262D01*
X24905302Y-6103755D02*
X25080302Y-6278755D01*
X25080302Y-6103755D02*
X24905302Y-6278755D01*
X24905302Y-8961258D02*
X25080302Y-9136258D01*
X25080302Y-8961258D02*
X24905302Y-9136258D01*
X24968802Y-10866259D02*
X25143802Y-11041259D01*
X25143802Y-10866259D02*
X24968802Y-11041259D01*
X25381553Y-14676262D02*
X25556553Y-14851262D01*
X25556553Y-14676262D02*
X25381553Y-14851262D01*
X25445052Y-12771261D02*
X25620052Y-12946261D01*
X25620052Y-12771261D02*
X25445052Y-12946261D01*
X25617653Y-16581244D02*
X25792653Y-16756244D01*
X25792653Y-16581244D02*
X25617653Y-16756244D01*
X25857803Y-10866259D02*
X26032803Y-11041259D01*
X26032803Y-10866259D02*
X25857803Y-11041259D01*
X25921302Y-6103755D02*
X26096302Y-6278755D01*
X26096302Y-6103755D02*
X25921302Y-6278755D01*
X25921302Y-8961258D02*
X26096302Y-9136258D01*
X26096302Y-8961258D02*
X25921302Y-9136258D01*
X26334054Y-12771261D02*
X26509054Y-12946261D01*
X26509054Y-12771261D02*
X26334054Y-12946261D01*
X26397553Y-14676262D02*
X26572553Y-14851262D01*
X26572553Y-14676262D02*
X26397553Y-14851262D01*
X26633653Y-16581244D02*
X26808653Y-16756244D01*
X26808653Y-16581244D02*
X26633653Y-16756244D01*
X26810304Y-6103755D02*
X26985304Y-6278755D01*
X26985304Y-6103755D02*
X26810304Y-6278755D01*
X26810304Y-8961258D02*
X26985304Y-9136258D01*
X26985304Y-8961258D02*
X26810304Y-9136258D01*
X26873803Y-10866259D02*
X27048803Y-11041259D01*
X27048803Y-10866259D02*
X26873803Y-11041259D01*
X27350054Y-12771261D02*
X27525054Y-12946261D01*
X27525054Y-12771261D02*
X27350054Y-12946261D01*
X27762805Y-10866259D02*
X27937805Y-11041259D01*
X27937805Y-10866259D02*
X27762805Y-11041259D01*
X27826304Y-6103755D02*
X28001304Y-6278755D01*
X28001304Y-6103755D02*
X27826304Y-6278755D01*
X27826304Y-8961258D02*
X28001304Y-9136258D01*
X28001304Y-8961258D02*
X27826304Y-9136258D01*
X27998901Y-16581244D02*
X28173901Y-16756244D01*
X28173901Y-16581244D02*
X27998901Y-16756244D01*
X28715306Y-6103755D02*
X28890306Y-6278755D01*
X28890306Y-6103755D02*
X28715306Y-6278755D01*
X28778805Y-10866259D02*
X28953805Y-11041259D01*
X28953805Y-10866259D02*
X28778805Y-11041259D01*
X28953431Y-14676262D02*
X29128431Y-14851262D01*
X29128431Y-14676262D02*
X28953431Y-14851262D01*
X29014901Y-16581244D02*
X29189901Y-16756244D01*
X29189901Y-16581244D02*
X29014901Y-16756244D01*
X29429681Y-12771261D02*
X29604681Y-12946261D01*
X29604681Y-12771261D02*
X29429681Y-12946261D01*
X29667806Y-8961258D02*
X29842806Y-9136258D01*
X29842806Y-8961258D02*
X29667806Y-9136258D01*
X29731306Y-6103755D02*
X29906306Y-6278755D01*
X29906306Y-6103755D02*
X29731306Y-6278755D01*
X29969431Y-14676262D02*
X30144431Y-14851262D01*
X30144431Y-14676262D02*
X29969431Y-14851262D01*
X30144057Y-10866259D02*
X30319057Y-11041259D01*
X30319057Y-10866259D02*
X30144057Y-11041259D01*
X30380149Y-16581244D02*
X30555149Y-16756244D01*
X30555149Y-16581244D02*
X30380149Y-16756244D01*
X30445681Y-12771261D02*
X30620681Y-12946261D01*
X30620681Y-12771261D02*
X30445681Y-12946261D01*
X30620307Y-6103755D02*
X30795307Y-6278755D01*
X30795307Y-6103755D02*
X30620307Y-6278755D01*
X30683806Y-8961258D02*
X30858806Y-9136258D01*
X30858806Y-8961258D02*
X30683806Y-9136258D01*
X31160057Y-10866259D02*
X31335057Y-11041259D01*
X31335057Y-10866259D02*
X31160057Y-11041259D01*
X31396149Y-16581244D02*
X31571149Y-16756244D01*
X31571149Y-16581244D02*
X31396149Y-16756244D01*
X31636307Y-6103755D02*
X31811307Y-6278755D01*
X31811307Y-6103755D02*
X31636307Y-6278755D01*
X33001559Y-6103755D02*
X33176559Y-6278755D01*
X33176559Y-6103755D02*
X33001559Y-6278755D01*
X33001559Y-8961258D02*
X33176559Y-9136258D01*
X33176559Y-8961258D02*
X33001559Y-9136258D01*
X33001559Y-10866259D02*
X33176559Y-11041259D01*
X33176559Y-10866259D02*
X33001559Y-11041259D01*
X33001559Y-16581264D02*
X33176559Y-16756264D01*
X33176559Y-16581264D02*
X33001559Y-16756264D01*
X34017559Y-6103755D02*
X34192559Y-6278755D01*
X34192559Y-6103755D02*
X34017559Y-6278755D01*
X34017559Y-8961258D02*
X34192559Y-9136258D01*
X34192559Y-8961258D02*
X34017559Y-9136258D01*
X34017559Y-10866259D02*
X34192559Y-11041259D01*
X34192559Y-10866259D02*
X34017559Y-11041259D01*
X34017559Y-16581264D02*
X34192559Y-16756264D01*
X34192559Y-16581264D02*
X34017559Y-16756264D01*
X34906561Y-6103755D02*
X35081561Y-6278755D01*
X35081561Y-6103755D02*
X34906561Y-6278755D01*
X34906561Y-8961258D02*
X35081561Y-9136258D01*
X35081561Y-8961258D02*
X34906561Y-9136258D01*
X34906561Y-10866259D02*
X35081561Y-11041259D01*
X35081561Y-10866259D02*
X34906561Y-11041259D01*
X34906561Y-14676262D02*
X35081561Y-14851262D01*
X35081561Y-14676262D02*
X34906561Y-14851262D01*
X34906561Y-16581264D02*
X35081561Y-16756264D01*
X35081561Y-16581264D02*
X34906561Y-16756264D01*
X35922561Y-6103755D02*
X36097561Y-6278755D01*
X36097561Y-6103755D02*
X35922561Y-6278755D01*
X35922561Y-8961258D02*
X36097561Y-9136258D01*
X36097561Y-8961258D02*
X35922561Y-9136258D01*
X35922561Y-10866259D02*
X36097561Y-11041259D01*
X36097561Y-10866259D02*
X35922561Y-11041259D01*
X35922561Y-14676262D02*
X36097561Y-14851262D01*
X36097561Y-14676262D02*
X35922561Y-14851262D01*
X35922561Y-16581264D02*
X36097561Y-16756264D01*
X36097561Y-16581264D02*
X35922561Y-16756264D01*
X36811563Y-6103755D02*
X36986563Y-6278755D01*
X36986563Y-6103755D02*
X36811563Y-6278755D01*
X36811563Y-8961258D02*
X36986563Y-9136258D01*
X36986563Y-8961258D02*
X36811563Y-9136258D01*
X36811563Y-10866259D02*
X36986563Y-11041259D01*
X36986563Y-10866259D02*
X36811563Y-11041259D01*
X36811563Y-16581264D02*
X36986563Y-16756264D01*
X36986563Y-16581264D02*
X36811563Y-16756264D01*
X37827563Y-6103755D02*
X38002563Y-6278755D01*
X38002563Y-6103755D02*
X37827563Y-6278755D01*
X37827563Y-8961258D02*
X38002563Y-9136258D01*
X38002563Y-8961258D02*
X37827563Y-9136258D01*
X37827563Y-10866259D02*
X38002563Y-11041259D01*
X38002563Y-10866259D02*
X37827563Y-11041259D01*
X37827563Y-16581264D02*
X38002563Y-16756264D01*
X38002563Y-16581264D02*
X37827563Y-16756264D01*
D13*
X4695008Y-14065254D02*
G75*
G03*
X4695008Y-14065254I-152400J0D01*
G01*
X7082608Y-14065254D02*
G75*
G03*
X7082608Y-14065254I-152400J0D01*
G01*
X11840561Y-15970244D02*
G75*
G03*
X11840561Y-15970244I-152400J0D01*
G01*
X21840561Y-15970244D02*
G75*
G03*
X21840561Y-15970244I-152400J0D01*
G01*
X28507531Y-14065262D02*
G75*
G03*
X28507531Y-14065262I-152400J0D01*
G01*
X28983781Y-12160261D02*
G75*
G03*
X28983781Y-12160261I-152400J0D01*
G01*
X29221906Y-8350258D02*
G75*
G03*
X29221906Y-8350258I-152400J0D01*
G01*
X30895131Y-14065262D02*
G75*
G03*
X30895131Y-14065262I-152400J0D01*
G01*
X31371381Y-12160261D02*
G75*
G03*
X31371381Y-12160261I-152400J0D01*
G01*
X31609506Y-8350258D02*
G75*
G03*
X31609506Y-8350258I-152400J0D01*
G01*
D14*
X4291783Y-9404254D02*
X4291783Y-9709254D01*
X4139283Y-9556754D02*
X4444283Y-9556754D01*
X4291785Y-6546755D02*
X4291785Y-6851755D01*
X4139285Y-6699255D02*
X4444285Y-6699255D01*
X4531891Y-17024244D02*
X4531891Y-17329244D01*
X4379391Y-17176744D02*
X4684391Y-17176744D01*
X4768033Y-11309254D02*
X4768033Y-11614254D01*
X4615533Y-11461754D02*
X4920533Y-11461754D01*
X4926783Y-9150254D02*
X4926783Y-9455254D01*
X4774283Y-9302754D02*
X5079283Y-9302754D01*
X4926785Y-6292755D02*
X4926785Y-6597755D01*
X4774285Y-6445255D02*
X5079285Y-6445255D01*
X5006158Y-13214254D02*
X5006158Y-13519254D01*
X4853658Y-13366754D02*
X5158658Y-13366754D01*
X5166891Y-16770244D02*
X5166891Y-17075244D01*
X5014391Y-16922744D02*
X5319391Y-16922744D01*
X5403033Y-11055254D02*
X5403033Y-11360254D01*
X5250533Y-11207754D02*
X5555533Y-11207754D01*
X5482408Y-15119254D02*
X5482408Y-15424254D01*
X5329908Y-15271754D02*
X5634908Y-15271754D01*
X5641158Y-12960254D02*
X5641158Y-13265254D01*
X5488658Y-13112754D02*
X5793658Y-13112754D01*
X6117408Y-14865254D02*
X6117408Y-15170254D01*
X5964908Y-15017754D02*
X6269908Y-15017754D01*
X6194794Y-9404250D02*
X6194794Y-9709250D01*
X6042294Y-9556750D02*
X6347294Y-9556750D01*
X6829794Y-9150250D02*
X6829794Y-9455250D01*
X6677294Y-9302750D02*
X6982294Y-9302750D01*
X6909169Y-17024244D02*
X6909169Y-17329244D01*
X6756669Y-17176744D02*
X7061669Y-17176744D01*
X7149287Y-11309259D02*
X7149287Y-11614259D01*
X6996787Y-11461759D02*
X7301787Y-11461759D01*
X7544169Y-16770244D02*
X7544169Y-17075244D01*
X7391669Y-16922744D02*
X7696669Y-16922744D01*
X7625538Y-13214261D02*
X7625538Y-13519261D01*
X7473038Y-13366761D02*
X7778038Y-13366761D01*
X7784287Y-11055259D02*
X7784287Y-11360259D01*
X7631787Y-11207759D02*
X7936787Y-11207759D01*
X8101788Y-6546755D02*
X8101788Y-6851755D01*
X7949288Y-6699255D02*
X8254288Y-6699255D01*
X8101788Y-9404258D02*
X8101788Y-9709258D01*
X7949288Y-9556758D02*
X8254288Y-9556758D01*
X8260538Y-12960261D02*
X8260538Y-13265261D01*
X8108038Y-13112761D02*
X8413038Y-13112761D01*
X8578039Y-15119262D02*
X8578039Y-15424262D01*
X8425539Y-15271762D02*
X8730539Y-15271762D01*
X8736788Y-6292755D02*
X8736788Y-6597755D01*
X8584288Y-6445255D02*
X8889288Y-6445255D01*
X8736788Y-9150258D02*
X8736788Y-9455258D01*
X8584288Y-9302758D02*
X8889288Y-9302758D01*
X9054289Y-11309259D02*
X9054289Y-11614259D01*
X8901789Y-11461759D02*
X9206789Y-11461759D01*
X9213039Y-14865262D02*
X9213039Y-15170262D01*
X9060539Y-15017762D02*
X9365539Y-15017762D01*
X9290417Y-17024244D02*
X9290417Y-17329244D01*
X9137917Y-17176744D02*
X9442917Y-17176744D01*
X9530539Y-13214261D02*
X9530539Y-13519261D01*
X9378039Y-13366761D02*
X9683039Y-13366761D01*
X9689289Y-11055259D02*
X9689289Y-11360259D01*
X9536789Y-11207759D02*
X9841789Y-11207759D01*
X9925417Y-16770244D02*
X9925417Y-17075244D01*
X9772917Y-16922744D02*
X10077917Y-16922744D01*
X10006790Y-6546755D02*
X10006790Y-6851755D01*
X9854290Y-6699255D02*
X10159290Y-6699255D01*
X10006790Y-9404258D02*
X10006790Y-9709258D01*
X9854290Y-9556758D02*
X10159290Y-9556758D01*
X10165539Y-12960261D02*
X10165539Y-13265261D01*
X10013039Y-13112761D02*
X10318039Y-13112761D01*
X10483040Y-15119262D02*
X10483040Y-15424262D01*
X10330540Y-15271762D02*
X10635540Y-15271762D01*
X10641790Y-6292755D02*
X10641790Y-6597755D01*
X10489290Y-6445255D02*
X10794290Y-6445255D01*
X10641790Y-9150258D02*
X10641790Y-9455258D01*
X10489290Y-9302758D02*
X10794290Y-9302758D01*
X10959291Y-11309259D02*
X10959291Y-11614259D01*
X10806791Y-11461759D02*
X11111791Y-11461759D01*
X11118040Y-14865262D02*
X11118040Y-15170262D01*
X10965540Y-15017762D02*
X11270540Y-15017762D01*
X11435541Y-13214261D02*
X11435541Y-13519261D01*
X11283041Y-13366761D02*
X11588041Y-13366761D01*
X11594290Y-11055259D02*
X11594290Y-11360259D01*
X11441790Y-11207759D02*
X11746790Y-11207759D01*
X11911791Y-6546755D02*
X11911791Y-6851755D01*
X11759291Y-6699255D02*
X12064291Y-6699255D01*
X11911791Y-9404258D02*
X11911791Y-9709258D01*
X11759291Y-9556758D02*
X12064291Y-9556758D01*
X12070541Y-12960261D02*
X12070541Y-13265261D01*
X11918041Y-13112761D02*
X12223041Y-13112761D01*
X12388042Y-15119262D02*
X12388042Y-15424262D01*
X12235542Y-15271762D02*
X12540542Y-15271762D01*
X12546791Y-6292755D02*
X12546791Y-6597755D01*
X12394291Y-6445255D02*
X12699291Y-6445255D01*
X12546791Y-9150258D02*
X12546791Y-9455258D01*
X12394291Y-9302758D02*
X12699291Y-9302758D01*
X12864292Y-11309259D02*
X12864292Y-11614259D01*
X12711792Y-11461759D02*
X13016792Y-11461759D01*
X13023042Y-14865262D02*
X13023042Y-15170262D01*
X12870542Y-15017762D02*
X13175542Y-15017762D01*
X13340542Y-13214261D02*
X13340542Y-13519261D01*
X13188042Y-13366761D02*
X13493042Y-13366761D01*
X13499292Y-11055259D02*
X13499292Y-11360259D01*
X13346792Y-11207759D02*
X13651792Y-11207759D01*
X13816793Y-6546755D02*
X13816793Y-6851755D01*
X13664293Y-6699255D02*
X13969293Y-6699255D01*
X13816793Y-9404258D02*
X13816793Y-9709258D01*
X13664293Y-9556758D02*
X13969293Y-9556758D01*
X13975542Y-12960261D02*
X13975542Y-13265261D01*
X13823042Y-13112761D02*
X14128042Y-13112761D01*
X14293043Y-15119262D02*
X14293043Y-15424262D01*
X14140543Y-15271762D02*
X14445543Y-15271762D01*
X14451793Y-6292755D02*
X14451793Y-6597755D01*
X14299293Y-6445255D02*
X14604293Y-6445255D01*
X14451793Y-9150258D02*
X14451793Y-9455258D01*
X14299293Y-9302758D02*
X14604293Y-9302758D01*
X14769294Y-11309259D02*
X14769294Y-11614259D01*
X14616794Y-11461759D02*
X14921794Y-11461759D01*
X14928043Y-14865262D02*
X14928043Y-15170262D01*
X14775543Y-15017762D02*
X15080543Y-15017762D01*
X15245544Y-13214261D02*
X15245544Y-13519261D01*
X15093044Y-13366761D02*
X15398044Y-13366761D01*
X15404294Y-11055259D02*
X15404294Y-11360259D01*
X15251794Y-11207759D02*
X15556794Y-11207759D01*
X15721794Y-9404258D02*
X15721794Y-9709258D01*
X15569294Y-9556758D02*
X15874294Y-9556758D01*
X15880544Y-12960261D02*
X15880544Y-13265261D01*
X15728044Y-13112761D02*
X16033044Y-13112761D01*
X16198045Y-15119262D02*
X16198045Y-15424262D01*
X16045545Y-15271762D02*
X16350545Y-15271762D01*
X16356794Y-9150258D02*
X16356794Y-9455258D01*
X16204294Y-9302758D02*
X16509294Y-9302758D01*
X16434161Y-17024244D02*
X16434161Y-17329244D01*
X16281661Y-17176744D02*
X16586661Y-17176744D01*
X16674295Y-6546755D02*
X16674295Y-6851755D01*
X16521795Y-6699255D02*
X16826795Y-6699255D01*
X16674295Y-11309259D02*
X16674295Y-11614259D01*
X16521795Y-11461759D02*
X16826795Y-11461759D01*
X16833045Y-14865262D02*
X16833045Y-15170262D01*
X16680545Y-15017762D02*
X16985545Y-15017762D01*
X17069161Y-16770244D02*
X17069161Y-17075244D01*
X16916661Y-16922744D02*
X17221661Y-16922744D01*
X17150546Y-13214261D02*
X17150546Y-13519261D01*
X16998046Y-13366761D02*
X17303046Y-13366761D01*
X17309295Y-6292755D02*
X17309295Y-6597755D01*
X17156795Y-6445255D02*
X17461795Y-6445255D01*
X17309295Y-11055259D02*
X17309295Y-11360259D01*
X17156795Y-11207759D02*
X17461795Y-11207759D01*
X17626796Y-9404258D02*
X17626796Y-9709258D01*
X17474296Y-9556758D02*
X17779296Y-9556758D01*
X17785546Y-12960261D02*
X17785546Y-13265261D01*
X17633046Y-13112761D02*
X17938046Y-13112761D01*
X18103047Y-15119262D02*
X18103047Y-15424262D01*
X17950547Y-15271762D02*
X18255547Y-15271762D01*
X18261796Y-9150258D02*
X18261796Y-9455258D01*
X18109296Y-9302758D02*
X18414296Y-9302758D01*
X18579297Y-6546755D02*
X18579297Y-6851755D01*
X18426797Y-6699255D02*
X18731797Y-6699255D01*
X18579297Y-11309259D02*
X18579297Y-11614259D01*
X18426797Y-11461759D02*
X18731797Y-11461759D01*
X18738047Y-14865262D02*
X18738047Y-15170262D01*
X18585547Y-15017762D02*
X18890547Y-15017762D01*
X19055547Y-13214261D02*
X19055547Y-13519261D01*
X18903047Y-13366761D02*
X19208047Y-13366761D01*
X19214297Y-6292755D02*
X19214297Y-6597755D01*
X19061797Y-6445255D02*
X19366797Y-6445255D01*
X19214297Y-11055259D02*
X19214297Y-11360259D01*
X19061797Y-11207759D02*
X19366797Y-11207759D01*
X19531798Y-9404258D02*
X19531798Y-9709258D01*
X19379298Y-9556758D02*
X19684298Y-9556758D01*
X19690547Y-12960261D02*
X19690547Y-13265261D01*
X19538047Y-13112761D02*
X19843047Y-13112761D01*
X20008048Y-15119262D02*
X20008048Y-15424262D01*
X19855548Y-15271762D02*
X20160548Y-15271762D01*
X20166798Y-9150258D02*
X20166798Y-9455258D01*
X20014298Y-9302758D02*
X20319298Y-9302758D01*
X20484299Y-6546755D02*
X20484299Y-6851755D01*
X20331799Y-6699255D02*
X20636799Y-6699255D01*
X20484299Y-11309259D02*
X20484299Y-11614259D01*
X20331799Y-11461759D02*
X20636799Y-11461759D01*
X20643048Y-14865262D02*
X20643048Y-15170262D01*
X20490548Y-15017762D02*
X20795548Y-15017762D01*
X20960549Y-13214261D02*
X20960549Y-13519261D01*
X20808049Y-13366761D02*
X21113049Y-13366761D01*
X21119299Y-6292755D02*
X21119299Y-6597755D01*
X20966799Y-6445255D02*
X21271799Y-6445255D01*
X21119299Y-11055259D02*
X21119299Y-11360259D01*
X20966799Y-11207759D02*
X21271799Y-11207759D01*
X21436799Y-9404258D02*
X21436799Y-9709258D01*
X21284299Y-9556758D02*
X21589299Y-9556758D01*
X21595549Y-12960261D02*
X21595549Y-13265261D01*
X21443049Y-13112761D02*
X21748049Y-13112761D01*
X21913050Y-15119262D02*
X21913050Y-15424262D01*
X21760550Y-15271762D02*
X22065550Y-15271762D01*
X22071799Y-9150258D02*
X22071799Y-9455258D01*
X21919299Y-9302758D02*
X22224299Y-9302758D01*
X22389300Y-6546755D02*
X22389300Y-6851755D01*
X22236800Y-6699255D02*
X22541800Y-6699255D01*
X22389300Y-11309259D02*
X22389300Y-11614259D01*
X22236800Y-11461759D02*
X22541800Y-11461759D01*
X22548050Y-14865262D02*
X22548050Y-15170262D01*
X22395550Y-15017762D02*
X22700550Y-15017762D01*
X22865550Y-13214261D02*
X22865550Y-13519261D01*
X22713050Y-13366761D02*
X23018050Y-13366761D01*
X23024300Y-6292755D02*
X23024300Y-6597755D01*
X22871800Y-6445255D02*
X23176800Y-6445255D01*
X23024300Y-11055259D02*
X23024300Y-11360259D01*
X22871800Y-11207759D02*
X23176800Y-11207759D01*
X23341801Y-9404258D02*
X23341801Y-9709258D01*
X23189301Y-9556758D02*
X23494301Y-9556758D01*
X23500550Y-12960261D02*
X23500550Y-13265261D01*
X23348050Y-13112761D02*
X23653050Y-13112761D01*
X23577905Y-17024244D02*
X23577905Y-17329244D01*
X23425405Y-17176744D02*
X23730405Y-17176744D01*
X23818051Y-15119262D02*
X23818051Y-15424262D01*
X23665551Y-15271762D02*
X23970551Y-15271762D01*
X23976801Y-9150258D02*
X23976801Y-9455258D01*
X23824301Y-9302758D02*
X24129301Y-9302758D01*
X24212905Y-16770244D02*
X24212905Y-17075244D01*
X24060405Y-16922744D02*
X24365405Y-16922744D01*
X24294302Y-11309259D02*
X24294302Y-11614259D01*
X24141802Y-11461759D02*
X24446802Y-11461759D01*
X24453051Y-14865262D02*
X24453051Y-15170262D01*
X24300551Y-15017762D02*
X24605551Y-15017762D01*
X24770552Y-13214261D02*
X24770552Y-13519261D01*
X24618052Y-13366761D02*
X24923052Y-13366761D01*
X24929302Y-11055259D02*
X24929302Y-11360259D01*
X24776802Y-11207759D02*
X25081802Y-11207759D01*
X25246802Y-6546755D02*
X25246802Y-6851755D01*
X25094302Y-6699255D02*
X25399302Y-6699255D01*
X25246802Y-9404258D02*
X25246802Y-9709258D01*
X25094302Y-9556758D02*
X25399302Y-9556758D01*
X25405552Y-12960261D02*
X25405552Y-13265261D01*
X25253052Y-13112761D02*
X25558052Y-13112761D01*
X25723053Y-15119262D02*
X25723053Y-15424262D01*
X25570553Y-15271762D02*
X25875553Y-15271762D01*
X25881802Y-6292755D02*
X25881802Y-6597755D01*
X25729302Y-6445255D02*
X26034302Y-6445255D01*
X25881802Y-9150258D02*
X25881802Y-9455258D01*
X25729302Y-9302758D02*
X26034302Y-9302758D01*
X25959153Y-17024244D02*
X25959153Y-17329244D01*
X25806653Y-17176744D02*
X26111653Y-17176744D01*
X26199303Y-11309259D02*
X26199303Y-11614259D01*
X26046803Y-11461759D02*
X26351803Y-11461759D01*
X26358053Y-14865262D02*
X26358053Y-15170262D01*
X26205553Y-15017762D02*
X26510553Y-15017762D01*
X26594153Y-16770244D02*
X26594153Y-17075244D01*
X26441653Y-16922744D02*
X26746653Y-16922744D01*
X26675554Y-13214261D02*
X26675554Y-13519261D01*
X26523054Y-13366761D02*
X26828054Y-13366761D01*
X26834303Y-11055259D02*
X26834303Y-11360259D01*
X26681803Y-11207759D02*
X26986803Y-11207759D01*
X27151804Y-6546755D02*
X27151804Y-6851755D01*
X26999304Y-6699255D02*
X27304304Y-6699255D01*
X27151804Y-9404258D02*
X27151804Y-9709258D01*
X26999304Y-9556758D02*
X27304304Y-9556758D01*
X27310554Y-12960261D02*
X27310554Y-13265261D01*
X27158054Y-13112761D02*
X27463054Y-13112761D01*
X27786804Y-6292755D02*
X27786804Y-6597755D01*
X27634304Y-6445255D02*
X27939304Y-6445255D01*
X27786804Y-9150258D02*
X27786804Y-9455258D01*
X27634304Y-9302758D02*
X27939304Y-9302758D01*
X28104305Y-11309259D02*
X28104305Y-11614259D01*
X27951805Y-11461759D02*
X28256805Y-11461759D01*
X28340401Y-17024244D02*
X28340401Y-17329244D01*
X28187901Y-17176744D02*
X28492901Y-17176744D01*
X28739305Y-11055259D02*
X28739305Y-11360259D01*
X28586805Y-11207759D02*
X28891805Y-11207759D01*
X28975401Y-16770244D02*
X28975401Y-17075244D01*
X28822901Y-16922744D02*
X29127901Y-16922744D01*
X29056806Y-6546755D02*
X29056806Y-6851755D01*
X28904306Y-6699255D02*
X29209306Y-6699255D01*
X29294931Y-15119262D02*
X29294931Y-15424262D01*
X29142431Y-15271762D02*
X29447431Y-15271762D01*
X29691806Y-6292755D02*
X29691806Y-6597755D01*
X29539306Y-6445255D02*
X29844306Y-6445255D01*
X29771181Y-13214261D02*
X29771181Y-13519261D01*
X29618681Y-13366761D02*
X29923681Y-13366761D01*
X29929931Y-14865262D02*
X29929931Y-15170262D01*
X29777431Y-15017762D02*
X30082431Y-15017762D01*
X30009306Y-9404258D02*
X30009306Y-9709258D01*
X29856806Y-9556758D02*
X30161806Y-9556758D01*
X30406181Y-12960261D02*
X30406181Y-13265261D01*
X30253681Y-13112761D02*
X30558681Y-13112761D01*
X30485557Y-11309259D02*
X30485557Y-11614259D01*
X30333057Y-11461759D02*
X30638057Y-11461759D01*
X30644306Y-9150258D02*
X30644306Y-9455258D01*
X30491806Y-9302758D02*
X30796806Y-9302758D01*
X30721649Y-17024244D02*
X30721649Y-17329244D01*
X30569149Y-17176744D02*
X30874149Y-17176744D01*
X30961807Y-6546755D02*
X30961807Y-6851755D01*
X30809307Y-6699255D02*
X31114307Y-6699255D01*
X31120557Y-11055259D02*
X31120557Y-11360259D01*
X30968057Y-11207759D02*
X31273057Y-11207759D01*
X31356649Y-16770244D02*
X31356649Y-17075244D01*
X31204149Y-16922744D02*
X31509149Y-16922744D01*
X31596807Y-6292755D02*
X31596807Y-6597755D01*
X31444307Y-6445255D02*
X31749307Y-6445255D01*
X33343059Y-6546755D02*
X33343059Y-6851755D01*
X33190559Y-6699255D02*
X33495559Y-6699255D01*
X33343059Y-9404258D02*
X33343059Y-9709258D01*
X33190559Y-9556758D02*
X33495559Y-9556758D01*
X33343059Y-11309259D02*
X33343059Y-11614259D01*
X33190559Y-11461759D02*
X33495559Y-11461759D01*
X33343059Y-17024264D02*
X33343059Y-17329264D01*
X33190559Y-17176764D02*
X33495559Y-17176764D01*
X33978059Y-6292755D02*
X33978059Y-6597755D01*
X33825559Y-6445255D02*
X34130559Y-6445255D01*
X33978059Y-9150258D02*
X33978059Y-9455258D01*
X33825559Y-9302758D02*
X34130559Y-9302758D01*
X33978059Y-11055259D02*
X33978059Y-11360259D01*
X33825559Y-11207759D02*
X34130559Y-11207759D01*
X33978059Y-16770264D02*
X33978059Y-17075264D01*
X33825559Y-16922764D02*
X34130559Y-16922764D01*
X35248061Y-6546755D02*
X35248061Y-6851755D01*
X35095561Y-6699255D02*
X35400561Y-6699255D01*
X35248061Y-9404258D02*
X35248061Y-9709258D01*
X35095561Y-9556758D02*
X35400561Y-9556758D01*
X35248061Y-11309259D02*
X35248061Y-11614259D01*
X35095561Y-11461759D02*
X35400561Y-11461759D01*
X35248061Y-15119262D02*
X35248061Y-15424262D01*
X35095561Y-15271762D02*
X35400561Y-15271762D01*
X35248061Y-17024264D02*
X35248061Y-17329264D01*
X35095561Y-17176764D02*
X35400561Y-17176764D01*
X35883061Y-6292755D02*
X35883061Y-6597755D01*
X35730561Y-6445255D02*
X36035561Y-6445255D01*
X35883061Y-9150258D02*
X35883061Y-9455258D01*
X35730561Y-9302758D02*
X36035561Y-9302758D01*
X35883061Y-11055259D02*
X35883061Y-11360259D01*
X35730561Y-11207759D02*
X36035561Y-11207759D01*
X35883061Y-14865262D02*
X35883061Y-15170262D01*
X35730561Y-15017762D02*
X36035561Y-15017762D01*
X35883061Y-16770264D02*
X35883061Y-17075264D01*
X35730561Y-16922764D02*
X36035561Y-16922764D01*
X37153063Y-6546755D02*
X37153063Y-6851755D01*
X37000563Y-6699255D02*
X37305563Y-6699255D01*
X37153063Y-9404258D02*
X37153063Y-9709258D01*
X37000563Y-9556758D02*
X37305563Y-9556758D01*
X37153063Y-11309259D02*
X37153063Y-11614259D01*
X37000563Y-11461759D02*
X37305563Y-11461759D01*
X37153063Y-17024264D02*
X37153063Y-17329264D01*
X37000563Y-17176764D02*
X37305563Y-17176764D01*
X37788063Y-6292755D02*
X37788063Y-6597755D01*
X37635563Y-6445255D02*
X37940563Y-6445255D01*
X37788063Y-9150258D02*
X37788063Y-9455258D01*
X37635563Y-9302758D02*
X37940563Y-9302758D01*
X37788063Y-11055259D02*
X37788063Y-11360259D01*
X37635563Y-11207759D02*
X37940563Y-11207759D01*
X37788063Y-16770264D02*
X37788063Y-17075264D01*
X37635563Y-16922764D02*
X37940563Y-16922764D01*
D15*
X4683599Y-15727245D02*
X4683599Y-15445263D01*
X4401617Y-15445263D01*
X4401617Y-15727245D01*
X4683599Y-15727245D01*
X7071199Y-15727245D02*
X7071199Y-15445263D01*
X6789216Y-15445263D01*
X6789216Y-15727245D01*
X7071199Y-15727245D01*
X11829152Y-17632235D02*
X11829152Y-17350253D01*
X11547169Y-17350253D01*
X11547169Y-17632235D01*
X11829152Y-17632235D01*
X21829152Y-17632235D02*
X21829152Y-17350253D01*
X21547170Y-17350253D01*
X21547170Y-17632235D01*
X21829152Y-17632235D01*
X28496122Y-15727254D02*
X28496122Y-15445271D01*
X28214139Y-15445271D01*
X28214139Y-15727254D01*
X28496122Y-15727254D01*
X28972373Y-13822252D02*
X28972373Y-13540269D01*
X28690390Y-13540269D01*
X28690390Y-13822252D01*
X28972373Y-13822252D01*
X29210498Y-10012249D02*
X29210498Y-9730266D01*
X28928515Y-9730266D01*
X28928515Y-10012249D01*
X29210498Y-10012249D01*
X30883722Y-15727254D02*
X30883722Y-15445271D01*
X30601739Y-15445271D01*
X30601739Y-15727254D01*
X30883722Y-15727254D01*
X31359973Y-13822252D02*
X31359973Y-13540269D01*
X31077990Y-13540269D01*
X31077990Y-13822252D01*
X31359973Y-13822252D01*
X31598098Y-10012249D02*
X31598098Y-9730266D01*
X31316115Y-9730266D01*
X31316115Y-10012249D01*
X31598098Y-10012249D01*
D16*
X4545783Y-9248754D02*
X4745783Y-9048754D01*
X4545783Y-8848754D01*
X4345783Y-9048754D01*
X4545783Y-9248754D01*
X4545785Y-6391255D02*
X4745785Y-6191255D01*
X4545785Y-5991255D01*
X4345785Y-6191255D01*
X4545785Y-6391255D01*
X4785891Y-16868744D02*
X4985891Y-16668744D01*
X4785891Y-16468744D01*
X4585891Y-16668744D01*
X4785891Y-16868744D01*
X5022033Y-11153754D02*
X5222033Y-10953754D01*
X5022033Y-10753754D01*
X4822033Y-10953754D01*
X5022033Y-11153754D01*
X5260158Y-13058754D02*
X5460158Y-12858754D01*
X5260158Y-12658754D01*
X5060158Y-12858754D01*
X5260158Y-13058754D01*
X5736408Y-14963754D02*
X5936408Y-14763754D01*
X5736408Y-14563754D01*
X5536408Y-14763754D01*
X5736408Y-14963754D01*
X6448794Y-9248750D02*
X6648794Y-9048750D01*
X6448794Y-8848750D01*
X6248794Y-9048750D01*
X6448794Y-9248750D01*
X7163169Y-16868744D02*
X7363169Y-16668744D01*
X7163169Y-16468744D01*
X6963169Y-16668744D01*
X7163169Y-16868744D01*
X7403287Y-11153759D02*
X7603287Y-10953759D01*
X7403287Y-10753759D01*
X7203287Y-10953759D01*
X7403287Y-11153759D01*
X7879538Y-13058761D02*
X8079538Y-12858761D01*
X7879538Y-12658761D01*
X7679538Y-12858761D01*
X7879538Y-13058761D01*
X8355788Y-6391255D02*
X8555788Y-6191255D01*
X8355788Y-5991255D01*
X8155788Y-6191255D01*
X8355788Y-6391255D01*
X8355788Y-9248758D02*
X8555788Y-9048758D01*
X8355788Y-8848758D01*
X8155788Y-9048758D01*
X8355788Y-9248758D01*
X8832039Y-14963762D02*
X9032039Y-14763762D01*
X8832039Y-14563762D01*
X8632039Y-14763762D01*
X8832039Y-14963762D01*
X9308289Y-11153759D02*
X9508289Y-10953759D01*
X9308289Y-10753759D01*
X9108289Y-10953759D01*
X9308289Y-11153759D01*
X9544417Y-16868744D02*
X9744417Y-16668744D01*
X9544417Y-16468744D01*
X9344417Y-16668744D01*
X9544417Y-16868744D01*
X9784539Y-13058761D02*
X9984539Y-12858761D01*
X9784539Y-12658761D01*
X9584539Y-12858761D01*
X9784539Y-13058761D01*
X10260790Y-6391255D02*
X10460790Y-6191255D01*
X10260790Y-5991255D01*
X10060790Y-6191255D01*
X10260790Y-6391255D01*
X10260790Y-9248758D02*
X10460790Y-9048758D01*
X10260790Y-8848758D01*
X10060790Y-9048758D01*
X10260790Y-9248758D01*
X10737040Y-14963762D02*
X10937040Y-14763762D01*
X10737040Y-14563762D01*
X10537040Y-14763762D01*
X10737040Y-14963762D01*
X11213290Y-11153759D02*
X11413290Y-10953759D01*
X11213290Y-10753759D01*
X11013291Y-10953759D01*
X11213290Y-11153759D01*
X11689541Y-13058761D02*
X11889541Y-12858761D01*
X11689541Y-12658761D01*
X11489541Y-12858761D01*
X11689541Y-13058761D01*
X12165791Y-6391255D02*
X12365791Y-6191255D01*
X12165791Y-5991255D01*
X11965791Y-6191255D01*
X12165791Y-6391255D01*
X12165791Y-9248758D02*
X12365791Y-9048758D01*
X12165791Y-8848758D01*
X11965791Y-9048758D01*
X12165791Y-9248758D01*
X12642042Y-14963762D02*
X12842042Y-14763762D01*
X12642042Y-14563762D01*
X12442042Y-14763762D01*
X12642042Y-14963762D01*
X13118292Y-11153759D02*
X13318292Y-10953759D01*
X13118292Y-10753759D01*
X12918292Y-10953759D01*
X13118292Y-11153759D01*
X13594542Y-13058761D02*
X13794542Y-12858761D01*
X13594542Y-12658761D01*
X13394542Y-12858761D01*
X13594542Y-13058761D01*
X14070793Y-6391255D02*
X14270793Y-6191255D01*
X14070793Y-5991255D01*
X13870793Y-6191255D01*
X14070793Y-6391255D01*
X14070793Y-9248758D02*
X14270793Y-9048758D01*
X14070793Y-8848758D01*
X13870793Y-9048758D01*
X14070793Y-9248758D01*
X14547043Y-14963762D02*
X14747043Y-14763762D01*
X14547043Y-14563762D01*
X14347043Y-14763762D01*
X14547043Y-14963762D01*
X15023294Y-11153759D02*
X15223294Y-10953759D01*
X15023294Y-10753759D01*
X14823294Y-10953759D01*
X15023294Y-11153759D01*
X15499544Y-13058761D02*
X15699544Y-12858761D01*
X15499544Y-12658761D01*
X15299544Y-12858761D01*
X15499544Y-13058761D01*
X15975794Y-9248758D02*
X16175794Y-9048758D01*
X15975794Y-8848758D01*
X15775794Y-9048758D01*
X15975794Y-9248758D01*
X16452045Y-14963762D02*
X16652045Y-14763762D01*
X16452045Y-14563762D01*
X16252045Y-14763762D01*
X16452045Y-14963762D01*
X16688161Y-16868744D02*
X16888161Y-16668744D01*
X16688161Y-16468744D01*
X16488161Y-16668744D01*
X16688161Y-16868744D01*
X16928295Y-6391255D02*
X17128295Y-6191255D01*
X16928295Y-5991255D01*
X16728295Y-6191255D01*
X16928295Y-6391255D01*
X16928295Y-11153759D02*
X17128295Y-10953759D01*
X16928295Y-10753759D01*
X16728295Y-10953759D01*
X16928295Y-11153759D01*
X17404546Y-13058761D02*
X17604546Y-12858761D01*
X17404546Y-12658761D01*
X17204546Y-12858761D01*
X17404546Y-13058761D01*
X17880796Y-9248758D02*
X18080796Y-9048758D01*
X17880796Y-8848758D01*
X17680796Y-9048758D01*
X17880796Y-9248758D01*
X18357047Y-14963762D02*
X18557047Y-14763762D01*
X18357047Y-14563762D01*
X18157047Y-14763762D01*
X18357047Y-14963762D01*
X18833297Y-6391255D02*
X19033297Y-6191255D01*
X18833297Y-5991255D01*
X18633297Y-6191255D01*
X18833297Y-6391255D01*
X18833297Y-11153759D02*
X19033297Y-10953759D01*
X18833297Y-10753759D01*
X18633297Y-10953759D01*
X18833297Y-11153759D01*
X19309547Y-13058761D02*
X19509547Y-12858761D01*
X19309547Y-12658761D01*
X19109547Y-12858761D01*
X19309547Y-13058761D01*
X19785798Y-9248758D02*
X19985798Y-9048758D01*
X19785798Y-8848758D01*
X19585798Y-9048758D01*
X19785798Y-9248758D01*
X20262048Y-14963762D02*
X20462048Y-14763762D01*
X20262048Y-14563762D01*
X20062048Y-14763762D01*
X20262048Y-14963762D01*
X20738299Y-6391255D02*
X20938299Y-6191255D01*
X20738299Y-5991255D01*
X20538299Y-6191255D01*
X20738299Y-6391255D01*
X20738299Y-11153759D02*
X20938299Y-10953759D01*
X20738299Y-10753759D01*
X20538299Y-10953759D01*
X20738299Y-11153759D01*
X21214549Y-13058761D02*
X21414549Y-12858761D01*
X21214549Y-12658761D01*
X21014549Y-12858761D01*
X21214549Y-13058761D01*
X21690799Y-9248758D02*
X21890799Y-9048758D01*
X21690799Y-8848758D01*
X21490799Y-9048758D01*
X21690799Y-9248758D01*
X22167050Y-14963762D02*
X22367050Y-14763762D01*
X22167050Y-14563762D01*
X21967050Y-14763762D01*
X22167050Y-14963762D01*
X22643300Y-6391255D02*
X22843300Y-6191255D01*
X22643300Y-5991255D01*
X22443300Y-6191255D01*
X22643300Y-6391255D01*
X22643300Y-11153759D02*
X22843300Y-10953759D01*
X22643300Y-10753759D01*
X22443300Y-10953759D01*
X22643300Y-11153759D01*
X23119550Y-13058761D02*
X23319550Y-12858761D01*
X23119550Y-12658761D01*
X22919550Y-12858761D01*
X23119550Y-13058761D01*
X23595801Y-9248758D02*
X23795801Y-9048758D01*
X23595801Y-8848758D01*
X23395801Y-9048758D01*
X23595801Y-9248758D01*
X23831905Y-16868744D02*
X24031905Y-16668744D01*
X23831905Y-16468744D01*
X23631905Y-16668744D01*
X23831905Y-16868744D01*
X24072051Y-14963762D02*
X24272051Y-14763762D01*
X24072051Y-14563762D01*
X23872051Y-14763762D01*
X24072051Y-14963762D01*
X24548302Y-11153759D02*
X24748302Y-10953759D01*
X24548302Y-10753759D01*
X24348302Y-10953759D01*
X24548302Y-11153759D01*
X25024552Y-13058761D02*
X25224552Y-12858761D01*
X25024552Y-12658761D01*
X24824552Y-12858761D01*
X25024552Y-13058761D01*
X25500802Y-6391255D02*
X25700802Y-6191255D01*
X25500802Y-5991255D01*
X25300802Y-6191255D01*
X25500802Y-6391255D01*
X25500802Y-9248758D02*
X25700802Y-9048758D01*
X25500802Y-8848758D01*
X25300802Y-9048758D01*
X25500802Y-9248758D01*
X25977053Y-14963762D02*
X26177053Y-14763762D01*
X25977053Y-14563762D01*
X25777053Y-14763762D01*
X25977053Y-14963762D01*
X26213153Y-16868744D02*
X26413153Y-16668744D01*
X26213153Y-16468744D01*
X26013153Y-16668744D01*
X26213153Y-16868744D01*
X26453303Y-11153759D02*
X26653303Y-10953759D01*
X26453303Y-10753759D01*
X26253303Y-10953759D01*
X26453303Y-11153759D01*
X26929554Y-13058761D02*
X27129554Y-12858761D01*
X26929554Y-12658761D01*
X26729554Y-12858761D01*
X26929554Y-13058761D01*
X27405804Y-6391255D02*
X27605804Y-6191255D01*
X27405804Y-5991255D01*
X27205804Y-6191255D01*
X27405804Y-6391255D01*
X27405804Y-9248758D02*
X27605804Y-9048758D01*
X27405804Y-8848758D01*
X27205804Y-9048758D01*
X27405804Y-9248758D01*
X28358305Y-11153759D02*
X28558305Y-10953759D01*
X28358305Y-10753759D01*
X28158305Y-10953759D01*
X28358305Y-11153759D01*
X28594401Y-16868744D02*
X28794401Y-16668744D01*
X28594401Y-16468744D01*
X28394401Y-16668744D01*
X28594401Y-16868744D01*
X29310806Y-6391255D02*
X29510806Y-6191255D01*
X29310806Y-5991255D01*
X29110806Y-6191255D01*
X29310806Y-6391255D01*
X29548931Y-14963762D02*
X29748931Y-14763762D01*
X29548931Y-14563762D01*
X29348931Y-14763762D01*
X29548931Y-14963762D01*
X30025181Y-13058761D02*
X30225181Y-12858761D01*
X30025181Y-12658761D01*
X29825181Y-12858761D01*
X30025181Y-13058761D01*
X30263306Y-9248758D02*
X30463306Y-9048758D01*
X30263306Y-8848758D01*
X30063306Y-9048758D01*
X30263306Y-9248758D01*
X30739557Y-11153759D02*
X30939557Y-10953759D01*
X30739557Y-10753759D01*
X30539557Y-10953759D01*
X30739557Y-11153759D01*
X30975649Y-16868744D02*
X31175649Y-16668744D01*
X30975649Y-16468744D01*
X30775649Y-16668744D01*
X30975649Y-16868744D01*
X31215807Y-6391255D02*
X31415807Y-6191255D01*
X31215807Y-5991255D01*
X31015807Y-6191255D01*
X31215807Y-6391255D01*
X33597059Y-6391255D02*
X33797059Y-6191255D01*
X33597059Y-5991255D01*
X33397059Y-6191255D01*
X33597059Y-6391255D01*
X33597059Y-9248758D02*
X33797059Y-9048758D01*
X33597059Y-8848758D01*
X33397059Y-9048758D01*
X33597059Y-9248758D01*
X33597059Y-11153759D02*
X33797059Y-10953759D01*
X33597059Y-10753759D01*
X33397059Y-10953759D01*
X33597059Y-11153759D01*
X33597059Y-16868764D02*
X33797059Y-16668764D01*
X33597059Y-16468764D01*
X33397059Y-16668764D01*
X33597059Y-16868764D01*
X35502061Y-6391255D02*
X35702061Y-6191255D01*
X35502061Y-5991255D01*
X35302061Y-6191255D01*
X35502061Y-6391255D01*
X35502061Y-9248758D02*
X35702061Y-9048758D01*
X35502061Y-8848758D01*
X35302061Y-9048758D01*
X35502061Y-9248758D01*
X35502061Y-11153759D02*
X35702061Y-10953759D01*
X35502061Y-10753759D01*
X35302061Y-10953759D01*
X35502061Y-11153759D01*
X35502061Y-14963762D02*
X35702061Y-14763762D01*
X35502061Y-14563762D01*
X35302061Y-14763762D01*
X35502061Y-14963762D01*
X35502061Y-16868764D02*
X35702061Y-16668764D01*
X35502061Y-16468764D01*
X35302061Y-16668764D01*
X35502061Y-16868764D01*
X37407063Y-6391255D02*
X37607063Y-6191255D01*
X37407063Y-5991255D01*
X37207063Y-6191255D01*
X37407063Y-6391255D01*
X37407063Y-9248758D02*
X37607063Y-9048758D01*
X37407063Y-8848758D01*
X37207063Y-9048758D01*
X37407063Y-9248758D01*
X37407063Y-11153759D02*
X37607063Y-10953759D01*
X37407063Y-10753759D01*
X37207063Y-10953759D01*
X37407063Y-11153759D01*
X37407063Y-16868764D02*
X37607063Y-16668764D01*
X37407063Y-16468764D01*
X37207063Y-16668764D01*
X37407063Y-16868764D01*
D11*
X3273819Y-18135524D02*
X3273819Y-17935524D01*
X3273819Y-17935524D02*
X3321438Y-17935524D01*
X3321438Y-17935524D02*
X3350009Y-17945048D01*
X3350009Y-17945048D02*
X3369057Y-17964095D01*
X3369057Y-17964095D02*
X3378581Y-17983143D01*
X3378581Y-17983143D02*
X3388105Y-18021238D01*
X3388105Y-18021238D02*
X3388105Y-18049810D01*
X3388105Y-18049810D02*
X3378581Y-18087905D01*
X3378581Y-18087905D02*
X3369057Y-18106952D01*
X3369057Y-18106952D02*
X3350009Y-18126000D01*
X3350009Y-18126000D02*
X3321438Y-18135524D01*
X3321438Y-18135524D02*
X3273819Y-18135524D01*
X3473819Y-18135524D02*
X3473819Y-18002190D01*
X3473819Y-18040286D02*
X3483343Y-18021238D01*
X3483343Y-18021238D02*
X3492867Y-18011714D01*
X3492867Y-18011714D02*
X3511914Y-18002190D01*
X3511914Y-18002190D02*
X3530962Y-18002190D01*
X3597628Y-18135524D02*
X3597628Y-18002190D01*
X3597628Y-17935524D02*
X3588105Y-17945048D01*
X3588105Y-17945048D02*
X3597628Y-17954571D01*
X3597628Y-17954571D02*
X3607152Y-17945048D01*
X3607152Y-17945048D02*
X3597628Y-17935524D01*
X3597628Y-17935524D02*
X3597628Y-17954571D01*
X3721438Y-18135524D02*
X3702390Y-18126000D01*
X3702390Y-18126000D02*
X3692867Y-18106952D01*
X3692867Y-18106952D02*
X3692867Y-17935524D01*
X3826200Y-18135524D02*
X3807152Y-18126000D01*
X3807152Y-18126000D02*
X3797628Y-18106952D01*
X3797628Y-18106952D02*
X3797628Y-17935524D01*
X4054771Y-18135524D02*
X4054771Y-17935524D01*
X4054771Y-17935524D02*
X4121438Y-18078381D01*
X4121438Y-18078381D02*
X4188105Y-17935524D01*
X4188105Y-17935524D02*
X4188105Y-18135524D01*
X4369057Y-18135524D02*
X4369057Y-18030762D01*
X4369057Y-18030762D02*
X4359533Y-18011714D01*
X4359533Y-18011714D02*
X4340486Y-18002190D01*
X4340486Y-18002190D02*
X4302390Y-18002190D01*
X4302390Y-18002190D02*
X4283343Y-18011714D01*
X4369057Y-18126000D02*
X4350010Y-18135524D01*
X4350010Y-18135524D02*
X4302390Y-18135524D01*
X4302390Y-18135524D02*
X4283343Y-18126000D01*
X4283343Y-18126000D02*
X4273819Y-18106952D01*
X4273819Y-18106952D02*
X4273819Y-18087905D01*
X4273819Y-18087905D02*
X4283343Y-18068857D01*
X4283343Y-18068857D02*
X4302390Y-18059333D01*
X4302390Y-18059333D02*
X4350010Y-18059333D01*
X4350010Y-18059333D02*
X4369057Y-18049810D01*
X4464295Y-18002190D02*
X4464295Y-18202190D01*
X4464295Y-18011714D02*
X4483343Y-18002190D01*
X4483343Y-18002190D02*
X4521438Y-18002190D01*
X4521438Y-18002190D02*
X4540486Y-18011714D01*
X4540486Y-18011714D02*
X4550010Y-18021238D01*
X4550010Y-18021238D02*
X4559533Y-18040286D01*
X4559533Y-18040286D02*
X4559533Y-18097429D01*
X4559533Y-18097429D02*
X4550010Y-18116476D01*
X4550010Y-18116476D02*
X4540486Y-18126000D01*
X4540486Y-18126000D02*
X4521438Y-18135524D01*
X4521438Y-18135524D02*
X4483343Y-18135524D01*
X4483343Y-18135524D02*
X4464295Y-18126000D01*
X4645248Y-18116476D02*
X4654771Y-18126000D01*
X4654771Y-18126000D02*
X4645248Y-18135524D01*
X4645248Y-18135524D02*
X4635724Y-18126000D01*
X4635724Y-18126000D02*
X4645248Y-18116476D01*
X4645248Y-18116476D02*
X4645248Y-18135524D01*
X4645248Y-18011714D02*
X4654771Y-18021238D01*
X4654771Y-18021238D02*
X4645248Y-18030762D01*
X4645248Y-18030762D02*
X4635724Y-18021238D01*
X4635724Y-18021238D02*
X4645248Y-18011714D01*
X4645248Y-18011714D02*
X4645248Y-18030762D01*
D12*
X2851200Y-18375500D02*
X3026200Y-18550500D01*
X3026200Y-18375500D02*
X2851200Y-18550500D01*
D11*
X3378581Y-18555524D02*
X3264295Y-18555524D01*
X3321438Y-18555524D02*
X3321438Y-18355524D01*
X3321438Y-18355524D02*
X3302390Y-18384095D01*
X3302390Y-18384095D02*
X3283343Y-18403143D01*
X3283343Y-18403143D02*
X3264295Y-18412667D01*
X3464295Y-18536476D02*
X3473819Y-18546000D01*
X3473819Y-18546000D02*
X3464295Y-18555524D01*
X3464295Y-18555524D02*
X3454771Y-18546000D01*
X3454771Y-18546000D02*
X3464295Y-18536476D01*
X3464295Y-18536476D02*
X3464295Y-18555524D01*
X3540486Y-18355524D02*
X3673819Y-18355524D01*
X3673819Y-18355524D02*
X3588105Y-18555524D01*
X3845248Y-18355524D02*
X3750009Y-18355524D01*
X3750009Y-18355524D02*
X3740486Y-18450762D01*
X3740486Y-18450762D02*
X3750009Y-18441238D01*
X3750009Y-18441238D02*
X3769057Y-18431714D01*
X3769057Y-18431714D02*
X3816676Y-18431714D01*
X3816676Y-18431714D02*
X3835724Y-18441238D01*
X3835724Y-18441238D02*
X3845248Y-18450762D01*
X3845248Y-18450762D02*
X3854771Y-18469810D01*
X3854771Y-18469810D02*
X3854771Y-18517429D01*
X3854771Y-18517429D02*
X3845248Y-18536476D01*
X3845248Y-18536476D02*
X3835724Y-18546000D01*
X3835724Y-18546000D02*
X3816676Y-18555524D01*
X3816676Y-18555524D02*
X3769057Y-18555524D01*
X3769057Y-18555524D02*
X3750009Y-18546000D01*
X3750009Y-18546000D02*
X3740486Y-18536476D01*
X3978581Y-18355524D02*
X3997629Y-18355524D01*
X3997629Y-18355524D02*
X4016676Y-18365048D01*
X4016676Y-18365048D02*
X4026200Y-18374571D01*
X4026200Y-18374571D02*
X4035724Y-18393619D01*
X4035724Y-18393619D02*
X4045248Y-18431714D01*
X4045248Y-18431714D02*
X4045248Y-18479333D01*
X4045248Y-18479333D02*
X4035724Y-18517429D01*
X4035724Y-18517429D02*
X4026200Y-18536476D01*
X4026200Y-18536476D02*
X4016676Y-18546000D01*
X4016676Y-18546000D02*
X3997629Y-18555524D01*
X3997629Y-18555524D02*
X3978581Y-18555524D01*
X3978581Y-18555524D02*
X3959533Y-18546000D01*
X3959533Y-18546000D02*
X3950009Y-18536476D01*
X3950009Y-18536476D02*
X3940486Y-18517429D01*
X3940486Y-18517429D02*
X3930962Y-18479333D01*
X3930962Y-18479333D02*
X3930962Y-18431714D01*
X3930962Y-18431714D02*
X3940486Y-18393619D01*
X3940486Y-18393619D02*
X3950009Y-18374571D01*
X3950009Y-18374571D02*
X3959533Y-18365048D01*
X3959533Y-18365048D02*
X3978581Y-18355524D01*
X4130962Y-18555524D02*
X4130962Y-18422190D01*
X4130962Y-18441238D02*
X4140486Y-18431714D01*
X4140486Y-18431714D02*
X4159533Y-18422190D01*
X4159533Y-18422190D02*
X4188105Y-18422190D01*
X4188105Y-18422190D02*
X4207152Y-18431714D01*
X4207152Y-18431714D02*
X4216676Y-18450762D01*
X4216676Y-18450762D02*
X4216676Y-18555524D01*
X4216676Y-18450762D02*
X4226200Y-18431714D01*
X4226200Y-18431714D02*
X4245248Y-18422190D01*
X4245248Y-18422190D02*
X4273819Y-18422190D01*
X4273819Y-18422190D02*
X4292867Y-18431714D01*
X4292867Y-18431714D02*
X4302391Y-18450762D01*
X4302391Y-18450762D02*
X4302391Y-18555524D01*
X4397629Y-18555524D02*
X4397629Y-18422190D01*
X4397629Y-18441238D02*
X4407152Y-18431714D01*
X4407152Y-18431714D02*
X4426200Y-18422190D01*
X4426200Y-18422190D02*
X4454772Y-18422190D01*
X4454772Y-18422190D02*
X4473819Y-18431714D01*
X4473819Y-18431714D02*
X4483343Y-18450762D01*
X4483343Y-18450762D02*
X4483343Y-18555524D01*
X4483343Y-18450762D02*
X4492867Y-18431714D01*
X4492867Y-18431714D02*
X4511914Y-18422190D01*
X4511914Y-18422190D02*
X4540486Y-18422190D01*
X4540486Y-18422190D02*
X4559533Y-18431714D01*
X4559533Y-18431714D02*
X4569057Y-18450762D01*
X4569057Y-18450762D02*
X4569057Y-18555524D01*
X4959533Y-18346000D02*
X4788105Y-18603143D01*
X5216676Y-18355524D02*
X5235724Y-18355524D01*
X5235724Y-18355524D02*
X5254772Y-18365048D01*
X5254772Y-18365048D02*
X5264295Y-18374571D01*
X5264295Y-18374571D02*
X5273819Y-18393619D01*
X5273819Y-18393619D02*
X5283343Y-18431714D01*
X5283343Y-18431714D02*
X5283343Y-18479333D01*
X5283343Y-18479333D02*
X5273819Y-18517429D01*
X5273819Y-18517429D02*
X5264295Y-18536476D01*
X5264295Y-18536476D02*
X5254772Y-18546000D01*
X5254772Y-18546000D02*
X5235724Y-18555524D01*
X5235724Y-18555524D02*
X5216676Y-18555524D01*
X5216676Y-18555524D02*
X5197629Y-18546000D01*
X5197629Y-18546000D02*
X5188105Y-18536476D01*
X5188105Y-18536476D02*
X5178581Y-18517429D01*
X5178581Y-18517429D02*
X5169057Y-18479333D01*
X5169057Y-18479333D02*
X5169057Y-18431714D01*
X5169057Y-18431714D02*
X5178581Y-18393619D01*
X5178581Y-18393619D02*
X5188105Y-18374571D01*
X5188105Y-18374571D02*
X5197629Y-18365048D01*
X5197629Y-18365048D02*
X5216676Y-18355524D01*
X5369057Y-18536476D02*
X5378581Y-18546000D01*
X5378581Y-18546000D02*
X5369057Y-18555524D01*
X5369057Y-18555524D02*
X5359534Y-18546000D01*
X5359534Y-18546000D02*
X5369057Y-18536476D01*
X5369057Y-18536476D02*
X5369057Y-18555524D01*
X5502391Y-18355524D02*
X5521438Y-18355524D01*
X5521438Y-18355524D02*
X5540486Y-18365048D01*
X5540486Y-18365048D02*
X5550010Y-18374571D01*
X5550010Y-18374571D02*
X5559534Y-18393619D01*
X5559534Y-18393619D02*
X5569057Y-18431714D01*
X5569057Y-18431714D02*
X5569057Y-18479333D01*
X5569057Y-18479333D02*
X5559534Y-18517429D01*
X5559534Y-18517429D02*
X5550010Y-18536476D01*
X5550010Y-18536476D02*
X5540486Y-18546000D01*
X5540486Y-18546000D02*
X5521438Y-18555524D01*
X5521438Y-18555524D02*
X5502391Y-18555524D01*
X5502391Y-18555524D02*
X5483343Y-18546000D01*
X5483343Y-18546000D02*
X5473819Y-18536476D01*
X5473819Y-18536476D02*
X5464295Y-18517429D01*
X5464295Y-18517429D02*
X5454772Y-18479333D01*
X5454772Y-18479333D02*
X5454772Y-18431714D01*
X5454772Y-18431714D02*
X5464295Y-18393619D01*
X5464295Y-18393619D02*
X5473819Y-18374571D01*
X5473819Y-18374571D02*
X5483343Y-18365048D01*
X5483343Y-18365048D02*
X5502391Y-18355524D01*
X5740486Y-18355524D02*
X5702391Y-18355524D01*
X5702391Y-18355524D02*
X5683343Y-18365048D01*
X5683343Y-18365048D02*
X5673819Y-18374571D01*
X5673819Y-18374571D02*
X5654772Y-18403143D01*
X5654772Y-18403143D02*
X5645248Y-18441238D01*
X5645248Y-18441238D02*
X5645248Y-18517429D01*
X5645248Y-18517429D02*
X5654772Y-18536476D01*
X5654772Y-18536476D02*
X5664295Y-18546000D01*
X5664295Y-18546000D02*
X5683343Y-18555524D01*
X5683343Y-18555524D02*
X5721438Y-18555524D01*
X5721438Y-18555524D02*
X5740486Y-18546000D01*
X5740486Y-18546000D02*
X5750010Y-18536476D01*
X5750010Y-18536476D02*
X5759533Y-18517429D01*
X5759533Y-18517429D02*
X5759533Y-18469810D01*
X5759533Y-18469810D02*
X5750010Y-18450762D01*
X5750010Y-18450762D02*
X5740486Y-18441238D01*
X5740486Y-18441238D02*
X5721438Y-18431714D01*
X5721438Y-18431714D02*
X5683343Y-18431714D01*
X5683343Y-18431714D02*
X5664295Y-18441238D01*
X5664295Y-18441238D02*
X5654772Y-18450762D01*
X5654772Y-18450762D02*
X5645248Y-18469810D01*
X5873819Y-18441238D02*
X5854772Y-18431714D01*
X5854772Y-18431714D02*
X5845248Y-18422190D01*
X5845248Y-18422190D02*
X5835724Y-18403143D01*
X5835724Y-18403143D02*
X5835724Y-18393619D01*
X5835724Y-18393619D02*
X5845248Y-18374571D01*
X5845248Y-18374571D02*
X5854772Y-18365048D01*
X5854772Y-18365048D02*
X5873819Y-18355524D01*
X5873819Y-18355524D02*
X5911914Y-18355524D01*
X5911914Y-18355524D02*
X5930962Y-18365048D01*
X5930962Y-18365048D02*
X5940486Y-18374571D01*
X5940486Y-18374571D02*
X5950010Y-18393619D01*
X5950010Y-18393619D02*
X5950010Y-18403143D01*
X5950010Y-18403143D02*
X5940486Y-18422190D01*
X5940486Y-18422190D02*
X5930962Y-18431714D01*
X5930962Y-18431714D02*
X5911914Y-18441238D01*
X5911914Y-18441238D02*
X5873819Y-18441238D01*
X5873819Y-18441238D02*
X5854772Y-18450762D01*
X5854772Y-18450762D02*
X5845248Y-18460286D01*
X5845248Y-18460286D02*
X5835724Y-18479333D01*
X5835724Y-18479333D02*
X5835724Y-18517429D01*
X5835724Y-18517429D02*
X5845248Y-18536476D01*
X5845248Y-18536476D02*
X5854772Y-18546000D01*
X5854772Y-18546000D02*
X5873819Y-18555524D01*
X5873819Y-18555524D02*
X5911914Y-18555524D01*
X5911914Y-18555524D02*
X5930962Y-18546000D01*
X5930962Y-18546000D02*
X5940486Y-18536476D01*
X5940486Y-18536476D02*
X5950010Y-18517429D01*
X5950010Y-18517429D02*
X5950010Y-18479333D01*
X5950010Y-18479333D02*
X5940486Y-18460286D01*
X5940486Y-18460286D02*
X5930962Y-18450762D01*
X5930962Y-18450762D02*
X5911914Y-18441238D01*
X6045248Y-18555524D02*
X6083343Y-18555524D01*
X6083343Y-18555524D02*
X6102391Y-18546000D01*
X6102391Y-18546000D02*
X6111914Y-18536476D01*
X6111914Y-18536476D02*
X6130962Y-18507905D01*
X6130962Y-18507905D02*
X6140486Y-18469810D01*
X6140486Y-18469810D02*
X6140486Y-18393619D01*
X6140486Y-18393619D02*
X6130962Y-18374571D01*
X6130962Y-18374571D02*
X6121438Y-18365048D01*
X6121438Y-18365048D02*
X6102391Y-18355524D01*
X6102391Y-18355524D02*
X6064295Y-18355524D01*
X6064295Y-18355524D02*
X6045248Y-18365048D01*
X6045248Y-18365048D02*
X6035724Y-18374571D01*
X6035724Y-18374571D02*
X6026200Y-18393619D01*
X6026200Y-18393619D02*
X6026200Y-18441238D01*
X6026200Y-18441238D02*
X6035724Y-18460286D01*
X6035724Y-18460286D02*
X6045248Y-18469810D01*
X6045248Y-18469810D02*
X6064295Y-18479333D01*
X6064295Y-18479333D02*
X6102391Y-18479333D01*
X6102391Y-18479333D02*
X6121438Y-18469810D01*
X6121438Y-18469810D02*
X6130962Y-18460286D01*
X6130962Y-18460286D02*
X6140486Y-18441238D01*
X6216676Y-18355524D02*
X6216676Y-18393619D01*
X6292867Y-18355524D02*
X6292867Y-18393619D01*
X6588105Y-18631714D02*
X6578581Y-18622190D01*
X6578581Y-18622190D02*
X6559534Y-18593619D01*
X6559534Y-18593619D02*
X6550010Y-18574571D01*
X6550010Y-18574571D02*
X6540486Y-18546000D01*
X6540486Y-18546000D02*
X6530962Y-18498381D01*
X6530962Y-18498381D02*
X6530962Y-18460286D01*
X6530962Y-18460286D02*
X6540486Y-18412667D01*
X6540486Y-18412667D02*
X6550010Y-18384095D01*
X6550010Y-18384095D02*
X6559534Y-18365048D01*
X6559534Y-18365048D02*
X6578581Y-18336476D01*
X6578581Y-18336476D02*
X6588105Y-18326952D01*
X6769057Y-18555524D02*
X6654772Y-18555524D01*
X6711914Y-18555524D02*
X6711914Y-18355524D01*
X6711914Y-18355524D02*
X6692867Y-18384095D01*
X6692867Y-18384095D02*
X6673819Y-18403143D01*
X6673819Y-18403143D02*
X6654772Y-18412667D01*
X6835724Y-18355524D02*
X6969057Y-18355524D01*
X6969057Y-18355524D02*
X6883343Y-18555524D01*
X7130962Y-18422190D02*
X7130962Y-18555524D01*
X7083343Y-18346000D02*
X7035724Y-18488857D01*
X7035724Y-18488857D02*
X7159534Y-18488857D01*
X7388105Y-18555524D02*
X7388105Y-18355524D01*
X7473819Y-18555524D02*
X7473819Y-18450762D01*
X7473819Y-18450762D02*
X7464296Y-18431714D01*
X7464296Y-18431714D02*
X7445248Y-18422190D01*
X7445248Y-18422190D02*
X7416676Y-18422190D01*
X7416676Y-18422190D02*
X7397629Y-18431714D01*
X7397629Y-18431714D02*
X7388105Y-18441238D01*
X7597629Y-18555524D02*
X7578581Y-18546000D01*
X7578581Y-18546000D02*
X7569057Y-18536476D01*
X7569057Y-18536476D02*
X7559534Y-18517429D01*
X7559534Y-18517429D02*
X7559534Y-18460286D01*
X7559534Y-18460286D02*
X7569057Y-18441238D01*
X7569057Y-18441238D02*
X7578581Y-18431714D01*
X7578581Y-18431714D02*
X7597629Y-18422190D01*
X7597629Y-18422190D02*
X7626200Y-18422190D01*
X7626200Y-18422190D02*
X7645248Y-18431714D01*
X7645248Y-18431714D02*
X7654772Y-18441238D01*
X7654772Y-18441238D02*
X7664296Y-18460286D01*
X7664296Y-18460286D02*
X7664296Y-18517429D01*
X7664296Y-18517429D02*
X7654772Y-18536476D01*
X7654772Y-18536476D02*
X7645248Y-18546000D01*
X7645248Y-18546000D02*
X7626200Y-18555524D01*
X7626200Y-18555524D02*
X7597629Y-18555524D01*
X7778581Y-18555524D02*
X7759534Y-18546000D01*
X7759534Y-18546000D02*
X7750010Y-18526952D01*
X7750010Y-18526952D02*
X7750010Y-18355524D01*
X7930962Y-18546000D02*
X7911915Y-18555524D01*
X7911915Y-18555524D02*
X7873819Y-18555524D01*
X7873819Y-18555524D02*
X7854772Y-18546000D01*
X7854772Y-18546000D02*
X7845248Y-18526952D01*
X7845248Y-18526952D02*
X7845248Y-18450762D01*
X7845248Y-18450762D02*
X7854772Y-18431714D01*
X7854772Y-18431714D02*
X7873819Y-18422190D01*
X7873819Y-18422190D02*
X7911915Y-18422190D01*
X7911915Y-18422190D02*
X7930962Y-18431714D01*
X7930962Y-18431714D02*
X7940486Y-18450762D01*
X7940486Y-18450762D02*
X7940486Y-18469810D01*
X7940486Y-18469810D02*
X7845248Y-18488857D01*
X8016677Y-18546000D02*
X8035724Y-18555524D01*
X8035724Y-18555524D02*
X8073819Y-18555524D01*
X8073819Y-18555524D02*
X8092867Y-18546000D01*
X8092867Y-18546000D02*
X8102391Y-18526952D01*
X8102391Y-18526952D02*
X8102391Y-18517429D01*
X8102391Y-18517429D02*
X8092867Y-18498381D01*
X8092867Y-18498381D02*
X8073819Y-18488857D01*
X8073819Y-18488857D02*
X8045248Y-18488857D01*
X8045248Y-18488857D02*
X8026200Y-18479333D01*
X8026200Y-18479333D02*
X8016677Y-18460286D01*
X8016677Y-18460286D02*
X8016677Y-18450762D01*
X8016677Y-18450762D02*
X8026200Y-18431714D01*
X8026200Y-18431714D02*
X8045248Y-18422190D01*
X8045248Y-18422190D02*
X8073819Y-18422190D01*
X8073819Y-18422190D02*
X8092867Y-18431714D01*
X8169058Y-18631714D02*
X8178581Y-18622190D01*
X8178581Y-18622190D02*
X8197629Y-18593619D01*
X8197629Y-18593619D02*
X8207153Y-18574571D01*
X8207153Y-18574571D02*
X8216677Y-18546000D01*
X8216677Y-18546000D02*
X8226200Y-18498381D01*
X8226200Y-18498381D02*
X8226200Y-18460286D01*
X8226200Y-18460286D02*
X8216677Y-18412667D01*
X8216677Y-18412667D02*
X8207153Y-18384095D01*
X8207153Y-18384095D02*
X8197629Y-18365048D01*
X8197629Y-18365048D02*
X8178581Y-18336476D01*
X8178581Y-18336476D02*
X8169058Y-18326952D01*
X8530962Y-18631714D02*
X8521439Y-18622190D01*
X8521439Y-18622190D02*
X8502391Y-18593619D01*
X8502391Y-18593619D02*
X8492867Y-18574571D01*
X8492867Y-18574571D02*
X8483343Y-18546000D01*
X8483343Y-18546000D02*
X8473820Y-18498381D01*
X8473820Y-18498381D02*
X8473820Y-18460286D01*
X8473820Y-18460286D02*
X8483343Y-18412667D01*
X8483343Y-18412667D02*
X8492867Y-18384095D01*
X8492867Y-18384095D02*
X8502391Y-18365048D01*
X8502391Y-18365048D02*
X8521439Y-18336476D01*
X8521439Y-18336476D02*
X8530962Y-18326952D01*
X8607153Y-18422190D02*
X8607153Y-18555524D01*
X8607153Y-18441238D02*
X8616677Y-18431714D01*
X8616677Y-18431714D02*
X8635724Y-18422190D01*
X8635724Y-18422190D02*
X8664296Y-18422190D01*
X8664296Y-18422190D02*
X8683343Y-18431714D01*
X8683343Y-18431714D02*
X8692867Y-18450762D01*
X8692867Y-18450762D02*
X8692867Y-18555524D01*
X8816677Y-18555524D02*
X8797629Y-18546000D01*
X8797629Y-18546000D02*
X8788105Y-18536476D01*
X8788105Y-18536476D02*
X8778581Y-18517429D01*
X8778581Y-18517429D02*
X8778581Y-18460286D01*
X8778581Y-18460286D02*
X8788105Y-18441238D01*
X8788105Y-18441238D02*
X8797629Y-18431714D01*
X8797629Y-18431714D02*
X8816677Y-18422190D01*
X8816677Y-18422190D02*
X8845248Y-18422190D01*
X8845248Y-18422190D02*
X8864296Y-18431714D01*
X8864296Y-18431714D02*
X8873820Y-18441238D01*
X8873820Y-18441238D02*
X8883343Y-18460286D01*
X8883343Y-18460286D02*
X8883343Y-18517429D01*
X8883343Y-18517429D02*
X8873820Y-18536476D01*
X8873820Y-18536476D02*
X8864296Y-18546000D01*
X8864296Y-18546000D02*
X8845248Y-18555524D01*
X8845248Y-18555524D02*
X8816677Y-18555524D01*
X8940486Y-18422190D02*
X9016677Y-18422190D01*
X8969058Y-18355524D02*
X8969058Y-18526952D01*
X8969058Y-18526952D02*
X8978581Y-18546000D01*
X8978581Y-18546000D02*
X8997629Y-18555524D01*
X8997629Y-18555524D02*
X9016677Y-18555524D01*
X9235724Y-18422190D02*
X9235724Y-18622190D01*
X9235724Y-18431714D02*
X9254772Y-18422190D01*
X9254772Y-18422190D02*
X9292867Y-18422190D01*
X9292867Y-18422190D02*
X9311915Y-18431714D01*
X9311915Y-18431714D02*
X9321439Y-18441238D01*
X9321439Y-18441238D02*
X9330962Y-18460286D01*
X9330962Y-18460286D02*
X9330962Y-18517429D01*
X9330962Y-18517429D02*
X9321439Y-18536476D01*
X9321439Y-18536476D02*
X9311915Y-18546000D01*
X9311915Y-18546000D02*
X9292867Y-18555524D01*
X9292867Y-18555524D02*
X9254772Y-18555524D01*
X9254772Y-18555524D02*
X9235724Y-18546000D01*
X9445248Y-18555524D02*
X9426201Y-18546000D01*
X9426201Y-18546000D02*
X9416677Y-18526952D01*
X9416677Y-18526952D02*
X9416677Y-18355524D01*
X9607153Y-18555524D02*
X9607153Y-18450762D01*
X9607153Y-18450762D02*
X9597629Y-18431714D01*
X9597629Y-18431714D02*
X9578582Y-18422190D01*
X9578582Y-18422190D02*
X9540486Y-18422190D01*
X9540486Y-18422190D02*
X9521439Y-18431714D01*
X9607153Y-18546000D02*
X9588105Y-18555524D01*
X9588105Y-18555524D02*
X9540486Y-18555524D01*
X9540486Y-18555524D02*
X9521439Y-18546000D01*
X9521439Y-18546000D02*
X9511915Y-18526952D01*
X9511915Y-18526952D02*
X9511915Y-18507905D01*
X9511915Y-18507905D02*
X9521439Y-18488857D01*
X9521439Y-18488857D02*
X9540486Y-18479333D01*
X9540486Y-18479333D02*
X9588105Y-18479333D01*
X9588105Y-18479333D02*
X9607153Y-18469810D01*
X9673820Y-18422190D02*
X9750010Y-18422190D01*
X9702391Y-18355524D02*
X9702391Y-18526952D01*
X9702391Y-18526952D02*
X9711915Y-18546000D01*
X9711915Y-18546000D02*
X9730962Y-18555524D01*
X9730962Y-18555524D02*
X9750010Y-18555524D01*
X9892867Y-18546000D02*
X9873820Y-18555524D01*
X9873820Y-18555524D02*
X9835724Y-18555524D01*
X9835724Y-18555524D02*
X9816677Y-18546000D01*
X9816677Y-18546000D02*
X9807153Y-18526952D01*
X9807153Y-18526952D02*
X9807153Y-18450762D01*
X9807153Y-18450762D02*
X9816677Y-18431714D01*
X9816677Y-18431714D02*
X9835724Y-18422190D01*
X9835724Y-18422190D02*
X9873820Y-18422190D01*
X9873820Y-18422190D02*
X9892867Y-18431714D01*
X9892867Y-18431714D02*
X9902391Y-18450762D01*
X9902391Y-18450762D02*
X9902391Y-18469810D01*
X9902391Y-18469810D02*
X9807153Y-18488857D01*
X10073820Y-18555524D02*
X10073820Y-18355524D01*
X10073820Y-18546000D02*
X10054772Y-18555524D01*
X10054772Y-18555524D02*
X10016677Y-18555524D01*
X10016677Y-18555524D02*
X9997629Y-18546000D01*
X9997629Y-18546000D02*
X9988105Y-18536476D01*
X9988105Y-18536476D02*
X9978582Y-18517429D01*
X9978582Y-18517429D02*
X9978582Y-18460286D01*
X9978582Y-18460286D02*
X9988105Y-18441238D01*
X9988105Y-18441238D02*
X9997629Y-18431714D01*
X9997629Y-18431714D02*
X10016677Y-18422190D01*
X10016677Y-18422190D02*
X10054772Y-18422190D01*
X10054772Y-18422190D02*
X10073820Y-18431714D01*
X10150010Y-18631714D02*
X10159534Y-18622190D01*
X10159534Y-18622190D02*
X10178582Y-18593619D01*
X10178582Y-18593619D02*
X10188105Y-18574571D01*
X10188105Y-18574571D02*
X10197629Y-18546000D01*
X10197629Y-18546000D02*
X10207153Y-18498381D01*
X10207153Y-18498381D02*
X10207153Y-18460286D01*
X10207153Y-18460286D02*
X10197629Y-18412667D01*
X10197629Y-18412667D02*
X10188105Y-18384095D01*
X10188105Y-18384095D02*
X10178582Y-18365048D01*
X10178582Y-18365048D02*
X10159534Y-18336476D01*
X10159534Y-18336476D02*
X10150010Y-18326952D01*
X3026200Y-18758000D02*
G75*
G03*
X3026200Y-18758000I-100000J0D01*
G01*
X3254771Y-18650524D02*
X3378581Y-18650524D01*
X3378581Y-18650524D02*
X3311914Y-18726714D01*
X3311914Y-18726714D02*
X3340486Y-18726714D01*
X3340486Y-18726714D02*
X3359533Y-18736238D01*
X3359533Y-18736238D02*
X3369057Y-18745762D01*
X3369057Y-18745762D02*
X3378581Y-18764810D01*
X3378581Y-18764810D02*
X3378581Y-18812429D01*
X3378581Y-18812429D02*
X3369057Y-18831476D01*
X3369057Y-18831476D02*
X3359533Y-18841000D01*
X3359533Y-18841000D02*
X3340486Y-18850524D01*
X3340486Y-18850524D02*
X3283343Y-18850524D01*
X3283343Y-18850524D02*
X3264295Y-18841000D01*
X3264295Y-18841000D02*
X3254771Y-18831476D01*
X3464295Y-18831476D02*
X3473819Y-18841000D01*
X3473819Y-18841000D02*
X3464295Y-18850524D01*
X3464295Y-18850524D02*
X3454771Y-18841000D01*
X3454771Y-18841000D02*
X3464295Y-18831476D01*
X3464295Y-18831476D02*
X3464295Y-18850524D01*
X3597628Y-18650524D02*
X3616676Y-18650524D01*
X3616676Y-18650524D02*
X3635724Y-18660048D01*
X3635724Y-18660048D02*
X3645248Y-18669571D01*
X3645248Y-18669571D02*
X3654771Y-18688619D01*
X3654771Y-18688619D02*
X3664295Y-18726714D01*
X3664295Y-18726714D02*
X3664295Y-18774333D01*
X3664295Y-18774333D02*
X3654771Y-18812429D01*
X3654771Y-18812429D02*
X3645248Y-18831476D01*
X3645248Y-18831476D02*
X3635724Y-18841000D01*
X3635724Y-18841000D02*
X3616676Y-18850524D01*
X3616676Y-18850524D02*
X3597628Y-18850524D01*
X3597628Y-18850524D02*
X3578581Y-18841000D01*
X3578581Y-18841000D02*
X3569057Y-18831476D01*
X3569057Y-18831476D02*
X3559533Y-18812429D01*
X3559533Y-18812429D02*
X3550009Y-18774333D01*
X3550009Y-18774333D02*
X3550009Y-18726714D01*
X3550009Y-18726714D02*
X3559533Y-18688619D01*
X3559533Y-18688619D02*
X3569057Y-18669571D01*
X3569057Y-18669571D02*
X3578581Y-18660048D01*
X3578581Y-18660048D02*
X3597628Y-18650524D01*
X3835724Y-18717190D02*
X3835724Y-18850524D01*
X3788105Y-18641000D02*
X3740486Y-18783857D01*
X3740486Y-18783857D02*
X3864295Y-18783857D01*
X3969057Y-18736238D02*
X3950009Y-18726714D01*
X3950009Y-18726714D02*
X3940486Y-18717190D01*
X3940486Y-18717190D02*
X3930962Y-18698143D01*
X3930962Y-18698143D02*
X3930962Y-18688619D01*
X3930962Y-18688619D02*
X3940486Y-18669571D01*
X3940486Y-18669571D02*
X3950009Y-18660048D01*
X3950009Y-18660048D02*
X3969057Y-18650524D01*
X3969057Y-18650524D02*
X4007152Y-18650524D01*
X4007152Y-18650524D02*
X4026200Y-18660048D01*
X4026200Y-18660048D02*
X4035724Y-18669571D01*
X4035724Y-18669571D02*
X4045248Y-18688619D01*
X4045248Y-18688619D02*
X4045248Y-18698143D01*
X4045248Y-18698143D02*
X4035724Y-18717190D01*
X4035724Y-18717190D02*
X4026200Y-18726714D01*
X4026200Y-18726714D02*
X4007152Y-18736238D01*
X4007152Y-18736238D02*
X3969057Y-18736238D01*
X3969057Y-18736238D02*
X3950009Y-18745762D01*
X3950009Y-18745762D02*
X3940486Y-18755286D01*
X3940486Y-18755286D02*
X3930962Y-18774333D01*
X3930962Y-18774333D02*
X3930962Y-18812429D01*
X3930962Y-18812429D02*
X3940486Y-18831476D01*
X3940486Y-18831476D02*
X3950009Y-18841000D01*
X3950009Y-18841000D02*
X3969057Y-18850524D01*
X3969057Y-18850524D02*
X4007152Y-18850524D01*
X4007152Y-18850524D02*
X4026200Y-18841000D01*
X4026200Y-18841000D02*
X4035724Y-18831476D01*
X4035724Y-18831476D02*
X4045248Y-18812429D01*
X4045248Y-18812429D02*
X4045248Y-18774333D01*
X4045248Y-18774333D02*
X4035724Y-18755286D01*
X4035724Y-18755286D02*
X4026200Y-18745762D01*
X4026200Y-18745762D02*
X4007152Y-18736238D01*
X4130962Y-18850524D02*
X4130962Y-18717190D01*
X4130962Y-18736238D02*
X4140486Y-18726714D01*
X4140486Y-18726714D02*
X4159533Y-18717190D01*
X4159533Y-18717190D02*
X4188105Y-18717190D01*
X4188105Y-18717190D02*
X4207152Y-18726714D01*
X4207152Y-18726714D02*
X4216676Y-18745762D01*
X4216676Y-18745762D02*
X4216676Y-18850524D01*
X4216676Y-18745762D02*
X4226200Y-18726714D01*
X4226200Y-18726714D02*
X4245248Y-18717190D01*
X4245248Y-18717190D02*
X4273819Y-18717190D01*
X4273819Y-18717190D02*
X4292867Y-18726714D01*
X4292867Y-18726714D02*
X4302391Y-18745762D01*
X4302391Y-18745762D02*
X4302391Y-18850524D01*
X4397629Y-18850524D02*
X4397629Y-18717190D01*
X4397629Y-18736238D02*
X4407152Y-18726714D01*
X4407152Y-18726714D02*
X4426200Y-18717190D01*
X4426200Y-18717190D02*
X4454772Y-18717190D01*
X4454772Y-18717190D02*
X4473819Y-18726714D01*
X4473819Y-18726714D02*
X4483343Y-18745762D01*
X4483343Y-18745762D02*
X4483343Y-18850524D01*
X4483343Y-18745762D02*
X4492867Y-18726714D01*
X4492867Y-18726714D02*
X4511914Y-18717190D01*
X4511914Y-18717190D02*
X4540486Y-18717190D01*
X4540486Y-18717190D02*
X4559533Y-18726714D01*
X4559533Y-18726714D02*
X4569057Y-18745762D01*
X4569057Y-18745762D02*
X4569057Y-18850524D01*
X4959533Y-18641000D02*
X4788105Y-18898143D01*
X5216676Y-18650524D02*
X5235724Y-18650524D01*
X5235724Y-18650524D02*
X5254772Y-18660048D01*
X5254772Y-18660048D02*
X5264295Y-18669571D01*
X5264295Y-18669571D02*
X5273819Y-18688619D01*
X5273819Y-18688619D02*
X5283343Y-18726714D01*
X5283343Y-18726714D02*
X5283343Y-18774333D01*
X5283343Y-18774333D02*
X5273819Y-18812429D01*
X5273819Y-18812429D02*
X5264295Y-18831476D01*
X5264295Y-18831476D02*
X5254772Y-18841000D01*
X5254772Y-18841000D02*
X5235724Y-18850524D01*
X5235724Y-18850524D02*
X5216676Y-18850524D01*
X5216676Y-18850524D02*
X5197629Y-18841000D01*
X5197629Y-18841000D02*
X5188105Y-18831476D01*
X5188105Y-18831476D02*
X5178581Y-18812429D01*
X5178581Y-18812429D02*
X5169057Y-18774333D01*
X5169057Y-18774333D02*
X5169057Y-18726714D01*
X5169057Y-18726714D02*
X5178581Y-18688619D01*
X5178581Y-18688619D02*
X5188105Y-18669571D01*
X5188105Y-18669571D02*
X5197629Y-18660048D01*
X5197629Y-18660048D02*
X5216676Y-18650524D01*
X5369057Y-18831476D02*
X5378581Y-18841000D01*
X5378581Y-18841000D02*
X5369057Y-18850524D01*
X5369057Y-18850524D02*
X5359534Y-18841000D01*
X5359534Y-18841000D02*
X5369057Y-18831476D01*
X5369057Y-18831476D02*
X5369057Y-18850524D01*
X5569057Y-18850524D02*
X5454772Y-18850524D01*
X5511914Y-18850524D02*
X5511914Y-18650524D01*
X5511914Y-18650524D02*
X5492867Y-18679095D01*
X5492867Y-18679095D02*
X5473819Y-18698143D01*
X5473819Y-18698143D02*
X5454772Y-18707667D01*
X5645248Y-18669571D02*
X5654772Y-18660048D01*
X5654772Y-18660048D02*
X5673819Y-18650524D01*
X5673819Y-18650524D02*
X5721438Y-18650524D01*
X5721438Y-18650524D02*
X5740486Y-18660048D01*
X5740486Y-18660048D02*
X5750010Y-18669571D01*
X5750010Y-18669571D02*
X5759533Y-18688619D01*
X5759533Y-18688619D02*
X5759533Y-18707667D01*
X5759533Y-18707667D02*
X5750010Y-18736238D01*
X5750010Y-18736238D02*
X5635724Y-18850524D01*
X5635724Y-18850524D02*
X5759533Y-18850524D01*
X5883343Y-18650524D02*
X5902391Y-18650524D01*
X5902391Y-18650524D02*
X5921438Y-18660048D01*
X5921438Y-18660048D02*
X5930962Y-18669571D01*
X5930962Y-18669571D02*
X5940486Y-18688619D01*
X5940486Y-18688619D02*
X5950010Y-18726714D01*
X5950010Y-18726714D02*
X5950010Y-18774333D01*
X5950010Y-18774333D02*
X5940486Y-18812429D01*
X5940486Y-18812429D02*
X5930962Y-18831476D01*
X5930962Y-18831476D02*
X5921438Y-18841000D01*
X5921438Y-18841000D02*
X5902391Y-18850524D01*
X5902391Y-18850524D02*
X5883343Y-18850524D01*
X5883343Y-18850524D02*
X5864295Y-18841000D01*
X5864295Y-18841000D02*
X5854772Y-18831476D01*
X5854772Y-18831476D02*
X5845248Y-18812429D01*
X5845248Y-18812429D02*
X5835724Y-18774333D01*
X5835724Y-18774333D02*
X5835724Y-18726714D01*
X5835724Y-18726714D02*
X5845248Y-18688619D01*
X5845248Y-18688619D02*
X5854772Y-18669571D01*
X5854772Y-18669571D02*
X5864295Y-18660048D01*
X5864295Y-18660048D02*
X5883343Y-18650524D01*
X6073819Y-18650524D02*
X6092867Y-18650524D01*
X6092867Y-18650524D02*
X6111914Y-18660048D01*
X6111914Y-18660048D02*
X6121438Y-18669571D01*
X6121438Y-18669571D02*
X6130962Y-18688619D01*
X6130962Y-18688619D02*
X6140486Y-18726714D01*
X6140486Y-18726714D02*
X6140486Y-18774333D01*
X6140486Y-18774333D02*
X6130962Y-18812429D01*
X6130962Y-18812429D02*
X6121438Y-18831476D01*
X6121438Y-18831476D02*
X6111914Y-18841000D01*
X6111914Y-18841000D02*
X6092867Y-18850524D01*
X6092867Y-18850524D02*
X6073819Y-18850524D01*
X6073819Y-18850524D02*
X6054772Y-18841000D01*
X6054772Y-18841000D02*
X6045248Y-18831476D01*
X6045248Y-18831476D02*
X6035724Y-18812429D01*
X6035724Y-18812429D02*
X6026200Y-18774333D01*
X6026200Y-18774333D02*
X6026200Y-18726714D01*
X6026200Y-18726714D02*
X6035724Y-18688619D01*
X6035724Y-18688619D02*
X6045248Y-18669571D01*
X6045248Y-18669571D02*
X6054772Y-18660048D01*
X6054772Y-18660048D02*
X6073819Y-18650524D01*
X6216676Y-18650524D02*
X6216676Y-18688619D01*
X6292867Y-18650524D02*
X6292867Y-18688619D01*
X6588105Y-18926714D02*
X6578581Y-18917190D01*
X6578581Y-18917190D02*
X6559534Y-18888619D01*
X6559534Y-18888619D02*
X6550010Y-18869571D01*
X6550010Y-18869571D02*
X6540486Y-18841000D01*
X6540486Y-18841000D02*
X6530962Y-18793381D01*
X6530962Y-18793381D02*
X6530962Y-18755286D01*
X6530962Y-18755286D02*
X6540486Y-18707667D01*
X6540486Y-18707667D02*
X6550010Y-18679095D01*
X6550010Y-18679095D02*
X6559534Y-18660048D01*
X6559534Y-18660048D02*
X6578581Y-18631476D01*
X6578581Y-18631476D02*
X6588105Y-18621952D01*
X6769057Y-18850524D02*
X6654772Y-18850524D01*
X6711914Y-18850524D02*
X6711914Y-18650524D01*
X6711914Y-18650524D02*
X6692867Y-18679095D01*
X6692867Y-18679095D02*
X6673819Y-18698143D01*
X6673819Y-18698143D02*
X6654772Y-18707667D01*
X6892867Y-18650524D02*
X6911915Y-18650524D01*
X6911915Y-18650524D02*
X6930962Y-18660048D01*
X6930962Y-18660048D02*
X6940486Y-18669571D01*
X6940486Y-18669571D02*
X6950010Y-18688619D01*
X6950010Y-18688619D02*
X6959534Y-18726714D01*
X6959534Y-18726714D02*
X6959534Y-18774333D01*
X6959534Y-18774333D02*
X6950010Y-18812429D01*
X6950010Y-18812429D02*
X6940486Y-18831476D01*
X6940486Y-18831476D02*
X6930962Y-18841000D01*
X6930962Y-18841000D02*
X6911915Y-18850524D01*
X6911915Y-18850524D02*
X6892867Y-18850524D01*
X6892867Y-18850524D02*
X6873819Y-18841000D01*
X6873819Y-18841000D02*
X6864295Y-18831476D01*
X6864295Y-18831476D02*
X6854772Y-18812429D01*
X6854772Y-18812429D02*
X6845248Y-18774333D01*
X6845248Y-18774333D02*
X6845248Y-18726714D01*
X6845248Y-18726714D02*
X6854772Y-18688619D01*
X6854772Y-18688619D02*
X6864295Y-18669571D01*
X6864295Y-18669571D02*
X6873819Y-18660048D01*
X6873819Y-18660048D02*
X6892867Y-18650524D01*
X7197629Y-18850524D02*
X7197629Y-18650524D01*
X7283343Y-18850524D02*
X7283343Y-18745762D01*
X7283343Y-18745762D02*
X7273819Y-18726714D01*
X7273819Y-18726714D02*
X7254772Y-18717190D01*
X7254772Y-18717190D02*
X7226200Y-18717190D01*
X7226200Y-18717190D02*
X7207153Y-18726714D01*
X7207153Y-18726714D02*
X7197629Y-18736238D01*
X7407153Y-18850524D02*
X7388105Y-18841000D01*
X7388105Y-18841000D02*
X7378581Y-18831476D01*
X7378581Y-18831476D02*
X7369057Y-18812429D01*
X7369057Y-18812429D02*
X7369057Y-18755286D01*
X7369057Y-18755286D02*
X7378581Y-18736238D01*
X7378581Y-18736238D02*
X7388105Y-18726714D01*
X7388105Y-18726714D02*
X7407153Y-18717190D01*
X7407153Y-18717190D02*
X7435724Y-18717190D01*
X7435724Y-18717190D02*
X7454772Y-18726714D01*
X7454772Y-18726714D02*
X7464296Y-18736238D01*
X7464296Y-18736238D02*
X7473819Y-18755286D01*
X7473819Y-18755286D02*
X7473819Y-18812429D01*
X7473819Y-18812429D02*
X7464296Y-18831476D01*
X7464296Y-18831476D02*
X7454772Y-18841000D01*
X7454772Y-18841000D02*
X7435724Y-18850524D01*
X7435724Y-18850524D02*
X7407153Y-18850524D01*
X7588105Y-18850524D02*
X7569057Y-18841000D01*
X7569057Y-18841000D02*
X7559534Y-18821952D01*
X7559534Y-18821952D02*
X7559534Y-18650524D01*
X7740486Y-18841000D02*
X7721438Y-18850524D01*
X7721438Y-18850524D02*
X7683343Y-18850524D01*
X7683343Y-18850524D02*
X7664296Y-18841000D01*
X7664296Y-18841000D02*
X7654772Y-18821952D01*
X7654772Y-18821952D02*
X7654772Y-18745762D01*
X7654772Y-18745762D02*
X7664296Y-18726714D01*
X7664296Y-18726714D02*
X7683343Y-18717190D01*
X7683343Y-18717190D02*
X7721438Y-18717190D01*
X7721438Y-18717190D02*
X7740486Y-18726714D01*
X7740486Y-18726714D02*
X7750010Y-18745762D01*
X7750010Y-18745762D02*
X7750010Y-18764810D01*
X7750010Y-18764810D02*
X7654772Y-18783857D01*
X7826200Y-18841000D02*
X7845248Y-18850524D01*
X7845248Y-18850524D02*
X7883343Y-18850524D01*
X7883343Y-18850524D02*
X7902391Y-18841000D01*
X7902391Y-18841000D02*
X7911915Y-18821952D01*
X7911915Y-18821952D02*
X7911915Y-18812429D01*
X7911915Y-18812429D02*
X7902391Y-18793381D01*
X7902391Y-18793381D02*
X7883343Y-18783857D01*
X7883343Y-18783857D02*
X7854772Y-18783857D01*
X7854772Y-18783857D02*
X7835724Y-18774333D01*
X7835724Y-18774333D02*
X7826200Y-18755286D01*
X7826200Y-18755286D02*
X7826200Y-18745762D01*
X7826200Y-18745762D02*
X7835724Y-18726714D01*
X7835724Y-18726714D02*
X7854772Y-18717190D01*
X7854772Y-18717190D02*
X7883343Y-18717190D01*
X7883343Y-18717190D02*
X7902391Y-18726714D01*
X7978581Y-18926714D02*
X7988105Y-18917190D01*
X7988105Y-18917190D02*
X8007153Y-18888619D01*
X8007153Y-18888619D02*
X8016677Y-18869571D01*
X8016677Y-18869571D02*
X8026200Y-18841000D01*
X8026200Y-18841000D02*
X8035724Y-18793381D01*
X8035724Y-18793381D02*
X8035724Y-18755286D01*
X8035724Y-18755286D02*
X8026200Y-18707667D01*
X8026200Y-18707667D02*
X8016677Y-18679095D01*
X8016677Y-18679095D02*
X8007153Y-18660048D01*
X8007153Y-18660048D02*
X7988105Y-18631476D01*
X7988105Y-18631476D02*
X7978581Y-18621952D01*
X8340486Y-18926714D02*
X8330962Y-18917190D01*
X8330962Y-18917190D02*
X8311915Y-18888619D01*
X8311915Y-18888619D02*
X8302391Y-18869571D01*
X8302391Y-18869571D02*
X8292867Y-18841000D01*
X8292867Y-18841000D02*
X8283343Y-18793381D01*
X8283343Y-18793381D02*
X8283343Y-18755286D01*
X8283343Y-18755286D02*
X8292867Y-18707667D01*
X8292867Y-18707667D02*
X8302391Y-18679095D01*
X8302391Y-18679095D02*
X8311915Y-18660048D01*
X8311915Y-18660048D02*
X8330962Y-18631476D01*
X8330962Y-18631476D02*
X8340486Y-18621952D01*
X8416677Y-18717190D02*
X8416677Y-18850524D01*
X8416677Y-18736238D02*
X8426200Y-18726714D01*
X8426200Y-18726714D02*
X8445248Y-18717190D01*
X8445248Y-18717190D02*
X8473820Y-18717190D01*
X8473820Y-18717190D02*
X8492867Y-18726714D01*
X8492867Y-18726714D02*
X8502391Y-18745762D01*
X8502391Y-18745762D02*
X8502391Y-18850524D01*
X8626200Y-18850524D02*
X8607153Y-18841000D01*
X8607153Y-18841000D02*
X8597629Y-18831476D01*
X8597629Y-18831476D02*
X8588105Y-18812429D01*
X8588105Y-18812429D02*
X8588105Y-18755286D01*
X8588105Y-18755286D02*
X8597629Y-18736238D01*
X8597629Y-18736238D02*
X8607153Y-18726714D01*
X8607153Y-18726714D02*
X8626200Y-18717190D01*
X8626200Y-18717190D02*
X8654772Y-18717190D01*
X8654772Y-18717190D02*
X8673820Y-18726714D01*
X8673820Y-18726714D02*
X8683343Y-18736238D01*
X8683343Y-18736238D02*
X8692867Y-18755286D01*
X8692867Y-18755286D02*
X8692867Y-18812429D01*
X8692867Y-18812429D02*
X8683343Y-18831476D01*
X8683343Y-18831476D02*
X8673820Y-18841000D01*
X8673820Y-18841000D02*
X8654772Y-18850524D01*
X8654772Y-18850524D02*
X8626200Y-18850524D01*
X8750010Y-18717190D02*
X8826200Y-18717190D01*
X8778581Y-18650524D02*
X8778581Y-18821952D01*
X8778581Y-18821952D02*
X8788105Y-18841000D01*
X8788105Y-18841000D02*
X8807153Y-18850524D01*
X8807153Y-18850524D02*
X8826200Y-18850524D01*
X9045248Y-18717190D02*
X9045248Y-18917190D01*
X9045248Y-18726714D02*
X9064296Y-18717190D01*
X9064296Y-18717190D02*
X9102391Y-18717190D01*
X9102391Y-18717190D02*
X9121439Y-18726714D01*
X9121439Y-18726714D02*
X9130962Y-18736238D01*
X9130962Y-18736238D02*
X9140486Y-18755286D01*
X9140486Y-18755286D02*
X9140486Y-18812429D01*
X9140486Y-18812429D02*
X9130962Y-18831476D01*
X9130962Y-18831476D02*
X9121439Y-18841000D01*
X9121439Y-18841000D02*
X9102391Y-18850524D01*
X9102391Y-18850524D02*
X9064296Y-18850524D01*
X9064296Y-18850524D02*
X9045248Y-18841000D01*
X9254772Y-18850524D02*
X9235724Y-18841000D01*
X9235724Y-18841000D02*
X9226201Y-18821952D01*
X9226201Y-18821952D02*
X9226201Y-18650524D01*
X9416677Y-18850524D02*
X9416677Y-18745762D01*
X9416677Y-18745762D02*
X9407153Y-18726714D01*
X9407153Y-18726714D02*
X9388105Y-18717190D01*
X9388105Y-18717190D02*
X9350010Y-18717190D01*
X9350010Y-18717190D02*
X9330962Y-18726714D01*
X9416677Y-18841000D02*
X9397629Y-18850524D01*
X9397629Y-18850524D02*
X9350010Y-18850524D01*
X9350010Y-18850524D02*
X9330962Y-18841000D01*
X9330962Y-18841000D02*
X9321439Y-18821952D01*
X9321439Y-18821952D02*
X9321439Y-18802905D01*
X9321439Y-18802905D02*
X9330962Y-18783857D01*
X9330962Y-18783857D02*
X9350010Y-18774333D01*
X9350010Y-18774333D02*
X9397629Y-18774333D01*
X9397629Y-18774333D02*
X9416677Y-18764810D01*
X9483343Y-18717190D02*
X9559534Y-18717190D01*
X9511915Y-18650524D02*
X9511915Y-18821952D01*
X9511915Y-18821952D02*
X9521439Y-18841000D01*
X9521439Y-18841000D02*
X9540486Y-18850524D01*
X9540486Y-18850524D02*
X9559534Y-18850524D01*
X9702391Y-18841000D02*
X9683343Y-18850524D01*
X9683343Y-18850524D02*
X9645248Y-18850524D01*
X9645248Y-18850524D02*
X9626201Y-18841000D01*
X9626201Y-18841000D02*
X9616677Y-18821952D01*
X9616677Y-18821952D02*
X9616677Y-18745762D01*
X9616677Y-18745762D02*
X9626201Y-18726714D01*
X9626201Y-18726714D02*
X9645248Y-18717190D01*
X9645248Y-18717190D02*
X9683343Y-18717190D01*
X9683343Y-18717190D02*
X9702391Y-18726714D01*
X9702391Y-18726714D02*
X9711915Y-18745762D01*
X9711915Y-18745762D02*
X9711915Y-18764810D01*
X9711915Y-18764810D02*
X9616677Y-18783857D01*
X9883343Y-18850524D02*
X9883343Y-18650524D01*
X9883343Y-18841000D02*
X9864296Y-18850524D01*
X9864296Y-18850524D02*
X9826201Y-18850524D01*
X9826201Y-18850524D02*
X9807153Y-18841000D01*
X9807153Y-18841000D02*
X9797629Y-18831476D01*
X9797629Y-18831476D02*
X9788105Y-18812429D01*
X9788105Y-18812429D02*
X9788105Y-18755286D01*
X9788105Y-18755286D02*
X9797629Y-18736238D01*
X9797629Y-18736238D02*
X9807153Y-18726714D01*
X9807153Y-18726714D02*
X9826201Y-18717190D01*
X9826201Y-18717190D02*
X9864296Y-18717190D01*
X9864296Y-18717190D02*
X9883343Y-18726714D01*
X9959534Y-18926714D02*
X9969058Y-18917190D01*
X9969058Y-18917190D02*
X9988105Y-18888619D01*
X9988105Y-18888619D02*
X9997629Y-18869571D01*
X9997629Y-18869571D02*
X10007153Y-18841000D01*
X10007153Y-18841000D02*
X10016677Y-18793381D01*
X10016677Y-18793381D02*
X10016677Y-18755286D01*
X10016677Y-18755286D02*
X10007153Y-18707667D01*
X10007153Y-18707667D02*
X9997629Y-18679095D01*
X9997629Y-18679095D02*
X9988105Y-18660048D01*
X9988105Y-18660048D02*
X9969058Y-18631476D01*
X9969058Y-18631476D02*
X9959534Y-18621952D01*
X2926200Y-18978000D02*
X2926200Y-19178000D01*
X2826200Y-19078000D02*
X3026200Y-19078000D01*
X3254771Y-18970524D02*
X3378581Y-18970524D01*
X3378581Y-18970524D02*
X3311914Y-19046714D01*
X3311914Y-19046714D02*
X3340486Y-19046714D01*
X3340486Y-19046714D02*
X3359533Y-19056238D01*
X3359533Y-19056238D02*
X3369057Y-19065762D01*
X3369057Y-19065762D02*
X3378581Y-19084810D01*
X3378581Y-19084810D02*
X3378581Y-19132429D01*
X3378581Y-19132429D02*
X3369057Y-19151476D01*
X3369057Y-19151476D02*
X3359533Y-19161000D01*
X3359533Y-19161000D02*
X3340486Y-19170524D01*
X3340486Y-19170524D02*
X3283343Y-19170524D01*
X3283343Y-19170524D02*
X3264295Y-19161000D01*
X3264295Y-19161000D02*
X3254771Y-19151476D01*
X3464295Y-19151476D02*
X3473819Y-19161000D01*
X3473819Y-19161000D02*
X3464295Y-19170524D01*
X3464295Y-19170524D02*
X3454771Y-19161000D01*
X3454771Y-19161000D02*
X3464295Y-19151476D01*
X3464295Y-19151476D02*
X3464295Y-19170524D01*
X3597628Y-18970524D02*
X3616676Y-18970524D01*
X3616676Y-18970524D02*
X3635724Y-18980048D01*
X3635724Y-18980048D02*
X3645248Y-18989571D01*
X3645248Y-18989571D02*
X3654771Y-19008619D01*
X3654771Y-19008619D02*
X3664295Y-19046714D01*
X3664295Y-19046714D02*
X3664295Y-19094333D01*
X3664295Y-19094333D02*
X3654771Y-19132429D01*
X3654771Y-19132429D02*
X3645248Y-19151476D01*
X3645248Y-19151476D02*
X3635724Y-19161000D01*
X3635724Y-19161000D02*
X3616676Y-19170524D01*
X3616676Y-19170524D02*
X3597628Y-19170524D01*
X3597628Y-19170524D02*
X3578581Y-19161000D01*
X3578581Y-19161000D02*
X3569057Y-19151476D01*
X3569057Y-19151476D02*
X3559533Y-19132429D01*
X3559533Y-19132429D02*
X3550009Y-19094333D01*
X3550009Y-19094333D02*
X3550009Y-19046714D01*
X3550009Y-19046714D02*
X3559533Y-19008619D01*
X3559533Y-19008619D02*
X3569057Y-18989571D01*
X3569057Y-18989571D02*
X3578581Y-18980048D01*
X3578581Y-18980048D02*
X3597628Y-18970524D01*
X3845248Y-18970524D02*
X3750009Y-18970524D01*
X3750009Y-18970524D02*
X3740486Y-19065762D01*
X3740486Y-19065762D02*
X3750009Y-19056238D01*
X3750009Y-19056238D02*
X3769057Y-19046714D01*
X3769057Y-19046714D02*
X3816676Y-19046714D01*
X3816676Y-19046714D02*
X3835724Y-19056238D01*
X3835724Y-19056238D02*
X3845248Y-19065762D01*
X3845248Y-19065762D02*
X3854771Y-19084810D01*
X3854771Y-19084810D02*
X3854771Y-19132429D01*
X3854771Y-19132429D02*
X3845248Y-19151476D01*
X3845248Y-19151476D02*
X3835724Y-19161000D01*
X3835724Y-19161000D02*
X3816676Y-19170524D01*
X3816676Y-19170524D02*
X3769057Y-19170524D01*
X3769057Y-19170524D02*
X3750009Y-19161000D01*
X3750009Y-19161000D02*
X3740486Y-19151476D01*
X3978581Y-18970524D02*
X3997629Y-18970524D01*
X3997629Y-18970524D02*
X4016676Y-18980048D01*
X4016676Y-18980048D02*
X4026200Y-18989571D01*
X4026200Y-18989571D02*
X4035724Y-19008619D01*
X4035724Y-19008619D02*
X4045248Y-19046714D01*
X4045248Y-19046714D02*
X4045248Y-19094333D01*
X4045248Y-19094333D02*
X4035724Y-19132429D01*
X4035724Y-19132429D02*
X4026200Y-19151476D01*
X4026200Y-19151476D02*
X4016676Y-19161000D01*
X4016676Y-19161000D02*
X3997629Y-19170524D01*
X3997629Y-19170524D02*
X3978581Y-19170524D01*
X3978581Y-19170524D02*
X3959533Y-19161000D01*
X3959533Y-19161000D02*
X3950009Y-19151476D01*
X3950009Y-19151476D02*
X3940486Y-19132429D01*
X3940486Y-19132429D02*
X3930962Y-19094333D01*
X3930962Y-19094333D02*
X3930962Y-19046714D01*
X3930962Y-19046714D02*
X3940486Y-19008619D01*
X3940486Y-19008619D02*
X3950009Y-18989571D01*
X3950009Y-18989571D02*
X3959533Y-18980048D01*
X3959533Y-18980048D02*
X3978581Y-18970524D01*
X4130962Y-19170524D02*
X4130962Y-19037190D01*
X4130962Y-19056238D02*
X4140486Y-19046714D01*
X4140486Y-19046714D02*
X4159533Y-19037190D01*
X4159533Y-19037190D02*
X4188105Y-19037190D01*
X4188105Y-19037190D02*
X4207152Y-19046714D01*
X4207152Y-19046714D02*
X4216676Y-19065762D01*
X4216676Y-19065762D02*
X4216676Y-19170524D01*
X4216676Y-19065762D02*
X4226200Y-19046714D01*
X4226200Y-19046714D02*
X4245248Y-19037190D01*
X4245248Y-19037190D02*
X4273819Y-19037190D01*
X4273819Y-19037190D02*
X4292867Y-19046714D01*
X4292867Y-19046714D02*
X4302391Y-19065762D01*
X4302391Y-19065762D02*
X4302391Y-19170524D01*
X4397629Y-19170524D02*
X4397629Y-19037190D01*
X4397629Y-19056238D02*
X4407152Y-19046714D01*
X4407152Y-19046714D02*
X4426200Y-19037190D01*
X4426200Y-19037190D02*
X4454772Y-19037190D01*
X4454772Y-19037190D02*
X4473819Y-19046714D01*
X4473819Y-19046714D02*
X4483343Y-19065762D01*
X4483343Y-19065762D02*
X4483343Y-19170524D01*
X4483343Y-19065762D02*
X4492867Y-19046714D01*
X4492867Y-19046714D02*
X4511914Y-19037190D01*
X4511914Y-19037190D02*
X4540486Y-19037190D01*
X4540486Y-19037190D02*
X4559533Y-19046714D01*
X4559533Y-19046714D02*
X4569057Y-19065762D01*
X4569057Y-19065762D02*
X4569057Y-19170524D01*
X4959533Y-18961000D02*
X4788105Y-19218143D01*
X5216676Y-18970524D02*
X5235724Y-18970524D01*
X5235724Y-18970524D02*
X5254772Y-18980048D01*
X5254772Y-18980048D02*
X5264295Y-18989571D01*
X5264295Y-18989571D02*
X5273819Y-19008619D01*
X5273819Y-19008619D02*
X5283343Y-19046714D01*
X5283343Y-19046714D02*
X5283343Y-19094333D01*
X5283343Y-19094333D02*
X5273819Y-19132429D01*
X5273819Y-19132429D02*
X5264295Y-19151476D01*
X5264295Y-19151476D02*
X5254772Y-19161000D01*
X5254772Y-19161000D02*
X5235724Y-19170524D01*
X5235724Y-19170524D02*
X5216676Y-19170524D01*
X5216676Y-19170524D02*
X5197629Y-19161000D01*
X5197629Y-19161000D02*
X5188105Y-19151476D01*
X5188105Y-19151476D02*
X5178581Y-19132429D01*
X5178581Y-19132429D02*
X5169057Y-19094333D01*
X5169057Y-19094333D02*
X5169057Y-19046714D01*
X5169057Y-19046714D02*
X5178581Y-19008619D01*
X5178581Y-19008619D02*
X5188105Y-18989571D01*
X5188105Y-18989571D02*
X5197629Y-18980048D01*
X5197629Y-18980048D02*
X5216676Y-18970524D01*
X5369057Y-19151476D02*
X5378581Y-19161000D01*
X5378581Y-19161000D02*
X5369057Y-19170524D01*
X5369057Y-19170524D02*
X5359534Y-19161000D01*
X5359534Y-19161000D02*
X5369057Y-19151476D01*
X5369057Y-19151476D02*
X5369057Y-19170524D01*
X5569057Y-19170524D02*
X5454772Y-19170524D01*
X5511914Y-19170524D02*
X5511914Y-18970524D01*
X5511914Y-18970524D02*
X5492867Y-18999095D01*
X5492867Y-18999095D02*
X5473819Y-19018143D01*
X5473819Y-19018143D02*
X5454772Y-19027667D01*
X5645248Y-18989571D02*
X5654772Y-18980048D01*
X5654772Y-18980048D02*
X5673819Y-18970524D01*
X5673819Y-18970524D02*
X5721438Y-18970524D01*
X5721438Y-18970524D02*
X5740486Y-18980048D01*
X5740486Y-18980048D02*
X5750010Y-18989571D01*
X5750010Y-18989571D02*
X5759533Y-19008619D01*
X5759533Y-19008619D02*
X5759533Y-19027667D01*
X5759533Y-19027667D02*
X5750010Y-19056238D01*
X5750010Y-19056238D02*
X5635724Y-19170524D01*
X5635724Y-19170524D02*
X5759533Y-19170524D01*
X5883343Y-18970524D02*
X5902391Y-18970524D01*
X5902391Y-18970524D02*
X5921438Y-18980048D01*
X5921438Y-18980048D02*
X5930962Y-18989571D01*
X5930962Y-18989571D02*
X5940486Y-19008619D01*
X5940486Y-19008619D02*
X5950010Y-19046714D01*
X5950010Y-19046714D02*
X5950010Y-19094333D01*
X5950010Y-19094333D02*
X5940486Y-19132429D01*
X5940486Y-19132429D02*
X5930962Y-19151476D01*
X5930962Y-19151476D02*
X5921438Y-19161000D01*
X5921438Y-19161000D02*
X5902391Y-19170524D01*
X5902391Y-19170524D02*
X5883343Y-19170524D01*
X5883343Y-19170524D02*
X5864295Y-19161000D01*
X5864295Y-19161000D02*
X5854772Y-19151476D01*
X5854772Y-19151476D02*
X5845248Y-19132429D01*
X5845248Y-19132429D02*
X5835724Y-19094333D01*
X5835724Y-19094333D02*
X5835724Y-19046714D01*
X5835724Y-19046714D02*
X5845248Y-19008619D01*
X5845248Y-19008619D02*
X5854772Y-18989571D01*
X5854772Y-18989571D02*
X5864295Y-18980048D01*
X5864295Y-18980048D02*
X5883343Y-18970524D01*
X6140486Y-19170524D02*
X6026200Y-19170524D01*
X6083343Y-19170524D02*
X6083343Y-18970524D01*
X6083343Y-18970524D02*
X6064295Y-18999095D01*
X6064295Y-18999095D02*
X6045248Y-19018143D01*
X6045248Y-19018143D02*
X6026200Y-19027667D01*
X6216676Y-18970524D02*
X6216676Y-19008619D01*
X6292867Y-18970524D02*
X6292867Y-19008619D01*
X6588105Y-19246714D02*
X6578581Y-19237190D01*
X6578581Y-19237190D02*
X6559534Y-19208619D01*
X6559534Y-19208619D02*
X6550010Y-19189571D01*
X6550010Y-19189571D02*
X6540486Y-19161000D01*
X6540486Y-19161000D02*
X6530962Y-19113381D01*
X6530962Y-19113381D02*
X6530962Y-19075286D01*
X6530962Y-19075286D02*
X6540486Y-19027667D01*
X6540486Y-19027667D02*
X6550010Y-18999095D01*
X6550010Y-18999095D02*
X6559534Y-18980048D01*
X6559534Y-18980048D02*
X6578581Y-18951476D01*
X6578581Y-18951476D02*
X6588105Y-18941952D01*
X6769057Y-19170524D02*
X6654772Y-19170524D01*
X6711914Y-19170524D02*
X6711914Y-18970524D01*
X6711914Y-18970524D02*
X6692867Y-18999095D01*
X6692867Y-18999095D02*
X6673819Y-19018143D01*
X6673819Y-19018143D02*
X6654772Y-19027667D01*
X6835724Y-18970524D02*
X6969057Y-18970524D01*
X6969057Y-18970524D02*
X6883343Y-19170524D01*
X7130962Y-19037190D02*
X7130962Y-19170524D01*
X7083343Y-18961000D02*
X7035724Y-19103857D01*
X7035724Y-19103857D02*
X7159534Y-19103857D01*
X7388105Y-19170524D02*
X7388105Y-18970524D01*
X7473819Y-19170524D02*
X7473819Y-19065762D01*
X7473819Y-19065762D02*
X7464296Y-19046714D01*
X7464296Y-19046714D02*
X7445248Y-19037190D01*
X7445248Y-19037190D02*
X7416676Y-19037190D01*
X7416676Y-19037190D02*
X7397629Y-19046714D01*
X7397629Y-19046714D02*
X7388105Y-19056238D01*
X7597629Y-19170524D02*
X7578581Y-19161000D01*
X7578581Y-19161000D02*
X7569057Y-19151476D01*
X7569057Y-19151476D02*
X7559534Y-19132429D01*
X7559534Y-19132429D02*
X7559534Y-19075286D01*
X7559534Y-19075286D02*
X7569057Y-19056238D01*
X7569057Y-19056238D02*
X7578581Y-19046714D01*
X7578581Y-19046714D02*
X7597629Y-19037190D01*
X7597629Y-19037190D02*
X7626200Y-19037190D01*
X7626200Y-19037190D02*
X7645248Y-19046714D01*
X7645248Y-19046714D02*
X7654772Y-19056238D01*
X7654772Y-19056238D02*
X7664296Y-19075286D01*
X7664296Y-19075286D02*
X7664296Y-19132429D01*
X7664296Y-19132429D02*
X7654772Y-19151476D01*
X7654772Y-19151476D02*
X7645248Y-19161000D01*
X7645248Y-19161000D02*
X7626200Y-19170524D01*
X7626200Y-19170524D02*
X7597629Y-19170524D01*
X7778581Y-19170524D02*
X7759534Y-19161000D01*
X7759534Y-19161000D02*
X7750010Y-19141952D01*
X7750010Y-19141952D02*
X7750010Y-18970524D01*
X7930962Y-19161000D02*
X7911915Y-19170524D01*
X7911915Y-19170524D02*
X7873819Y-19170524D01*
X7873819Y-19170524D02*
X7854772Y-19161000D01*
X7854772Y-19161000D02*
X7845248Y-19141952D01*
X7845248Y-19141952D02*
X7845248Y-19065762D01*
X7845248Y-19065762D02*
X7854772Y-19046714D01*
X7854772Y-19046714D02*
X7873819Y-19037190D01*
X7873819Y-19037190D02*
X7911915Y-19037190D01*
X7911915Y-19037190D02*
X7930962Y-19046714D01*
X7930962Y-19046714D02*
X7940486Y-19065762D01*
X7940486Y-19065762D02*
X7940486Y-19084810D01*
X7940486Y-19084810D02*
X7845248Y-19103857D01*
X8016677Y-19161000D02*
X8035724Y-19170524D01*
X8035724Y-19170524D02*
X8073819Y-19170524D01*
X8073819Y-19170524D02*
X8092867Y-19161000D01*
X8092867Y-19161000D02*
X8102391Y-19141952D01*
X8102391Y-19141952D02*
X8102391Y-19132429D01*
X8102391Y-19132429D02*
X8092867Y-19113381D01*
X8092867Y-19113381D02*
X8073819Y-19103857D01*
X8073819Y-19103857D02*
X8045248Y-19103857D01*
X8045248Y-19103857D02*
X8026200Y-19094333D01*
X8026200Y-19094333D02*
X8016677Y-19075286D01*
X8016677Y-19075286D02*
X8016677Y-19065762D01*
X8016677Y-19065762D02*
X8026200Y-19046714D01*
X8026200Y-19046714D02*
X8045248Y-19037190D01*
X8045248Y-19037190D02*
X8073819Y-19037190D01*
X8073819Y-19037190D02*
X8092867Y-19046714D01*
X8169058Y-19246714D02*
X8178581Y-19237190D01*
X8178581Y-19237190D02*
X8197629Y-19208619D01*
X8197629Y-19208619D02*
X8207153Y-19189571D01*
X8207153Y-19189571D02*
X8216677Y-19161000D01*
X8216677Y-19161000D02*
X8226200Y-19113381D01*
X8226200Y-19113381D02*
X8226200Y-19075286D01*
X8226200Y-19075286D02*
X8216677Y-19027667D01*
X8216677Y-19027667D02*
X8207153Y-18999095D01*
X8207153Y-18999095D02*
X8197629Y-18980048D01*
X8197629Y-18980048D02*
X8178581Y-18951476D01*
X8178581Y-18951476D02*
X8169058Y-18941952D01*
X8530962Y-19246714D02*
X8521439Y-19237190D01*
X8521439Y-19237190D02*
X8502391Y-19208619D01*
X8502391Y-19208619D02*
X8492867Y-19189571D01*
X8492867Y-19189571D02*
X8483343Y-19161000D01*
X8483343Y-19161000D02*
X8473820Y-19113381D01*
X8473820Y-19113381D02*
X8473820Y-19075286D01*
X8473820Y-19075286D02*
X8483343Y-19027667D01*
X8483343Y-19027667D02*
X8492867Y-18999095D01*
X8492867Y-18999095D02*
X8502391Y-18980048D01*
X8502391Y-18980048D02*
X8521439Y-18951476D01*
X8521439Y-18951476D02*
X8530962Y-18941952D01*
X8607153Y-19037190D02*
X8607153Y-19170524D01*
X8607153Y-19056238D02*
X8616677Y-19046714D01*
X8616677Y-19046714D02*
X8635724Y-19037190D01*
X8635724Y-19037190D02*
X8664296Y-19037190D01*
X8664296Y-19037190D02*
X8683343Y-19046714D01*
X8683343Y-19046714D02*
X8692867Y-19065762D01*
X8692867Y-19065762D02*
X8692867Y-19170524D01*
X8816677Y-19170524D02*
X8797629Y-19161000D01*
X8797629Y-19161000D02*
X8788105Y-19151476D01*
X8788105Y-19151476D02*
X8778581Y-19132429D01*
X8778581Y-19132429D02*
X8778581Y-19075286D01*
X8778581Y-19075286D02*
X8788105Y-19056238D01*
X8788105Y-19056238D02*
X8797629Y-19046714D01*
X8797629Y-19046714D02*
X8816677Y-19037190D01*
X8816677Y-19037190D02*
X8845248Y-19037190D01*
X8845248Y-19037190D02*
X8864296Y-19046714D01*
X8864296Y-19046714D02*
X8873820Y-19056238D01*
X8873820Y-19056238D02*
X8883343Y-19075286D01*
X8883343Y-19075286D02*
X8883343Y-19132429D01*
X8883343Y-19132429D02*
X8873820Y-19151476D01*
X8873820Y-19151476D02*
X8864296Y-19161000D01*
X8864296Y-19161000D02*
X8845248Y-19170524D01*
X8845248Y-19170524D02*
X8816677Y-19170524D01*
X8940486Y-19037190D02*
X9016677Y-19037190D01*
X8969058Y-18970524D02*
X8969058Y-19141952D01*
X8969058Y-19141952D02*
X8978581Y-19161000D01*
X8978581Y-19161000D02*
X8997629Y-19170524D01*
X8997629Y-19170524D02*
X9016677Y-19170524D01*
X9235724Y-19037190D02*
X9235724Y-19237190D01*
X9235724Y-19046714D02*
X9254772Y-19037190D01*
X9254772Y-19037190D02*
X9292867Y-19037190D01*
X9292867Y-19037190D02*
X9311915Y-19046714D01*
X9311915Y-19046714D02*
X9321439Y-19056238D01*
X9321439Y-19056238D02*
X9330962Y-19075286D01*
X9330962Y-19075286D02*
X9330962Y-19132429D01*
X9330962Y-19132429D02*
X9321439Y-19151476D01*
X9321439Y-19151476D02*
X9311915Y-19161000D01*
X9311915Y-19161000D02*
X9292867Y-19170524D01*
X9292867Y-19170524D02*
X9254772Y-19170524D01*
X9254772Y-19170524D02*
X9235724Y-19161000D01*
X9445248Y-19170524D02*
X9426201Y-19161000D01*
X9426201Y-19161000D02*
X9416677Y-19141952D01*
X9416677Y-19141952D02*
X9416677Y-18970524D01*
X9607153Y-19170524D02*
X9607153Y-19065762D01*
X9607153Y-19065762D02*
X9597629Y-19046714D01*
X9597629Y-19046714D02*
X9578582Y-19037190D01*
X9578582Y-19037190D02*
X9540486Y-19037190D01*
X9540486Y-19037190D02*
X9521439Y-19046714D01*
X9607153Y-19161000D02*
X9588105Y-19170524D01*
X9588105Y-19170524D02*
X9540486Y-19170524D01*
X9540486Y-19170524D02*
X9521439Y-19161000D01*
X9521439Y-19161000D02*
X9511915Y-19141952D01*
X9511915Y-19141952D02*
X9511915Y-19122905D01*
X9511915Y-19122905D02*
X9521439Y-19103857D01*
X9521439Y-19103857D02*
X9540486Y-19094333D01*
X9540486Y-19094333D02*
X9588105Y-19094333D01*
X9588105Y-19094333D02*
X9607153Y-19084810D01*
X9673820Y-19037190D02*
X9750010Y-19037190D01*
X9702391Y-18970524D02*
X9702391Y-19141952D01*
X9702391Y-19141952D02*
X9711915Y-19161000D01*
X9711915Y-19161000D02*
X9730962Y-19170524D01*
X9730962Y-19170524D02*
X9750010Y-19170524D01*
X9892867Y-19161000D02*
X9873820Y-19170524D01*
X9873820Y-19170524D02*
X9835724Y-19170524D01*
X9835724Y-19170524D02*
X9816677Y-19161000D01*
X9816677Y-19161000D02*
X9807153Y-19141952D01*
X9807153Y-19141952D02*
X9807153Y-19065762D01*
X9807153Y-19065762D02*
X9816677Y-19046714D01*
X9816677Y-19046714D02*
X9835724Y-19037190D01*
X9835724Y-19037190D02*
X9873820Y-19037190D01*
X9873820Y-19037190D02*
X9892867Y-19046714D01*
X9892867Y-19046714D02*
X9902391Y-19065762D01*
X9902391Y-19065762D02*
X9902391Y-19084810D01*
X9902391Y-19084810D02*
X9807153Y-19103857D01*
X10073820Y-19170524D02*
X10073820Y-18970524D01*
X10073820Y-19161000D02*
X10054772Y-19170524D01*
X10054772Y-19170524D02*
X10016677Y-19170524D01*
X10016677Y-19170524D02*
X9997629Y-19161000D01*
X9997629Y-19161000D02*
X9988105Y-19151476D01*
X9988105Y-19151476D02*
X9978582Y-19132429D01*
X9978582Y-19132429D02*
X9978582Y-19075286D01*
X9978582Y-19075286D02*
X9988105Y-19056238D01*
X9988105Y-19056238D02*
X9997629Y-19046714D01*
X9997629Y-19046714D02*
X10016677Y-19037190D01*
X10016677Y-19037190D02*
X10054772Y-19037190D01*
X10054772Y-19037190D02*
X10073820Y-19046714D01*
X10150010Y-19246714D02*
X10159534Y-19237190D01*
X10159534Y-19237190D02*
X10178582Y-19208619D01*
X10178582Y-19208619D02*
X10188105Y-19189571D01*
X10188105Y-19189571D02*
X10197629Y-19161000D01*
X10197629Y-19161000D02*
X10207153Y-19113381D01*
X10207153Y-19113381D02*
X10207153Y-19075286D01*
X10207153Y-19075286D02*
X10197629Y-19027667D01*
X10197629Y-19027667D02*
X10188105Y-18999095D01*
X10188105Y-18999095D02*
X10178582Y-18980048D01*
X10178582Y-18980048D02*
X10159534Y-18951476D01*
X10159534Y-18951476D02*
X10150010Y-18941952D01*
X2996911Y-19468711D02*
X2996911Y-19327289D01*
X2855489Y-19327289D01*
X2855489Y-19468711D01*
X2996911Y-19468711D01*
X3254771Y-19290524D02*
X3378581Y-19290524D01*
X3378581Y-19290524D02*
X3311914Y-19366714D01*
X3311914Y-19366714D02*
X3340486Y-19366714D01*
X3340486Y-19366714D02*
X3359533Y-19376238D01*
X3359533Y-19376238D02*
X3369057Y-19385762D01*
X3369057Y-19385762D02*
X3378581Y-19404810D01*
X3378581Y-19404810D02*
X3378581Y-19452429D01*
X3378581Y-19452429D02*
X3369057Y-19471476D01*
X3369057Y-19471476D02*
X3359533Y-19481000D01*
X3359533Y-19481000D02*
X3340486Y-19490524D01*
X3340486Y-19490524D02*
X3283343Y-19490524D01*
X3283343Y-19490524D02*
X3264295Y-19481000D01*
X3264295Y-19481000D02*
X3254771Y-19471476D01*
X3464295Y-19471476D02*
X3473819Y-19481000D01*
X3473819Y-19481000D02*
X3464295Y-19490524D01*
X3464295Y-19490524D02*
X3454771Y-19481000D01*
X3454771Y-19481000D02*
X3464295Y-19471476D01*
X3464295Y-19471476D02*
X3464295Y-19490524D01*
X3569057Y-19490524D02*
X3607152Y-19490524D01*
X3607152Y-19490524D02*
X3626200Y-19481000D01*
X3626200Y-19481000D02*
X3635724Y-19471476D01*
X3635724Y-19471476D02*
X3654771Y-19442905D01*
X3654771Y-19442905D02*
X3664295Y-19404810D01*
X3664295Y-19404810D02*
X3664295Y-19328619D01*
X3664295Y-19328619D02*
X3654771Y-19309571D01*
X3654771Y-19309571D02*
X3645248Y-19300048D01*
X3645248Y-19300048D02*
X3626200Y-19290524D01*
X3626200Y-19290524D02*
X3588105Y-19290524D01*
X3588105Y-19290524D02*
X3569057Y-19300048D01*
X3569057Y-19300048D02*
X3559533Y-19309571D01*
X3559533Y-19309571D02*
X3550009Y-19328619D01*
X3550009Y-19328619D02*
X3550009Y-19376238D01*
X3550009Y-19376238D02*
X3559533Y-19395286D01*
X3559533Y-19395286D02*
X3569057Y-19404810D01*
X3569057Y-19404810D02*
X3588105Y-19414333D01*
X3588105Y-19414333D02*
X3626200Y-19414333D01*
X3626200Y-19414333D02*
X3645248Y-19404810D01*
X3645248Y-19404810D02*
X3654771Y-19395286D01*
X3654771Y-19395286D02*
X3664295Y-19376238D01*
X3778581Y-19376238D02*
X3759533Y-19366714D01*
X3759533Y-19366714D02*
X3750009Y-19357190D01*
X3750009Y-19357190D02*
X3740486Y-19338143D01*
X3740486Y-19338143D02*
X3740486Y-19328619D01*
X3740486Y-19328619D02*
X3750009Y-19309571D01*
X3750009Y-19309571D02*
X3759533Y-19300048D01*
X3759533Y-19300048D02*
X3778581Y-19290524D01*
X3778581Y-19290524D02*
X3816676Y-19290524D01*
X3816676Y-19290524D02*
X3835724Y-19300048D01*
X3835724Y-19300048D02*
X3845248Y-19309571D01*
X3845248Y-19309571D02*
X3854771Y-19328619D01*
X3854771Y-19328619D02*
X3854771Y-19338143D01*
X3854771Y-19338143D02*
X3845248Y-19357190D01*
X3845248Y-19357190D02*
X3835724Y-19366714D01*
X3835724Y-19366714D02*
X3816676Y-19376238D01*
X3816676Y-19376238D02*
X3778581Y-19376238D01*
X3778581Y-19376238D02*
X3759533Y-19385762D01*
X3759533Y-19385762D02*
X3750009Y-19395286D01*
X3750009Y-19395286D02*
X3740486Y-19414333D01*
X3740486Y-19414333D02*
X3740486Y-19452429D01*
X3740486Y-19452429D02*
X3750009Y-19471476D01*
X3750009Y-19471476D02*
X3759533Y-19481000D01*
X3759533Y-19481000D02*
X3778581Y-19490524D01*
X3778581Y-19490524D02*
X3816676Y-19490524D01*
X3816676Y-19490524D02*
X3835724Y-19481000D01*
X3835724Y-19481000D02*
X3845248Y-19471476D01*
X3845248Y-19471476D02*
X3854771Y-19452429D01*
X3854771Y-19452429D02*
X3854771Y-19414333D01*
X3854771Y-19414333D02*
X3845248Y-19395286D01*
X3845248Y-19395286D02*
X3835724Y-19385762D01*
X3835724Y-19385762D02*
X3816676Y-19376238D01*
X3969057Y-19376238D02*
X3950009Y-19366714D01*
X3950009Y-19366714D02*
X3940486Y-19357190D01*
X3940486Y-19357190D02*
X3930962Y-19338143D01*
X3930962Y-19338143D02*
X3930962Y-19328619D01*
X3930962Y-19328619D02*
X3940486Y-19309571D01*
X3940486Y-19309571D02*
X3950009Y-19300048D01*
X3950009Y-19300048D02*
X3969057Y-19290524D01*
X3969057Y-19290524D02*
X4007152Y-19290524D01*
X4007152Y-19290524D02*
X4026200Y-19300048D01*
X4026200Y-19300048D02*
X4035724Y-19309571D01*
X4035724Y-19309571D02*
X4045248Y-19328619D01*
X4045248Y-19328619D02*
X4045248Y-19338143D01*
X4045248Y-19338143D02*
X4035724Y-19357190D01*
X4035724Y-19357190D02*
X4026200Y-19366714D01*
X4026200Y-19366714D02*
X4007152Y-19376238D01*
X4007152Y-19376238D02*
X3969057Y-19376238D01*
X3969057Y-19376238D02*
X3950009Y-19385762D01*
X3950009Y-19385762D02*
X3940486Y-19395286D01*
X3940486Y-19395286D02*
X3930962Y-19414333D01*
X3930962Y-19414333D02*
X3930962Y-19452429D01*
X3930962Y-19452429D02*
X3940486Y-19471476D01*
X3940486Y-19471476D02*
X3950009Y-19481000D01*
X3950009Y-19481000D02*
X3969057Y-19490524D01*
X3969057Y-19490524D02*
X4007152Y-19490524D01*
X4007152Y-19490524D02*
X4026200Y-19481000D01*
X4026200Y-19481000D02*
X4035724Y-19471476D01*
X4035724Y-19471476D02*
X4045248Y-19452429D01*
X4045248Y-19452429D02*
X4045248Y-19414333D01*
X4045248Y-19414333D02*
X4035724Y-19395286D01*
X4035724Y-19395286D02*
X4026200Y-19385762D01*
X4026200Y-19385762D02*
X4007152Y-19376238D01*
X4130962Y-19490524D02*
X4130962Y-19357190D01*
X4130962Y-19376238D02*
X4140486Y-19366714D01*
X4140486Y-19366714D02*
X4159533Y-19357190D01*
X4159533Y-19357190D02*
X4188105Y-19357190D01*
X4188105Y-19357190D02*
X4207152Y-19366714D01*
X4207152Y-19366714D02*
X4216676Y-19385762D01*
X4216676Y-19385762D02*
X4216676Y-19490524D01*
X4216676Y-19385762D02*
X4226200Y-19366714D01*
X4226200Y-19366714D02*
X4245248Y-19357190D01*
X4245248Y-19357190D02*
X4273819Y-19357190D01*
X4273819Y-19357190D02*
X4292867Y-19366714D01*
X4292867Y-19366714D02*
X4302391Y-19385762D01*
X4302391Y-19385762D02*
X4302391Y-19490524D01*
X4397629Y-19490524D02*
X4397629Y-19357190D01*
X4397629Y-19376238D02*
X4407152Y-19366714D01*
X4407152Y-19366714D02*
X4426200Y-19357190D01*
X4426200Y-19357190D02*
X4454772Y-19357190D01*
X4454772Y-19357190D02*
X4473819Y-19366714D01*
X4473819Y-19366714D02*
X4483343Y-19385762D01*
X4483343Y-19385762D02*
X4483343Y-19490524D01*
X4483343Y-19385762D02*
X4492867Y-19366714D01*
X4492867Y-19366714D02*
X4511914Y-19357190D01*
X4511914Y-19357190D02*
X4540486Y-19357190D01*
X4540486Y-19357190D02*
X4559533Y-19366714D01*
X4559533Y-19366714D02*
X4569057Y-19385762D01*
X4569057Y-19385762D02*
X4569057Y-19490524D01*
X4959533Y-19281000D02*
X4788105Y-19538143D01*
X5216676Y-19290524D02*
X5235724Y-19290524D01*
X5235724Y-19290524D02*
X5254772Y-19300048D01*
X5254772Y-19300048D02*
X5264295Y-19309571D01*
X5264295Y-19309571D02*
X5273819Y-19328619D01*
X5273819Y-19328619D02*
X5283343Y-19366714D01*
X5283343Y-19366714D02*
X5283343Y-19414333D01*
X5283343Y-19414333D02*
X5273819Y-19452429D01*
X5273819Y-19452429D02*
X5264295Y-19471476D01*
X5264295Y-19471476D02*
X5254772Y-19481000D01*
X5254772Y-19481000D02*
X5235724Y-19490524D01*
X5235724Y-19490524D02*
X5216676Y-19490524D01*
X5216676Y-19490524D02*
X5197629Y-19481000D01*
X5197629Y-19481000D02*
X5188105Y-19471476D01*
X5188105Y-19471476D02*
X5178581Y-19452429D01*
X5178581Y-19452429D02*
X5169057Y-19414333D01*
X5169057Y-19414333D02*
X5169057Y-19366714D01*
X5169057Y-19366714D02*
X5178581Y-19328619D01*
X5178581Y-19328619D02*
X5188105Y-19309571D01*
X5188105Y-19309571D02*
X5197629Y-19300048D01*
X5197629Y-19300048D02*
X5216676Y-19290524D01*
X5369057Y-19471476D02*
X5378581Y-19481000D01*
X5378581Y-19481000D02*
X5369057Y-19490524D01*
X5369057Y-19490524D02*
X5359534Y-19481000D01*
X5359534Y-19481000D02*
X5369057Y-19471476D01*
X5369057Y-19471476D02*
X5369057Y-19490524D01*
X5569057Y-19490524D02*
X5454772Y-19490524D01*
X5511914Y-19490524D02*
X5511914Y-19290524D01*
X5511914Y-19290524D02*
X5492867Y-19319095D01*
X5492867Y-19319095D02*
X5473819Y-19338143D01*
X5473819Y-19338143D02*
X5454772Y-19347667D01*
X5750010Y-19290524D02*
X5654772Y-19290524D01*
X5654772Y-19290524D02*
X5645248Y-19385762D01*
X5645248Y-19385762D02*
X5654772Y-19376238D01*
X5654772Y-19376238D02*
X5673819Y-19366714D01*
X5673819Y-19366714D02*
X5721438Y-19366714D01*
X5721438Y-19366714D02*
X5740486Y-19376238D01*
X5740486Y-19376238D02*
X5750010Y-19385762D01*
X5750010Y-19385762D02*
X5759533Y-19404810D01*
X5759533Y-19404810D02*
X5759533Y-19452429D01*
X5759533Y-19452429D02*
X5750010Y-19471476D01*
X5750010Y-19471476D02*
X5740486Y-19481000D01*
X5740486Y-19481000D02*
X5721438Y-19490524D01*
X5721438Y-19490524D02*
X5673819Y-19490524D01*
X5673819Y-19490524D02*
X5654772Y-19481000D01*
X5654772Y-19481000D02*
X5645248Y-19471476D01*
X5826200Y-19290524D02*
X5959533Y-19290524D01*
X5959533Y-19290524D02*
X5873819Y-19490524D01*
X6073819Y-19290524D02*
X6092867Y-19290524D01*
X6092867Y-19290524D02*
X6111914Y-19300048D01*
X6111914Y-19300048D02*
X6121438Y-19309571D01*
X6121438Y-19309571D02*
X6130962Y-19328619D01*
X6130962Y-19328619D02*
X6140486Y-19366714D01*
X6140486Y-19366714D02*
X6140486Y-19414333D01*
X6140486Y-19414333D02*
X6130962Y-19452429D01*
X6130962Y-19452429D02*
X6121438Y-19471476D01*
X6121438Y-19471476D02*
X6111914Y-19481000D01*
X6111914Y-19481000D02*
X6092867Y-19490524D01*
X6092867Y-19490524D02*
X6073819Y-19490524D01*
X6073819Y-19490524D02*
X6054772Y-19481000D01*
X6054772Y-19481000D02*
X6045248Y-19471476D01*
X6045248Y-19471476D02*
X6035724Y-19452429D01*
X6035724Y-19452429D02*
X6026200Y-19414333D01*
X6026200Y-19414333D02*
X6026200Y-19366714D01*
X6026200Y-19366714D02*
X6035724Y-19328619D01*
X6035724Y-19328619D02*
X6045248Y-19309571D01*
X6045248Y-19309571D02*
X6054772Y-19300048D01*
X6054772Y-19300048D02*
X6073819Y-19290524D01*
X6216676Y-19290524D02*
X6216676Y-19328619D01*
X6292867Y-19290524D02*
X6292867Y-19328619D01*
X6588105Y-19566714D02*
X6578581Y-19557190D01*
X6578581Y-19557190D02*
X6559534Y-19528619D01*
X6559534Y-19528619D02*
X6550010Y-19509571D01*
X6550010Y-19509571D02*
X6540486Y-19481000D01*
X6540486Y-19481000D02*
X6530962Y-19433381D01*
X6530962Y-19433381D02*
X6530962Y-19395286D01*
X6530962Y-19395286D02*
X6540486Y-19347667D01*
X6540486Y-19347667D02*
X6550010Y-19319095D01*
X6550010Y-19319095D02*
X6559534Y-19300048D01*
X6559534Y-19300048D02*
X6578581Y-19271476D01*
X6578581Y-19271476D02*
X6588105Y-19261952D01*
X6769057Y-19490524D02*
X6654772Y-19490524D01*
X6711914Y-19490524D02*
X6711914Y-19290524D01*
X6711914Y-19290524D02*
X6692867Y-19319095D01*
X6692867Y-19319095D02*
X6673819Y-19338143D01*
X6673819Y-19338143D02*
X6654772Y-19347667D01*
X6892867Y-19290524D02*
X6911915Y-19290524D01*
X6911915Y-19290524D02*
X6930962Y-19300048D01*
X6930962Y-19300048D02*
X6940486Y-19309571D01*
X6940486Y-19309571D02*
X6950010Y-19328619D01*
X6950010Y-19328619D02*
X6959534Y-19366714D01*
X6959534Y-19366714D02*
X6959534Y-19414333D01*
X6959534Y-19414333D02*
X6950010Y-19452429D01*
X6950010Y-19452429D02*
X6940486Y-19471476D01*
X6940486Y-19471476D02*
X6930962Y-19481000D01*
X6930962Y-19481000D02*
X6911915Y-19490524D01*
X6911915Y-19490524D02*
X6892867Y-19490524D01*
X6892867Y-19490524D02*
X6873819Y-19481000D01*
X6873819Y-19481000D02*
X6864295Y-19471476D01*
X6864295Y-19471476D02*
X6854772Y-19452429D01*
X6854772Y-19452429D02*
X6845248Y-19414333D01*
X6845248Y-19414333D02*
X6845248Y-19366714D01*
X6845248Y-19366714D02*
X6854772Y-19328619D01*
X6854772Y-19328619D02*
X6864295Y-19309571D01*
X6864295Y-19309571D02*
X6873819Y-19300048D01*
X6873819Y-19300048D02*
X6892867Y-19290524D01*
X7197629Y-19490524D02*
X7197629Y-19290524D01*
X7283343Y-19490524D02*
X7283343Y-19385762D01*
X7283343Y-19385762D02*
X7273819Y-19366714D01*
X7273819Y-19366714D02*
X7254772Y-19357190D01*
X7254772Y-19357190D02*
X7226200Y-19357190D01*
X7226200Y-19357190D02*
X7207153Y-19366714D01*
X7207153Y-19366714D02*
X7197629Y-19376238D01*
X7407153Y-19490524D02*
X7388105Y-19481000D01*
X7388105Y-19481000D02*
X7378581Y-19471476D01*
X7378581Y-19471476D02*
X7369057Y-19452429D01*
X7369057Y-19452429D02*
X7369057Y-19395286D01*
X7369057Y-19395286D02*
X7378581Y-19376238D01*
X7378581Y-19376238D02*
X7388105Y-19366714D01*
X7388105Y-19366714D02*
X7407153Y-19357190D01*
X7407153Y-19357190D02*
X7435724Y-19357190D01*
X7435724Y-19357190D02*
X7454772Y-19366714D01*
X7454772Y-19366714D02*
X7464296Y-19376238D01*
X7464296Y-19376238D02*
X7473819Y-19395286D01*
X7473819Y-19395286D02*
X7473819Y-19452429D01*
X7473819Y-19452429D02*
X7464296Y-19471476D01*
X7464296Y-19471476D02*
X7454772Y-19481000D01*
X7454772Y-19481000D02*
X7435724Y-19490524D01*
X7435724Y-19490524D02*
X7407153Y-19490524D01*
X7588105Y-19490524D02*
X7569057Y-19481000D01*
X7569057Y-19481000D02*
X7559534Y-19461952D01*
X7559534Y-19461952D02*
X7559534Y-19290524D01*
X7740486Y-19481000D02*
X7721438Y-19490524D01*
X7721438Y-19490524D02*
X7683343Y-19490524D01*
X7683343Y-19490524D02*
X7664296Y-19481000D01*
X7664296Y-19481000D02*
X7654772Y-19461952D01*
X7654772Y-19461952D02*
X7654772Y-19385762D01*
X7654772Y-19385762D02*
X7664296Y-19366714D01*
X7664296Y-19366714D02*
X7683343Y-19357190D01*
X7683343Y-19357190D02*
X7721438Y-19357190D01*
X7721438Y-19357190D02*
X7740486Y-19366714D01*
X7740486Y-19366714D02*
X7750010Y-19385762D01*
X7750010Y-19385762D02*
X7750010Y-19404810D01*
X7750010Y-19404810D02*
X7654772Y-19423857D01*
X7826200Y-19481000D02*
X7845248Y-19490524D01*
X7845248Y-19490524D02*
X7883343Y-19490524D01*
X7883343Y-19490524D02*
X7902391Y-19481000D01*
X7902391Y-19481000D02*
X7911915Y-19461952D01*
X7911915Y-19461952D02*
X7911915Y-19452429D01*
X7911915Y-19452429D02*
X7902391Y-19433381D01*
X7902391Y-19433381D02*
X7883343Y-19423857D01*
X7883343Y-19423857D02*
X7854772Y-19423857D01*
X7854772Y-19423857D02*
X7835724Y-19414333D01*
X7835724Y-19414333D02*
X7826200Y-19395286D01*
X7826200Y-19395286D02*
X7826200Y-19385762D01*
X7826200Y-19385762D02*
X7835724Y-19366714D01*
X7835724Y-19366714D02*
X7854772Y-19357190D01*
X7854772Y-19357190D02*
X7883343Y-19357190D01*
X7883343Y-19357190D02*
X7902391Y-19366714D01*
X7978581Y-19566714D02*
X7988105Y-19557190D01*
X7988105Y-19557190D02*
X8007153Y-19528619D01*
X8007153Y-19528619D02*
X8016677Y-19509571D01*
X8016677Y-19509571D02*
X8026200Y-19481000D01*
X8026200Y-19481000D02*
X8035724Y-19433381D01*
X8035724Y-19433381D02*
X8035724Y-19395286D01*
X8035724Y-19395286D02*
X8026200Y-19347667D01*
X8026200Y-19347667D02*
X8016677Y-19319095D01*
X8016677Y-19319095D02*
X8007153Y-19300048D01*
X8007153Y-19300048D02*
X7988105Y-19271476D01*
X7988105Y-19271476D02*
X7978581Y-19261952D01*
X8340486Y-19566714D02*
X8330962Y-19557190D01*
X8330962Y-19557190D02*
X8311915Y-19528619D01*
X8311915Y-19528619D02*
X8302391Y-19509571D01*
X8302391Y-19509571D02*
X8292867Y-19481000D01*
X8292867Y-19481000D02*
X8283343Y-19433381D01*
X8283343Y-19433381D02*
X8283343Y-19395286D01*
X8283343Y-19395286D02*
X8292867Y-19347667D01*
X8292867Y-19347667D02*
X8302391Y-19319095D01*
X8302391Y-19319095D02*
X8311915Y-19300048D01*
X8311915Y-19300048D02*
X8330962Y-19271476D01*
X8330962Y-19271476D02*
X8340486Y-19261952D01*
X8416677Y-19357190D02*
X8416677Y-19490524D01*
X8416677Y-19376238D02*
X8426200Y-19366714D01*
X8426200Y-19366714D02*
X8445248Y-19357190D01*
X8445248Y-19357190D02*
X8473820Y-19357190D01*
X8473820Y-19357190D02*
X8492867Y-19366714D01*
X8492867Y-19366714D02*
X8502391Y-19385762D01*
X8502391Y-19385762D02*
X8502391Y-19490524D01*
X8626200Y-19490524D02*
X8607153Y-19481000D01*
X8607153Y-19481000D02*
X8597629Y-19471476D01*
X8597629Y-19471476D02*
X8588105Y-19452429D01*
X8588105Y-19452429D02*
X8588105Y-19395286D01*
X8588105Y-19395286D02*
X8597629Y-19376238D01*
X8597629Y-19376238D02*
X8607153Y-19366714D01*
X8607153Y-19366714D02*
X8626200Y-19357190D01*
X8626200Y-19357190D02*
X8654772Y-19357190D01*
X8654772Y-19357190D02*
X8673820Y-19366714D01*
X8673820Y-19366714D02*
X8683343Y-19376238D01*
X8683343Y-19376238D02*
X8692867Y-19395286D01*
X8692867Y-19395286D02*
X8692867Y-19452429D01*
X8692867Y-19452429D02*
X8683343Y-19471476D01*
X8683343Y-19471476D02*
X8673820Y-19481000D01*
X8673820Y-19481000D02*
X8654772Y-19490524D01*
X8654772Y-19490524D02*
X8626200Y-19490524D01*
X8750010Y-19357190D02*
X8826200Y-19357190D01*
X8778581Y-19290524D02*
X8778581Y-19461952D01*
X8778581Y-19461952D02*
X8788105Y-19481000D01*
X8788105Y-19481000D02*
X8807153Y-19490524D01*
X8807153Y-19490524D02*
X8826200Y-19490524D01*
X9045248Y-19357190D02*
X9045248Y-19557190D01*
X9045248Y-19366714D02*
X9064296Y-19357190D01*
X9064296Y-19357190D02*
X9102391Y-19357190D01*
X9102391Y-19357190D02*
X9121439Y-19366714D01*
X9121439Y-19366714D02*
X9130962Y-19376238D01*
X9130962Y-19376238D02*
X9140486Y-19395286D01*
X9140486Y-19395286D02*
X9140486Y-19452429D01*
X9140486Y-19452429D02*
X9130962Y-19471476D01*
X9130962Y-19471476D02*
X9121439Y-19481000D01*
X9121439Y-19481000D02*
X9102391Y-19490524D01*
X9102391Y-19490524D02*
X9064296Y-19490524D01*
X9064296Y-19490524D02*
X9045248Y-19481000D01*
X9254772Y-19490524D02*
X9235724Y-19481000D01*
X9235724Y-19481000D02*
X9226201Y-19461952D01*
X9226201Y-19461952D02*
X9226201Y-19290524D01*
X9416677Y-19490524D02*
X9416677Y-19385762D01*
X9416677Y-19385762D02*
X9407153Y-19366714D01*
X9407153Y-19366714D02*
X9388105Y-19357190D01*
X9388105Y-19357190D02*
X9350010Y-19357190D01*
X9350010Y-19357190D02*
X9330962Y-19366714D01*
X9416677Y-19481000D02*
X9397629Y-19490524D01*
X9397629Y-19490524D02*
X9350010Y-19490524D01*
X9350010Y-19490524D02*
X9330962Y-19481000D01*
X9330962Y-19481000D02*
X9321439Y-19461952D01*
X9321439Y-19461952D02*
X9321439Y-19442905D01*
X9321439Y-19442905D02*
X9330962Y-19423857D01*
X9330962Y-19423857D02*
X9350010Y-19414333D01*
X9350010Y-19414333D02*
X9397629Y-19414333D01*
X9397629Y-19414333D02*
X9416677Y-19404810D01*
X9483343Y-19357190D02*
X9559534Y-19357190D01*
X9511915Y-19290524D02*
X9511915Y-19461952D01*
X9511915Y-19461952D02*
X9521439Y-19481000D01*
X9521439Y-19481000D02*
X9540486Y-19490524D01*
X9540486Y-19490524D02*
X9559534Y-19490524D01*
X9702391Y-19481000D02*
X9683343Y-19490524D01*
X9683343Y-19490524D02*
X9645248Y-19490524D01*
X9645248Y-19490524D02*
X9626201Y-19481000D01*
X9626201Y-19481000D02*
X9616677Y-19461952D01*
X9616677Y-19461952D02*
X9616677Y-19385762D01*
X9616677Y-19385762D02*
X9626201Y-19366714D01*
X9626201Y-19366714D02*
X9645248Y-19357190D01*
X9645248Y-19357190D02*
X9683343Y-19357190D01*
X9683343Y-19357190D02*
X9702391Y-19366714D01*
X9702391Y-19366714D02*
X9711915Y-19385762D01*
X9711915Y-19385762D02*
X9711915Y-19404810D01*
X9711915Y-19404810D02*
X9616677Y-19423857D01*
X9883343Y-19490524D02*
X9883343Y-19290524D01*
X9883343Y-19481000D02*
X9864296Y-19490524D01*
X9864296Y-19490524D02*
X9826201Y-19490524D01*
X9826201Y-19490524D02*
X9807153Y-19481000D01*
X9807153Y-19481000D02*
X9797629Y-19471476D01*
X9797629Y-19471476D02*
X9788105Y-19452429D01*
X9788105Y-19452429D02*
X9788105Y-19395286D01*
X9788105Y-19395286D02*
X9797629Y-19376238D01*
X9797629Y-19376238D02*
X9807153Y-19366714D01*
X9807153Y-19366714D02*
X9826201Y-19357190D01*
X9826201Y-19357190D02*
X9864296Y-19357190D01*
X9864296Y-19357190D02*
X9883343Y-19366714D01*
X9959534Y-19566714D02*
X9969058Y-19557190D01*
X9969058Y-19557190D02*
X9988105Y-19528619D01*
X9988105Y-19528619D02*
X9997629Y-19509571D01*
X9997629Y-19509571D02*
X10007153Y-19481000D01*
X10007153Y-19481000D02*
X10016677Y-19433381D01*
X10016677Y-19433381D02*
X10016677Y-19395286D01*
X10016677Y-19395286D02*
X10007153Y-19347667D01*
X10007153Y-19347667D02*
X9997629Y-19319095D01*
X9997629Y-19319095D02*
X9988105Y-19300048D01*
X9988105Y-19300048D02*
X9969058Y-19271476D01*
X9969058Y-19271476D02*
X9959534Y-19261952D01*
X2926200Y-19818000D02*
X3026200Y-19718000D01*
X2926200Y-19618000D01*
X2826200Y-19718000D01*
X2926200Y-19818000D01*
X3359533Y-19677190D02*
X3359533Y-19810524D01*
X3311914Y-19601000D02*
X3264295Y-19743857D01*
X3264295Y-19743857D02*
X3388105Y-19743857D01*
X3464295Y-19791476D02*
X3473819Y-19801000D01*
X3473819Y-19801000D02*
X3464295Y-19810524D01*
X3464295Y-19810524D02*
X3454771Y-19801000D01*
X3454771Y-19801000D02*
X3464295Y-19791476D01*
X3464295Y-19791476D02*
X3464295Y-19810524D01*
X3597628Y-19610524D02*
X3616676Y-19610524D01*
X3616676Y-19610524D02*
X3635724Y-19620048D01*
X3635724Y-19620048D02*
X3645248Y-19629571D01*
X3645248Y-19629571D02*
X3654771Y-19648619D01*
X3654771Y-19648619D02*
X3664295Y-19686714D01*
X3664295Y-19686714D02*
X3664295Y-19734333D01*
X3664295Y-19734333D02*
X3654771Y-19772429D01*
X3654771Y-19772429D02*
X3645248Y-19791476D01*
X3645248Y-19791476D02*
X3635724Y-19801000D01*
X3635724Y-19801000D02*
X3616676Y-19810524D01*
X3616676Y-19810524D02*
X3597628Y-19810524D01*
X3597628Y-19810524D02*
X3578581Y-19801000D01*
X3578581Y-19801000D02*
X3569057Y-19791476D01*
X3569057Y-19791476D02*
X3559533Y-19772429D01*
X3559533Y-19772429D02*
X3550009Y-19734333D01*
X3550009Y-19734333D02*
X3550009Y-19686714D01*
X3550009Y-19686714D02*
X3559533Y-19648619D01*
X3559533Y-19648619D02*
X3569057Y-19629571D01*
X3569057Y-19629571D02*
X3578581Y-19620048D01*
X3578581Y-19620048D02*
X3597628Y-19610524D01*
X3788105Y-19610524D02*
X3807152Y-19610524D01*
X3807152Y-19610524D02*
X3826200Y-19620048D01*
X3826200Y-19620048D02*
X3835724Y-19629571D01*
X3835724Y-19629571D02*
X3845248Y-19648619D01*
X3845248Y-19648619D02*
X3854771Y-19686714D01*
X3854771Y-19686714D02*
X3854771Y-19734333D01*
X3854771Y-19734333D02*
X3845248Y-19772429D01*
X3845248Y-19772429D02*
X3835724Y-19791476D01*
X3835724Y-19791476D02*
X3826200Y-19801000D01*
X3826200Y-19801000D02*
X3807152Y-19810524D01*
X3807152Y-19810524D02*
X3788105Y-19810524D01*
X3788105Y-19810524D02*
X3769057Y-19801000D01*
X3769057Y-19801000D02*
X3759533Y-19791476D01*
X3759533Y-19791476D02*
X3750009Y-19772429D01*
X3750009Y-19772429D02*
X3740486Y-19734333D01*
X3740486Y-19734333D02*
X3740486Y-19686714D01*
X3740486Y-19686714D02*
X3750009Y-19648619D01*
X3750009Y-19648619D02*
X3759533Y-19629571D01*
X3759533Y-19629571D02*
X3769057Y-19620048D01*
X3769057Y-19620048D02*
X3788105Y-19610524D01*
X3978581Y-19610524D02*
X3997629Y-19610524D01*
X3997629Y-19610524D02*
X4016676Y-19620048D01*
X4016676Y-19620048D02*
X4026200Y-19629571D01*
X4026200Y-19629571D02*
X4035724Y-19648619D01*
X4035724Y-19648619D02*
X4045248Y-19686714D01*
X4045248Y-19686714D02*
X4045248Y-19734333D01*
X4045248Y-19734333D02*
X4035724Y-19772429D01*
X4035724Y-19772429D02*
X4026200Y-19791476D01*
X4026200Y-19791476D02*
X4016676Y-19801000D01*
X4016676Y-19801000D02*
X3997629Y-19810524D01*
X3997629Y-19810524D02*
X3978581Y-19810524D01*
X3978581Y-19810524D02*
X3959533Y-19801000D01*
X3959533Y-19801000D02*
X3950009Y-19791476D01*
X3950009Y-19791476D02*
X3940486Y-19772429D01*
X3940486Y-19772429D02*
X3930962Y-19734333D01*
X3930962Y-19734333D02*
X3930962Y-19686714D01*
X3930962Y-19686714D02*
X3940486Y-19648619D01*
X3940486Y-19648619D02*
X3950009Y-19629571D01*
X3950009Y-19629571D02*
X3959533Y-19620048D01*
X3959533Y-19620048D02*
X3978581Y-19610524D01*
X4130962Y-19810524D02*
X4130962Y-19677190D01*
X4130962Y-19696238D02*
X4140486Y-19686714D01*
X4140486Y-19686714D02*
X4159533Y-19677190D01*
X4159533Y-19677190D02*
X4188105Y-19677190D01*
X4188105Y-19677190D02*
X4207152Y-19686714D01*
X4207152Y-19686714D02*
X4216676Y-19705762D01*
X4216676Y-19705762D02*
X4216676Y-19810524D01*
X4216676Y-19705762D02*
X4226200Y-19686714D01*
X4226200Y-19686714D02*
X4245248Y-19677190D01*
X4245248Y-19677190D02*
X4273819Y-19677190D01*
X4273819Y-19677190D02*
X4292867Y-19686714D01*
X4292867Y-19686714D02*
X4302391Y-19705762D01*
X4302391Y-19705762D02*
X4302391Y-19810524D01*
X4397629Y-19810524D02*
X4397629Y-19677190D01*
X4397629Y-19696238D02*
X4407152Y-19686714D01*
X4407152Y-19686714D02*
X4426200Y-19677190D01*
X4426200Y-19677190D02*
X4454772Y-19677190D01*
X4454772Y-19677190D02*
X4473819Y-19686714D01*
X4473819Y-19686714D02*
X4483343Y-19705762D01*
X4483343Y-19705762D02*
X4483343Y-19810524D01*
X4483343Y-19705762D02*
X4492867Y-19686714D01*
X4492867Y-19686714D02*
X4511914Y-19677190D01*
X4511914Y-19677190D02*
X4540486Y-19677190D01*
X4540486Y-19677190D02*
X4559533Y-19686714D01*
X4559533Y-19686714D02*
X4569057Y-19705762D01*
X4569057Y-19705762D02*
X4569057Y-19810524D01*
X4959533Y-19601000D02*
X4788105Y-19858143D01*
X5216676Y-19610524D02*
X5235724Y-19610524D01*
X5235724Y-19610524D02*
X5254772Y-19620048D01*
X5254772Y-19620048D02*
X5264295Y-19629571D01*
X5264295Y-19629571D02*
X5273819Y-19648619D01*
X5273819Y-19648619D02*
X5283343Y-19686714D01*
X5283343Y-19686714D02*
X5283343Y-19734333D01*
X5283343Y-19734333D02*
X5273819Y-19772429D01*
X5273819Y-19772429D02*
X5264295Y-19791476D01*
X5264295Y-19791476D02*
X5254772Y-19801000D01*
X5254772Y-19801000D02*
X5235724Y-19810524D01*
X5235724Y-19810524D02*
X5216676Y-19810524D01*
X5216676Y-19810524D02*
X5197629Y-19801000D01*
X5197629Y-19801000D02*
X5188105Y-19791476D01*
X5188105Y-19791476D02*
X5178581Y-19772429D01*
X5178581Y-19772429D02*
X5169057Y-19734333D01*
X5169057Y-19734333D02*
X5169057Y-19686714D01*
X5169057Y-19686714D02*
X5178581Y-19648619D01*
X5178581Y-19648619D02*
X5188105Y-19629571D01*
X5188105Y-19629571D02*
X5197629Y-19620048D01*
X5197629Y-19620048D02*
X5216676Y-19610524D01*
X5369057Y-19791476D02*
X5378581Y-19801000D01*
X5378581Y-19801000D02*
X5369057Y-19810524D01*
X5369057Y-19810524D02*
X5359534Y-19801000D01*
X5359534Y-19801000D02*
X5369057Y-19791476D01*
X5369057Y-19791476D02*
X5369057Y-19810524D01*
X5569057Y-19810524D02*
X5454772Y-19810524D01*
X5511914Y-19810524D02*
X5511914Y-19610524D01*
X5511914Y-19610524D02*
X5492867Y-19639095D01*
X5492867Y-19639095D02*
X5473819Y-19658143D01*
X5473819Y-19658143D02*
X5454772Y-19667667D01*
X5750010Y-19610524D02*
X5654772Y-19610524D01*
X5654772Y-19610524D02*
X5645248Y-19705762D01*
X5645248Y-19705762D02*
X5654772Y-19696238D01*
X5654772Y-19696238D02*
X5673819Y-19686714D01*
X5673819Y-19686714D02*
X5721438Y-19686714D01*
X5721438Y-19686714D02*
X5740486Y-19696238D01*
X5740486Y-19696238D02*
X5750010Y-19705762D01*
X5750010Y-19705762D02*
X5759533Y-19724810D01*
X5759533Y-19724810D02*
X5759533Y-19772429D01*
X5759533Y-19772429D02*
X5750010Y-19791476D01*
X5750010Y-19791476D02*
X5740486Y-19801000D01*
X5740486Y-19801000D02*
X5721438Y-19810524D01*
X5721438Y-19810524D02*
X5673819Y-19810524D01*
X5673819Y-19810524D02*
X5654772Y-19801000D01*
X5654772Y-19801000D02*
X5645248Y-19791476D01*
X5826200Y-19610524D02*
X5959533Y-19610524D01*
X5959533Y-19610524D02*
X5873819Y-19810524D01*
X6130962Y-19610524D02*
X6035724Y-19610524D01*
X6035724Y-19610524D02*
X6026200Y-19705762D01*
X6026200Y-19705762D02*
X6035724Y-19696238D01*
X6035724Y-19696238D02*
X6054772Y-19686714D01*
X6054772Y-19686714D02*
X6102391Y-19686714D01*
X6102391Y-19686714D02*
X6121438Y-19696238D01*
X6121438Y-19696238D02*
X6130962Y-19705762D01*
X6130962Y-19705762D02*
X6140486Y-19724810D01*
X6140486Y-19724810D02*
X6140486Y-19772429D01*
X6140486Y-19772429D02*
X6130962Y-19791476D01*
X6130962Y-19791476D02*
X6121438Y-19801000D01*
X6121438Y-19801000D02*
X6102391Y-19810524D01*
X6102391Y-19810524D02*
X6054772Y-19810524D01*
X6054772Y-19810524D02*
X6035724Y-19801000D01*
X6035724Y-19801000D02*
X6026200Y-19791476D01*
X6216676Y-19610524D02*
X6216676Y-19648619D01*
X6292867Y-19610524D02*
X6292867Y-19648619D01*
X6588105Y-19886714D02*
X6578581Y-19877190D01*
X6578581Y-19877190D02*
X6559534Y-19848619D01*
X6559534Y-19848619D02*
X6550010Y-19829571D01*
X6550010Y-19829571D02*
X6540486Y-19801000D01*
X6540486Y-19801000D02*
X6530962Y-19753381D01*
X6530962Y-19753381D02*
X6530962Y-19715286D01*
X6530962Y-19715286D02*
X6540486Y-19667667D01*
X6540486Y-19667667D02*
X6550010Y-19639095D01*
X6550010Y-19639095D02*
X6559534Y-19620048D01*
X6559534Y-19620048D02*
X6578581Y-19591476D01*
X6578581Y-19591476D02*
X6588105Y-19581952D01*
X6692867Y-19696238D02*
X6673819Y-19686714D01*
X6673819Y-19686714D02*
X6664295Y-19677190D01*
X6664295Y-19677190D02*
X6654772Y-19658143D01*
X6654772Y-19658143D02*
X6654772Y-19648619D01*
X6654772Y-19648619D02*
X6664295Y-19629571D01*
X6664295Y-19629571D02*
X6673819Y-19620048D01*
X6673819Y-19620048D02*
X6692867Y-19610524D01*
X6692867Y-19610524D02*
X6730962Y-19610524D01*
X6730962Y-19610524D02*
X6750010Y-19620048D01*
X6750010Y-19620048D02*
X6759534Y-19629571D01*
X6759534Y-19629571D02*
X6769057Y-19648619D01*
X6769057Y-19648619D02*
X6769057Y-19658143D01*
X6769057Y-19658143D02*
X6759534Y-19677190D01*
X6759534Y-19677190D02*
X6750010Y-19686714D01*
X6750010Y-19686714D02*
X6730962Y-19696238D01*
X6730962Y-19696238D02*
X6692867Y-19696238D01*
X6692867Y-19696238D02*
X6673819Y-19705762D01*
X6673819Y-19705762D02*
X6664295Y-19715286D01*
X6664295Y-19715286D02*
X6654772Y-19734333D01*
X6654772Y-19734333D02*
X6654772Y-19772429D01*
X6654772Y-19772429D02*
X6664295Y-19791476D01*
X6664295Y-19791476D02*
X6673819Y-19801000D01*
X6673819Y-19801000D02*
X6692867Y-19810524D01*
X6692867Y-19810524D02*
X6730962Y-19810524D01*
X6730962Y-19810524D02*
X6750010Y-19801000D01*
X6750010Y-19801000D02*
X6759534Y-19791476D01*
X6759534Y-19791476D02*
X6769057Y-19772429D01*
X6769057Y-19772429D02*
X6769057Y-19734333D01*
X6769057Y-19734333D02*
X6759534Y-19715286D01*
X6759534Y-19715286D02*
X6750010Y-19705762D01*
X6750010Y-19705762D02*
X6730962Y-19696238D01*
X6835724Y-19610524D02*
X6969057Y-19610524D01*
X6969057Y-19610524D02*
X6883343Y-19810524D01*
X7197629Y-19810524D02*
X7197629Y-19610524D01*
X7283343Y-19810524D02*
X7283343Y-19705762D01*
X7283343Y-19705762D02*
X7273819Y-19686714D01*
X7273819Y-19686714D02*
X7254772Y-19677190D01*
X7254772Y-19677190D02*
X7226200Y-19677190D01*
X7226200Y-19677190D02*
X7207153Y-19686714D01*
X7207153Y-19686714D02*
X7197629Y-19696238D01*
X7407153Y-19810524D02*
X7388105Y-19801000D01*
X7388105Y-19801000D02*
X7378581Y-19791476D01*
X7378581Y-19791476D02*
X7369057Y-19772429D01*
X7369057Y-19772429D02*
X7369057Y-19715286D01*
X7369057Y-19715286D02*
X7378581Y-19696238D01*
X7378581Y-19696238D02*
X7388105Y-19686714D01*
X7388105Y-19686714D02*
X7407153Y-19677190D01*
X7407153Y-19677190D02*
X7435724Y-19677190D01*
X7435724Y-19677190D02*
X7454772Y-19686714D01*
X7454772Y-19686714D02*
X7464296Y-19696238D01*
X7464296Y-19696238D02*
X7473819Y-19715286D01*
X7473819Y-19715286D02*
X7473819Y-19772429D01*
X7473819Y-19772429D02*
X7464296Y-19791476D01*
X7464296Y-19791476D02*
X7454772Y-19801000D01*
X7454772Y-19801000D02*
X7435724Y-19810524D01*
X7435724Y-19810524D02*
X7407153Y-19810524D01*
X7588105Y-19810524D02*
X7569057Y-19801000D01*
X7569057Y-19801000D02*
X7559534Y-19781952D01*
X7559534Y-19781952D02*
X7559534Y-19610524D01*
X7740486Y-19801000D02*
X7721438Y-19810524D01*
X7721438Y-19810524D02*
X7683343Y-19810524D01*
X7683343Y-19810524D02*
X7664296Y-19801000D01*
X7664296Y-19801000D02*
X7654772Y-19781952D01*
X7654772Y-19781952D02*
X7654772Y-19705762D01*
X7654772Y-19705762D02*
X7664296Y-19686714D01*
X7664296Y-19686714D02*
X7683343Y-19677190D01*
X7683343Y-19677190D02*
X7721438Y-19677190D01*
X7721438Y-19677190D02*
X7740486Y-19686714D01*
X7740486Y-19686714D02*
X7750010Y-19705762D01*
X7750010Y-19705762D02*
X7750010Y-19724810D01*
X7750010Y-19724810D02*
X7654772Y-19743857D01*
X7826200Y-19801000D02*
X7845248Y-19810524D01*
X7845248Y-19810524D02*
X7883343Y-19810524D01*
X7883343Y-19810524D02*
X7902391Y-19801000D01*
X7902391Y-19801000D02*
X7911915Y-19781952D01*
X7911915Y-19781952D02*
X7911915Y-19772429D01*
X7911915Y-19772429D02*
X7902391Y-19753381D01*
X7902391Y-19753381D02*
X7883343Y-19743857D01*
X7883343Y-19743857D02*
X7854772Y-19743857D01*
X7854772Y-19743857D02*
X7835724Y-19734333D01*
X7835724Y-19734333D02*
X7826200Y-19715286D01*
X7826200Y-19715286D02*
X7826200Y-19705762D01*
X7826200Y-19705762D02*
X7835724Y-19686714D01*
X7835724Y-19686714D02*
X7854772Y-19677190D01*
X7854772Y-19677190D02*
X7883343Y-19677190D01*
X7883343Y-19677190D02*
X7902391Y-19686714D01*
X7978581Y-19886714D02*
X7988105Y-19877190D01*
X7988105Y-19877190D02*
X8007153Y-19848619D01*
X8007153Y-19848619D02*
X8016677Y-19829571D01*
X8016677Y-19829571D02*
X8026200Y-19801000D01*
X8026200Y-19801000D02*
X8035724Y-19753381D01*
X8035724Y-19753381D02*
X8035724Y-19715286D01*
X8035724Y-19715286D02*
X8026200Y-19667667D01*
X8026200Y-19667667D02*
X8016677Y-19639095D01*
X8016677Y-19639095D02*
X8007153Y-19620048D01*
X8007153Y-19620048D02*
X7988105Y-19591476D01*
X7988105Y-19591476D02*
X7978581Y-19581952D01*
X8340486Y-19886714D02*
X8330962Y-19877190D01*
X8330962Y-19877190D02*
X8311915Y-19848619D01*
X8311915Y-19848619D02*
X8302391Y-19829571D01*
X8302391Y-19829571D02*
X8292867Y-19801000D01*
X8292867Y-19801000D02*
X8283343Y-19753381D01*
X8283343Y-19753381D02*
X8283343Y-19715286D01*
X8283343Y-19715286D02*
X8292867Y-19667667D01*
X8292867Y-19667667D02*
X8302391Y-19639095D01*
X8302391Y-19639095D02*
X8311915Y-19620048D01*
X8311915Y-19620048D02*
X8330962Y-19591476D01*
X8330962Y-19591476D02*
X8340486Y-19581952D01*
X8416677Y-19677190D02*
X8416677Y-19810524D01*
X8416677Y-19696238D02*
X8426200Y-19686714D01*
X8426200Y-19686714D02*
X8445248Y-19677190D01*
X8445248Y-19677190D02*
X8473820Y-19677190D01*
X8473820Y-19677190D02*
X8492867Y-19686714D01*
X8492867Y-19686714D02*
X8502391Y-19705762D01*
X8502391Y-19705762D02*
X8502391Y-19810524D01*
X8626200Y-19810524D02*
X8607153Y-19801000D01*
X8607153Y-19801000D02*
X8597629Y-19791476D01*
X8597629Y-19791476D02*
X8588105Y-19772429D01*
X8588105Y-19772429D02*
X8588105Y-19715286D01*
X8588105Y-19715286D02*
X8597629Y-19696238D01*
X8597629Y-19696238D02*
X8607153Y-19686714D01*
X8607153Y-19686714D02*
X8626200Y-19677190D01*
X8626200Y-19677190D02*
X8654772Y-19677190D01*
X8654772Y-19677190D02*
X8673820Y-19686714D01*
X8673820Y-19686714D02*
X8683343Y-19696238D01*
X8683343Y-19696238D02*
X8692867Y-19715286D01*
X8692867Y-19715286D02*
X8692867Y-19772429D01*
X8692867Y-19772429D02*
X8683343Y-19791476D01*
X8683343Y-19791476D02*
X8673820Y-19801000D01*
X8673820Y-19801000D02*
X8654772Y-19810524D01*
X8654772Y-19810524D02*
X8626200Y-19810524D01*
X8750010Y-19677190D02*
X8826200Y-19677190D01*
X8778581Y-19610524D02*
X8778581Y-19781952D01*
X8778581Y-19781952D02*
X8788105Y-19801000D01*
X8788105Y-19801000D02*
X8807153Y-19810524D01*
X8807153Y-19810524D02*
X8826200Y-19810524D01*
X9045248Y-19677190D02*
X9045248Y-19877190D01*
X9045248Y-19686714D02*
X9064296Y-19677190D01*
X9064296Y-19677190D02*
X9102391Y-19677190D01*
X9102391Y-19677190D02*
X9121439Y-19686714D01*
X9121439Y-19686714D02*
X9130962Y-19696238D01*
X9130962Y-19696238D02*
X9140486Y-19715286D01*
X9140486Y-19715286D02*
X9140486Y-19772429D01*
X9140486Y-19772429D02*
X9130962Y-19791476D01*
X9130962Y-19791476D02*
X9121439Y-19801000D01*
X9121439Y-19801000D02*
X9102391Y-19810524D01*
X9102391Y-19810524D02*
X9064296Y-19810524D01*
X9064296Y-19810524D02*
X9045248Y-19801000D01*
X9254772Y-19810524D02*
X9235724Y-19801000D01*
X9235724Y-19801000D02*
X9226201Y-19781952D01*
X9226201Y-19781952D02*
X9226201Y-19610524D01*
X9416677Y-19810524D02*
X9416677Y-19705762D01*
X9416677Y-19705762D02*
X9407153Y-19686714D01*
X9407153Y-19686714D02*
X9388105Y-19677190D01*
X9388105Y-19677190D02*
X9350010Y-19677190D01*
X9350010Y-19677190D02*
X9330962Y-19686714D01*
X9416677Y-19801000D02*
X9397629Y-19810524D01*
X9397629Y-19810524D02*
X9350010Y-19810524D01*
X9350010Y-19810524D02*
X9330962Y-19801000D01*
X9330962Y-19801000D02*
X9321439Y-19781952D01*
X9321439Y-19781952D02*
X9321439Y-19762905D01*
X9321439Y-19762905D02*
X9330962Y-19743857D01*
X9330962Y-19743857D02*
X9350010Y-19734333D01*
X9350010Y-19734333D02*
X9397629Y-19734333D01*
X9397629Y-19734333D02*
X9416677Y-19724810D01*
X9483343Y-19677190D02*
X9559534Y-19677190D01*
X9511915Y-19610524D02*
X9511915Y-19781952D01*
X9511915Y-19781952D02*
X9521439Y-19801000D01*
X9521439Y-19801000D02*
X9540486Y-19810524D01*
X9540486Y-19810524D02*
X9559534Y-19810524D01*
X9702391Y-19801000D02*
X9683343Y-19810524D01*
X9683343Y-19810524D02*
X9645248Y-19810524D01*
X9645248Y-19810524D02*
X9626201Y-19801000D01*
X9626201Y-19801000D02*
X9616677Y-19781952D01*
X9616677Y-19781952D02*
X9616677Y-19705762D01*
X9616677Y-19705762D02*
X9626201Y-19686714D01*
X9626201Y-19686714D02*
X9645248Y-19677190D01*
X9645248Y-19677190D02*
X9683343Y-19677190D01*
X9683343Y-19677190D02*
X9702391Y-19686714D01*
X9702391Y-19686714D02*
X9711915Y-19705762D01*
X9711915Y-19705762D02*
X9711915Y-19724810D01*
X9711915Y-19724810D02*
X9616677Y-19743857D01*
X9883343Y-19810524D02*
X9883343Y-19610524D01*
X9883343Y-19801000D02*
X9864296Y-19810524D01*
X9864296Y-19810524D02*
X9826201Y-19810524D01*
X9826201Y-19810524D02*
X9807153Y-19801000D01*
X9807153Y-19801000D02*
X9797629Y-19791476D01*
X9797629Y-19791476D02*
X9788105Y-19772429D01*
X9788105Y-19772429D02*
X9788105Y-19715286D01*
X9788105Y-19715286D02*
X9797629Y-19696238D01*
X9797629Y-19696238D02*
X9807153Y-19686714D01*
X9807153Y-19686714D02*
X9826201Y-19677190D01*
X9826201Y-19677190D02*
X9864296Y-19677190D01*
X9864296Y-19677190D02*
X9883343Y-19686714D01*
X9959534Y-19886714D02*
X9969058Y-19877190D01*
X9969058Y-19877190D02*
X9988105Y-19848619D01*
X9988105Y-19848619D02*
X9997629Y-19829571D01*
X9997629Y-19829571D02*
X10007153Y-19801000D01*
X10007153Y-19801000D02*
X10016677Y-19753381D01*
X10016677Y-19753381D02*
X10016677Y-19715286D01*
X10016677Y-19715286D02*
X10007153Y-19667667D01*
X10007153Y-19667667D02*
X9997629Y-19639095D01*
X9997629Y-19639095D02*
X9988105Y-19620048D01*
X9988105Y-19620048D02*
X9969058Y-19591476D01*
X9969058Y-19591476D02*
X9959534Y-19581952D01*
M02*
