M48
; DRILL file {KiCad 7.0.2} date Tue Nov  7 01:17:31 2023
; FORMAT={-:-/ absolute / metric / decimal}
; #@! TF.CreationDate,2023-11-07T01:17:31+01:00
; #@! TF.GenerationSoftware,Kicad,Pcbnew,7.0.2
; #@! TF.FileFunction,Plated,1,2,PTH
FMAT,2
METRIC
; #@! TA.AperFunction,Plated,PTH,ViaDrill
T1C0.400
; #@! TA.AperFunction,Plated,PTH,ComponentDrill
T2C0.400
; #@! TA.AperFunction,Plated,PTH,ComponentDrill
T3C0.500
; #@! TA.AperFunction,Plated,PTH,ComponentDrill
T4C0.600
%
G90
G05
T1
X37.465Y-69.85
X38.408Y-98.314
X40.64Y-173.99
X43.18Y-117.475
X45.085Y-135.89
X50.165Y-154.94
X55.88Y-51.308
X57.15Y-98.425
X64.135Y-173.99
X66.675Y-117.475
X71.12Y-51.816
X71.12Y-135.89
X75.565Y-69.85
X75.565Y-97.155
X83.312Y-154.94
X88.265Y-117.475
X88.265Y-173.99
X90.17Y-135.89
X93.472Y-51.816
X95.25Y-69.85
X95.885Y-98.425
X100.33Y-154.94
X107.95Y-117.475
X109.22Y-135.89
X112.776Y-51.816
X114.3Y-69.85
X114.935Y-98.425
X119.38Y-154.94
X126.365Y-117.475
X128.27Y-136.525
X130.556Y-48.768
X132.08Y-51.816
X133.35Y-69.85
X133.35Y-97.79
X138.43Y-154.94
X138.684Y-44.704
X143.764Y-48.768
X145.796Y-44.704
X145.796Y-49.784
X145.796Y-52.832
X146.05Y-117.475
X146.812Y-49.276
X146.812Y-52.832
X147.32Y-44.704
X147.32Y-45.72
X147.32Y-135.89
X149.064Y-42.472
X149.352Y-52.832
X149.352Y-75.184
X153.924Y-98.425
X155.205Y-52.832
X155.448Y-46.228
X155.448Y-79.756
X155.956Y-49.276
X156.464Y-46.228
X157.218Y-52.972
X157.48Y-46.228
X158.496Y-46.228
X159.512Y-48.26
X159.512Y-50.292
X160.02Y-154.94
X160.02Y-174.625
X160.528Y-48.26
X160.528Y-49.276
X161.925Y-69.85
X161.926Y-45.472
X162.052Y-56.896
X163.068Y-88.392
X165.1Y-117.475
X165.608Y-47.244
X165.846Y-45.439
X166.37Y-135.89
X166.624Y-47.752
X167.132Y-46.228
X167.132Y-48.768
X169.164Y-55.88
X170.18Y-42.164
X170.688Y-67.564
X172.085Y-98.425
X174.244Y-135.636
X177.8Y-45.72
X177.8Y-117.348
X178.816Y-52.832
X178.816Y-154.94
X180.975Y-69.85
X182.88Y-56.896
X184.15Y-117.475
X185.42Y-60.452
X185.42Y-136.525
X186.944Y-46.736
X188.468Y-55.88
X190.153Y-81.529
X191.135Y-98.425
X194.945Y-155.575
X196.088Y-43.688
X198.12Y-56.388
X200.025Y-69.85
X201.168Y-58.15
X202.184Y-105.664
X202.184Y-144.78
X202.184Y-158.496
X203.2Y-117.475
X204.47Y-136.525
X204.724Y-46.228
X210.185Y-98.425
X211.836Y-118.872
X213.995Y-155.575
X216.408Y-52.832
X217.932Y-56.388
X219.075Y-69.85
X220.98Y-118.11
X223.52Y-136.525
X230.632Y-98.425
X231.14Y-174.625
X234.188Y-154.94
X235.712Y-51.816
X240.665Y-118.11
X243.205Y-135.89
X247.65Y-69.85
X248.285Y-97.79
X254.635Y-174.625
X255.524Y-154.94
X259.715Y-117.475
X261.62Y-136.525
X265.176Y-51.816
X266.7Y-69.85
X268.605Y-98.425
X278.765Y-117.475
X278.765Y-174.625
X283.464Y-51.308
X285.75Y-69.85
X288.29Y-154.94
X293.37Y-136.525
X295.91Y-98.425
X302.26Y-118.11
X302.26Y-174.625
X302.768Y-51.816
X304.8Y-69.85
X321.564Y-51.308
X328.295Y-69.85
X328.295Y-174.625
X328.93Y-98.425
X330.2Y-117.475
X345.948Y-51.816
X347.345Y-69.85
X347.345Y-155.575
X347.345Y-174.625
X347.98Y-98.425
X349.25Y-118.11
X364.744Y-51.308
X366.395Y-69.85
X366.395Y-174.625
X367.03Y-98.425
X369.57Y-118.11
X383.54Y-54.356
T2
X194.666Y-45.591
X194.666Y-46.941
X195.516Y-45.591
X195.516Y-46.941
X196.366Y-45.591
X196.366Y-46.941
X197.216Y-45.591
X197.216Y-46.941
X198.066Y-45.591
X198.066Y-46.941
X198.916Y-45.591
X198.916Y-46.941
X199.766Y-45.591
X199.766Y-46.941
X200.616Y-45.591
X200.616Y-46.941
T3
X34.544Y-160.544
X34.544Y-161.544
X154.915Y-50.553
X154.915Y-51.553
X155.915Y-50.553
X155.915Y-51.553
T4
X193.316Y-42.181G85X193.316Y-42.981
G05
X193.316Y-45.211G85X193.316Y-46.711
G05
X201.966Y-42.181G85X201.966Y-42.981
G05
X201.966Y-45.211G85X201.966Y-46.711
G05
T0
M30
