%TF.GenerationSoftware,KiCad,Pcbnew,7.0.2*%
%TF.CreationDate,2023-04-24T23:20:51+02:00*%
%TF.ProjectId,TKL,544b4c2e-6b69-4636-9164-5f7063625858,rev?*%
%TF.SameCoordinates,Original*%
%TF.FileFunction,Soldermask,Bot*%
%TF.FilePolarity,Negative*%
%FSLAX46Y46*%
G04 Gerber Fmt 4.6, Leading zero omitted, Abs format (unit mm)*
G04 Created by KiCad (PCBNEW 7.0.2) date 2023-04-24 23:20:51*
%MOMM*%
%LPD*%
G01*
G04 APERTURE LIST*
G04 Aperture macros list*
%AMRoundRect*
0 Rectangle with rounded corners*
0 $1 Rounding radius*
0 $2 $3 $4 $5 $6 $7 $8 $9 X,Y pos of 4 corners*
0 Add a 4 corners polygon primitive as box body*
4,1,4,$2,$3,$4,$5,$6,$7,$8,$9,$2,$3,0*
0 Add four circle primitives for the rounded corners*
1,1,$1+$1,$2,$3*
1,1,$1+$1,$4,$5*
1,1,$1+$1,$6,$7*
1,1,$1+$1,$8,$9*
0 Add four rect primitives between the rounded corners*
20,1,$1+$1,$2,$3,$4,$5,0*
20,1,$1+$1,$4,$5,$6,$7,0*
20,1,$1+$1,$6,$7,$8,$9,0*
20,1,$1+$1,$8,$9,$2,$3,0*%
G04 Aperture macros list end*
%ADD10C,3.200000*%
%ADD11C,1.400000*%
%ADD12O,1.400000X1.400000*%
%ADD13C,1.750000*%
%ADD14C,3.050000*%
%ADD15C,4.000000*%
%ADD16RoundRect,0.250000X1.025000X1.000000X-1.025000X1.000000X-1.025000X-1.000000X1.025000X-1.000000X0*%
%ADD17R,1.350000X1.350000*%
%ADD18O,1.350000X1.350000*%
%ADD19C,3.048000*%
%ADD20C,3.987800*%
%ADD21R,1.600000X1.600000*%
%ADD22O,1.600000X1.600000*%
%ADD23R,1.700000X1.700000*%
%ADD24C,1.700000*%
%ADD25C,0.650000*%
%ADD26O,0.900000X1.700000*%
%ADD27O,0.900000X2.400000*%
G04 APERTURE END LIST*
D10*
%TO.C,*%
X354076000Y-87122000D03*
%TD*%
%TO.C,*%
X56642000Y-109982000D03*
%TD*%
%TO.C,*%
X266700000Y-90678000D03*
%TD*%
%TO.C,*%
X224536000Y-39624000D03*
%TD*%
%TO.C,REF\u002A\u002A*%
X65278000Y-37846000D03*
%TD*%
D11*
%TO.C,R4*%
X240792000Y-14224000D03*
D12*
X248412000Y-14224000D03*
%TD*%
%TO.C,R3*%
X308610000Y-52324000D03*
D11*
X308610000Y-59944000D03*
%TD*%
D12*
%TO.C,R2*%
X311150000Y-52324000D03*
D11*
X311150000Y-59944000D03*
%TD*%
%TO.C,R1*%
X231140000Y-14224000D03*
D12*
X238760000Y-14224000D03*
%TD*%
D13*
%TO.C,SW2*%
X126550750Y-26612963D03*
D14*
X125280750Y-29152963D03*
D15*
X121470750Y-26612963D03*
D14*
X118930750Y-31692963D03*
D13*
X116390750Y-26612963D03*
D16*
X115323950Y-31692963D03*
X128555750Y-29152963D03*
%TD*%
D13*
%TO.C,SW3*%
X240850750Y-26612963D03*
D14*
X239580750Y-29152963D03*
D15*
X235770750Y-26612963D03*
D14*
X233230750Y-31692963D03*
D13*
X230690750Y-26612963D03*
D16*
X229623950Y-31692963D03*
X242855750Y-29152963D03*
%TD*%
D13*
%TO.C,SW4*%
X337688250Y-26612963D03*
D14*
X336418250Y-29152963D03*
D15*
X332608250Y-26612963D03*
D14*
X330068250Y-31692963D03*
D13*
X327528250Y-26612963D03*
D16*
X326461450Y-31692963D03*
X339693250Y-29152963D03*
%TD*%
D13*
%TO.C,SW5*%
X69400750Y-26612963D03*
D14*
X68130750Y-29152963D03*
D15*
X64320750Y-26612963D03*
D14*
X61780750Y-31692963D03*
D13*
X59240750Y-26612963D03*
D16*
X58173950Y-31692963D03*
X71405750Y-29152963D03*
%TD*%
D13*
%TO.C,SW7*%
X259900750Y-26612963D03*
D14*
X258630750Y-29152963D03*
D15*
X254820750Y-26612963D03*
D14*
X252280750Y-31692963D03*
D13*
X249740750Y-26612963D03*
D16*
X248673950Y-31692963D03*
X261905750Y-29152963D03*
%TD*%
D13*
%TO.C,SW8*%
X356738250Y-26612963D03*
D14*
X355468250Y-29152963D03*
D15*
X351658250Y-26612963D03*
D14*
X349118250Y-31692963D03*
D13*
X346578250Y-26612963D03*
D16*
X345511450Y-31692963D03*
X358743250Y-29152963D03*
%TD*%
D13*
%TO.C,SW9*%
X88450750Y-26612963D03*
D14*
X87180750Y-29152963D03*
D15*
X83370750Y-26612963D03*
D14*
X80830750Y-31692963D03*
D13*
X78290750Y-26612963D03*
D16*
X77223950Y-31692963D03*
X90455750Y-29152963D03*
%TD*%
D13*
%TO.C,SW11*%
X278950750Y-26612963D03*
D14*
X277680750Y-29152963D03*
D15*
X273870750Y-26612963D03*
D14*
X271330750Y-31692963D03*
D13*
X268790750Y-26612963D03*
D16*
X267723950Y-31692963D03*
X280955750Y-29152963D03*
%TD*%
D13*
%TO.C,SW12*%
X375788250Y-26612963D03*
D14*
X374518250Y-29152963D03*
D15*
X370708250Y-26612963D03*
D14*
X368168250Y-31692963D03*
D13*
X365628250Y-26612963D03*
D16*
X364561450Y-31692963D03*
X377793250Y-29152963D03*
%TD*%
D13*
%TO.C,SW14*%
X107500750Y-26612963D03*
D14*
X106230750Y-29152963D03*
D15*
X102420750Y-26612963D03*
D14*
X99880750Y-31692963D03*
D13*
X97340750Y-26612963D03*
D16*
X96273950Y-31692963D03*
X109505750Y-29152963D03*
%TD*%
D13*
%TO.C,SW15*%
X298000750Y-26612963D03*
D14*
X296730750Y-29152963D03*
D15*
X292920750Y-26612963D03*
D14*
X290380750Y-31692963D03*
D13*
X287840750Y-26612963D03*
D16*
X286773950Y-31692963D03*
X300005750Y-29152963D03*
%TD*%
D13*
%TO.C,SW17*%
X31273750Y-51593750D03*
D14*
X30003750Y-54133750D03*
D15*
X26193750Y-51593750D03*
D14*
X23653750Y-56673750D03*
D13*
X21113750Y-51593750D03*
D16*
X20046950Y-56673750D03*
X33278750Y-54133750D03*
%TD*%
D13*
%TO.C,SW18*%
X126523750Y-51593750D03*
D14*
X125253750Y-54133750D03*
D15*
X121443750Y-51593750D03*
D14*
X118903750Y-56673750D03*
D13*
X116363750Y-51593750D03*
D16*
X115296950Y-56673750D03*
X128528750Y-54133750D03*
%TD*%
D13*
%TO.C,SW19*%
X240823750Y-51593750D03*
D14*
X239553750Y-54133750D03*
D15*
X235743750Y-51593750D03*
D14*
X233203750Y-56673750D03*
D13*
X230663750Y-51593750D03*
D16*
X229596950Y-56673750D03*
X242828750Y-54133750D03*
%TD*%
D13*
%TO.C,SW20*%
X375761250Y-51593750D03*
D14*
X374491250Y-54133750D03*
D15*
X370681250Y-51593750D03*
D14*
X368141250Y-56673750D03*
D13*
X365601250Y-51593750D03*
D16*
X364534450Y-56673750D03*
X377766250Y-54133750D03*
%TD*%
D13*
%TO.C,SW21*%
X50323750Y-51593750D03*
D14*
X49053750Y-54133750D03*
D15*
X45243750Y-51593750D03*
D14*
X42703750Y-56673750D03*
D13*
X40163750Y-51593750D03*
D16*
X39096950Y-56673750D03*
X52328750Y-54133750D03*
%TD*%
D13*
%TO.C,SW22*%
X145573750Y-51593750D03*
D14*
X144303750Y-54133750D03*
D15*
X140493750Y-51593750D03*
D14*
X137953750Y-56673750D03*
D13*
X135413750Y-51593750D03*
D16*
X134346950Y-56673750D03*
X147578750Y-54133750D03*
%TD*%
D13*
%TO.C,SW23*%
X259873750Y-51593750D03*
D14*
X258603750Y-54133750D03*
D15*
X254793750Y-51593750D03*
D14*
X252253750Y-56673750D03*
D13*
X249713750Y-51593750D03*
D16*
X248646950Y-56673750D03*
X261878750Y-54133750D03*
%TD*%
D13*
%TO.C,SW24*%
X69373750Y-51593750D03*
D14*
X68103750Y-54133750D03*
D15*
X64293750Y-51593750D03*
D14*
X61753750Y-56673750D03*
D13*
X59213750Y-51593750D03*
D16*
X58146950Y-56673750D03*
X71378750Y-54133750D03*
%TD*%
D13*
%TO.C,SW25*%
X164623750Y-51593750D03*
D14*
X163353750Y-54133750D03*
D15*
X159543750Y-51593750D03*
D14*
X157003750Y-56673750D03*
D13*
X154463750Y-51593750D03*
D16*
X153396950Y-56673750D03*
X166628750Y-54133750D03*
%TD*%
D13*
%TO.C,SW26*%
X288448750Y-51593750D03*
D14*
X287178750Y-54133750D03*
D15*
X283368750Y-51593750D03*
D14*
X280828750Y-56673750D03*
D13*
X278288750Y-51593750D03*
D16*
X277526750Y-56673750D03*
X290453750Y-54133750D03*
%TD*%
D13*
%TO.C,SW27*%
X88423750Y-51593750D03*
D14*
X87153750Y-54133750D03*
D15*
X83343750Y-51593750D03*
D14*
X80803750Y-56673750D03*
D13*
X78263750Y-51593750D03*
D16*
X77196950Y-56673750D03*
X90428750Y-54133750D03*
%TD*%
D13*
%TO.C,SW28*%
X337661250Y-51593750D03*
D14*
X336391250Y-54133750D03*
D15*
X332581250Y-51593750D03*
D14*
X330041250Y-56673750D03*
D13*
X327501250Y-51593750D03*
D16*
X326434450Y-56673750D03*
X339666250Y-54133750D03*
%TD*%
D13*
%TO.C,SW29*%
X183673750Y-51593750D03*
D14*
X182403750Y-54133750D03*
D15*
X178593750Y-51593750D03*
D14*
X176053750Y-56673750D03*
D13*
X173513750Y-51593750D03*
D16*
X172446950Y-56673750D03*
X185678750Y-54133750D03*
%TD*%
D13*
%TO.C,SW30*%
X356711250Y-51593750D03*
D14*
X355441250Y-54133750D03*
D15*
X351631250Y-51593750D03*
D14*
X349091250Y-56673750D03*
D13*
X346551250Y-51593750D03*
D16*
X345484450Y-56673750D03*
X358716250Y-54133750D03*
%TD*%
D13*
%TO.C,SW31*%
X107473750Y-51593750D03*
D14*
X106203750Y-54133750D03*
D15*
X102393750Y-51593750D03*
D14*
X99853750Y-56673750D03*
D13*
X97313750Y-51593750D03*
D16*
X96246950Y-56673750D03*
X109478750Y-54133750D03*
%TD*%
D13*
%TO.C,SW32*%
X202723750Y-51593750D03*
D14*
X201453750Y-54133750D03*
D15*
X197643750Y-51593750D03*
D14*
X195103750Y-56673750D03*
D13*
X192563750Y-51593750D03*
D16*
X191496950Y-56673750D03*
X204728750Y-54133750D03*
%TD*%
D13*
%TO.C,SW33*%
X221773750Y-51593750D03*
D14*
X220503750Y-54133750D03*
D15*
X216693750Y-51593750D03*
D14*
X214153750Y-56673750D03*
D13*
X211613750Y-51593750D03*
D16*
X210546950Y-56673750D03*
X223778750Y-54133750D03*
%TD*%
D13*
%TO.C,SW34*%
X36036250Y-70643750D03*
D14*
X34766250Y-73183750D03*
D15*
X30956250Y-70643750D03*
D14*
X28416250Y-75723750D03*
D13*
X25876250Y-70643750D03*
D16*
X25114250Y-75723750D03*
X38041250Y-73183750D03*
%TD*%
D13*
%TO.C,SW35*%
X136048750Y-70643750D03*
D14*
X134778750Y-73183750D03*
D15*
X130968750Y-70643750D03*
D14*
X128428750Y-75723750D03*
D13*
X125888750Y-70643750D03*
D16*
X124821950Y-75723750D03*
X138053750Y-73183750D03*
%TD*%
D13*
%TO.C,SW36*%
X250348750Y-70643750D03*
D14*
X249078750Y-73183750D03*
D15*
X245268750Y-70643750D03*
D14*
X242728750Y-75723750D03*
D13*
X240188750Y-70643750D03*
D16*
X239121950Y-75723750D03*
X252353750Y-73183750D03*
%TD*%
D13*
%TO.C,SW37*%
X375761250Y-70643750D03*
D14*
X374491250Y-73183750D03*
D15*
X370681250Y-70643750D03*
D14*
X368141250Y-75723750D03*
D13*
X365601250Y-70643750D03*
D16*
X364534450Y-75723750D03*
X377766250Y-73183750D03*
%TD*%
D13*
%TO.C,SW38*%
X59848750Y-70643750D03*
D14*
X58578750Y-73183750D03*
D15*
X54768750Y-70643750D03*
D14*
X52228750Y-75723750D03*
D13*
X49688750Y-70643750D03*
D16*
X48621950Y-75723750D03*
X61853750Y-73183750D03*
%TD*%
D13*
%TO.C,SW39*%
X155098750Y-70643750D03*
D14*
X153828750Y-73183750D03*
D15*
X150018750Y-70643750D03*
D14*
X147478750Y-75723750D03*
D13*
X144938750Y-70643750D03*
D16*
X143871950Y-75723750D03*
X157103750Y-73183750D03*
%TD*%
D13*
%TO.C,SW40*%
X269398750Y-70643750D03*
D14*
X268128750Y-73183750D03*
D15*
X264318750Y-70643750D03*
D14*
X261778750Y-75723750D03*
D13*
X259238750Y-70643750D03*
D16*
X258171950Y-75723750D03*
X271403750Y-73183750D03*
%TD*%
D13*
%TO.C,SW41*%
X78898750Y-70643750D03*
D14*
X77628750Y-73183750D03*
D15*
X73818750Y-70643750D03*
D14*
X71278750Y-75723750D03*
D13*
X68738750Y-70643750D03*
D16*
X67671950Y-75723750D03*
X80903750Y-73183750D03*
%TD*%
D13*
%TO.C,SW42*%
X174148750Y-70643750D03*
D14*
X172878750Y-73183750D03*
D15*
X169068750Y-70643750D03*
D14*
X166528750Y-75723750D03*
D13*
X163988750Y-70643750D03*
D16*
X162921950Y-75723750D03*
X176153750Y-73183750D03*
%TD*%
D13*
%TO.C,SW43*%
X293211250Y-70643750D03*
D14*
X291941250Y-73183750D03*
D15*
X288131250Y-70643750D03*
D14*
X285591250Y-75723750D03*
D13*
X283051250Y-70643750D03*
D16*
X282289250Y-75723750D03*
X295216250Y-73183750D03*
%TD*%
D13*
%TO.C,SW44*%
X97948750Y-70643750D03*
D14*
X96678750Y-73183750D03*
D15*
X92868750Y-70643750D03*
D14*
X90328750Y-75723750D03*
D13*
X87788750Y-70643750D03*
D16*
X86721950Y-75723750D03*
X99953750Y-73183750D03*
%TD*%
D13*
%TO.C,SW45*%
X337661250Y-70643750D03*
D14*
X336391250Y-73183750D03*
D15*
X332581250Y-70643750D03*
D14*
X330041250Y-75723750D03*
D13*
X327501250Y-70643750D03*
D16*
X326434450Y-75723750D03*
X339666250Y-73183750D03*
%TD*%
D13*
%TO.C,SW46*%
X193198750Y-70643750D03*
D14*
X191928750Y-73183750D03*
D15*
X188118750Y-70643750D03*
D14*
X185578750Y-75723750D03*
D13*
X183038750Y-70643750D03*
D16*
X181971950Y-75723750D03*
X195203750Y-73183750D03*
%TD*%
D13*
%TO.C,SW47*%
X356711250Y-70643750D03*
D14*
X355441250Y-73183750D03*
D15*
X351631250Y-70643750D03*
D14*
X349091250Y-75723750D03*
D13*
X346551250Y-70643750D03*
D16*
X345484450Y-75723750D03*
X358716250Y-73183750D03*
%TD*%
D13*
%TO.C,SW48*%
X116998750Y-70643750D03*
D14*
X115728750Y-73183750D03*
D15*
X111918750Y-70643750D03*
D14*
X109378750Y-75723750D03*
D13*
X106838750Y-70643750D03*
D16*
X105771950Y-75723750D03*
X119003750Y-73183750D03*
%TD*%
D13*
%TO.C,SW49*%
X212248750Y-70643750D03*
D14*
X210978750Y-73183750D03*
D15*
X207168750Y-70643750D03*
D14*
X204628750Y-75723750D03*
D13*
X202088750Y-70643750D03*
D16*
X201021950Y-75723750D03*
X214253750Y-73183750D03*
%TD*%
D13*
%TO.C,SW50*%
X231298750Y-70643750D03*
D14*
X230028750Y-73183750D03*
D15*
X226218750Y-70643750D03*
D14*
X223678750Y-75723750D03*
D13*
X221138750Y-70643750D03*
D16*
X220071950Y-75723750D03*
X233303750Y-73183750D03*
%TD*%
D13*
%TO.C,SW51*%
X38417500Y-89693750D03*
D14*
X37147500Y-92233750D03*
D15*
X33337500Y-89693750D03*
D14*
X30797500Y-94773750D03*
D13*
X28257500Y-89693750D03*
D16*
X27495500Y-94773750D03*
X40422500Y-92233750D03*
%TD*%
D13*
%TO.C,SW52*%
X140811250Y-89693750D03*
D14*
X139541250Y-92233750D03*
D15*
X135731250Y-89693750D03*
D14*
X133191250Y-94773750D03*
D13*
X130651250Y-89693750D03*
D16*
X129584450Y-94773750D03*
X142816250Y-92233750D03*
%TD*%
D13*
%TO.C,SW53*%
X255111250Y-89693750D03*
D14*
X253841250Y-92233750D03*
D15*
X250031250Y-89693750D03*
D14*
X247491250Y-94773750D03*
D13*
X244951250Y-89693750D03*
D16*
X243884450Y-94773750D03*
X257116250Y-92233750D03*
%TD*%
D13*
%TO.C,SW54*%
X64611250Y-89693750D03*
D14*
X63341250Y-92233750D03*
D15*
X59531250Y-89693750D03*
D14*
X56991250Y-94773750D03*
D13*
X54451250Y-89693750D03*
D16*
X53384450Y-94773750D03*
X66616250Y-92233750D03*
%TD*%
D13*
%TO.C,SW55*%
X159839918Y-89695668D03*
D14*
X158569918Y-92235668D03*
D15*
X154759918Y-89695668D03*
D14*
X152219918Y-94775668D03*
D13*
X149679918Y-89695668D03*
D16*
X148613118Y-94775668D03*
X161844918Y-92235668D03*
%TD*%
D13*
%TO.C,SW56*%
X286067500Y-89693750D03*
D14*
X284797500Y-92233750D03*
D15*
X280987500Y-89693750D03*
D14*
X278447500Y-94773750D03*
D13*
X275907500Y-89693750D03*
D16*
X275145500Y-94773750D03*
X288072500Y-92233750D03*
%TD*%
D13*
%TO.C,SW57*%
X83661250Y-89693750D03*
D14*
X82391250Y-92233750D03*
D15*
X78581250Y-89693750D03*
D14*
X76041250Y-94773750D03*
D13*
X73501250Y-89693750D03*
D16*
X72434450Y-94773750D03*
X85666250Y-92233750D03*
%TD*%
D13*
%TO.C,SW58*%
X178911250Y-89693750D03*
D14*
X177641250Y-92233750D03*
D15*
X173831250Y-89693750D03*
D14*
X171291250Y-94773750D03*
D13*
X168751250Y-89693750D03*
D16*
X167684450Y-94773750D03*
X180916250Y-92233750D03*
%TD*%
D13*
%TO.C,SW59*%
X102711250Y-89693750D03*
D14*
X101441250Y-92233750D03*
D15*
X97631250Y-89693750D03*
D14*
X95091250Y-94773750D03*
D13*
X92551250Y-89693750D03*
D16*
X91484450Y-94773750D03*
X104716250Y-92233750D03*
%TD*%
D13*
%TO.C,SW60*%
X197961250Y-89693750D03*
D14*
X196691250Y-92233750D03*
D15*
X192881250Y-89693750D03*
D14*
X190341250Y-94773750D03*
D13*
X187801250Y-89693750D03*
D16*
X186734450Y-94773750D03*
X199966250Y-92233750D03*
%TD*%
D13*
%TO.C,SW61*%
X121761250Y-89693750D03*
D14*
X120491250Y-92233750D03*
D15*
X116681250Y-89693750D03*
D14*
X114141250Y-94773750D03*
D13*
X111601250Y-89693750D03*
D16*
X110534450Y-94773750D03*
X123766250Y-92233750D03*
%TD*%
D13*
%TO.C,SW62*%
X217000017Y-89693750D03*
D14*
X215730017Y-92233750D03*
D15*
X211920017Y-89693750D03*
D14*
X209380017Y-94773750D03*
D13*
X206840017Y-89693750D03*
D16*
X205773217Y-94773750D03*
X219005017Y-92233750D03*
%TD*%
D13*
%TO.C,SW63*%
X236061250Y-89693750D03*
D14*
X234791250Y-92233750D03*
D15*
X230981250Y-89693750D03*
D14*
X228441250Y-94773750D03*
D13*
X225901250Y-89693750D03*
D16*
X224834450Y-94773750D03*
X238066250Y-92233750D03*
%TD*%
D13*
%TO.C,SW64*%
X43180000Y-108743750D03*
D14*
X41910000Y-111283750D03*
D15*
X38100000Y-108743750D03*
D14*
X35560000Y-113823750D03*
D13*
X33020000Y-108743750D03*
D16*
X32258000Y-113823750D03*
X45185000Y-111283750D03*
%TD*%
D13*
%TO.C,SW65*%
X131286250Y-108743750D03*
D14*
X130016250Y-111283750D03*
D15*
X126206250Y-108743750D03*
D14*
X123666250Y-113823750D03*
D13*
X121126250Y-108743750D03*
D16*
X120059450Y-113823750D03*
X133291250Y-111283750D03*
%TD*%
D13*
%TO.C,SW66*%
X245586250Y-108743750D03*
D14*
X244316250Y-111283750D03*
D15*
X240506250Y-108743750D03*
D14*
X237966250Y-113823750D03*
D13*
X235426250Y-108743750D03*
D16*
X234359450Y-113823750D03*
X247591250Y-111283750D03*
%TD*%
D13*
%TO.C,SW67*%
X150336250Y-108743750D03*
D14*
X149066250Y-111283750D03*
D15*
X145256250Y-108743750D03*
D14*
X142716250Y-113823750D03*
D13*
X140176250Y-108743750D03*
D16*
X139109450Y-113823750D03*
X152341250Y-111283750D03*
%TD*%
D13*
%TO.C,SW68*%
X281305000Y-108743750D03*
D14*
X280035000Y-111283750D03*
D15*
X276225000Y-108743750D03*
D14*
X273685000Y-113823750D03*
D13*
X271145000Y-108743750D03*
D16*
X270383000Y-113823750D03*
X283310000Y-111283750D03*
%TD*%
D13*
%TO.C,SW69*%
X74136250Y-108743750D03*
D14*
X72866250Y-111283750D03*
D15*
X69056250Y-108743750D03*
D14*
X66516250Y-113823750D03*
D13*
X63976250Y-108743750D03*
D16*
X62909450Y-113823750D03*
X76141250Y-111283750D03*
%TD*%
D13*
%TO.C,SW70*%
X169386250Y-108743750D03*
D14*
X168116250Y-111283750D03*
D15*
X164306250Y-108743750D03*
D14*
X161766250Y-113823750D03*
D13*
X159226250Y-108743750D03*
D16*
X158159450Y-113823750D03*
X171391250Y-111283750D03*
%TD*%
D13*
%TO.C,SW71*%
X356711250Y-108743750D03*
D14*
X355441250Y-111283750D03*
D15*
X351631250Y-108743750D03*
D14*
X349091250Y-113823750D03*
D13*
X346551250Y-108743750D03*
D16*
X345484450Y-113823750D03*
X358716250Y-111283750D03*
%TD*%
D13*
%TO.C,SW72*%
X93186250Y-108743750D03*
D14*
X91916250Y-111283750D03*
D15*
X88106250Y-108743750D03*
D14*
X85566250Y-113823750D03*
D13*
X83026250Y-108743750D03*
D16*
X81959450Y-113823750D03*
X95191250Y-111283750D03*
%TD*%
D13*
%TO.C,SW73*%
X188436250Y-108743750D03*
D14*
X187166250Y-111283750D03*
D15*
X183356250Y-108743750D03*
D14*
X180816250Y-113823750D03*
D13*
X178276250Y-108743750D03*
D16*
X177209450Y-113823750D03*
X190441250Y-111283750D03*
%TD*%
D13*
%TO.C,SW74*%
X112236250Y-108743750D03*
D14*
X110966250Y-111283750D03*
D15*
X107156250Y-108743750D03*
D14*
X104616250Y-113823750D03*
D13*
X102076250Y-108743750D03*
D16*
X101009450Y-113823750D03*
X114241250Y-111283750D03*
%TD*%
D13*
%TO.C,SW75*%
X207486250Y-108743750D03*
D14*
X206216250Y-111283750D03*
D15*
X202406250Y-108743750D03*
D14*
X199866250Y-113823750D03*
D13*
X197326250Y-108743750D03*
D16*
X196259450Y-113823750D03*
X209491250Y-111283750D03*
%TD*%
D13*
%TO.C,SW76*%
X226536250Y-108743750D03*
D14*
X225266250Y-111283750D03*
D15*
X221456250Y-108743750D03*
D14*
X218916250Y-113823750D03*
D13*
X216376250Y-108743750D03*
D16*
X215309450Y-113823750D03*
X228541250Y-111283750D03*
%TD*%
D13*
%TO.C,SW77*%
X33655000Y-127793750D03*
D14*
X32385000Y-130333750D03*
D15*
X28575000Y-127793750D03*
D14*
X26035000Y-132873750D03*
D13*
X23495000Y-127793750D03*
D16*
X22733000Y-132873750D03*
X35660000Y-130333750D03*
%TD*%
D13*
%TO.C,SW78*%
X247967500Y-127793750D03*
D14*
X246697500Y-130333750D03*
D15*
X242887500Y-127793750D03*
D14*
X240347500Y-132873750D03*
D13*
X237807500Y-127793750D03*
D16*
X237045500Y-132873750D03*
X249972500Y-130333750D03*
%TD*%
D13*
%TO.C,SW79*%
X375761250Y-127793750D03*
D14*
X374491250Y-130333750D03*
D15*
X370681250Y-127793750D03*
D14*
X368141250Y-132873750D03*
D13*
X365601250Y-127793750D03*
D16*
X364534450Y-132873750D03*
X377766250Y-130333750D03*
%TD*%
D13*
%TO.C,SW80*%
X57467500Y-127793750D03*
D14*
X56197500Y-130333750D03*
D15*
X52387500Y-127793750D03*
D14*
X49847500Y-132873750D03*
D13*
X47307500Y-127793750D03*
D16*
X46545500Y-132873750D03*
X59472500Y-130333750D03*
%TD*%
D13*
%TO.C,SW81*%
X271780000Y-127793750D03*
D14*
X270510000Y-130333750D03*
D15*
X266700000Y-127793750D03*
D14*
X264160000Y-132873750D03*
D13*
X261620000Y-127793750D03*
D16*
X260858000Y-132873750D03*
X273785000Y-130333750D03*
%TD*%
D13*
%TO.C,SW82*%
X81280000Y-127793750D03*
D14*
X80010000Y-130333750D03*
D15*
X76200000Y-127793750D03*
D14*
X73660000Y-132873750D03*
D13*
X71120000Y-127793750D03*
D16*
X70358000Y-132873750D03*
X83285000Y-130333750D03*
%TD*%
D13*
%TO.C,SW83*%
X295592500Y-127793750D03*
D14*
X294322500Y-130333750D03*
D15*
X290512500Y-127793750D03*
D14*
X287972500Y-132873750D03*
D13*
X285432500Y-127793750D03*
D16*
X284670500Y-132873750D03*
X297597500Y-130333750D03*
%TD*%
D13*
%TO.C,SW85*%
X337661250Y-127793750D03*
D14*
X336391250Y-130333750D03*
D15*
X332581250Y-127793750D03*
D14*
X330041250Y-132873750D03*
D13*
X327501250Y-127793750D03*
D16*
X326434450Y-132873750D03*
X339666250Y-130333750D03*
%TD*%
D13*
%TO.C,SW86*%
X224155000Y-127793750D03*
D14*
X222885000Y-130333750D03*
D15*
X219075000Y-127793750D03*
D14*
X216535000Y-132873750D03*
D13*
X213995000Y-127793750D03*
D16*
X212928200Y-132873750D03*
X226160000Y-130333750D03*
%TD*%
D13*
%TO.C,SW87*%
X356711250Y-127793750D03*
D14*
X355441250Y-130333750D03*
D15*
X351631250Y-127793750D03*
D14*
X349091250Y-132873750D03*
D13*
X346551250Y-127793750D03*
D16*
X345484450Y-132873750D03*
X358716250Y-130333750D03*
%TD*%
D13*
%TO.C,SW6*%
X155125750Y-26612963D03*
D14*
X153855750Y-29152963D03*
D15*
X150045750Y-26612963D03*
D14*
X147505750Y-31692963D03*
D13*
X144965750Y-26612963D03*
D16*
X143898950Y-31692963D03*
X157130750Y-29152963D03*
%TD*%
D13*
%TO.C,SW16*%
X212275750Y-26612963D03*
D14*
X211005750Y-29152963D03*
D15*
X207195750Y-26612963D03*
D14*
X204655750Y-31692963D03*
D13*
X202115750Y-26612963D03*
D16*
X201048950Y-31692963D03*
X214280750Y-29152963D03*
%TD*%
D13*
%TO.C,SW10*%
X174175750Y-26612963D03*
D14*
X172905750Y-29152963D03*
D15*
X169095750Y-26612963D03*
D14*
X166555750Y-31692963D03*
D13*
X164015750Y-26612963D03*
D16*
X162948950Y-31692963D03*
X176180750Y-29152963D03*
%TD*%
D13*
%TO.C,SW13*%
X193225750Y-26612963D03*
D14*
X191955750Y-29152963D03*
D15*
X188145750Y-26612963D03*
D14*
X185605750Y-31692963D03*
D13*
X183065750Y-26612963D03*
D16*
X181998950Y-31692963D03*
X195230750Y-29152963D03*
%TD*%
D13*
%TO.C,SW1*%
X31273750Y-26593750D03*
D14*
X30003750Y-29133750D03*
D15*
X26193750Y-26593750D03*
D14*
X23653750Y-31673750D03*
D13*
X21113750Y-26593750D03*
D16*
X20046950Y-31673750D03*
X33278750Y-29133750D03*
%TD*%
D13*
%TO.C,SW84*%
X152717500Y-127793750D03*
D14*
X151447500Y-130333750D03*
D15*
X147637500Y-127793750D03*
D14*
X145097500Y-132873750D03*
D13*
X142557500Y-127793750D03*
D16*
X141795500Y-132873750D03*
X154722500Y-130333750D03*
%TD*%
D17*
%TO.C,J1*%
X18796000Y-121158000D03*
D18*
X18796000Y-123158000D03*
%TD*%
D19*
%TO.C,REF\u002A\u002A*%
X295306750Y-58578750D03*
D20*
X295306750Y-43368750D03*
D19*
X271430750Y-58578750D03*
D20*
X271430750Y-43368750D03*
%TD*%
D19*
%TO.C,REF\u002A\u002A*%
X97637500Y-120808750D03*
D20*
X97637500Y-136018750D03*
D19*
X197637500Y-120808750D03*
D20*
X197637500Y-136018750D03*
%TD*%
D19*
%TO.C,REF\u002A\u002A*%
X50038000Y-115728750D03*
D20*
X50038000Y-100518750D03*
D19*
X26162000Y-115728750D03*
D20*
X26162000Y-100518750D03*
%TD*%
D19*
%TO.C,REF\u002A\u002A*%
X288163000Y-115728750D03*
D20*
X288163000Y-100518750D03*
D19*
X264287000Y-115728750D03*
D20*
X264287000Y-100518750D03*
%TD*%
D19*
%TO.C,REF\u002A\u002A*%
X269049500Y-82708750D03*
D20*
X269049500Y-97918750D03*
D19*
X292925500Y-82708750D03*
D20*
X292925500Y-97918750D03*
%TD*%
D21*
%TO.C,D2*%
X129408250Y-18256250D03*
D22*
X129408250Y-25876250D03*
%TD*%
D21*
%TO.C,D3*%
X243708250Y-18256250D03*
D22*
X243708250Y-25876250D03*
%TD*%
D21*
%TO.C,D4*%
X340545750Y-18256250D03*
D22*
X340545750Y-25876250D03*
%TD*%
D21*
%TO.C,D5*%
X72258250Y-18256250D03*
D22*
X72258250Y-25876250D03*
%TD*%
D21*
%TO.C,D7*%
X262758250Y-18256250D03*
D22*
X262758250Y-25876250D03*
%TD*%
D21*
%TO.C,D8*%
X359595750Y-18256250D03*
D22*
X359595750Y-25876250D03*
%TD*%
D21*
%TO.C,D9*%
X91281250Y-18256250D03*
D22*
X91281250Y-25876250D03*
%TD*%
D21*
%TO.C,D11*%
X281808250Y-18256250D03*
D22*
X281808250Y-25876250D03*
%TD*%
D21*
%TO.C,D12*%
X378645750Y-18256250D03*
D22*
X378645750Y-25876250D03*
%TD*%
D21*
%TO.C,D14*%
X110358250Y-18256250D03*
D22*
X110358250Y-25876250D03*
%TD*%
D21*
%TO.C,D15*%
X300831250Y-18256250D03*
D22*
X300831250Y-25876250D03*
%TD*%
D21*
%TO.C,D18*%
X129381250Y-43656250D03*
D22*
X129381250Y-51276250D03*
%TD*%
D21*
%TO.C,D20*%
X378618750Y-43656250D03*
D22*
X378618750Y-51276250D03*
%TD*%
D21*
%TO.C,D21*%
X53181250Y-43656250D03*
D22*
X53181250Y-51276250D03*
%TD*%
D21*
%TO.C,D22*%
X148431250Y-43656250D03*
D22*
X148431250Y-51276250D03*
%TD*%
D21*
%TO.C,D23*%
X262731250Y-43656250D03*
D22*
X262731250Y-51276250D03*
%TD*%
D21*
%TO.C,D24*%
X72231250Y-43656250D03*
D22*
X72231250Y-51276250D03*
%TD*%
D21*
%TO.C,D25*%
X167481250Y-43656250D03*
D22*
X167481250Y-51276250D03*
%TD*%
D21*
%TO.C,D26*%
X291306250Y-43656250D03*
D22*
X291306250Y-51276250D03*
%TD*%
D21*
%TO.C,D27*%
X91281250Y-43656250D03*
D22*
X91281250Y-51276250D03*
%TD*%
D21*
%TO.C,D28*%
X340518750Y-43656250D03*
D22*
X340518750Y-51276250D03*
%TD*%
D21*
%TO.C,D29*%
X186531250Y-43656250D03*
D22*
X186531250Y-51276250D03*
%TD*%
D21*
%TO.C,D30*%
X359568750Y-43656250D03*
D22*
X359568750Y-51276250D03*
%TD*%
D21*
%TO.C,D31*%
X110331250Y-43656250D03*
D22*
X110331250Y-51276250D03*
%TD*%
D21*
%TO.C,D32*%
X205581250Y-43656250D03*
D22*
X205581250Y-51276250D03*
%TD*%
D21*
%TO.C,D33*%
X224631250Y-43656250D03*
D22*
X224631250Y-51276250D03*
%TD*%
D21*
%TO.C,D34*%
X38893750Y-62706250D03*
D22*
X38893750Y-70326250D03*
%TD*%
D21*
%TO.C,D36*%
X253206250Y-62706250D03*
D22*
X253206250Y-70326250D03*
%TD*%
D21*
%TO.C,D37*%
X378618750Y-62706250D03*
D22*
X378618750Y-70326250D03*
%TD*%
D21*
%TO.C,D38*%
X62706250Y-62706250D03*
D22*
X62706250Y-70326250D03*
%TD*%
D21*
%TO.C,D39*%
X157956250Y-62706250D03*
D22*
X157956250Y-70326250D03*
%TD*%
D21*
%TO.C,D40*%
X272256250Y-62706250D03*
D22*
X272256250Y-70326250D03*
%TD*%
D21*
%TO.C,D41*%
X81756250Y-62706250D03*
D22*
X81756250Y-70326250D03*
%TD*%
D21*
%TO.C,D42*%
X177006250Y-62706250D03*
D22*
X177006250Y-70326250D03*
%TD*%
D21*
%TO.C,D43*%
X296068750Y-62706250D03*
D22*
X296068750Y-70326250D03*
%TD*%
D21*
%TO.C,D45*%
X340518750Y-62706250D03*
D22*
X340518750Y-70326250D03*
%TD*%
D21*
%TO.C,D46*%
X196056250Y-62706250D03*
D22*
X196056250Y-70326250D03*
%TD*%
D21*
%TO.C,D47*%
X359568750Y-62706250D03*
D22*
X359568750Y-70326250D03*
%TD*%
D21*
%TO.C,D48*%
X119856250Y-62706250D03*
D22*
X119856250Y-70326250D03*
%TD*%
D21*
%TO.C,D49*%
X215106250Y-62706250D03*
D22*
X215106250Y-70326250D03*
%TD*%
D21*
%TO.C,D50*%
X234156250Y-62706250D03*
D22*
X234156250Y-70326250D03*
%TD*%
D21*
%TO.C,D51*%
X41275000Y-81756250D03*
D22*
X41275000Y-89376250D03*
%TD*%
D21*
%TO.C,D52*%
X143668750Y-81756250D03*
D22*
X143668750Y-89376250D03*
%TD*%
D21*
%TO.C,D53*%
X257968750Y-81756250D03*
D22*
X257968750Y-89376250D03*
%TD*%
D21*
%TO.C,D54*%
X67468750Y-81756250D03*
D22*
X67468750Y-89376250D03*
%TD*%
D21*
%TO.C,D55*%
X162718750Y-81756250D03*
D22*
X162718750Y-89376250D03*
%TD*%
D21*
%TO.C,D56*%
X288925000Y-81756250D03*
D22*
X288925000Y-89376250D03*
%TD*%
D21*
%TO.C,D57*%
X86518750Y-81756250D03*
D22*
X86518750Y-89376250D03*
%TD*%
D21*
%TO.C,D58*%
X181768750Y-81756250D03*
D22*
X181768750Y-89376250D03*
%TD*%
D21*
%TO.C,D59*%
X105568750Y-81756250D03*
D22*
X105568750Y-89376250D03*
%TD*%
D21*
%TO.C,D60*%
X200818750Y-81756250D03*
D22*
X200818750Y-89376250D03*
%TD*%
D21*
%TO.C,D61*%
X124618750Y-81756250D03*
D22*
X124618750Y-89376250D03*
%TD*%
D21*
%TO.C,D62*%
X219868750Y-81756250D03*
D22*
X219868750Y-89376250D03*
%TD*%
D21*
%TO.C,D63*%
X238918750Y-81756250D03*
D22*
X238918750Y-89376250D03*
%TD*%
D21*
%TO.C,D64*%
X46037500Y-100806250D03*
D22*
X46037500Y-108426250D03*
%TD*%
D21*
%TO.C,D65*%
X134143750Y-100806250D03*
D22*
X134143750Y-108426250D03*
%TD*%
D21*
%TO.C,D66*%
X248443750Y-100806250D03*
D22*
X248443750Y-108426250D03*
%TD*%
D21*
%TO.C,D67*%
X153193750Y-100806250D03*
D22*
X153193750Y-108426250D03*
%TD*%
D21*
%TO.C,D68*%
X284162500Y-100806250D03*
D22*
X284162500Y-108426250D03*
%TD*%
D21*
%TO.C,D69*%
X76993750Y-100806250D03*
D22*
X76993750Y-108426250D03*
%TD*%
D21*
%TO.C,D70*%
X172243750Y-100806250D03*
D22*
X172243750Y-108426250D03*
%TD*%
D21*
%TO.C,D71*%
X359568750Y-106426000D03*
D22*
X359568750Y-114046000D03*
%TD*%
D21*
%TO.C,D72*%
X96043750Y-100806250D03*
D22*
X96043750Y-108426250D03*
%TD*%
D21*
%TO.C,D73*%
X191293750Y-100806250D03*
D22*
X191293750Y-108426250D03*
%TD*%
D21*
%TO.C,D74*%
X115093750Y-100806250D03*
D22*
X115093750Y-108426250D03*
%TD*%
D21*
%TO.C,D75*%
X210343750Y-100806250D03*
D22*
X210343750Y-108426250D03*
%TD*%
D21*
%TO.C,D76*%
X229393750Y-100806250D03*
D22*
X229393750Y-108426250D03*
%TD*%
D21*
%TO.C,D77*%
X36512500Y-119856250D03*
D22*
X36512500Y-127476250D03*
%TD*%
D21*
%TO.C,D79*%
X378618750Y-119856250D03*
D22*
X378618750Y-127476250D03*
%TD*%
D21*
%TO.C,D80*%
X60325000Y-119856250D03*
D22*
X60325000Y-127476250D03*
%TD*%
D21*
%TO.C,D81*%
X274637500Y-119856250D03*
D22*
X274637500Y-127476250D03*
%TD*%
D21*
%TO.C,D82*%
X84137500Y-119856250D03*
D22*
X84137500Y-127476250D03*
%TD*%
D21*
%TO.C,D83*%
X298450000Y-119856250D03*
D22*
X298450000Y-127476250D03*
%TD*%
D21*
%TO.C,D84*%
X155575000Y-119856250D03*
D22*
X155575000Y-127476250D03*
%TD*%
D21*
%TO.C,D85*%
X340518750Y-119856250D03*
D22*
X340518750Y-127476250D03*
%TD*%
D21*
%TO.C,D86*%
X227012500Y-119856250D03*
D22*
X227012500Y-127476250D03*
%TD*%
D21*
%TO.C,D87*%
X359568750Y-119856250D03*
D22*
X359568750Y-127476250D03*
%TD*%
D21*
%TO.C,D10*%
X177033250Y-18256250D03*
D22*
X177033250Y-25876250D03*
%TD*%
D21*
%TO.C,D16*%
X215133250Y-18256250D03*
D22*
X215133250Y-25876250D03*
%TD*%
D21*
%TO.C,D6*%
X157956250Y-18256250D03*
D22*
X157956250Y-25876250D03*
%TD*%
D21*
%TO.C,D13*%
X196083250Y-18256250D03*
D22*
X196083250Y-25876250D03*
%TD*%
D21*
%TO.C,D78*%
X250825000Y-119856250D03*
D22*
X250825000Y-127476250D03*
%TD*%
D21*
%TO.C,D17*%
X34131250Y-43656250D03*
D22*
X34131250Y-51276250D03*
%TD*%
D21*
%TO.C,D19*%
X243681250Y-43656250D03*
D22*
X243681250Y-51276250D03*
%TD*%
D21*
%TO.C,D44*%
X100806250Y-62706250D03*
D22*
X100806250Y-70326250D03*
%TD*%
D21*
%TO.C,D35*%
X138906250Y-62706250D03*
D22*
X138906250Y-70326250D03*
%TD*%
D21*
%TO.C,D1*%
X34131250Y-18256250D03*
D22*
X34131250Y-25876250D03*
%TD*%
D23*
%TO.C,U90*%
X305816000Y-85090000D03*
D24*
X305816000Y-82550000D03*
X305816000Y-80010000D03*
X305816000Y-77470000D03*
X305816000Y-74930000D03*
X305816000Y-72390000D03*
X305816000Y-69850000D03*
X305816000Y-67310000D03*
X305816000Y-64770000D03*
X305816000Y-62230000D03*
X305816000Y-59690000D03*
X305816000Y-57150000D03*
X305816000Y-54610000D03*
X305816000Y-52070000D03*
X305816000Y-49530000D03*
X305816000Y-46990000D03*
X305816000Y-44450000D03*
X305816000Y-41910000D03*
X305816000Y-39370000D03*
X305816000Y-36830000D03*
X321056000Y-36830000D03*
X321056000Y-39370000D03*
X321056000Y-41910000D03*
X321056000Y-44450000D03*
X321056000Y-46990000D03*
X321056000Y-49530000D03*
X321056000Y-52070000D03*
X321056000Y-54610000D03*
X321056000Y-57150000D03*
X321056000Y-59690000D03*
X321056000Y-62230000D03*
X321056000Y-64770000D03*
X321056000Y-67310000D03*
X321056000Y-69850000D03*
X321056000Y-72390000D03*
X321056000Y-74930000D03*
X321056000Y-77470000D03*
X321056000Y-80010000D03*
X321056000Y-82550000D03*
X321056000Y-85090000D03*
%TD*%
D25*
%TO.C,USB1*%
X220291000Y-18596800D03*
X221141000Y-18596800D03*
X221991000Y-18596800D03*
X222841000Y-18596800D03*
X223691000Y-18596800D03*
X224541000Y-18596800D03*
X225391000Y-18596800D03*
X226241000Y-18596800D03*
X226246000Y-17271800D03*
X225396000Y-17271800D03*
X224546000Y-17271800D03*
X223696000Y-17271800D03*
X222846000Y-17271800D03*
X221996000Y-17271800D03*
X221146000Y-17271800D03*
X220291000Y-17271800D03*
D26*
X218941000Y-14236800D03*
D27*
X218941000Y-17616800D03*
D26*
X227591000Y-14236800D03*
D27*
X227591000Y-17616800D03*
%TD*%
M02*
