M48
; DRILL file {KiCad 7.0.2} date Mon Apr 24 23:21:28 2023
; FORMAT={-:-/ absolute / inch / decimal}
; #@! TF.CreationDate,2023-04-24T23:21:28+02:00
; #@! TF.GenerationSoftware,Kicad,Pcbnew,7.0.2
; #@! TF.FileFunction,MixedPlating,1,2
FMAT,2
INCH
; #@! TA.AperFunction,Plated,PTH,ViaDrill
T1C0.0157
; #@! TA.AperFunction,Plated,PTH,ComponentDrill
T2C0.0157
; #@! TA.AperFunction,Plated,PTH,ComponentDrill
T3C0.0236
; #@! TA.AperFunction,Plated,PTH,ComponentDrill
T4C0.0276
; #@! TA.AperFunction,Plated,PTH,ComponentDrill
T5C0.0315
; #@! TA.AperFunction,Plated,PTH,ComponentDrill
T6C0.0394
; #@! TA.AperFunction,NonPlated,NPTH,ComponentDrill
T7C0.0689
; #@! TA.AperFunction,NonPlated,NPTH,ComponentDrill
T8C0.1200
; #@! TA.AperFunction,NonPlated,NPTH,ComponentDrill
T9C0.1201
; #@! TA.AperFunction,NonPlated,NPTH,ComponentDrill
T10C0.1260
; #@! TA.AperFunction,NonPlated,NPTH,ComponentDrill
T11C0.1570
; #@! TA.AperFunction,NonPlated,NPTH,ComponentDrill
T12C0.1575
%
G90
G05
T1
X0.7188Y-0.5938
X0.73Y-1.38
X1.3967Y-2.6346
X1.44Y-1.85
X1.47Y-0.92
X1.57Y-4.82
X1.63Y-2.33
X1.7092Y-4.1346
X1.71Y-3.36
X2.22Y-1.39
X2.98Y-1.4
X3.73Y-1.42
X4.49Y-1.44
X5.39Y-1.46
X6.13Y-1.47
X6.87Y-1.49
X8.68Y-0.91
X8.75Y-3.06
X8.89Y-0.91
X11.8Y-3.15
X11.85Y-1.56
X11.85Y-1.64
X11.85Y-1.7
X11.86Y-1.48
X11.87Y-1.41
X12.0Y-1.16
X12.04Y-1.21
X12.18Y-0.97
X12.38Y-0.57
X12.45Y-1.14
X12.51Y-4.59
X12.53Y-0.63
X12.58Y-3.96
X12.68Y-3.54
X12.69Y-1.3
T2
X8.6729Y-0.68
X8.6729Y-0.7322
X8.7063Y-0.7322
X8.7065Y-0.68
X8.7398Y-0.7322
X8.74Y-0.68
X8.7733Y-0.7322
X8.7735Y-0.68
X8.8067Y-0.7322
X8.8069Y-0.68
X8.8402Y-0.7322
X8.8404Y-0.68
X8.8737Y-0.7322
X8.8739Y-0.68
X8.9071Y-0.7322
X8.9073Y-0.68
T4
X9.1Y-0.56
X9.4Y-0.56
X9.48Y-0.56
X9.78Y-0.56
X12.15Y-2.06
X12.15Y-2.36
X12.25Y-2.06
X12.25Y-2.36
T5
X0.74Y-4.77
X0.74Y-4.8487
X1.3438Y-0.7188
X1.3438Y-1.0188
X1.3438Y-1.7188
X1.3438Y-2.0187
X1.4375Y-4.7188
X1.4375Y-5.0187
X1.5312Y-2.4688
X1.5312Y-2.7687
X1.625Y-3.2188
X1.625Y-3.5187
X1.8125Y-3.9688
X1.8125Y-4.2687
X2.0938Y-1.7188
X2.0938Y-2.0187
X2.375Y-4.7188
X2.375Y-5.0187
X2.4688Y-2.4688
X2.4688Y-2.7687
X2.6562Y-3.2188
X2.6562Y-3.5187
X2.8438Y-1.7188
X2.8438Y-2.0187
X2.8448Y-0.7188
X2.8448Y-1.0188
X3.0312Y-3.9688
X3.0312Y-4.2687
X3.2188Y-2.4688
X3.2188Y-2.7687
X3.3125Y-4.7188
X3.3125Y-5.0187
X3.4062Y-3.2188
X3.4062Y-3.5187
X3.5938Y-0.7188
X3.5938Y-1.0188
X3.5938Y-1.7188
X3.5938Y-2.0187
X3.7812Y-3.9688
X3.7812Y-4.2687
X3.9688Y-2.4688
X3.9688Y-2.7687
X4.1562Y-3.2188
X4.1562Y-3.5187
X4.3438Y-1.7188
X4.3438Y-2.0187
X4.3448Y-0.7188
X4.3448Y-1.0188
X4.5312Y-3.9688
X4.5312Y-4.2687
X4.7188Y-2.4688
X4.7188Y-2.7687
X4.9062Y-3.2188
X4.9062Y-3.5187
X5.0938Y-1.7188
X5.0938Y-2.0187
X5.0948Y-0.7188
X5.0948Y-1.0188
X5.2812Y-3.9688
X5.2812Y-4.2687
X5.4688Y-2.4688
X5.4688Y-2.7687
X5.6562Y-3.2188
X5.6562Y-3.5187
X5.8438Y-1.7188
X5.8438Y-2.0187
X6.0312Y-3.9688
X6.0312Y-4.2687
X6.125Y-4.7188
X6.125Y-5.0187
X6.2188Y-0.7188
X6.2188Y-1.0188
X6.2188Y-2.4688
X6.2188Y-2.7687
X6.4062Y-3.2188
X6.4062Y-3.5187
X6.5938Y-1.7188
X6.5938Y-2.0187
X6.7812Y-3.9688
X6.7812Y-4.2687
X6.9688Y-2.4688
X6.9688Y-2.7687
X6.9698Y-0.7188
X6.9698Y-1.0188
X7.1562Y-3.2188
X7.1562Y-3.5187
X7.3438Y-1.7188
X7.3438Y-2.0187
X7.5312Y-3.9688
X7.5312Y-4.2687
X7.7188Y-2.4688
X7.7188Y-2.7687
X7.7198Y-0.7188
X7.7198Y-1.0188
X7.9062Y-3.2188
X7.9062Y-3.5187
X8.0938Y-1.7188
X8.0938Y-2.0187
X8.2812Y-3.9688
X8.2812Y-4.2687
X8.4688Y-2.4688
X8.4688Y-2.7687
X8.4698Y-0.7188
X8.4698Y-1.0188
X8.6562Y-3.2188
X8.6562Y-3.5187
X8.8438Y-1.7188
X8.8438Y-2.0187
X8.9375Y-4.7188
X8.9375Y-5.0187
X9.0312Y-3.9688
X9.0312Y-4.2687
X9.2188Y-2.4688
X9.2188Y-2.7687
X9.4062Y-3.2188
X9.4062Y-3.5187
X9.5938Y-1.7188
X9.5938Y-2.0187
X9.5948Y-0.7188
X9.5948Y-1.0188
X9.7812Y-3.9688
X9.7812Y-4.2687
X9.875Y-4.7188
X9.875Y-5.0187
X9.9688Y-2.4688
X9.9688Y-2.7687
X10.1562Y-3.2188
X10.1562Y-3.5187
X10.3438Y-1.7188
X10.3438Y-2.0187
X10.3448Y-0.7188
X10.3448Y-1.0188
X10.7188Y-2.4688
X10.7188Y-2.7687
X10.8125Y-4.7188
X10.8125Y-5.0187
X11.0948Y-0.7188
X11.0948Y-1.0188
X11.1875Y-3.9688
X11.1875Y-4.2687
X11.375Y-3.2188
X11.375Y-3.5187
X11.4688Y-1.7188
X11.4688Y-2.0187
X11.6562Y-2.4688
X11.6562Y-2.7687
X11.75Y-4.7188
X11.75Y-5.0187
X11.8438Y-0.7188
X11.8438Y-1.0188
X13.4062Y-1.7188
X13.4062Y-2.0187
X13.4062Y-2.4688
X13.4062Y-2.7687
X13.4062Y-4.7188
X13.4062Y-5.0187
X13.4073Y-0.7188
X13.4073Y-1.0188
X14.1562Y-1.7188
X14.1562Y-2.0187
X14.1562Y-2.4688
X14.1562Y-2.7687
X14.1562Y-4.19
X14.1562Y-4.49
X14.1562Y-4.7188
X14.1562Y-5.0187
X14.1573Y-0.7188
X14.1573Y-1.0188
X14.9062Y-1.7188
X14.9062Y-2.0187
X14.9062Y-2.4688
X14.9062Y-2.7687
X14.9062Y-4.7188
X14.9062Y-5.0187
X14.9073Y-0.7188
X14.9073Y-1.0188
T6
X12.04Y-1.45
X12.04Y-1.55
X12.04Y-1.65
X12.04Y-1.75
X12.04Y-1.85
X12.04Y-1.95
X12.04Y-2.05
X12.04Y-2.15
X12.04Y-2.25
X12.04Y-2.35
X12.04Y-2.45
X12.04Y-2.55
X12.04Y-2.65
X12.04Y-2.75
X12.04Y-2.85
X12.04Y-2.95
X12.04Y-3.05
X12.04Y-3.15
X12.04Y-3.25
X12.04Y-3.35
X12.64Y-1.45
X12.64Y-1.55
X12.64Y-1.65
X12.64Y-1.75
X12.64Y-1.85
X12.64Y-1.95
X12.64Y-2.05
X12.64Y-2.15
X12.64Y-2.25
X12.64Y-2.35
X12.64Y-2.45
X12.64Y-2.55
X12.64Y-2.65
X12.64Y-2.75
X12.64Y-2.85
X12.64Y-2.95
X12.64Y-3.05
X12.64Y-3.15
X12.64Y-3.25
X12.64Y-3.35
T7
X0.8312Y-1.047
X0.8312Y-2.0312
X0.925Y-5.0312
X1.0188Y-2.7812
X1.1125Y-3.5312
X1.2312Y-1.047
X1.2312Y-2.0312
X1.3Y-4.2812
X1.325Y-5.0312
X1.4187Y-2.7812
X1.5125Y-3.5312
X1.5813Y-2.0312
X1.7Y-4.2812
X1.8625Y-5.0312
X1.9563Y-2.7812
X1.9812Y-2.0312
X2.1437Y-3.5312
X2.2625Y-5.0312
X2.3312Y-2.0312
X2.3323Y-1.0478
X2.3562Y-2.7812
X2.5187Y-4.2812
X2.5437Y-3.5312
X2.7062Y-2.7812
X2.7312Y-2.0312
X2.7323Y-1.0478
X2.8Y-5.0312
X2.8937Y-3.5312
X2.9187Y-4.2812
X3.0812Y-2.0312
X3.0823Y-1.0478
X3.1062Y-2.7812
X3.2Y-5.0312
X3.2687Y-4.2812
X3.2937Y-3.5312
X3.4562Y-2.7812
X3.4812Y-2.0312
X3.4823Y-1.0478
X3.6437Y-3.5312
X3.6687Y-4.2812
X3.8312Y-2.0312
X3.8323Y-1.0478
X3.8562Y-2.7812
X4.0187Y-4.2812
X4.0438Y-3.5312
X4.2062Y-2.7812
X4.2313Y-2.0312
X4.2323Y-1.0478
X4.3937Y-3.5312
X4.4188Y-4.2812
X4.5812Y-2.0312
X4.5823Y-1.0478
X4.6063Y-2.7812
X4.7687Y-4.2812
X4.7938Y-3.5312
X4.9562Y-2.7812
X4.9813Y-2.0312
X4.9823Y-1.0478
X5.1437Y-3.5312
X5.1688Y-4.2812
X5.3312Y-2.0312
X5.3563Y-2.7812
X5.5187Y-4.2812
X5.5438Y-3.5312
X5.6125Y-5.0312
X5.7062Y-2.7812
X5.7073Y-1.0478
X5.7313Y-2.0312
X5.8929Y-3.5313
X5.9188Y-4.2812
X6.0125Y-5.0312
X6.0812Y-2.0312
X6.1063Y-2.7812
X6.1073Y-1.0478
X6.2687Y-4.2812
X6.2929Y-3.5313
X6.4562Y-2.7812
X6.4573Y-1.0478
X6.4813Y-2.0312
X6.6437Y-3.5312
X6.6688Y-4.2812
X6.8312Y-2.0312
X6.8563Y-2.7812
X6.8573Y-1.0478
X7.0187Y-4.2812
X7.0438Y-3.5312
X7.2062Y-2.7812
X7.2073Y-1.0478
X7.2313Y-2.0312
X7.3937Y-3.5312
X7.4188Y-4.2812
X7.5812Y-2.0312
X7.6063Y-2.7812
X7.6073Y-1.0478
X7.7687Y-4.2812
X7.7938Y-3.5312
X7.9562Y-2.7812
X7.9573Y-1.0478
X7.9813Y-2.0312
X8.1433Y-3.5312
X8.1687Y-4.2812
X8.3312Y-2.0312
X8.3562Y-2.7812
X8.3573Y-1.0478
X8.425Y-5.0312
X8.5187Y-4.2812
X8.5433Y-3.5312
X8.7062Y-2.7812
X8.7312Y-2.0312
X8.825Y-5.0312
X8.8937Y-3.5312
X8.9187Y-4.2812
X9.0812Y-2.0312
X9.0823Y-1.0478
X9.1062Y-2.7812
X9.2687Y-4.2812
X9.2937Y-3.5312
X9.3625Y-5.0312
X9.4562Y-2.7812
X9.4812Y-2.0312
X9.4823Y-1.0478
X9.6437Y-3.5312
X9.6687Y-4.2812
X9.7625Y-5.0312
X9.8312Y-2.0312
X9.8323Y-1.0478
X9.8562Y-2.7812
X10.0437Y-3.5312
X10.2062Y-2.7812
X10.2312Y-2.0312
X10.2323Y-1.0478
X10.3Y-5.0312
X10.5823Y-1.0478
X10.6062Y-2.7812
X10.675Y-4.2812
X10.7Y-5.0312
X10.8625Y-3.5312
X10.9562Y-2.0312
X10.9823Y-1.0478
X11.075Y-4.2812
X11.1437Y-2.7812
X11.2375Y-5.0312
X11.2625Y-3.5312
X11.3323Y-1.0478
X11.3562Y-2.0312
X11.5437Y-2.7812
X11.6375Y-5.0312
X11.7323Y-1.0478
X12.8937Y-2.0312
X12.8937Y-2.7812
X12.8937Y-5.0312
X12.8948Y-1.0478
X13.2937Y-2.0312
X13.2937Y-2.7812
X13.2937Y-5.0312
X13.2948Y-1.0478
X13.6437Y-2.0312
X13.6437Y-2.7812
X13.6437Y-4.2812
X13.6437Y-5.0312
X13.6448Y-1.0478
X14.0437Y-2.0312
X14.0437Y-2.7812
X14.0437Y-4.2812
X14.0437Y-5.0312
X14.0448Y-1.0478
X14.3937Y-2.0312
X14.3937Y-2.7812
X14.3937Y-5.0312
X14.3948Y-1.0478
X14.7937Y-2.0312
X14.7937Y-2.7812
X14.7937Y-5.0312
X14.7948Y-1.0478
T8
X1.03Y-4.5562
X1.97Y-4.5562
X3.844Y-4.7562
X7.781Y-4.7562
X10.405Y-4.5562
X10.5925Y-3.2563
X10.6862Y-2.3062
X11.345Y-4.5562
X11.5325Y-3.2563
X11.6262Y-2.3062
T9
X0.9313Y-1.247
X0.9313Y-2.2312
X1.025Y-5.2313
X1.1187Y-2.9812
X1.1812Y-1.147
X1.1812Y-2.1313
X1.2125Y-3.7312
X1.275Y-5.1312
X1.3687Y-2.8813
X1.4Y-4.4813
X1.4625Y-3.6313
X1.65Y-4.3812
X1.6812Y-2.2312
X1.9312Y-2.1313
X1.9625Y-5.2313
X2.0562Y-2.9812
X2.2125Y-5.1312
X2.2437Y-3.7312
X2.3062Y-2.8813
X2.4312Y-2.2312
X2.4323Y-1.2478
X2.4937Y-3.6313
X2.6187Y-4.4813
X2.6812Y-2.1313
X2.6823Y-1.1478
X2.8062Y-2.9812
X2.8687Y-4.3812
X2.9Y-5.2313
X2.9937Y-3.7312
X3.0562Y-2.8813
X3.15Y-5.1312
X3.1812Y-2.2312
X3.1823Y-1.2478
X3.2437Y-3.6313
X3.3687Y-4.4813
X3.4312Y-2.1313
X3.4323Y-1.1478
X3.5562Y-2.9812
X3.6187Y-4.3812
X3.7437Y-3.7312
X3.8062Y-2.8813
X3.9312Y-2.2312
X3.9323Y-1.2478
X3.9937Y-3.6313
X4.1187Y-4.4813
X4.1812Y-2.1313
X4.1823Y-1.1478
X4.3062Y-2.9812
X4.3687Y-4.3812
X4.4937Y-3.7312
X4.5562Y-2.8813
X4.6812Y-2.2312
X4.6823Y-1.2478
X4.7437Y-3.6313
X4.8687Y-4.4813
X4.9312Y-2.1313
X4.9323Y-1.1478
X5.0562Y-2.9812
X5.1187Y-4.3812
X5.2437Y-3.7312
X5.3062Y-2.8813
X5.4312Y-2.2312
X5.4937Y-3.6313
X5.6187Y-4.4813
X5.6812Y-2.1313
X5.7125Y-5.2313
X5.8062Y-2.9812
X5.8073Y-1.2478
X5.8687Y-4.3812
X5.9625Y-5.1312
X5.9929Y-3.7313
X6.0562Y-2.8813
X6.0573Y-1.1478
X6.1812Y-2.2312
X6.2429Y-3.6313
X6.3687Y-4.4813
X6.4312Y-2.1313
X6.5562Y-2.9812
X6.5573Y-1.2478
X6.6187Y-4.3812
X6.7437Y-3.7312
X6.8062Y-2.8813
X6.8073Y-1.1478
X6.9312Y-2.2312
X6.9937Y-3.6313
X7.1187Y-4.4813
X7.1812Y-2.1313
X7.3062Y-2.9812
X7.3073Y-1.2478
X7.3687Y-4.3812
X7.4937Y-3.7312
X7.5562Y-2.8813
X7.5573Y-1.1478
X7.6812Y-2.2312
X7.7437Y-3.6313
X7.8687Y-4.4813
X7.9312Y-2.1313
X8.0563Y-2.9812
X8.0573Y-1.2478
X8.1188Y-4.3812
X8.2433Y-3.7312
X8.3063Y-2.8813
X8.3073Y-1.1478
X8.4313Y-2.2312
X8.4933Y-3.6313
X8.525Y-5.2313
X8.6188Y-4.4813
X8.6813Y-2.1313
X8.775Y-5.1312
X8.8063Y-2.9812
X8.8688Y-4.3812
X8.9938Y-3.7312
X9.0563Y-2.8813
X9.1813Y-2.2312
X9.1823Y-1.2478
X9.2438Y-3.6313
X9.3688Y-4.4813
X9.4313Y-2.1313
X9.4323Y-1.1478
X9.4625Y-5.2313
X9.5563Y-2.9812
X9.6188Y-4.3812
X9.7125Y-5.1312
X9.7438Y-3.7312
X9.8063Y-2.8813
X9.9313Y-2.2312
X9.9323Y-1.2478
X9.9938Y-3.6313
X10.1813Y-2.1313
X10.1823Y-1.1478
X10.3063Y-2.9812
X10.4Y-5.2313
X10.5563Y-2.8813
X10.65Y-5.1312
X10.6823Y-1.2478
X10.775Y-4.4813
X10.9323Y-1.1478
X10.9625Y-3.7312
X11.025Y-4.3812
X11.0563Y-2.2312
X11.2125Y-3.6313
X11.2438Y-2.9812
X11.3063Y-2.1313
X11.3375Y-5.2313
X11.4323Y-1.2478
X11.4938Y-2.8813
X11.5875Y-5.1312
X11.6823Y-1.1478
X12.9938Y-2.2312
X12.9938Y-2.9812
X12.9938Y-5.2313
X12.9948Y-1.2478
X13.2438Y-2.1313
X13.2438Y-2.8813
X13.2438Y-5.1312
X13.2448Y-1.1478
X13.7438Y-2.2312
X13.7438Y-2.9812
X13.7438Y-4.4813
X13.7438Y-5.2313
X13.7448Y-1.2478
X13.9938Y-2.1313
X13.9938Y-2.8813
X13.9938Y-4.3812
X13.9938Y-5.1312
X13.9948Y-1.1478
X14.4938Y-2.2312
X14.4938Y-2.9812
X14.4938Y-5.2313
X14.4948Y-1.2478
X14.7438Y-2.1313
X14.7438Y-2.8813
X14.7438Y-5.1312
X14.7448Y-1.1478
T10
X2.23Y-4.33
X2.57Y-1.49
X8.84Y-1.56
X10.5Y-3.57
X13.94Y-3.43
T11
X1.03Y-3.9574
X1.97Y-3.9574
X3.844Y-5.3551
X7.781Y-5.3551
X10.405Y-3.9574
X10.5925Y-3.8551
X10.6862Y-1.7074
X11.345Y-3.9574
X11.5325Y-3.8551
X11.6262Y-1.7074
T12
X1.0312Y-1.047
X1.0312Y-2.0312
X1.125Y-5.0312
X1.2188Y-2.7812
X1.3125Y-3.5312
X1.5Y-4.2812
X1.7812Y-2.0312
X2.0625Y-5.0312
X2.1562Y-2.7812
X2.3438Y-3.5312
X2.5312Y-2.0312
X2.5323Y-1.0478
X2.7188Y-4.2812
X2.9062Y-2.7812
X3.0Y-5.0312
X3.0938Y-3.5312
X3.2812Y-2.0312
X3.2823Y-1.0478
X3.4688Y-4.2812
X3.6562Y-2.7812
X3.8438Y-3.5312
X4.0312Y-2.0312
X4.0323Y-1.0478
X4.2188Y-4.2812
X4.4062Y-2.7812
X4.5938Y-3.5312
X4.7812Y-2.0312
X4.7823Y-1.0478
X4.9688Y-4.2812
X5.1562Y-2.7812
X5.3438Y-3.5312
X5.5312Y-2.0312
X5.7188Y-4.2812
X5.8125Y-5.0312
X5.9062Y-2.7812
X5.9073Y-1.0478
X6.0929Y-3.5313
X6.2812Y-2.0312
X6.4688Y-4.2812
X6.6562Y-2.7812
X6.6573Y-1.0478
X6.8438Y-3.5312
X7.0312Y-2.0312
X7.2188Y-4.2812
X7.4062Y-2.7812
X7.4073Y-1.0478
X7.5938Y-3.5312
X7.7812Y-2.0312
X7.9688Y-4.2812
X8.1562Y-2.7812
X8.1573Y-1.0478
X8.3433Y-3.5312
X8.5312Y-2.0312
X8.625Y-5.0312
X8.7188Y-4.2812
X8.9062Y-2.7812
X9.0938Y-3.5312
X9.2812Y-2.0312
X9.2823Y-1.0478
X9.4688Y-4.2812
X9.5625Y-5.0312
X9.6562Y-2.7812
X9.8438Y-3.5312
X10.0312Y-2.0312
X10.0323Y-1.0478
X10.4062Y-2.7812
X10.5Y-5.0312
X10.7823Y-1.0478
X10.875Y-4.2812
X11.0625Y-3.5312
X11.1562Y-2.0312
X11.3438Y-2.7812
X11.4375Y-5.0312
X11.5323Y-1.0478
X13.0938Y-2.0312
X13.0938Y-2.7812
X13.0938Y-5.0312
X13.0948Y-1.0478
X13.8438Y-2.0312
X13.8438Y-2.7812
X13.8438Y-4.2812
X13.8438Y-5.0312
X13.8448Y-1.0478
X14.5938Y-2.0312
X14.5938Y-2.7812
X14.5938Y-5.0312
X14.5948Y-1.0478
T3
G00X8.6197Y-0.5448
M15
G01X8.6197Y-0.5763
M16
G05
G00X8.6197Y-0.664
M15
G01X8.6197Y-0.7231
M16
G05
G00X8.9603Y-0.5448
M15
G01X8.9603Y-0.5763
M16
G05
G00X8.9603Y-0.664
M15
G01X8.9603Y-0.7231
M16
G05
T0
M30
