G04 #@! TF.GenerationSoftware,KiCad,Pcbnew,7.0.2*
G04 #@! TF.CreationDate,2023-11-07T00:29:41+01:00*
G04 #@! TF.ProjectId,TKLTheSecond,544b4c54-6865-4536-9563-6f6e642e6b69,rev?*
G04 #@! TF.SameCoordinates,Original*
G04 #@! TF.FileFunction,Paste,Bot*
G04 #@! TF.FilePolarity,Positive*
%FSLAX46Y46*%
G04 Gerber Fmt 4.6, Leading zero omitted, Abs format (unit mm)*
G04 Created by KiCad (PCBNEW 7.0.2) date 2023-11-07 00:29:41*
%MOMM*%
%LPD*%
G01*
G04 APERTURE LIST*
G04 Aperture macros list*
%AMRoundRect*
0 Rectangle with rounded corners*
0 $1 Rounding radius*
0 $2 $3 $4 $5 $6 $7 $8 $9 X,Y pos of 4 corners*
0 Add a 4 corners polygon primitive as box body*
4,1,4,$2,$3,$4,$5,$6,$7,$8,$9,$2,$3,0*
0 Add four circle primitives for the rounded corners*
1,1,$1+$1,$2,$3*
1,1,$1+$1,$4,$5*
1,1,$1+$1,$6,$7*
1,1,$1+$1,$8,$9*
0 Add four rect primitives between the rounded corners*
20,1,$1+$1,$2,$3,$4,$5,0*
20,1,$1+$1,$4,$5,$6,$7,0*
20,1,$1+$1,$6,$7,$8,$9,0*
20,1,$1+$1,$8,$9,$2,$3,0*%
G04 Aperture macros list end*
%ADD10RoundRect,0.250000X1.025000X1.000000X-1.025000X1.000000X-1.025000X-1.000000X1.025000X-1.000000X0*%
%ADD11RoundRect,0.250000X1.000000X0.650000X-1.000000X0.650000X-1.000000X-0.650000X1.000000X-0.650000X0*%
%ADD12RoundRect,0.250000X-0.312500X-0.625000X0.312500X-0.625000X0.312500X0.625000X-0.312500X0.625000X0*%
%ADD13RoundRect,0.250000X-0.650000X0.325000X-0.650000X-0.325000X0.650000X-0.325000X0.650000X0.325000X0*%
%ADD14RoundRect,0.250000X0.650000X-0.325000X0.650000X0.325000X-0.650000X0.325000X-0.650000X-0.325000X0*%
%ADD15R,2.180000X1.600000*%
%ADD16RoundRect,0.075000X-0.700000X-0.075000X0.700000X-0.075000X0.700000X0.075000X-0.700000X0.075000X0*%
%ADD17RoundRect,0.075000X-0.075000X-0.700000X0.075000X-0.700000X0.075000X0.700000X-0.075000X0.700000X0*%
%ADD18R,4.500000X2.000000*%
%ADD19RoundRect,0.250000X0.625000X-0.312500X0.625000X0.312500X-0.625000X0.312500X-0.625000X-0.312500X0*%
%ADD20RoundRect,0.250000X0.325000X0.650000X-0.325000X0.650000X-0.325000X-0.650000X0.325000X-0.650000X0*%
%ADD21RoundRect,0.250000X0.312500X0.625000X-0.312500X0.625000X-0.312500X-0.625000X0.312500X-0.625000X0*%
%ADD22RoundRect,0.150000X-0.587500X-0.150000X0.587500X-0.150000X0.587500X0.150000X-0.587500X0.150000X0*%
G04 APERTURE END LIST*
D10*
X253623729Y-152717624D03*
X266855529Y-150177624D03*
X367923825Y-171767640D03*
X381155625Y-169227640D03*
X289647309Y-152717624D03*
X302574309Y-150177624D03*
X125036121Y-114617592D03*
X138267921Y-112077592D03*
X215523697Y-152717624D03*
X228755497Y-150177624D03*
X72648577Y-133667608D03*
X85880377Y-131127608D03*
X296791065Y-95567576D03*
X309718065Y-93027576D03*
X115511113Y-66992552D03*
X128742913Y-64452552D03*
X120273617Y-152717624D03*
X133505417Y-150177624D03*
X58341145Y-95567504D03*
X71572945Y-93027504D03*
X91698593Y-133667608D03*
X104930393Y-131127608D03*
X220286201Y-114617592D03*
X233518001Y-112077592D03*
X186948673Y-133667608D03*
X200180473Y-131127608D03*
X232477049Y-171767440D03*
X245404049Y-169227440D03*
X105986105Y-114617592D03*
X119217905Y-112077592D03*
X229811209Y-95567576D03*
X243043009Y-93027576D03*
X205998689Y-133667608D03*
X219230489Y-131127608D03*
X65789689Y-171767440D03*
X78716689Y-169227440D03*
X161039609Y-171767440D03*
X173966609Y-169227440D03*
X96461097Y-95567576D03*
X109692897Y-93027576D03*
X101223601Y-152717624D03*
X114455401Y-150177624D03*
X158373649Y-152717624D03*
X171605449Y-150177624D03*
X234573713Y-152717624D03*
X247805513Y-150177624D03*
X367923825Y-66992552D03*
X381155625Y-64452552D03*
X191711177Y-95567576D03*
X204942977Y-93027576D03*
X42016905Y-171767440D03*
X54943905Y-169227440D03*
X244098721Y-133667608D03*
X257330521Y-131127608D03*
X263148737Y-133667608D03*
X276380537Y-131127608D03*
X258386233Y-114617592D03*
X271618033Y-112077592D03*
X201236185Y-114617592D03*
X214467985Y-112077592D03*
X210761193Y-95567576D03*
X223992993Y-93027576D03*
X329823793Y-171767640D03*
X343055593Y-169227640D03*
X277436249Y-114617592D03*
X290668049Y-112077592D03*
X182186169Y-66992552D03*
X195417969Y-64452552D03*
X163136153Y-66992552D03*
X176367953Y-64452552D03*
X115511113Y-95567576D03*
X128742913Y-93027576D03*
X134561129Y-66992552D03*
X147792929Y-64452552D03*
X44378329Y-114617540D03*
X57305329Y-112077540D03*
X144086137Y-114617592D03*
X157317937Y-112077592D03*
X51522079Y-152717540D03*
X64449079Y-150177540D03*
X39311049Y-66992552D03*
X52542849Y-64452552D03*
X348873809Y-171767640D03*
X362105609Y-169227640D03*
X134561129Y-95567576D03*
X147792929Y-93027576D03*
X201236185Y-66992552D03*
X214467985Y-64452552D03*
X348873809Y-114617592D03*
X362105609Y-112077592D03*
X267911241Y-95567576D03*
X281143041Y-93027576D03*
X294409813Y-133667608D03*
X307336813Y-131127608D03*
X286961257Y-66992552D03*
X300193057Y-64452552D03*
X303914489Y-171767440D03*
X316841489Y-169227440D03*
X46759579Y-133667540D03*
X59686579Y-131127540D03*
X248861225Y-66992552D03*
X262093025Y-64452552D03*
X220286201Y-66992552D03*
X233518001Y-64452552D03*
X301553569Y-114617592D03*
X314480569Y-112077592D03*
X256289529Y-171767440D03*
X269216529Y-169227440D03*
X67886073Y-114617592D03*
X81117873Y-112077592D03*
X329823793Y-66992552D03*
X343055593Y-64452552D03*
X167898657Y-133667608D03*
X181130457Y-131127608D03*
X77411081Y-95567576D03*
X90642881Y-93027576D03*
X77411081Y-66992552D03*
X90642881Y-64452552D03*
X367923825Y-95567576D03*
X381155625Y-93027576D03*
X329823793Y-114617592D03*
X343055593Y-112077592D03*
X267911241Y-66992552D03*
X281143041Y-64452552D03*
X225048705Y-133667608D03*
X238280505Y-131127608D03*
X96461097Y-66992552D03*
X109692897Y-64452552D03*
X110748609Y-133667608D03*
X123980409Y-131127608D03*
X196473681Y-152717624D03*
X209705481Y-150177624D03*
X348873809Y-66992552D03*
X362105609Y-64452552D03*
X348873809Y-152717624D03*
X362105609Y-150177624D03*
X153611145Y-95567576D03*
X166842945Y-93027576D03*
X280102009Y-171767440D03*
X293029009Y-169227440D03*
X86936089Y-114617592D03*
X100167889Y-112077592D03*
X129798625Y-133667608D03*
X143030425Y-131127608D03*
X89602169Y-171767440D03*
X102529169Y-169227440D03*
X367923825Y-114617592D03*
X381155625Y-112077592D03*
X177423665Y-152717624D03*
X190655465Y-150177624D03*
X139323633Y-152717624D03*
X152555433Y-150177624D03*
X39311029Y-95567540D03*
X52542829Y-93027540D03*
X148848641Y-133667608D03*
X162080441Y-131127608D03*
X239336217Y-114617592D03*
X252568017Y-112077592D03*
X163136153Y-114617592D03*
X176367953Y-112077592D03*
X172661161Y-95567576D03*
X185892961Y-93027576D03*
X182186169Y-114617592D03*
X195417969Y-112077592D03*
X348873809Y-95567576D03*
X362105609Y-93027576D03*
X248861225Y-95567576D03*
X262093025Y-93027576D03*
X329823793Y-95567576D03*
X343055593Y-93027576D03*
X82173585Y-152717624D03*
X95405385Y-150177624D03*
X306011273Y-66992552D03*
X319243073Y-64452552D03*
D11*
X283797110Y-58340674D03*
X279797110Y-58340674D03*
X295703370Y-163115762D03*
X291703370Y-163115762D03*
X164734510Y-125015730D03*
X160734510Y-125015730D03*
D12*
X165141961Y-53797758D03*
X168066961Y-53797758D03*
D13*
X182245000Y-45310000D03*
X182245000Y-48260000D03*
D11*
X312372134Y-86915698D03*
X308372134Y-86915698D03*
X183784526Y-125015730D03*
X179784526Y-125015730D03*
D13*
X184785000Y-45310000D03*
X184785000Y-48260000D03*
D11*
X74246934Y-86915698D03*
X70246934Y-86915698D03*
X231409566Y-144065746D03*
X227409566Y-144065746D03*
D13*
X143325000Y-40435000D03*
X143325000Y-43385000D03*
D11*
X226647062Y-86915698D03*
X222647062Y-86915698D03*
X193309534Y-144065746D03*
X189309534Y-144065746D03*
X55196918Y-86915698D03*
X51196918Y-86915698D03*
X283797110Y-86915698D03*
X279797110Y-86915698D03*
X279034606Y-125015730D03*
X275034606Y-125015730D03*
X364759678Y-86915698D03*
X360759678Y-86915698D03*
D14*
X128016000Y-47703000D03*
X128016000Y-44753000D03*
D11*
X345709662Y-86915698D03*
X341709662Y-86915698D03*
D13*
X173355000Y-45945000D03*
X173355000Y-48895000D03*
D11*
X198072038Y-58340674D03*
X194072038Y-58340674D03*
X176640770Y-163115762D03*
X172640770Y-163115762D03*
X140921990Y-105965714D03*
X136921990Y-105965714D03*
X271890850Y-163115762D03*
X267890850Y-163115762D03*
X364759678Y-163115762D03*
X360759678Y-163115762D03*
X145684494Y-125015730D03*
X141684494Y-125015730D03*
X112346966Y-86915698D03*
X108346966Y-86915698D03*
X81390690Y-163115762D03*
X77390690Y-163115762D03*
X57578170Y-163115762D03*
X53578170Y-163115762D03*
D15*
X123444000Y-47244000D03*
X114264000Y-47244000D03*
X163274500Y-76835000D03*
X154094500Y-76835000D03*
D11*
X321897142Y-58340674D03*
X317897142Y-58340674D03*
X169497014Y-86915698D03*
X165497014Y-86915698D03*
X240934574Y-125015730D03*
X236934574Y-125015730D03*
X264747094Y-86915698D03*
X260747094Y-86915698D03*
D16*
X151170000Y-53915000D03*
X151170000Y-53415000D03*
X151170000Y-52915000D03*
X151170000Y-52415000D03*
X151170000Y-51915000D03*
X151170000Y-51415000D03*
X151170000Y-50915000D03*
X151170000Y-50415000D03*
X151170000Y-49915000D03*
X151170000Y-49415000D03*
X151170000Y-48915000D03*
X151170000Y-48415000D03*
X151170000Y-47915000D03*
X151170000Y-47415000D03*
X151170000Y-46915000D03*
X151170000Y-46415000D03*
D17*
X153095000Y-44490000D03*
X153595000Y-44490000D03*
X154095000Y-44490000D03*
X154595000Y-44490000D03*
X155095000Y-44490000D03*
X155595000Y-44490000D03*
X156095000Y-44490000D03*
X156595000Y-44490000D03*
X157095000Y-44490000D03*
X157595000Y-44490000D03*
X158095000Y-44490000D03*
X158595000Y-44490000D03*
X159095000Y-44490000D03*
X159595000Y-44490000D03*
X160095000Y-44490000D03*
X160595000Y-44490000D03*
D16*
X162520000Y-46415000D03*
X162520000Y-46915000D03*
X162520000Y-47415000D03*
X162520000Y-47915000D03*
X162520000Y-48415000D03*
X162520000Y-48915000D03*
X162520000Y-49415000D03*
X162520000Y-49915000D03*
X162520000Y-50415000D03*
X162520000Y-50915000D03*
X162520000Y-51415000D03*
X162520000Y-51915000D03*
X162520000Y-52415000D03*
X162520000Y-52915000D03*
X162520000Y-53415000D03*
X162520000Y-53915000D03*
D17*
X160595000Y-55840000D03*
X160095000Y-55840000D03*
X159595000Y-55840000D03*
X159095000Y-55840000D03*
X158595000Y-55840000D03*
X158095000Y-55840000D03*
X157595000Y-55840000D03*
X157095000Y-55840000D03*
X156595000Y-55840000D03*
X156095000Y-55840000D03*
X155595000Y-55840000D03*
X155095000Y-55840000D03*
X154595000Y-55840000D03*
X154095000Y-55840000D03*
X153595000Y-55840000D03*
X153095000Y-55840000D03*
D11*
X364759678Y-105965714D03*
X360759678Y-105965714D03*
X217122054Y-58340674D03*
X213122054Y-58340674D03*
X159972006Y-105965714D03*
X155972006Y-105965714D03*
D13*
X170815000Y-45945000D03*
X170815000Y-48895000D03*
D11*
X383809694Y-86915698D03*
X379809694Y-86915698D03*
X248078330Y-163115762D03*
X244078330Y-163115762D03*
X221884558Y-125015730D03*
X217884558Y-125015730D03*
D18*
X142495000Y-46990000D03*
X133995000Y-46990000D03*
D12*
X165155917Y-51299626D03*
X168080917Y-51299626D03*
D11*
X293322118Y-105965714D03*
X289322118Y-105965714D03*
X67103178Y-144065746D03*
X63103178Y-144065746D03*
X136159486Y-144065746D03*
X132159486Y-144065746D03*
X217122054Y-105965714D03*
X213122054Y-105965714D03*
X55196918Y-58340674D03*
X51196918Y-58340674D03*
D19*
X156845000Y-42102500D03*
X156845000Y-39177500D03*
D11*
X317134638Y-105965714D03*
X313134638Y-105965714D03*
X383809694Y-163115762D03*
X379809694Y-163115762D03*
X319515890Y-163115762D03*
X315515890Y-163115762D03*
X131396982Y-58340674D03*
X127396982Y-58340674D03*
X309990882Y-125015730D03*
X305990882Y-125015730D03*
X59959422Y-105965714D03*
X55959422Y-105965714D03*
X345709662Y-163115762D03*
X341709662Y-163115762D03*
D20*
X162181637Y-41658791D03*
X159231637Y-41658791D03*
D11*
X131396982Y-86915698D03*
X127396982Y-86915698D03*
X305228378Y-144065746D03*
X301228378Y-144065746D03*
X207597046Y-86915698D03*
X203597046Y-86915698D03*
X364759678Y-58340674D03*
X360759678Y-58340674D03*
X117109470Y-144065746D03*
X113109470Y-144065746D03*
X383809694Y-58340674D03*
X379809694Y-58340674D03*
X255222086Y-105965714D03*
X251222086Y-105965714D03*
X88534446Y-125015730D03*
X84534446Y-125015730D03*
X236172070Y-58340674D03*
X232172070Y-58340674D03*
X150446998Y-58340674D03*
X146446998Y-58340674D03*
X93296950Y-86915698D03*
X89296950Y-86915698D03*
X102821958Y-105965714D03*
X98821958Y-105965714D03*
X62340674Y-125015730D03*
X58340674Y-125015730D03*
X150446998Y-86915698D03*
X146446998Y-86915698D03*
D21*
X129478500Y-50800000D03*
X126553500Y-50800000D03*
D11*
X174259518Y-144065746D03*
X170259518Y-144065746D03*
X236172070Y-105965714D03*
X232172070Y-105965714D03*
X105203210Y-163115762D03*
X101203210Y-163115762D03*
X188547030Y-86915698D03*
X184547030Y-86915698D03*
X98059454Y-144065746D03*
X94059454Y-144065746D03*
X155209502Y-144065746D03*
X151209502Y-144065746D03*
X126634478Y-125015730D03*
X122634478Y-125015730D03*
X345709662Y-58340674D03*
X341709662Y-58340674D03*
X302847126Y-58340674D03*
X298847126Y-58340674D03*
X274272102Y-105965714D03*
X270272102Y-105965714D03*
D22*
X176862500Y-42860000D03*
X176862500Y-40960000D03*
X178737500Y-41910000D03*
D11*
X259984590Y-125015730D03*
X255984590Y-125015730D03*
X179022022Y-105965714D03*
X175022022Y-105965714D03*
X345709662Y-105965714D03*
X341709662Y-105965714D03*
D12*
X204785500Y-48768000D03*
X207710500Y-48768000D03*
D11*
X179022022Y-58340674D03*
X175022022Y-58340674D03*
X383809694Y-105965714D03*
X379809694Y-105965714D03*
X245697078Y-86915698D03*
X241697078Y-86915698D03*
X121871974Y-105965714D03*
X117871974Y-105965714D03*
X212359550Y-144065746D03*
X208359550Y-144065746D03*
X364759678Y-144065746D03*
X360759678Y-144065746D03*
X198072038Y-105965714D03*
X194072038Y-105965714D03*
X83771942Y-105965714D03*
X79771942Y-105965714D03*
D21*
X207710500Y-51308000D03*
X204785500Y-51308000D03*
D11*
X202834542Y-125015730D03*
X198834542Y-125015730D03*
X250459582Y-144065746D03*
X246459582Y-144065746D03*
D13*
X135070000Y-40435000D03*
X135070000Y-43385000D03*
D11*
X93296950Y-58340674D03*
X89296950Y-58340674D03*
D21*
X156402500Y-73660000D03*
X153477500Y-73660000D03*
D11*
X264747094Y-58340674D03*
X260747094Y-58340674D03*
X107584462Y-125015730D03*
X103584462Y-125015730D03*
X112346966Y-58340674D03*
X108346966Y-58340674D03*
X269509598Y-144065746D03*
X265509598Y-144065746D03*
M02*
