%TF.GenerationSoftware,KiCad,Pcbnew,7.0.2*%
%TF.CreationDate,2023-11-07T00:30:37+01:00*%
%TF.ProjectId,TKLTheSecond,544b4c54-6865-4536-9563-6f6e642e6b69,rev?*%
%TF.SameCoordinates,Original*%
%TF.FileFunction,Drillmap*%
%TF.FilePolarity,Positive*%
%FSLAX45Y45*%
G04 Gerber Fmt 4.5, Leading zero omitted, Abs format (unit mm)*
G04 Created by KiCad (PCBNEW 7.0.2) date 2023-11-07 00:30:37*
%MOMM*%
%LPD*%
G01*
G04 APERTURE LIST*
%ADD10C,0.100000*%
%ADD11C,0.200000*%
%ADD12C,0.175000*%
%ADD13C,0.305000*%
%ADD14C,0.400000*%
G04 APERTURE END LIST*
D10*
X3031200Y-3810000D02*
X39031200Y-3810000D01*
X39031200Y-17818000D01*
X3031200Y-17818000D01*
X3031200Y-3810000D01*
D11*
D12*
X3950283Y-8961254D02*
X4125283Y-9136254D01*
X4125283Y-8961254D02*
X3950283Y-9136254D01*
X3950285Y-6103755D02*
X4125285Y-6278755D01*
X4125285Y-6103755D02*
X3950285Y-6278755D01*
X4190390Y-16581244D02*
X4365391Y-16756244D01*
X4365391Y-16581244D02*
X4190390Y-16756244D01*
X4426533Y-10866254D02*
X4601533Y-11041254D01*
X4601533Y-10866254D02*
X4426533Y-11041254D01*
X4664658Y-12771254D02*
X4839658Y-12946254D01*
X4839658Y-12771254D02*
X4664658Y-12946254D01*
X4966283Y-8961254D02*
X5141283Y-9136254D01*
X5141283Y-8961254D02*
X4966283Y-9136254D01*
X4966285Y-6103755D02*
X5141285Y-6278755D01*
X5141285Y-6103755D02*
X4966285Y-6278755D01*
X5140908Y-14676254D02*
X5315908Y-14851254D01*
X5315908Y-14676254D02*
X5140908Y-14851254D01*
X5206391Y-16581244D02*
X5381391Y-16756244D01*
X5381391Y-16581244D02*
X5206391Y-16756244D01*
X5442533Y-10866254D02*
X5617533Y-11041254D01*
X5617533Y-10866254D02*
X5442533Y-11041254D01*
X5680658Y-12771254D02*
X5855658Y-12946254D01*
X5855658Y-12771254D02*
X5680658Y-12946254D01*
X5853294Y-8961250D02*
X6028294Y-9136250D01*
X6028294Y-8961250D02*
X5853294Y-9136250D01*
X6156908Y-14676254D02*
X6331908Y-14851254D01*
X6331908Y-14676254D02*
X6156908Y-14851254D01*
X6567669Y-16581244D02*
X6742669Y-16756244D01*
X6742669Y-16581244D02*
X6567669Y-16756244D01*
X6807787Y-10866259D02*
X6982787Y-11041259D01*
X6982787Y-10866259D02*
X6807787Y-11041259D01*
X6869294Y-8961250D02*
X7044294Y-9136250D01*
X7044294Y-8961250D02*
X6869294Y-9136250D01*
X7284038Y-12771261D02*
X7459038Y-12946261D01*
X7459038Y-12771261D02*
X7284038Y-12946261D01*
X7583669Y-16581244D02*
X7758669Y-16756244D01*
X7758669Y-16581244D02*
X7583669Y-16756244D01*
X7760288Y-6103755D02*
X7935288Y-6278755D01*
X7935288Y-6103755D02*
X7760288Y-6278755D01*
X7760288Y-8961258D02*
X7935288Y-9136258D01*
X7935288Y-8961258D02*
X7760288Y-9136258D01*
X7823787Y-10866259D02*
X7998787Y-11041259D01*
X7998787Y-10866259D02*
X7823787Y-11041259D01*
X8236538Y-14676262D02*
X8411539Y-14851262D01*
X8411539Y-14676262D02*
X8236538Y-14851262D01*
X8300038Y-12771261D02*
X8475038Y-12946261D01*
X8475038Y-12771261D02*
X8300038Y-12946261D01*
X8712789Y-10866259D02*
X8887789Y-11041259D01*
X8887789Y-10866259D02*
X8712789Y-11041259D01*
X8776288Y-6103755D02*
X8951288Y-6278755D01*
X8951288Y-6103755D02*
X8776288Y-6278755D01*
X8776288Y-8961258D02*
X8951288Y-9136258D01*
X8951288Y-8961258D02*
X8776288Y-9136258D01*
X8948917Y-16581244D02*
X9123917Y-16756244D01*
X9123917Y-16581244D02*
X8948917Y-16756244D01*
X9189039Y-12771261D02*
X9364039Y-12946261D01*
X9364039Y-12771261D02*
X9189039Y-12946261D01*
X9252539Y-14676262D02*
X9427539Y-14851262D01*
X9427539Y-14676262D02*
X9252539Y-14851262D01*
X9665290Y-6103755D02*
X9840290Y-6278755D01*
X9840290Y-6103755D02*
X9665290Y-6278755D01*
X9665290Y-8961258D02*
X9840290Y-9136258D01*
X9840290Y-8961258D02*
X9665290Y-9136258D01*
X9728789Y-10866259D02*
X9903789Y-11041259D01*
X9903789Y-10866259D02*
X9728789Y-11041259D01*
X9964917Y-16581244D02*
X10139917Y-16756244D01*
X10139917Y-16581244D02*
X9964917Y-16756244D01*
X10141540Y-14676262D02*
X10316540Y-14851262D01*
X10316540Y-14676262D02*
X10141540Y-14851262D01*
X10205039Y-12771261D02*
X10380039Y-12946261D01*
X10380039Y-12771261D02*
X10205039Y-12946261D01*
X10617791Y-10866259D02*
X10792791Y-11041259D01*
X10792791Y-10866259D02*
X10617791Y-11041259D01*
X10681290Y-6103755D02*
X10856290Y-6278755D01*
X10856290Y-6103755D02*
X10681290Y-6278755D01*
X10681290Y-8961258D02*
X10856290Y-9136258D01*
X10856290Y-8961258D02*
X10681290Y-9136258D01*
X11094041Y-12771261D02*
X11269041Y-12946261D01*
X11269041Y-12771261D02*
X11094041Y-12946261D01*
X11157540Y-14676262D02*
X11332540Y-14851262D01*
X11332540Y-14676262D02*
X11157540Y-14851262D01*
X11570291Y-6103755D02*
X11745291Y-6278755D01*
X11745291Y-6103755D02*
X11570291Y-6278755D01*
X11570291Y-8961258D02*
X11745291Y-9136258D01*
X11745291Y-8961258D02*
X11570291Y-9136258D01*
X11633790Y-10866259D02*
X11808790Y-11041259D01*
X11808790Y-10866259D02*
X11633790Y-11041259D01*
X12046542Y-14676262D02*
X12221542Y-14851262D01*
X12221542Y-14676262D02*
X12046542Y-14851262D01*
X12110041Y-12771261D02*
X12285041Y-12946261D01*
X12285041Y-12771261D02*
X12110041Y-12946261D01*
X12522792Y-10866259D02*
X12697792Y-11041259D01*
X12697792Y-10866259D02*
X12522792Y-11041259D01*
X12586291Y-6103755D02*
X12761291Y-6278755D01*
X12761291Y-6103755D02*
X12586291Y-6278755D01*
X12586291Y-8961258D02*
X12761291Y-9136258D01*
X12761291Y-8961258D02*
X12586291Y-9136258D01*
X12999042Y-12771261D02*
X13174042Y-12946261D01*
X13174042Y-12771261D02*
X12999042Y-12946261D01*
X13062542Y-14676262D02*
X13237542Y-14851262D01*
X13237542Y-14676262D02*
X13062542Y-14851262D01*
X13475293Y-6103755D02*
X13650293Y-6278755D01*
X13650293Y-6103755D02*
X13475293Y-6278755D01*
X13475293Y-8961258D02*
X13650293Y-9136258D01*
X13650293Y-8961258D02*
X13475293Y-9136258D01*
X13538792Y-10866259D02*
X13713792Y-11041259D01*
X13713792Y-10866259D02*
X13538792Y-11041259D01*
X13951543Y-14676262D02*
X14126543Y-14851262D01*
X14126543Y-14676262D02*
X13951543Y-14851262D01*
X14015042Y-12771261D02*
X14190042Y-12946261D01*
X14190042Y-12771261D02*
X14015042Y-12946261D01*
X14427794Y-10866259D02*
X14602794Y-11041259D01*
X14602794Y-10866259D02*
X14427794Y-11041259D01*
X14491293Y-6103755D02*
X14666293Y-6278755D01*
X14666293Y-6103755D02*
X14491293Y-6278755D01*
X14491293Y-8961258D02*
X14666293Y-9136258D01*
X14666293Y-8961258D02*
X14491293Y-9136258D01*
X14904044Y-12771261D02*
X15079044Y-12946261D01*
X15079044Y-12771261D02*
X14904044Y-12946261D01*
X14967543Y-14676262D02*
X15142543Y-14851262D01*
X15142543Y-14676262D02*
X14967543Y-14851262D01*
X15380294Y-8961258D02*
X15555294Y-9136258D01*
X15555294Y-8961258D02*
X15380294Y-9136258D01*
X15443794Y-10866259D02*
X15618794Y-11041259D01*
X15618794Y-10866259D02*
X15443794Y-11041259D01*
X15856545Y-14676262D02*
X16031545Y-14851262D01*
X16031545Y-14676262D02*
X15856545Y-14851262D01*
X15920044Y-12771261D02*
X16095044Y-12946261D01*
X16095044Y-12771261D02*
X15920044Y-12946261D01*
X16092661Y-16581244D02*
X16267661Y-16756244D01*
X16267661Y-16581244D02*
X16092661Y-16756244D01*
X16332795Y-6103755D02*
X16507795Y-6278755D01*
X16507795Y-6103755D02*
X16332795Y-6278755D01*
X16332795Y-10866259D02*
X16507795Y-11041259D01*
X16507795Y-10866259D02*
X16332795Y-11041259D01*
X16396294Y-8961258D02*
X16571294Y-9136258D01*
X16571294Y-8961258D02*
X16396294Y-9136258D01*
X16809046Y-12771261D02*
X16984046Y-12946261D01*
X16984046Y-12771261D02*
X16809046Y-12946261D01*
X16872545Y-14676262D02*
X17047545Y-14851262D01*
X17047545Y-14676262D02*
X16872545Y-14851262D01*
X17108661Y-16581244D02*
X17283661Y-16756244D01*
X17283661Y-16581244D02*
X17108661Y-16756244D01*
X17285296Y-8961258D02*
X17460296Y-9136258D01*
X17460296Y-8961258D02*
X17285296Y-9136258D01*
X17348795Y-6103755D02*
X17523795Y-6278755D01*
X17523795Y-6103755D02*
X17348795Y-6278755D01*
X17348795Y-10866259D02*
X17523795Y-11041259D01*
X17523795Y-10866259D02*
X17348795Y-11041259D01*
X17761547Y-14676262D02*
X17936547Y-14851262D01*
X17936547Y-14676262D02*
X17761547Y-14851262D01*
X17825046Y-12771261D02*
X18000046Y-12946261D01*
X18000046Y-12771261D02*
X17825046Y-12946261D01*
X18237797Y-6103755D02*
X18412797Y-6278755D01*
X18412797Y-6103755D02*
X18237797Y-6278755D01*
X18237797Y-10866259D02*
X18412797Y-11041259D01*
X18412797Y-10866259D02*
X18237797Y-11041259D01*
X18301296Y-8961258D02*
X18476296Y-9136258D01*
X18476296Y-8961258D02*
X18301296Y-9136258D01*
X18714047Y-12771261D02*
X18889047Y-12946261D01*
X18889047Y-12771261D02*
X18714047Y-12946261D01*
X18777547Y-14676262D02*
X18952547Y-14851262D01*
X18952547Y-14676262D02*
X18777547Y-14851262D01*
X19190298Y-8961258D02*
X19365298Y-9136258D01*
X19365298Y-8961258D02*
X19190298Y-9136258D01*
X19253797Y-6103755D02*
X19428797Y-6278755D01*
X19428797Y-6103755D02*
X19253797Y-6278755D01*
X19253797Y-10866259D02*
X19428797Y-11041259D01*
X19428797Y-10866259D02*
X19253797Y-11041259D01*
X19666548Y-14676262D02*
X19841548Y-14851262D01*
X19841548Y-14676262D02*
X19666548Y-14851262D01*
X19730047Y-12771261D02*
X19905047Y-12946261D01*
X19905047Y-12771261D02*
X19730047Y-12946261D01*
X20142799Y-6103755D02*
X20317799Y-6278755D01*
X20317799Y-6103755D02*
X20142799Y-6278755D01*
X20142799Y-10866259D02*
X20317799Y-11041259D01*
X20317799Y-10866259D02*
X20142799Y-11041259D01*
X20206298Y-8961258D02*
X20381298Y-9136258D01*
X20381298Y-8961258D02*
X20206298Y-9136258D01*
X20619049Y-12771261D02*
X20794049Y-12946261D01*
X20794049Y-12771261D02*
X20619049Y-12946261D01*
X20682548Y-14676262D02*
X20857548Y-14851262D01*
X20857548Y-14676262D02*
X20682548Y-14851262D01*
X21095299Y-8961258D02*
X21270299Y-9136258D01*
X21270299Y-8961258D02*
X21095299Y-9136258D01*
X21158799Y-6103755D02*
X21333799Y-6278755D01*
X21333799Y-6103755D02*
X21158799Y-6278755D01*
X21158799Y-10866259D02*
X21333799Y-11041259D01*
X21333799Y-10866259D02*
X21158799Y-11041259D01*
X21571550Y-14676262D02*
X21746550Y-14851262D01*
X21746550Y-14676262D02*
X21571550Y-14851262D01*
X21635049Y-12771261D02*
X21810049Y-12946261D01*
X21810049Y-12771261D02*
X21635049Y-12946261D01*
X22047800Y-6103755D02*
X22222800Y-6278755D01*
X22222800Y-6103755D02*
X22047800Y-6278755D01*
X22047800Y-10866259D02*
X22222800Y-11041259D01*
X22222800Y-10866259D02*
X22047800Y-11041259D01*
X22111299Y-8961258D02*
X22286299Y-9136258D01*
X22286299Y-8961258D02*
X22111299Y-9136258D01*
X22524050Y-12771261D02*
X22699050Y-12946261D01*
X22699050Y-12771261D02*
X22524050Y-12946261D01*
X22587550Y-14676262D02*
X22762550Y-14851262D01*
X22762550Y-14676262D02*
X22587550Y-14851262D01*
X23000301Y-8961258D02*
X23175301Y-9136258D01*
X23175301Y-8961258D02*
X23000301Y-9136258D01*
X23063800Y-6103755D02*
X23238800Y-6278755D01*
X23238800Y-6103755D02*
X23063800Y-6278755D01*
X23063800Y-10866259D02*
X23238800Y-11041259D01*
X23238800Y-10866259D02*
X23063800Y-11041259D01*
X23236405Y-16581244D02*
X23411405Y-16756244D01*
X23411405Y-16581244D02*
X23236405Y-16756244D01*
X23476551Y-14676262D02*
X23651551Y-14851262D01*
X23651551Y-14676262D02*
X23476551Y-14851262D01*
X23540050Y-12771261D02*
X23715050Y-12946261D01*
X23715050Y-12771261D02*
X23540050Y-12946261D01*
X23952802Y-10866259D02*
X24127802Y-11041259D01*
X24127802Y-10866259D02*
X23952802Y-11041259D01*
X24016301Y-8961258D02*
X24191301Y-9136258D01*
X24191301Y-8961258D02*
X24016301Y-9136258D01*
X24252405Y-16581244D02*
X24427405Y-16756244D01*
X24427405Y-16581244D02*
X24252405Y-16756244D01*
X24429052Y-12771261D02*
X24604052Y-12946261D01*
X24604052Y-12771261D02*
X24429052Y-12946261D01*
X24492551Y-14676262D02*
X24667551Y-14851262D01*
X24667551Y-14676262D02*
X24492551Y-14851262D01*
X24905302Y-6103755D02*
X25080302Y-6278755D01*
X25080302Y-6103755D02*
X24905302Y-6278755D01*
X24905302Y-8961258D02*
X25080302Y-9136258D01*
X25080302Y-8961258D02*
X24905302Y-9136258D01*
X24968802Y-10866259D02*
X25143802Y-11041259D01*
X25143802Y-10866259D02*
X24968802Y-11041259D01*
X25381553Y-14676262D02*
X25556553Y-14851262D01*
X25556553Y-14676262D02*
X25381553Y-14851262D01*
X25445052Y-12771261D02*
X25620052Y-12946261D01*
X25620052Y-12771261D02*
X25445052Y-12946261D01*
X25617653Y-16581244D02*
X25792653Y-16756244D01*
X25792653Y-16581244D02*
X25617653Y-16756244D01*
X25857803Y-10866259D02*
X26032803Y-11041259D01*
X26032803Y-10866259D02*
X25857803Y-11041259D01*
X25921302Y-6103755D02*
X26096302Y-6278755D01*
X26096302Y-6103755D02*
X25921302Y-6278755D01*
X25921302Y-8961258D02*
X26096302Y-9136258D01*
X26096302Y-8961258D02*
X25921302Y-9136258D01*
X26334054Y-12771261D02*
X26509054Y-12946261D01*
X26509054Y-12771261D02*
X26334054Y-12946261D01*
X26397553Y-14676262D02*
X26572553Y-14851262D01*
X26572553Y-14676262D02*
X26397553Y-14851262D01*
X26633653Y-16581244D02*
X26808653Y-16756244D01*
X26808653Y-16581244D02*
X26633653Y-16756244D01*
X26810304Y-6103755D02*
X26985304Y-6278755D01*
X26985304Y-6103755D02*
X26810304Y-6278755D01*
X26810304Y-8961258D02*
X26985304Y-9136258D01*
X26985304Y-8961258D02*
X26810304Y-9136258D01*
X26873803Y-10866259D02*
X27048803Y-11041259D01*
X27048803Y-10866259D02*
X26873803Y-11041259D01*
X27350054Y-12771261D02*
X27525054Y-12946261D01*
X27525054Y-12771261D02*
X27350054Y-12946261D01*
X27762805Y-10866259D02*
X27937805Y-11041259D01*
X27937805Y-10866259D02*
X27762805Y-11041259D01*
X27826304Y-6103755D02*
X28001304Y-6278755D01*
X28001304Y-6103755D02*
X27826304Y-6278755D01*
X27826304Y-8961258D02*
X28001304Y-9136258D01*
X28001304Y-8961258D02*
X27826304Y-9136258D01*
X27998901Y-16581244D02*
X28173901Y-16756244D01*
X28173901Y-16581244D02*
X27998901Y-16756244D01*
X28715306Y-6103755D02*
X28890306Y-6278755D01*
X28890306Y-6103755D02*
X28715306Y-6278755D01*
X28778805Y-10866259D02*
X28953805Y-11041259D01*
X28953805Y-10866259D02*
X28778805Y-11041259D01*
X28953431Y-14676262D02*
X29128431Y-14851262D01*
X29128431Y-14676262D02*
X28953431Y-14851262D01*
X29014901Y-16581244D02*
X29189901Y-16756244D01*
X29189901Y-16581244D02*
X29014901Y-16756244D01*
X29429681Y-12771261D02*
X29604681Y-12946261D01*
X29604681Y-12771261D02*
X29429681Y-12946261D01*
X29667806Y-8961258D02*
X29842806Y-9136258D01*
X29842806Y-8961258D02*
X29667806Y-9136258D01*
X29731306Y-6103755D02*
X29906306Y-6278755D01*
X29906306Y-6103755D02*
X29731306Y-6278755D01*
X29969431Y-14676262D02*
X30144431Y-14851262D01*
X30144431Y-14676262D02*
X29969431Y-14851262D01*
X30144057Y-10866259D02*
X30319057Y-11041259D01*
X30319057Y-10866259D02*
X30144057Y-11041259D01*
X30380149Y-16581244D02*
X30555149Y-16756244D01*
X30555149Y-16581244D02*
X30380149Y-16756244D01*
X30445681Y-12771261D02*
X30620681Y-12946261D01*
X30620681Y-12771261D02*
X30445681Y-12946261D01*
X30620307Y-6103755D02*
X30795307Y-6278755D01*
X30795307Y-6103755D02*
X30620307Y-6278755D01*
X30683806Y-8961258D02*
X30858806Y-9136258D01*
X30858806Y-8961258D02*
X30683806Y-9136258D01*
X31160057Y-10866259D02*
X31335057Y-11041259D01*
X31335057Y-10866259D02*
X31160057Y-11041259D01*
X31396149Y-16581244D02*
X31571149Y-16756244D01*
X31571149Y-16581244D02*
X31396149Y-16756244D01*
X31636307Y-6103755D02*
X31811307Y-6278755D01*
X31811307Y-6103755D02*
X31636307Y-6278755D01*
X33001559Y-6103755D02*
X33176559Y-6278755D01*
X33176559Y-6103755D02*
X33001559Y-6278755D01*
X33001559Y-8961258D02*
X33176559Y-9136258D01*
X33176559Y-8961258D02*
X33001559Y-9136258D01*
X33001559Y-10866259D02*
X33176559Y-11041259D01*
X33176559Y-10866259D02*
X33001559Y-11041259D01*
X33001559Y-16581264D02*
X33176559Y-16756264D01*
X33176559Y-16581264D02*
X33001559Y-16756264D01*
X34017559Y-6103755D02*
X34192559Y-6278755D01*
X34192559Y-6103755D02*
X34017559Y-6278755D01*
X34017559Y-8961258D02*
X34192559Y-9136258D01*
X34192559Y-8961258D02*
X34017559Y-9136258D01*
X34017559Y-10866259D02*
X34192559Y-11041259D01*
X34192559Y-10866259D02*
X34017559Y-11041259D01*
X34017559Y-16581264D02*
X34192559Y-16756264D01*
X34192559Y-16581264D02*
X34017559Y-16756264D01*
X34906561Y-6103755D02*
X35081561Y-6278755D01*
X35081561Y-6103755D02*
X34906561Y-6278755D01*
X34906561Y-8961258D02*
X35081561Y-9136258D01*
X35081561Y-8961258D02*
X34906561Y-9136258D01*
X34906561Y-10866259D02*
X35081561Y-11041259D01*
X35081561Y-10866259D02*
X34906561Y-11041259D01*
X34906561Y-14676262D02*
X35081561Y-14851262D01*
X35081561Y-14676262D02*
X34906561Y-14851262D01*
X34906561Y-16581264D02*
X35081561Y-16756264D01*
X35081561Y-16581264D02*
X34906561Y-16756264D01*
X35922561Y-6103755D02*
X36097561Y-6278755D01*
X36097561Y-6103755D02*
X35922561Y-6278755D01*
X35922561Y-8961258D02*
X36097561Y-9136258D01*
X36097561Y-8961258D02*
X35922561Y-9136258D01*
X35922561Y-10866259D02*
X36097561Y-11041259D01*
X36097561Y-10866259D02*
X35922561Y-11041259D01*
X35922561Y-14676262D02*
X36097561Y-14851262D01*
X36097561Y-14676262D02*
X35922561Y-14851262D01*
X35922561Y-16581264D02*
X36097561Y-16756264D01*
X36097561Y-16581264D02*
X35922561Y-16756264D01*
X36811563Y-6103755D02*
X36986563Y-6278755D01*
X36986563Y-6103755D02*
X36811563Y-6278755D01*
X36811563Y-8961258D02*
X36986563Y-9136258D01*
X36986563Y-8961258D02*
X36811563Y-9136258D01*
X36811563Y-10866259D02*
X36986563Y-11041259D01*
X36986563Y-10866259D02*
X36811563Y-11041259D01*
X36811563Y-16581264D02*
X36986563Y-16756264D01*
X36986563Y-16581264D02*
X36811563Y-16756264D01*
X37827563Y-6103755D02*
X38002563Y-6278755D01*
X38002563Y-6103755D02*
X37827563Y-6278755D01*
X37827563Y-8961258D02*
X38002563Y-9136258D01*
X38002563Y-8961258D02*
X37827563Y-9136258D01*
X37827563Y-10866259D02*
X38002563Y-11041259D01*
X38002563Y-10866259D02*
X37827563Y-11041259D01*
X37827563Y-16581264D02*
X38002563Y-16756264D01*
X38002563Y-16581264D02*
X37827563Y-16756264D01*
D13*
X4444283Y-9556754D02*
G75*
G03*
X4444283Y-9556754I-152500J0D01*
G01*
X4444285Y-6699255D02*
G75*
G03*
X4444285Y-6699255I-152500J0D01*
G01*
X4684391Y-17176744D02*
G75*
G03*
X4684391Y-17176744I-152500J0D01*
G01*
X4920533Y-11461754D02*
G75*
G03*
X4920533Y-11461754I-152500J0D01*
G01*
X5079283Y-9302754D02*
G75*
G03*
X5079283Y-9302754I-152500J0D01*
G01*
X5079285Y-6445255D02*
G75*
G03*
X5079285Y-6445255I-152500J0D01*
G01*
X5158658Y-13366754D02*
G75*
G03*
X5158658Y-13366754I-152500J0D01*
G01*
X5319391Y-16922744D02*
G75*
G03*
X5319391Y-16922744I-152500J0D01*
G01*
X5555533Y-11207754D02*
G75*
G03*
X5555533Y-11207754I-152500J0D01*
G01*
X5634908Y-15271754D02*
G75*
G03*
X5634908Y-15271754I-152500J0D01*
G01*
X5793658Y-13112754D02*
G75*
G03*
X5793658Y-13112754I-152500J0D01*
G01*
X6269908Y-15017754D02*
G75*
G03*
X6269908Y-15017754I-152500J0D01*
G01*
X6347294Y-9556750D02*
G75*
G03*
X6347294Y-9556750I-152500J0D01*
G01*
X6982294Y-9302750D02*
G75*
G03*
X6982294Y-9302750I-152500J0D01*
G01*
X7061669Y-17176744D02*
G75*
G03*
X7061669Y-17176744I-152500J0D01*
G01*
X7301787Y-11461759D02*
G75*
G03*
X7301787Y-11461759I-152500J0D01*
G01*
X7696669Y-16922744D02*
G75*
G03*
X7696669Y-16922744I-152500J0D01*
G01*
X7778038Y-13366761D02*
G75*
G03*
X7778038Y-13366761I-152500J0D01*
G01*
X7936787Y-11207759D02*
G75*
G03*
X7936787Y-11207759I-152500J0D01*
G01*
X8254288Y-6699255D02*
G75*
G03*
X8254288Y-6699255I-152500J0D01*
G01*
X8254288Y-9556758D02*
G75*
G03*
X8254288Y-9556758I-152500J0D01*
G01*
X8413038Y-13112761D02*
G75*
G03*
X8413038Y-13112761I-152500J0D01*
G01*
X8730539Y-15271762D02*
G75*
G03*
X8730539Y-15271762I-152500J0D01*
G01*
X8889288Y-6445255D02*
G75*
G03*
X8889288Y-6445255I-152500J0D01*
G01*
X8889288Y-9302758D02*
G75*
G03*
X8889288Y-9302758I-152500J0D01*
G01*
X9206789Y-11461759D02*
G75*
G03*
X9206789Y-11461759I-152500J0D01*
G01*
X9365539Y-15017762D02*
G75*
G03*
X9365539Y-15017762I-152500J0D01*
G01*
X9442917Y-17176744D02*
G75*
G03*
X9442917Y-17176744I-152500J0D01*
G01*
X9683039Y-13366761D02*
G75*
G03*
X9683039Y-13366761I-152500J0D01*
G01*
X9841789Y-11207759D02*
G75*
G03*
X9841789Y-11207759I-152500J0D01*
G01*
X10077917Y-16922744D02*
G75*
G03*
X10077917Y-16922744I-152500J0D01*
G01*
X10159290Y-6699255D02*
G75*
G03*
X10159290Y-6699255I-152500J0D01*
G01*
X10159290Y-9556758D02*
G75*
G03*
X10159290Y-9556758I-152500J0D01*
G01*
X10318039Y-13112761D02*
G75*
G03*
X10318039Y-13112761I-152500J0D01*
G01*
X10635540Y-15271762D02*
G75*
G03*
X10635540Y-15271762I-152500J0D01*
G01*
X10794290Y-6445255D02*
G75*
G03*
X10794290Y-6445255I-152500J0D01*
G01*
X10794290Y-9302758D02*
G75*
G03*
X10794290Y-9302758I-152500J0D01*
G01*
X11111791Y-11461759D02*
G75*
G03*
X11111791Y-11461759I-152500J0D01*
G01*
X11270540Y-15017762D02*
G75*
G03*
X11270540Y-15017762I-152500J0D01*
G01*
X11588041Y-13366761D02*
G75*
G03*
X11588041Y-13366761I-152500J0D01*
G01*
X11746790Y-11207759D02*
G75*
G03*
X11746790Y-11207759I-152500J0D01*
G01*
X12064291Y-6699255D02*
G75*
G03*
X12064291Y-6699255I-152500J0D01*
G01*
X12064291Y-9556758D02*
G75*
G03*
X12064291Y-9556758I-152500J0D01*
G01*
X12223041Y-13112761D02*
G75*
G03*
X12223041Y-13112761I-152500J0D01*
G01*
X12540542Y-15271762D02*
G75*
G03*
X12540542Y-15271762I-152500J0D01*
G01*
X12699291Y-6445255D02*
G75*
G03*
X12699291Y-6445255I-152500J0D01*
G01*
X12699291Y-9302758D02*
G75*
G03*
X12699291Y-9302758I-152500J0D01*
G01*
X13016792Y-11461759D02*
G75*
G03*
X13016792Y-11461759I-152500J0D01*
G01*
X13175542Y-15017762D02*
G75*
G03*
X13175542Y-15017762I-152500J0D01*
G01*
X13493042Y-13366761D02*
G75*
G03*
X13493042Y-13366761I-152500J0D01*
G01*
X13651792Y-11207759D02*
G75*
G03*
X13651792Y-11207759I-152500J0D01*
G01*
X13969293Y-6699255D02*
G75*
G03*
X13969293Y-6699255I-152500J0D01*
G01*
X13969293Y-9556758D02*
G75*
G03*
X13969293Y-9556758I-152500J0D01*
G01*
X14128042Y-13112761D02*
G75*
G03*
X14128042Y-13112761I-152500J0D01*
G01*
X14445543Y-15271762D02*
G75*
G03*
X14445543Y-15271762I-152500J0D01*
G01*
X14604293Y-6445255D02*
G75*
G03*
X14604293Y-6445255I-152500J0D01*
G01*
X14604293Y-9302758D02*
G75*
G03*
X14604293Y-9302758I-152500J0D01*
G01*
X14921794Y-11461759D02*
G75*
G03*
X14921794Y-11461759I-152500J0D01*
G01*
X15080543Y-15017762D02*
G75*
G03*
X15080543Y-15017762I-152500J0D01*
G01*
X15398044Y-13366761D02*
G75*
G03*
X15398044Y-13366761I-152500J0D01*
G01*
X15556794Y-11207759D02*
G75*
G03*
X15556794Y-11207759I-152500J0D01*
G01*
X15874294Y-9556758D02*
G75*
G03*
X15874294Y-9556758I-152500J0D01*
G01*
X16033044Y-13112761D02*
G75*
G03*
X16033044Y-13112761I-152500J0D01*
G01*
X16350545Y-15271762D02*
G75*
G03*
X16350545Y-15271762I-152500J0D01*
G01*
X16509294Y-9302758D02*
G75*
G03*
X16509294Y-9302758I-152500J0D01*
G01*
X16586661Y-17176744D02*
G75*
G03*
X16586661Y-17176744I-152500J0D01*
G01*
X16826795Y-6699255D02*
G75*
G03*
X16826795Y-6699255I-152500J0D01*
G01*
X16826795Y-11461759D02*
G75*
G03*
X16826795Y-11461759I-152500J0D01*
G01*
X16985545Y-15017762D02*
G75*
G03*
X16985545Y-15017762I-152500J0D01*
G01*
X17221661Y-16922744D02*
G75*
G03*
X17221661Y-16922744I-152500J0D01*
G01*
X17303046Y-13366761D02*
G75*
G03*
X17303046Y-13366761I-152500J0D01*
G01*
X17461795Y-6445255D02*
G75*
G03*
X17461795Y-6445255I-152500J0D01*
G01*
X17461795Y-11207759D02*
G75*
G03*
X17461795Y-11207759I-152500J0D01*
G01*
X17779296Y-9556758D02*
G75*
G03*
X17779296Y-9556758I-152500J0D01*
G01*
X17938046Y-13112761D02*
G75*
G03*
X17938046Y-13112761I-152500J0D01*
G01*
X18255547Y-15271762D02*
G75*
G03*
X18255547Y-15271762I-152500J0D01*
G01*
X18414296Y-9302758D02*
G75*
G03*
X18414296Y-9302758I-152500J0D01*
G01*
X18731797Y-6699255D02*
G75*
G03*
X18731797Y-6699255I-152500J0D01*
G01*
X18731797Y-11461759D02*
G75*
G03*
X18731797Y-11461759I-152500J0D01*
G01*
X18890547Y-15017762D02*
G75*
G03*
X18890547Y-15017762I-152500J0D01*
G01*
X19208047Y-13366761D02*
G75*
G03*
X19208047Y-13366761I-152500J0D01*
G01*
X19366797Y-6445255D02*
G75*
G03*
X19366797Y-6445255I-152500J0D01*
G01*
X19366797Y-11207759D02*
G75*
G03*
X19366797Y-11207759I-152500J0D01*
G01*
X19684298Y-9556758D02*
G75*
G03*
X19684298Y-9556758I-152500J0D01*
G01*
X19843047Y-13112761D02*
G75*
G03*
X19843047Y-13112761I-152500J0D01*
G01*
X20160548Y-15271762D02*
G75*
G03*
X20160548Y-15271762I-152500J0D01*
G01*
X20319298Y-9302758D02*
G75*
G03*
X20319298Y-9302758I-152500J0D01*
G01*
X20636799Y-6699255D02*
G75*
G03*
X20636799Y-6699255I-152500J0D01*
G01*
X20636799Y-11461759D02*
G75*
G03*
X20636799Y-11461759I-152500J0D01*
G01*
X20795548Y-15017762D02*
G75*
G03*
X20795548Y-15017762I-152500J0D01*
G01*
X21113049Y-13366761D02*
G75*
G03*
X21113049Y-13366761I-152500J0D01*
G01*
X21271799Y-6445255D02*
G75*
G03*
X21271799Y-6445255I-152500J0D01*
G01*
X21271799Y-11207759D02*
G75*
G03*
X21271799Y-11207759I-152500J0D01*
G01*
X21589299Y-9556758D02*
G75*
G03*
X21589299Y-9556758I-152500J0D01*
G01*
X21748049Y-13112761D02*
G75*
G03*
X21748049Y-13112761I-152500J0D01*
G01*
X22065550Y-15271762D02*
G75*
G03*
X22065550Y-15271762I-152500J0D01*
G01*
X22224299Y-9302758D02*
G75*
G03*
X22224299Y-9302758I-152500J0D01*
G01*
X22541800Y-6699255D02*
G75*
G03*
X22541800Y-6699255I-152500J0D01*
G01*
X22541800Y-11461759D02*
G75*
G03*
X22541800Y-11461759I-152500J0D01*
G01*
X22700550Y-15017762D02*
G75*
G03*
X22700550Y-15017762I-152500J0D01*
G01*
X23018050Y-13366761D02*
G75*
G03*
X23018050Y-13366761I-152500J0D01*
G01*
X23176800Y-6445255D02*
G75*
G03*
X23176800Y-6445255I-152500J0D01*
G01*
X23176800Y-11207759D02*
G75*
G03*
X23176800Y-11207759I-152500J0D01*
G01*
X23494301Y-9556758D02*
G75*
G03*
X23494301Y-9556758I-152500J0D01*
G01*
X23653050Y-13112761D02*
G75*
G03*
X23653050Y-13112761I-152500J0D01*
G01*
X23730405Y-17176744D02*
G75*
G03*
X23730405Y-17176744I-152500J0D01*
G01*
X23970551Y-15271762D02*
G75*
G03*
X23970551Y-15271762I-152500J0D01*
G01*
X24129301Y-9302758D02*
G75*
G03*
X24129301Y-9302758I-152500J0D01*
G01*
X24365405Y-16922744D02*
G75*
G03*
X24365405Y-16922744I-152500J0D01*
G01*
X24446802Y-11461759D02*
G75*
G03*
X24446802Y-11461759I-152500J0D01*
G01*
X24605551Y-15017762D02*
G75*
G03*
X24605551Y-15017762I-152500J0D01*
G01*
X24923052Y-13366761D02*
G75*
G03*
X24923052Y-13366761I-152500J0D01*
G01*
X25081802Y-11207759D02*
G75*
G03*
X25081802Y-11207759I-152500J0D01*
G01*
X25399302Y-6699255D02*
G75*
G03*
X25399302Y-6699255I-152500J0D01*
G01*
X25399302Y-9556758D02*
G75*
G03*
X25399302Y-9556758I-152500J0D01*
G01*
X25558052Y-13112761D02*
G75*
G03*
X25558052Y-13112761I-152500J0D01*
G01*
X25875553Y-15271762D02*
G75*
G03*
X25875553Y-15271762I-152500J0D01*
G01*
X26034302Y-6445255D02*
G75*
G03*
X26034302Y-6445255I-152500J0D01*
G01*
X26034302Y-9302758D02*
G75*
G03*
X26034302Y-9302758I-152500J0D01*
G01*
X26111653Y-17176744D02*
G75*
G03*
X26111653Y-17176744I-152500J0D01*
G01*
X26351803Y-11461759D02*
G75*
G03*
X26351803Y-11461759I-152500J0D01*
G01*
X26510553Y-15017762D02*
G75*
G03*
X26510553Y-15017762I-152500J0D01*
G01*
X26746653Y-16922744D02*
G75*
G03*
X26746653Y-16922744I-152500J0D01*
G01*
X26828054Y-13366761D02*
G75*
G03*
X26828054Y-13366761I-152500J0D01*
G01*
X26986803Y-11207759D02*
G75*
G03*
X26986803Y-11207759I-152500J0D01*
G01*
X27304304Y-6699255D02*
G75*
G03*
X27304304Y-6699255I-152500J0D01*
G01*
X27304304Y-9556758D02*
G75*
G03*
X27304304Y-9556758I-152500J0D01*
G01*
X27463054Y-13112761D02*
G75*
G03*
X27463054Y-13112761I-152500J0D01*
G01*
X27939304Y-6445255D02*
G75*
G03*
X27939304Y-6445255I-152500J0D01*
G01*
X27939304Y-9302758D02*
G75*
G03*
X27939304Y-9302758I-152500J0D01*
G01*
X28256805Y-11461759D02*
G75*
G03*
X28256805Y-11461759I-152500J0D01*
G01*
X28492901Y-17176744D02*
G75*
G03*
X28492901Y-17176744I-152500J0D01*
G01*
X28891805Y-11207759D02*
G75*
G03*
X28891805Y-11207759I-152500J0D01*
G01*
X29127901Y-16922744D02*
G75*
G03*
X29127901Y-16922744I-152500J0D01*
G01*
X29209306Y-6699255D02*
G75*
G03*
X29209306Y-6699255I-152500J0D01*
G01*
X29447431Y-15271762D02*
G75*
G03*
X29447431Y-15271762I-152500J0D01*
G01*
X29844306Y-6445255D02*
G75*
G03*
X29844306Y-6445255I-152500J0D01*
G01*
X29923681Y-13366761D02*
G75*
G03*
X29923681Y-13366761I-152500J0D01*
G01*
X30082431Y-15017762D02*
G75*
G03*
X30082431Y-15017762I-152500J0D01*
G01*
X30161806Y-9556758D02*
G75*
G03*
X30161806Y-9556758I-152500J0D01*
G01*
X30558681Y-13112761D02*
G75*
G03*
X30558681Y-13112761I-152500J0D01*
G01*
X30638057Y-11461759D02*
G75*
G03*
X30638057Y-11461759I-152500J0D01*
G01*
X30796806Y-9302758D02*
G75*
G03*
X30796806Y-9302758I-152500J0D01*
G01*
X30874149Y-17176744D02*
G75*
G03*
X30874149Y-17176744I-152500J0D01*
G01*
X31114307Y-6699255D02*
G75*
G03*
X31114307Y-6699255I-152500J0D01*
G01*
X31273057Y-11207759D02*
G75*
G03*
X31273057Y-11207759I-152500J0D01*
G01*
X31509149Y-16922744D02*
G75*
G03*
X31509149Y-16922744I-152500J0D01*
G01*
X31749307Y-6445255D02*
G75*
G03*
X31749307Y-6445255I-152500J0D01*
G01*
X33495559Y-6699255D02*
G75*
G03*
X33495559Y-6699255I-152500J0D01*
G01*
X33495559Y-9556758D02*
G75*
G03*
X33495559Y-9556758I-152500J0D01*
G01*
X33495559Y-11461759D02*
G75*
G03*
X33495559Y-11461759I-152500J0D01*
G01*
X33495559Y-17176764D02*
G75*
G03*
X33495559Y-17176764I-152500J0D01*
G01*
X34130559Y-6445255D02*
G75*
G03*
X34130559Y-6445255I-152500J0D01*
G01*
X34130559Y-9302758D02*
G75*
G03*
X34130559Y-9302758I-152500J0D01*
G01*
X34130559Y-11207759D02*
G75*
G03*
X34130559Y-11207759I-152500J0D01*
G01*
X34130559Y-16922764D02*
G75*
G03*
X34130559Y-16922764I-152500J0D01*
G01*
X35400561Y-6699255D02*
G75*
G03*
X35400561Y-6699255I-152500J0D01*
G01*
X35400561Y-9556758D02*
G75*
G03*
X35400561Y-9556758I-152500J0D01*
G01*
X35400561Y-11461759D02*
G75*
G03*
X35400561Y-11461759I-152500J0D01*
G01*
X35400561Y-15271762D02*
G75*
G03*
X35400561Y-15271762I-152500J0D01*
G01*
X35400561Y-17176764D02*
G75*
G03*
X35400561Y-17176764I-152500J0D01*
G01*
X36035561Y-6445255D02*
G75*
G03*
X36035561Y-6445255I-152500J0D01*
G01*
X36035561Y-9302758D02*
G75*
G03*
X36035561Y-9302758I-152500J0D01*
G01*
X36035561Y-11207759D02*
G75*
G03*
X36035561Y-11207759I-152500J0D01*
G01*
X36035561Y-15017762D02*
G75*
G03*
X36035561Y-15017762I-152500J0D01*
G01*
X36035561Y-16922764D02*
G75*
G03*
X36035561Y-16922764I-152500J0D01*
G01*
X37305563Y-6699255D02*
G75*
G03*
X37305563Y-6699255I-152500J0D01*
G01*
X37305563Y-9556758D02*
G75*
G03*
X37305563Y-9556758I-152500J0D01*
G01*
X37305563Y-11461759D02*
G75*
G03*
X37305563Y-11461759I-152500J0D01*
G01*
X37305563Y-17176764D02*
G75*
G03*
X37305563Y-17176764I-152500J0D01*
G01*
X37940563Y-6445255D02*
G75*
G03*
X37940563Y-6445255I-152500J0D01*
G01*
X37940563Y-9302758D02*
G75*
G03*
X37940563Y-9302758I-152500J0D01*
G01*
X37940563Y-11207759D02*
G75*
G03*
X37940563Y-11207759I-152500J0D01*
G01*
X37940563Y-16922764D02*
G75*
G03*
X37940563Y-16922764I-152500J0D01*
G01*
D14*
X4545783Y-8848754D02*
X4545783Y-9248754D01*
X4345783Y-9048754D02*
X4745783Y-9048754D01*
X4545785Y-5991255D02*
X4545785Y-6391255D01*
X4345785Y-6191255D02*
X4745785Y-6191255D01*
X4785891Y-16468744D02*
X4785891Y-16868744D01*
X4585891Y-16668744D02*
X4985891Y-16668744D01*
X5022033Y-10753754D02*
X5022033Y-11153754D01*
X4822033Y-10953754D02*
X5222033Y-10953754D01*
X5260158Y-12658754D02*
X5260158Y-13058754D01*
X5060158Y-12858754D02*
X5460158Y-12858754D01*
X5736408Y-14563754D02*
X5736408Y-14963754D01*
X5536408Y-14763754D02*
X5936408Y-14763754D01*
X6448794Y-8848750D02*
X6448794Y-9248750D01*
X6248794Y-9048750D02*
X6648794Y-9048750D01*
X7163169Y-16468744D02*
X7163169Y-16868744D01*
X6963169Y-16668744D02*
X7363169Y-16668744D01*
X7403287Y-10753759D02*
X7403287Y-11153759D01*
X7203287Y-10953759D02*
X7603287Y-10953759D01*
X7879538Y-12658761D02*
X7879538Y-13058761D01*
X7679538Y-12858761D02*
X8079538Y-12858761D01*
X8355788Y-5991255D02*
X8355788Y-6391255D01*
X8155788Y-6191255D02*
X8555788Y-6191255D01*
X8355788Y-8848758D02*
X8355788Y-9248758D01*
X8155788Y-9048758D02*
X8555788Y-9048758D01*
X8832039Y-14563762D02*
X8832039Y-14963762D01*
X8632039Y-14763762D02*
X9032039Y-14763762D01*
X9308289Y-10753759D02*
X9308289Y-11153759D01*
X9108289Y-10953759D02*
X9508289Y-10953759D01*
X9544417Y-16468744D02*
X9544417Y-16868744D01*
X9344417Y-16668744D02*
X9744417Y-16668744D01*
X9784539Y-12658761D02*
X9784539Y-13058761D01*
X9584539Y-12858761D02*
X9984539Y-12858761D01*
X10260790Y-5991255D02*
X10260790Y-6391255D01*
X10060790Y-6191255D02*
X10460790Y-6191255D01*
X10260790Y-8848758D02*
X10260790Y-9248758D01*
X10060790Y-9048758D02*
X10460790Y-9048758D01*
X10737040Y-14563762D02*
X10737040Y-14963762D01*
X10537040Y-14763762D02*
X10937040Y-14763762D01*
X11213290Y-10753759D02*
X11213290Y-11153759D01*
X11013291Y-10953759D02*
X11413290Y-10953759D01*
X11689541Y-12658761D02*
X11689541Y-13058761D01*
X11489541Y-12858761D02*
X11889541Y-12858761D01*
X12165791Y-5991255D02*
X12165791Y-6391255D01*
X11965791Y-6191255D02*
X12365791Y-6191255D01*
X12165791Y-8848758D02*
X12165791Y-9248758D01*
X11965791Y-9048758D02*
X12365791Y-9048758D01*
X12642042Y-14563762D02*
X12642042Y-14963762D01*
X12442042Y-14763762D02*
X12842042Y-14763762D01*
X13118292Y-10753759D02*
X13118292Y-11153759D01*
X12918292Y-10953759D02*
X13318292Y-10953759D01*
X13594542Y-12658761D02*
X13594542Y-13058761D01*
X13394542Y-12858761D02*
X13794542Y-12858761D01*
X14070793Y-5991255D02*
X14070793Y-6391255D01*
X13870793Y-6191255D02*
X14270793Y-6191255D01*
X14070793Y-8848758D02*
X14070793Y-9248758D01*
X13870793Y-9048758D02*
X14270793Y-9048758D01*
X14547043Y-14563762D02*
X14547043Y-14963762D01*
X14347043Y-14763762D02*
X14747043Y-14763762D01*
X15023294Y-10753759D02*
X15023294Y-11153759D01*
X14823294Y-10953759D02*
X15223294Y-10953759D01*
X15499544Y-12658761D02*
X15499544Y-13058761D01*
X15299544Y-12858761D02*
X15699544Y-12858761D01*
X15975794Y-8848758D02*
X15975794Y-9248758D01*
X15775794Y-9048758D02*
X16175794Y-9048758D01*
X16452045Y-14563762D02*
X16452045Y-14963762D01*
X16252045Y-14763762D02*
X16652045Y-14763762D01*
X16688161Y-16468744D02*
X16688161Y-16868744D01*
X16488161Y-16668744D02*
X16888161Y-16668744D01*
X16928295Y-5991255D02*
X16928295Y-6391255D01*
X16728295Y-6191255D02*
X17128295Y-6191255D01*
X16928295Y-10753759D02*
X16928295Y-11153759D01*
X16728295Y-10953759D02*
X17128295Y-10953759D01*
X17404546Y-12658761D02*
X17404546Y-13058761D01*
X17204546Y-12858761D02*
X17604546Y-12858761D01*
X17880796Y-8848758D02*
X17880796Y-9248758D01*
X17680796Y-9048758D02*
X18080796Y-9048758D01*
X18357047Y-14563762D02*
X18357047Y-14963762D01*
X18157047Y-14763762D02*
X18557047Y-14763762D01*
X18833297Y-5991255D02*
X18833297Y-6391255D01*
X18633297Y-6191255D02*
X19033297Y-6191255D01*
X18833297Y-10753759D02*
X18833297Y-11153759D01*
X18633297Y-10953759D02*
X19033297Y-10953759D01*
X19309547Y-12658761D02*
X19309547Y-13058761D01*
X19109547Y-12858761D02*
X19509547Y-12858761D01*
X19785798Y-8848758D02*
X19785798Y-9248758D01*
X19585798Y-9048758D02*
X19985798Y-9048758D01*
X20262048Y-14563762D02*
X20262048Y-14963762D01*
X20062048Y-14763762D02*
X20462048Y-14763762D01*
X20738299Y-5991255D02*
X20738299Y-6391255D01*
X20538299Y-6191255D02*
X20938299Y-6191255D01*
X20738299Y-10753759D02*
X20738299Y-11153759D01*
X20538299Y-10953759D02*
X20938299Y-10953759D01*
X21214549Y-12658761D02*
X21214549Y-13058761D01*
X21014549Y-12858761D02*
X21414549Y-12858761D01*
X21690799Y-8848758D02*
X21690799Y-9248758D01*
X21490799Y-9048758D02*
X21890799Y-9048758D01*
X22167050Y-14563762D02*
X22167050Y-14963762D01*
X21967050Y-14763762D02*
X22367050Y-14763762D01*
X22643300Y-5991255D02*
X22643300Y-6391255D01*
X22443300Y-6191255D02*
X22843300Y-6191255D01*
X22643300Y-10753759D02*
X22643300Y-11153759D01*
X22443300Y-10953759D02*
X22843300Y-10953759D01*
X23119550Y-12658761D02*
X23119550Y-13058761D01*
X22919550Y-12858761D02*
X23319550Y-12858761D01*
X23595801Y-8848758D02*
X23595801Y-9248758D01*
X23395801Y-9048758D02*
X23795801Y-9048758D01*
X23831905Y-16468744D02*
X23831905Y-16868744D01*
X23631905Y-16668744D02*
X24031905Y-16668744D01*
X24072051Y-14563762D02*
X24072051Y-14963762D01*
X23872051Y-14763762D02*
X24272051Y-14763762D01*
X24548302Y-10753759D02*
X24548302Y-11153759D01*
X24348302Y-10953759D02*
X24748302Y-10953759D01*
X25024552Y-12658761D02*
X25024552Y-13058761D01*
X24824552Y-12858761D02*
X25224552Y-12858761D01*
X25500802Y-5991255D02*
X25500802Y-6391255D01*
X25300802Y-6191255D02*
X25700802Y-6191255D01*
X25500802Y-8848758D02*
X25500802Y-9248758D01*
X25300802Y-9048758D02*
X25700802Y-9048758D01*
X25977053Y-14563762D02*
X25977053Y-14963762D01*
X25777053Y-14763762D02*
X26177053Y-14763762D01*
X26213153Y-16468744D02*
X26213153Y-16868744D01*
X26013153Y-16668744D02*
X26413153Y-16668744D01*
X26453303Y-10753759D02*
X26453303Y-11153759D01*
X26253303Y-10953759D02*
X26653303Y-10953759D01*
X26929554Y-12658761D02*
X26929554Y-13058761D01*
X26729554Y-12858761D02*
X27129554Y-12858761D01*
X27405804Y-5991255D02*
X27405804Y-6391255D01*
X27205804Y-6191255D02*
X27605804Y-6191255D01*
X27405804Y-8848758D02*
X27405804Y-9248758D01*
X27205804Y-9048758D02*
X27605804Y-9048758D01*
X28358305Y-10753759D02*
X28358305Y-11153759D01*
X28158305Y-10953759D02*
X28558305Y-10953759D01*
X28594401Y-16468744D02*
X28594401Y-16868744D01*
X28394401Y-16668744D02*
X28794401Y-16668744D01*
X29310806Y-5991255D02*
X29310806Y-6391255D01*
X29110806Y-6191255D02*
X29510806Y-6191255D01*
X29548931Y-14563762D02*
X29548931Y-14963762D01*
X29348931Y-14763762D02*
X29748931Y-14763762D01*
X30025181Y-12658761D02*
X30025181Y-13058761D01*
X29825181Y-12858761D02*
X30225181Y-12858761D01*
X30263306Y-8848758D02*
X30263306Y-9248758D01*
X30063306Y-9048758D02*
X30463306Y-9048758D01*
X30739557Y-10753759D02*
X30739557Y-11153759D01*
X30539557Y-10953759D02*
X30939557Y-10953759D01*
X30975649Y-16468744D02*
X30975649Y-16868744D01*
X30775649Y-16668744D02*
X31175649Y-16668744D01*
X31215807Y-5991255D02*
X31215807Y-6391255D01*
X31015807Y-6191255D02*
X31415807Y-6191255D01*
X33597059Y-5991255D02*
X33597059Y-6391255D01*
X33397059Y-6191255D02*
X33797059Y-6191255D01*
X33597059Y-8848758D02*
X33597059Y-9248758D01*
X33397059Y-9048758D02*
X33797059Y-9048758D01*
X33597059Y-10753759D02*
X33597059Y-11153759D01*
X33397059Y-10953759D02*
X33797059Y-10953759D01*
X33597059Y-16468764D02*
X33597059Y-16868764D01*
X33397059Y-16668764D02*
X33797059Y-16668764D01*
X35502061Y-5991255D02*
X35502061Y-6391255D01*
X35302061Y-6191255D02*
X35702061Y-6191255D01*
X35502061Y-8848758D02*
X35502061Y-9248758D01*
X35302061Y-9048758D02*
X35702061Y-9048758D01*
X35502061Y-10753759D02*
X35502061Y-11153759D01*
X35302061Y-10953759D02*
X35702061Y-10953759D01*
X35502061Y-14563762D02*
X35502061Y-14963762D01*
X35302061Y-14763762D02*
X35702061Y-14763762D01*
X35502061Y-16468764D02*
X35502061Y-16868764D01*
X35302061Y-16668764D02*
X35702061Y-16668764D01*
X37407063Y-5991255D02*
X37407063Y-6391255D01*
X37207063Y-6191255D02*
X37607063Y-6191255D01*
X37407063Y-8848758D02*
X37407063Y-9248758D01*
X37207063Y-9048758D02*
X37607063Y-9048758D01*
X37407063Y-10753759D02*
X37407063Y-11153759D01*
X37207063Y-10953759D02*
X37607063Y-10953759D01*
X37407063Y-16468764D02*
X37407063Y-16868764D01*
X37207063Y-16668764D02*
X37607063Y-16668764D01*
D11*
X3273819Y-18135524D02*
X3273819Y-17935524D01*
X3273819Y-17935524D02*
X3321438Y-17935524D01*
X3321438Y-17935524D02*
X3350009Y-17945048D01*
X3350009Y-17945048D02*
X3369057Y-17964095D01*
X3369057Y-17964095D02*
X3378581Y-17983143D01*
X3378581Y-17983143D02*
X3388105Y-18021238D01*
X3388105Y-18021238D02*
X3388105Y-18049810D01*
X3388105Y-18049810D02*
X3378581Y-18087905D01*
X3378581Y-18087905D02*
X3369057Y-18106952D01*
X3369057Y-18106952D02*
X3350009Y-18126000D01*
X3350009Y-18126000D02*
X3321438Y-18135524D01*
X3321438Y-18135524D02*
X3273819Y-18135524D01*
X3473819Y-18135524D02*
X3473819Y-18002190D01*
X3473819Y-18040286D02*
X3483343Y-18021238D01*
X3483343Y-18021238D02*
X3492867Y-18011714D01*
X3492867Y-18011714D02*
X3511914Y-18002190D01*
X3511914Y-18002190D02*
X3530962Y-18002190D01*
X3597628Y-18135524D02*
X3597628Y-18002190D01*
X3597628Y-17935524D02*
X3588105Y-17945048D01*
X3588105Y-17945048D02*
X3597628Y-17954571D01*
X3597628Y-17954571D02*
X3607152Y-17945048D01*
X3607152Y-17945048D02*
X3597628Y-17935524D01*
X3597628Y-17935524D02*
X3597628Y-17954571D01*
X3721438Y-18135524D02*
X3702390Y-18126000D01*
X3702390Y-18126000D02*
X3692867Y-18106952D01*
X3692867Y-18106952D02*
X3692867Y-17935524D01*
X3826200Y-18135524D02*
X3807152Y-18126000D01*
X3807152Y-18126000D02*
X3797628Y-18106952D01*
X3797628Y-18106952D02*
X3797628Y-17935524D01*
X4054771Y-18135524D02*
X4054771Y-17935524D01*
X4054771Y-17935524D02*
X4121438Y-18078381D01*
X4121438Y-18078381D02*
X4188105Y-17935524D01*
X4188105Y-17935524D02*
X4188105Y-18135524D01*
X4369057Y-18135524D02*
X4369057Y-18030762D01*
X4369057Y-18030762D02*
X4359533Y-18011714D01*
X4359533Y-18011714D02*
X4340486Y-18002190D01*
X4340486Y-18002190D02*
X4302390Y-18002190D01*
X4302390Y-18002190D02*
X4283343Y-18011714D01*
X4369057Y-18126000D02*
X4350010Y-18135524D01*
X4350010Y-18135524D02*
X4302390Y-18135524D01*
X4302390Y-18135524D02*
X4283343Y-18126000D01*
X4283343Y-18126000D02*
X4273819Y-18106952D01*
X4273819Y-18106952D02*
X4273819Y-18087905D01*
X4273819Y-18087905D02*
X4283343Y-18068857D01*
X4283343Y-18068857D02*
X4302390Y-18059333D01*
X4302390Y-18059333D02*
X4350010Y-18059333D01*
X4350010Y-18059333D02*
X4369057Y-18049810D01*
X4464295Y-18002190D02*
X4464295Y-18202190D01*
X4464295Y-18011714D02*
X4483343Y-18002190D01*
X4483343Y-18002190D02*
X4521438Y-18002190D01*
X4521438Y-18002190D02*
X4540486Y-18011714D01*
X4540486Y-18011714D02*
X4550010Y-18021238D01*
X4550010Y-18021238D02*
X4559533Y-18040286D01*
X4559533Y-18040286D02*
X4559533Y-18097429D01*
X4559533Y-18097429D02*
X4550010Y-18116476D01*
X4550010Y-18116476D02*
X4540486Y-18126000D01*
X4540486Y-18126000D02*
X4521438Y-18135524D01*
X4521438Y-18135524D02*
X4483343Y-18135524D01*
X4483343Y-18135524D02*
X4464295Y-18126000D01*
X4645248Y-18116476D02*
X4654771Y-18126000D01*
X4654771Y-18126000D02*
X4645248Y-18135524D01*
X4645248Y-18135524D02*
X4635724Y-18126000D01*
X4635724Y-18126000D02*
X4645248Y-18116476D01*
X4645248Y-18116476D02*
X4645248Y-18135524D01*
X4645248Y-18011714D02*
X4654771Y-18021238D01*
X4654771Y-18021238D02*
X4645248Y-18030762D01*
X4645248Y-18030762D02*
X4635724Y-18021238D01*
X4635724Y-18021238D02*
X4645248Y-18011714D01*
X4645248Y-18011714D02*
X4645248Y-18030762D01*
D12*
X2851200Y-18375500D02*
X3026200Y-18550500D01*
X3026200Y-18375500D02*
X2851200Y-18550500D01*
D11*
X3378581Y-18555524D02*
X3264295Y-18555524D01*
X3321438Y-18555524D02*
X3321438Y-18355524D01*
X3321438Y-18355524D02*
X3302390Y-18384095D01*
X3302390Y-18384095D02*
X3283343Y-18403143D01*
X3283343Y-18403143D02*
X3264295Y-18412667D01*
X3464295Y-18536476D02*
X3473819Y-18546000D01*
X3473819Y-18546000D02*
X3464295Y-18555524D01*
X3464295Y-18555524D02*
X3454771Y-18546000D01*
X3454771Y-18546000D02*
X3464295Y-18536476D01*
X3464295Y-18536476D02*
X3464295Y-18555524D01*
X3540486Y-18355524D02*
X3673819Y-18355524D01*
X3673819Y-18355524D02*
X3588105Y-18555524D01*
X3845248Y-18355524D02*
X3750009Y-18355524D01*
X3750009Y-18355524D02*
X3740486Y-18450762D01*
X3740486Y-18450762D02*
X3750009Y-18441238D01*
X3750009Y-18441238D02*
X3769057Y-18431714D01*
X3769057Y-18431714D02*
X3816676Y-18431714D01*
X3816676Y-18431714D02*
X3835724Y-18441238D01*
X3835724Y-18441238D02*
X3845248Y-18450762D01*
X3845248Y-18450762D02*
X3854771Y-18469810D01*
X3854771Y-18469810D02*
X3854771Y-18517429D01*
X3854771Y-18517429D02*
X3845248Y-18536476D01*
X3845248Y-18536476D02*
X3835724Y-18546000D01*
X3835724Y-18546000D02*
X3816676Y-18555524D01*
X3816676Y-18555524D02*
X3769057Y-18555524D01*
X3769057Y-18555524D02*
X3750009Y-18546000D01*
X3750009Y-18546000D02*
X3740486Y-18536476D01*
X3978581Y-18355524D02*
X3997629Y-18355524D01*
X3997629Y-18355524D02*
X4016676Y-18365048D01*
X4016676Y-18365048D02*
X4026200Y-18374571D01*
X4026200Y-18374571D02*
X4035724Y-18393619D01*
X4035724Y-18393619D02*
X4045248Y-18431714D01*
X4045248Y-18431714D02*
X4045248Y-18479333D01*
X4045248Y-18479333D02*
X4035724Y-18517429D01*
X4035724Y-18517429D02*
X4026200Y-18536476D01*
X4026200Y-18536476D02*
X4016676Y-18546000D01*
X4016676Y-18546000D02*
X3997629Y-18555524D01*
X3997629Y-18555524D02*
X3978581Y-18555524D01*
X3978581Y-18555524D02*
X3959533Y-18546000D01*
X3959533Y-18546000D02*
X3950009Y-18536476D01*
X3950009Y-18536476D02*
X3940486Y-18517429D01*
X3940486Y-18517429D02*
X3930962Y-18479333D01*
X3930962Y-18479333D02*
X3930962Y-18431714D01*
X3930962Y-18431714D02*
X3940486Y-18393619D01*
X3940486Y-18393619D02*
X3950009Y-18374571D01*
X3950009Y-18374571D02*
X3959533Y-18365048D01*
X3959533Y-18365048D02*
X3978581Y-18355524D01*
X4130962Y-18555524D02*
X4130962Y-18422190D01*
X4130962Y-18441238D02*
X4140486Y-18431714D01*
X4140486Y-18431714D02*
X4159533Y-18422190D01*
X4159533Y-18422190D02*
X4188105Y-18422190D01*
X4188105Y-18422190D02*
X4207152Y-18431714D01*
X4207152Y-18431714D02*
X4216676Y-18450762D01*
X4216676Y-18450762D02*
X4216676Y-18555524D01*
X4216676Y-18450762D02*
X4226200Y-18431714D01*
X4226200Y-18431714D02*
X4245248Y-18422190D01*
X4245248Y-18422190D02*
X4273819Y-18422190D01*
X4273819Y-18422190D02*
X4292867Y-18431714D01*
X4292867Y-18431714D02*
X4302391Y-18450762D01*
X4302391Y-18450762D02*
X4302391Y-18555524D01*
X4397629Y-18555524D02*
X4397629Y-18422190D01*
X4397629Y-18441238D02*
X4407152Y-18431714D01*
X4407152Y-18431714D02*
X4426200Y-18422190D01*
X4426200Y-18422190D02*
X4454772Y-18422190D01*
X4454772Y-18422190D02*
X4473819Y-18431714D01*
X4473819Y-18431714D02*
X4483343Y-18450762D01*
X4483343Y-18450762D02*
X4483343Y-18555524D01*
X4483343Y-18450762D02*
X4492867Y-18431714D01*
X4492867Y-18431714D02*
X4511914Y-18422190D01*
X4511914Y-18422190D02*
X4540486Y-18422190D01*
X4540486Y-18422190D02*
X4559533Y-18431714D01*
X4559533Y-18431714D02*
X4569057Y-18450762D01*
X4569057Y-18450762D02*
X4569057Y-18555524D01*
X4959533Y-18346000D02*
X4788105Y-18603143D01*
X5216676Y-18355524D02*
X5235724Y-18355524D01*
X5235724Y-18355524D02*
X5254772Y-18365048D01*
X5254772Y-18365048D02*
X5264295Y-18374571D01*
X5264295Y-18374571D02*
X5273819Y-18393619D01*
X5273819Y-18393619D02*
X5283343Y-18431714D01*
X5283343Y-18431714D02*
X5283343Y-18479333D01*
X5283343Y-18479333D02*
X5273819Y-18517429D01*
X5273819Y-18517429D02*
X5264295Y-18536476D01*
X5264295Y-18536476D02*
X5254772Y-18546000D01*
X5254772Y-18546000D02*
X5235724Y-18555524D01*
X5235724Y-18555524D02*
X5216676Y-18555524D01*
X5216676Y-18555524D02*
X5197629Y-18546000D01*
X5197629Y-18546000D02*
X5188105Y-18536476D01*
X5188105Y-18536476D02*
X5178581Y-18517429D01*
X5178581Y-18517429D02*
X5169057Y-18479333D01*
X5169057Y-18479333D02*
X5169057Y-18431714D01*
X5169057Y-18431714D02*
X5178581Y-18393619D01*
X5178581Y-18393619D02*
X5188105Y-18374571D01*
X5188105Y-18374571D02*
X5197629Y-18365048D01*
X5197629Y-18365048D02*
X5216676Y-18355524D01*
X5369057Y-18536476D02*
X5378581Y-18546000D01*
X5378581Y-18546000D02*
X5369057Y-18555524D01*
X5369057Y-18555524D02*
X5359534Y-18546000D01*
X5359534Y-18546000D02*
X5369057Y-18536476D01*
X5369057Y-18536476D02*
X5369057Y-18555524D01*
X5502391Y-18355524D02*
X5521438Y-18355524D01*
X5521438Y-18355524D02*
X5540486Y-18365048D01*
X5540486Y-18365048D02*
X5550010Y-18374571D01*
X5550010Y-18374571D02*
X5559534Y-18393619D01*
X5559534Y-18393619D02*
X5569057Y-18431714D01*
X5569057Y-18431714D02*
X5569057Y-18479333D01*
X5569057Y-18479333D02*
X5559534Y-18517429D01*
X5559534Y-18517429D02*
X5550010Y-18536476D01*
X5550010Y-18536476D02*
X5540486Y-18546000D01*
X5540486Y-18546000D02*
X5521438Y-18555524D01*
X5521438Y-18555524D02*
X5502391Y-18555524D01*
X5502391Y-18555524D02*
X5483343Y-18546000D01*
X5483343Y-18546000D02*
X5473819Y-18536476D01*
X5473819Y-18536476D02*
X5464295Y-18517429D01*
X5464295Y-18517429D02*
X5454772Y-18479333D01*
X5454772Y-18479333D02*
X5454772Y-18431714D01*
X5454772Y-18431714D02*
X5464295Y-18393619D01*
X5464295Y-18393619D02*
X5473819Y-18374571D01*
X5473819Y-18374571D02*
X5483343Y-18365048D01*
X5483343Y-18365048D02*
X5502391Y-18355524D01*
X5740486Y-18355524D02*
X5702391Y-18355524D01*
X5702391Y-18355524D02*
X5683343Y-18365048D01*
X5683343Y-18365048D02*
X5673819Y-18374571D01*
X5673819Y-18374571D02*
X5654772Y-18403143D01*
X5654772Y-18403143D02*
X5645248Y-18441238D01*
X5645248Y-18441238D02*
X5645248Y-18517429D01*
X5645248Y-18517429D02*
X5654772Y-18536476D01*
X5654772Y-18536476D02*
X5664295Y-18546000D01*
X5664295Y-18546000D02*
X5683343Y-18555524D01*
X5683343Y-18555524D02*
X5721438Y-18555524D01*
X5721438Y-18555524D02*
X5740486Y-18546000D01*
X5740486Y-18546000D02*
X5750010Y-18536476D01*
X5750010Y-18536476D02*
X5759533Y-18517429D01*
X5759533Y-18517429D02*
X5759533Y-18469810D01*
X5759533Y-18469810D02*
X5750010Y-18450762D01*
X5750010Y-18450762D02*
X5740486Y-18441238D01*
X5740486Y-18441238D02*
X5721438Y-18431714D01*
X5721438Y-18431714D02*
X5683343Y-18431714D01*
X5683343Y-18431714D02*
X5664295Y-18441238D01*
X5664295Y-18441238D02*
X5654772Y-18450762D01*
X5654772Y-18450762D02*
X5645248Y-18469810D01*
X5873819Y-18441238D02*
X5854772Y-18431714D01*
X5854772Y-18431714D02*
X5845248Y-18422190D01*
X5845248Y-18422190D02*
X5835724Y-18403143D01*
X5835724Y-18403143D02*
X5835724Y-18393619D01*
X5835724Y-18393619D02*
X5845248Y-18374571D01*
X5845248Y-18374571D02*
X5854772Y-18365048D01*
X5854772Y-18365048D02*
X5873819Y-18355524D01*
X5873819Y-18355524D02*
X5911914Y-18355524D01*
X5911914Y-18355524D02*
X5930962Y-18365048D01*
X5930962Y-18365048D02*
X5940486Y-18374571D01*
X5940486Y-18374571D02*
X5950010Y-18393619D01*
X5950010Y-18393619D02*
X5950010Y-18403143D01*
X5950010Y-18403143D02*
X5940486Y-18422190D01*
X5940486Y-18422190D02*
X5930962Y-18431714D01*
X5930962Y-18431714D02*
X5911914Y-18441238D01*
X5911914Y-18441238D02*
X5873819Y-18441238D01*
X5873819Y-18441238D02*
X5854772Y-18450762D01*
X5854772Y-18450762D02*
X5845248Y-18460286D01*
X5845248Y-18460286D02*
X5835724Y-18479333D01*
X5835724Y-18479333D02*
X5835724Y-18517429D01*
X5835724Y-18517429D02*
X5845248Y-18536476D01*
X5845248Y-18536476D02*
X5854772Y-18546000D01*
X5854772Y-18546000D02*
X5873819Y-18555524D01*
X5873819Y-18555524D02*
X5911914Y-18555524D01*
X5911914Y-18555524D02*
X5930962Y-18546000D01*
X5930962Y-18546000D02*
X5940486Y-18536476D01*
X5940486Y-18536476D02*
X5950010Y-18517429D01*
X5950010Y-18517429D02*
X5950010Y-18479333D01*
X5950010Y-18479333D02*
X5940486Y-18460286D01*
X5940486Y-18460286D02*
X5930962Y-18450762D01*
X5930962Y-18450762D02*
X5911914Y-18441238D01*
X6045248Y-18555524D02*
X6083343Y-18555524D01*
X6083343Y-18555524D02*
X6102391Y-18546000D01*
X6102391Y-18546000D02*
X6111914Y-18536476D01*
X6111914Y-18536476D02*
X6130962Y-18507905D01*
X6130962Y-18507905D02*
X6140486Y-18469810D01*
X6140486Y-18469810D02*
X6140486Y-18393619D01*
X6140486Y-18393619D02*
X6130962Y-18374571D01*
X6130962Y-18374571D02*
X6121438Y-18365048D01*
X6121438Y-18365048D02*
X6102391Y-18355524D01*
X6102391Y-18355524D02*
X6064295Y-18355524D01*
X6064295Y-18355524D02*
X6045248Y-18365048D01*
X6045248Y-18365048D02*
X6035724Y-18374571D01*
X6035724Y-18374571D02*
X6026200Y-18393619D01*
X6026200Y-18393619D02*
X6026200Y-18441238D01*
X6026200Y-18441238D02*
X6035724Y-18460286D01*
X6035724Y-18460286D02*
X6045248Y-18469810D01*
X6045248Y-18469810D02*
X6064295Y-18479333D01*
X6064295Y-18479333D02*
X6102391Y-18479333D01*
X6102391Y-18479333D02*
X6121438Y-18469810D01*
X6121438Y-18469810D02*
X6130962Y-18460286D01*
X6130962Y-18460286D02*
X6140486Y-18441238D01*
X6216676Y-18355524D02*
X6216676Y-18393619D01*
X6292867Y-18355524D02*
X6292867Y-18393619D01*
X6588105Y-18631714D02*
X6578581Y-18622190D01*
X6578581Y-18622190D02*
X6559534Y-18593619D01*
X6559534Y-18593619D02*
X6550010Y-18574571D01*
X6550010Y-18574571D02*
X6540486Y-18546000D01*
X6540486Y-18546000D02*
X6530962Y-18498381D01*
X6530962Y-18498381D02*
X6530962Y-18460286D01*
X6530962Y-18460286D02*
X6540486Y-18412667D01*
X6540486Y-18412667D02*
X6550010Y-18384095D01*
X6550010Y-18384095D02*
X6559534Y-18365048D01*
X6559534Y-18365048D02*
X6578581Y-18336476D01*
X6578581Y-18336476D02*
X6588105Y-18326952D01*
X6769057Y-18555524D02*
X6654772Y-18555524D01*
X6711914Y-18555524D02*
X6711914Y-18355524D01*
X6711914Y-18355524D02*
X6692867Y-18384095D01*
X6692867Y-18384095D02*
X6673819Y-18403143D01*
X6673819Y-18403143D02*
X6654772Y-18412667D01*
X6835724Y-18355524D02*
X6969057Y-18355524D01*
X6969057Y-18355524D02*
X6883343Y-18555524D01*
X7130962Y-18422190D02*
X7130962Y-18555524D01*
X7083343Y-18346000D02*
X7035724Y-18488857D01*
X7035724Y-18488857D02*
X7159534Y-18488857D01*
X7388105Y-18555524D02*
X7388105Y-18355524D01*
X7473819Y-18555524D02*
X7473819Y-18450762D01*
X7473819Y-18450762D02*
X7464296Y-18431714D01*
X7464296Y-18431714D02*
X7445248Y-18422190D01*
X7445248Y-18422190D02*
X7416676Y-18422190D01*
X7416676Y-18422190D02*
X7397629Y-18431714D01*
X7397629Y-18431714D02*
X7388105Y-18441238D01*
X7597629Y-18555524D02*
X7578581Y-18546000D01*
X7578581Y-18546000D02*
X7569057Y-18536476D01*
X7569057Y-18536476D02*
X7559534Y-18517429D01*
X7559534Y-18517429D02*
X7559534Y-18460286D01*
X7559534Y-18460286D02*
X7569057Y-18441238D01*
X7569057Y-18441238D02*
X7578581Y-18431714D01*
X7578581Y-18431714D02*
X7597629Y-18422190D01*
X7597629Y-18422190D02*
X7626200Y-18422190D01*
X7626200Y-18422190D02*
X7645248Y-18431714D01*
X7645248Y-18431714D02*
X7654772Y-18441238D01*
X7654772Y-18441238D02*
X7664296Y-18460286D01*
X7664296Y-18460286D02*
X7664296Y-18517429D01*
X7664296Y-18517429D02*
X7654772Y-18536476D01*
X7654772Y-18536476D02*
X7645248Y-18546000D01*
X7645248Y-18546000D02*
X7626200Y-18555524D01*
X7626200Y-18555524D02*
X7597629Y-18555524D01*
X7778581Y-18555524D02*
X7759534Y-18546000D01*
X7759534Y-18546000D02*
X7750010Y-18526952D01*
X7750010Y-18526952D02*
X7750010Y-18355524D01*
X7930962Y-18546000D02*
X7911915Y-18555524D01*
X7911915Y-18555524D02*
X7873819Y-18555524D01*
X7873819Y-18555524D02*
X7854772Y-18546000D01*
X7854772Y-18546000D02*
X7845248Y-18526952D01*
X7845248Y-18526952D02*
X7845248Y-18450762D01*
X7845248Y-18450762D02*
X7854772Y-18431714D01*
X7854772Y-18431714D02*
X7873819Y-18422190D01*
X7873819Y-18422190D02*
X7911915Y-18422190D01*
X7911915Y-18422190D02*
X7930962Y-18431714D01*
X7930962Y-18431714D02*
X7940486Y-18450762D01*
X7940486Y-18450762D02*
X7940486Y-18469810D01*
X7940486Y-18469810D02*
X7845248Y-18488857D01*
X8016677Y-18546000D02*
X8035724Y-18555524D01*
X8035724Y-18555524D02*
X8073819Y-18555524D01*
X8073819Y-18555524D02*
X8092867Y-18546000D01*
X8092867Y-18546000D02*
X8102391Y-18526952D01*
X8102391Y-18526952D02*
X8102391Y-18517429D01*
X8102391Y-18517429D02*
X8092867Y-18498381D01*
X8092867Y-18498381D02*
X8073819Y-18488857D01*
X8073819Y-18488857D02*
X8045248Y-18488857D01*
X8045248Y-18488857D02*
X8026200Y-18479333D01*
X8026200Y-18479333D02*
X8016677Y-18460286D01*
X8016677Y-18460286D02*
X8016677Y-18450762D01*
X8016677Y-18450762D02*
X8026200Y-18431714D01*
X8026200Y-18431714D02*
X8045248Y-18422190D01*
X8045248Y-18422190D02*
X8073819Y-18422190D01*
X8073819Y-18422190D02*
X8092867Y-18431714D01*
X8169058Y-18631714D02*
X8178581Y-18622190D01*
X8178581Y-18622190D02*
X8197629Y-18593619D01*
X8197629Y-18593619D02*
X8207153Y-18574571D01*
X8207153Y-18574571D02*
X8216677Y-18546000D01*
X8216677Y-18546000D02*
X8226200Y-18498381D01*
X8226200Y-18498381D02*
X8226200Y-18460286D01*
X8226200Y-18460286D02*
X8216677Y-18412667D01*
X8216677Y-18412667D02*
X8207153Y-18384095D01*
X8207153Y-18384095D02*
X8197629Y-18365048D01*
X8197629Y-18365048D02*
X8178581Y-18336476D01*
X8178581Y-18336476D02*
X8169058Y-18326952D01*
X8530962Y-18631714D02*
X8521439Y-18622190D01*
X8521439Y-18622190D02*
X8502391Y-18593619D01*
X8502391Y-18593619D02*
X8492867Y-18574571D01*
X8492867Y-18574571D02*
X8483343Y-18546000D01*
X8483343Y-18546000D02*
X8473820Y-18498381D01*
X8473820Y-18498381D02*
X8473820Y-18460286D01*
X8473820Y-18460286D02*
X8483343Y-18412667D01*
X8483343Y-18412667D02*
X8492867Y-18384095D01*
X8492867Y-18384095D02*
X8502391Y-18365048D01*
X8502391Y-18365048D02*
X8521439Y-18336476D01*
X8521439Y-18336476D02*
X8530962Y-18326952D01*
X8607153Y-18422190D02*
X8607153Y-18555524D01*
X8607153Y-18441238D02*
X8616677Y-18431714D01*
X8616677Y-18431714D02*
X8635724Y-18422190D01*
X8635724Y-18422190D02*
X8664296Y-18422190D01*
X8664296Y-18422190D02*
X8683343Y-18431714D01*
X8683343Y-18431714D02*
X8692867Y-18450762D01*
X8692867Y-18450762D02*
X8692867Y-18555524D01*
X8816677Y-18555524D02*
X8797629Y-18546000D01*
X8797629Y-18546000D02*
X8788105Y-18536476D01*
X8788105Y-18536476D02*
X8778581Y-18517429D01*
X8778581Y-18517429D02*
X8778581Y-18460286D01*
X8778581Y-18460286D02*
X8788105Y-18441238D01*
X8788105Y-18441238D02*
X8797629Y-18431714D01*
X8797629Y-18431714D02*
X8816677Y-18422190D01*
X8816677Y-18422190D02*
X8845248Y-18422190D01*
X8845248Y-18422190D02*
X8864296Y-18431714D01*
X8864296Y-18431714D02*
X8873820Y-18441238D01*
X8873820Y-18441238D02*
X8883343Y-18460286D01*
X8883343Y-18460286D02*
X8883343Y-18517429D01*
X8883343Y-18517429D02*
X8873820Y-18536476D01*
X8873820Y-18536476D02*
X8864296Y-18546000D01*
X8864296Y-18546000D02*
X8845248Y-18555524D01*
X8845248Y-18555524D02*
X8816677Y-18555524D01*
X8940486Y-18422190D02*
X9016677Y-18422190D01*
X8969058Y-18355524D02*
X8969058Y-18526952D01*
X8969058Y-18526952D02*
X8978581Y-18546000D01*
X8978581Y-18546000D02*
X8997629Y-18555524D01*
X8997629Y-18555524D02*
X9016677Y-18555524D01*
X9235724Y-18422190D02*
X9235724Y-18622190D01*
X9235724Y-18431714D02*
X9254772Y-18422190D01*
X9254772Y-18422190D02*
X9292867Y-18422190D01*
X9292867Y-18422190D02*
X9311915Y-18431714D01*
X9311915Y-18431714D02*
X9321439Y-18441238D01*
X9321439Y-18441238D02*
X9330962Y-18460286D01*
X9330962Y-18460286D02*
X9330962Y-18517429D01*
X9330962Y-18517429D02*
X9321439Y-18536476D01*
X9321439Y-18536476D02*
X9311915Y-18546000D01*
X9311915Y-18546000D02*
X9292867Y-18555524D01*
X9292867Y-18555524D02*
X9254772Y-18555524D01*
X9254772Y-18555524D02*
X9235724Y-18546000D01*
X9445248Y-18555524D02*
X9426201Y-18546000D01*
X9426201Y-18546000D02*
X9416677Y-18526952D01*
X9416677Y-18526952D02*
X9416677Y-18355524D01*
X9607153Y-18555524D02*
X9607153Y-18450762D01*
X9607153Y-18450762D02*
X9597629Y-18431714D01*
X9597629Y-18431714D02*
X9578582Y-18422190D01*
X9578582Y-18422190D02*
X9540486Y-18422190D01*
X9540486Y-18422190D02*
X9521439Y-18431714D01*
X9607153Y-18546000D02*
X9588105Y-18555524D01*
X9588105Y-18555524D02*
X9540486Y-18555524D01*
X9540486Y-18555524D02*
X9521439Y-18546000D01*
X9521439Y-18546000D02*
X9511915Y-18526952D01*
X9511915Y-18526952D02*
X9511915Y-18507905D01*
X9511915Y-18507905D02*
X9521439Y-18488857D01*
X9521439Y-18488857D02*
X9540486Y-18479333D01*
X9540486Y-18479333D02*
X9588105Y-18479333D01*
X9588105Y-18479333D02*
X9607153Y-18469810D01*
X9673820Y-18422190D02*
X9750010Y-18422190D01*
X9702391Y-18355524D02*
X9702391Y-18526952D01*
X9702391Y-18526952D02*
X9711915Y-18546000D01*
X9711915Y-18546000D02*
X9730962Y-18555524D01*
X9730962Y-18555524D02*
X9750010Y-18555524D01*
X9892867Y-18546000D02*
X9873820Y-18555524D01*
X9873820Y-18555524D02*
X9835724Y-18555524D01*
X9835724Y-18555524D02*
X9816677Y-18546000D01*
X9816677Y-18546000D02*
X9807153Y-18526952D01*
X9807153Y-18526952D02*
X9807153Y-18450762D01*
X9807153Y-18450762D02*
X9816677Y-18431714D01*
X9816677Y-18431714D02*
X9835724Y-18422190D01*
X9835724Y-18422190D02*
X9873820Y-18422190D01*
X9873820Y-18422190D02*
X9892867Y-18431714D01*
X9892867Y-18431714D02*
X9902391Y-18450762D01*
X9902391Y-18450762D02*
X9902391Y-18469810D01*
X9902391Y-18469810D02*
X9807153Y-18488857D01*
X10073820Y-18555524D02*
X10073820Y-18355524D01*
X10073820Y-18546000D02*
X10054772Y-18555524D01*
X10054772Y-18555524D02*
X10016677Y-18555524D01*
X10016677Y-18555524D02*
X9997629Y-18546000D01*
X9997629Y-18546000D02*
X9988105Y-18536476D01*
X9988105Y-18536476D02*
X9978582Y-18517429D01*
X9978582Y-18517429D02*
X9978582Y-18460286D01*
X9978582Y-18460286D02*
X9988105Y-18441238D01*
X9988105Y-18441238D02*
X9997629Y-18431714D01*
X9997629Y-18431714D02*
X10016677Y-18422190D01*
X10016677Y-18422190D02*
X10054772Y-18422190D01*
X10054772Y-18422190D02*
X10073820Y-18431714D01*
X10150010Y-18631714D02*
X10159534Y-18622190D01*
X10159534Y-18622190D02*
X10178582Y-18593619D01*
X10178582Y-18593619D02*
X10188105Y-18574571D01*
X10188105Y-18574571D02*
X10197629Y-18546000D01*
X10197629Y-18546000D02*
X10207153Y-18498381D01*
X10207153Y-18498381D02*
X10207153Y-18460286D01*
X10207153Y-18460286D02*
X10197629Y-18412667D01*
X10197629Y-18412667D02*
X10188105Y-18384095D01*
X10188105Y-18384095D02*
X10178582Y-18365048D01*
X10178582Y-18365048D02*
X10159534Y-18336476D01*
X10159534Y-18336476D02*
X10150010Y-18326952D01*
X3026200Y-18758000D02*
G75*
G03*
X3026200Y-18758000I-100000J0D01*
G01*
X3254771Y-18650524D02*
X3378581Y-18650524D01*
X3378581Y-18650524D02*
X3311914Y-18726714D01*
X3311914Y-18726714D02*
X3340486Y-18726714D01*
X3340486Y-18726714D02*
X3359533Y-18736238D01*
X3359533Y-18736238D02*
X3369057Y-18745762D01*
X3369057Y-18745762D02*
X3378581Y-18764810D01*
X3378581Y-18764810D02*
X3378581Y-18812429D01*
X3378581Y-18812429D02*
X3369057Y-18831476D01*
X3369057Y-18831476D02*
X3359533Y-18841000D01*
X3359533Y-18841000D02*
X3340486Y-18850524D01*
X3340486Y-18850524D02*
X3283343Y-18850524D01*
X3283343Y-18850524D02*
X3264295Y-18841000D01*
X3264295Y-18841000D02*
X3254771Y-18831476D01*
X3464295Y-18831476D02*
X3473819Y-18841000D01*
X3473819Y-18841000D02*
X3464295Y-18850524D01*
X3464295Y-18850524D02*
X3454771Y-18841000D01*
X3454771Y-18841000D02*
X3464295Y-18831476D01*
X3464295Y-18831476D02*
X3464295Y-18850524D01*
X3597628Y-18650524D02*
X3616676Y-18650524D01*
X3616676Y-18650524D02*
X3635724Y-18660048D01*
X3635724Y-18660048D02*
X3645248Y-18669571D01*
X3645248Y-18669571D02*
X3654771Y-18688619D01*
X3654771Y-18688619D02*
X3664295Y-18726714D01*
X3664295Y-18726714D02*
X3664295Y-18774333D01*
X3664295Y-18774333D02*
X3654771Y-18812429D01*
X3654771Y-18812429D02*
X3645248Y-18831476D01*
X3645248Y-18831476D02*
X3635724Y-18841000D01*
X3635724Y-18841000D02*
X3616676Y-18850524D01*
X3616676Y-18850524D02*
X3597628Y-18850524D01*
X3597628Y-18850524D02*
X3578581Y-18841000D01*
X3578581Y-18841000D02*
X3569057Y-18831476D01*
X3569057Y-18831476D02*
X3559533Y-18812429D01*
X3559533Y-18812429D02*
X3550009Y-18774333D01*
X3550009Y-18774333D02*
X3550009Y-18726714D01*
X3550009Y-18726714D02*
X3559533Y-18688619D01*
X3559533Y-18688619D02*
X3569057Y-18669571D01*
X3569057Y-18669571D02*
X3578581Y-18660048D01*
X3578581Y-18660048D02*
X3597628Y-18650524D01*
X3845248Y-18650524D02*
X3750009Y-18650524D01*
X3750009Y-18650524D02*
X3740486Y-18745762D01*
X3740486Y-18745762D02*
X3750009Y-18736238D01*
X3750009Y-18736238D02*
X3769057Y-18726714D01*
X3769057Y-18726714D02*
X3816676Y-18726714D01*
X3816676Y-18726714D02*
X3835724Y-18736238D01*
X3835724Y-18736238D02*
X3845248Y-18745762D01*
X3845248Y-18745762D02*
X3854771Y-18764810D01*
X3854771Y-18764810D02*
X3854771Y-18812429D01*
X3854771Y-18812429D02*
X3845248Y-18831476D01*
X3845248Y-18831476D02*
X3835724Y-18841000D01*
X3835724Y-18841000D02*
X3816676Y-18850524D01*
X3816676Y-18850524D02*
X3769057Y-18850524D01*
X3769057Y-18850524D02*
X3750009Y-18841000D01*
X3750009Y-18841000D02*
X3740486Y-18831476D01*
X3978581Y-18650524D02*
X3997629Y-18650524D01*
X3997629Y-18650524D02*
X4016676Y-18660048D01*
X4016676Y-18660048D02*
X4026200Y-18669571D01*
X4026200Y-18669571D02*
X4035724Y-18688619D01*
X4035724Y-18688619D02*
X4045248Y-18726714D01*
X4045248Y-18726714D02*
X4045248Y-18774333D01*
X4045248Y-18774333D02*
X4035724Y-18812429D01*
X4035724Y-18812429D02*
X4026200Y-18831476D01*
X4026200Y-18831476D02*
X4016676Y-18841000D01*
X4016676Y-18841000D02*
X3997629Y-18850524D01*
X3997629Y-18850524D02*
X3978581Y-18850524D01*
X3978581Y-18850524D02*
X3959533Y-18841000D01*
X3959533Y-18841000D02*
X3950009Y-18831476D01*
X3950009Y-18831476D02*
X3940486Y-18812429D01*
X3940486Y-18812429D02*
X3930962Y-18774333D01*
X3930962Y-18774333D02*
X3930962Y-18726714D01*
X3930962Y-18726714D02*
X3940486Y-18688619D01*
X3940486Y-18688619D02*
X3950009Y-18669571D01*
X3950009Y-18669571D02*
X3959533Y-18660048D01*
X3959533Y-18660048D02*
X3978581Y-18650524D01*
X4130962Y-18850524D02*
X4130962Y-18717190D01*
X4130962Y-18736238D02*
X4140486Y-18726714D01*
X4140486Y-18726714D02*
X4159533Y-18717190D01*
X4159533Y-18717190D02*
X4188105Y-18717190D01*
X4188105Y-18717190D02*
X4207152Y-18726714D01*
X4207152Y-18726714D02*
X4216676Y-18745762D01*
X4216676Y-18745762D02*
X4216676Y-18850524D01*
X4216676Y-18745762D02*
X4226200Y-18726714D01*
X4226200Y-18726714D02*
X4245248Y-18717190D01*
X4245248Y-18717190D02*
X4273819Y-18717190D01*
X4273819Y-18717190D02*
X4292867Y-18726714D01*
X4292867Y-18726714D02*
X4302391Y-18745762D01*
X4302391Y-18745762D02*
X4302391Y-18850524D01*
X4397629Y-18850524D02*
X4397629Y-18717190D01*
X4397629Y-18736238D02*
X4407152Y-18726714D01*
X4407152Y-18726714D02*
X4426200Y-18717190D01*
X4426200Y-18717190D02*
X4454772Y-18717190D01*
X4454772Y-18717190D02*
X4473819Y-18726714D01*
X4473819Y-18726714D02*
X4483343Y-18745762D01*
X4483343Y-18745762D02*
X4483343Y-18850524D01*
X4483343Y-18745762D02*
X4492867Y-18726714D01*
X4492867Y-18726714D02*
X4511914Y-18717190D01*
X4511914Y-18717190D02*
X4540486Y-18717190D01*
X4540486Y-18717190D02*
X4559533Y-18726714D01*
X4559533Y-18726714D02*
X4569057Y-18745762D01*
X4569057Y-18745762D02*
X4569057Y-18850524D01*
X4959533Y-18641000D02*
X4788105Y-18898143D01*
X5216676Y-18650524D02*
X5235724Y-18650524D01*
X5235724Y-18650524D02*
X5254772Y-18660048D01*
X5254772Y-18660048D02*
X5264295Y-18669571D01*
X5264295Y-18669571D02*
X5273819Y-18688619D01*
X5273819Y-18688619D02*
X5283343Y-18726714D01*
X5283343Y-18726714D02*
X5283343Y-18774333D01*
X5283343Y-18774333D02*
X5273819Y-18812429D01*
X5273819Y-18812429D02*
X5264295Y-18831476D01*
X5264295Y-18831476D02*
X5254772Y-18841000D01*
X5254772Y-18841000D02*
X5235724Y-18850524D01*
X5235724Y-18850524D02*
X5216676Y-18850524D01*
X5216676Y-18850524D02*
X5197629Y-18841000D01*
X5197629Y-18841000D02*
X5188105Y-18831476D01*
X5188105Y-18831476D02*
X5178581Y-18812429D01*
X5178581Y-18812429D02*
X5169057Y-18774333D01*
X5169057Y-18774333D02*
X5169057Y-18726714D01*
X5169057Y-18726714D02*
X5178581Y-18688619D01*
X5178581Y-18688619D02*
X5188105Y-18669571D01*
X5188105Y-18669571D02*
X5197629Y-18660048D01*
X5197629Y-18660048D02*
X5216676Y-18650524D01*
X5369057Y-18831476D02*
X5378581Y-18841000D01*
X5378581Y-18841000D02*
X5369057Y-18850524D01*
X5369057Y-18850524D02*
X5359534Y-18841000D01*
X5359534Y-18841000D02*
X5369057Y-18831476D01*
X5369057Y-18831476D02*
X5369057Y-18850524D01*
X5569057Y-18850524D02*
X5454772Y-18850524D01*
X5511914Y-18850524D02*
X5511914Y-18650524D01*
X5511914Y-18650524D02*
X5492867Y-18679095D01*
X5492867Y-18679095D02*
X5473819Y-18698143D01*
X5473819Y-18698143D02*
X5454772Y-18707667D01*
X5645248Y-18669571D02*
X5654772Y-18660048D01*
X5654772Y-18660048D02*
X5673819Y-18650524D01*
X5673819Y-18650524D02*
X5721438Y-18650524D01*
X5721438Y-18650524D02*
X5740486Y-18660048D01*
X5740486Y-18660048D02*
X5750010Y-18669571D01*
X5750010Y-18669571D02*
X5759533Y-18688619D01*
X5759533Y-18688619D02*
X5759533Y-18707667D01*
X5759533Y-18707667D02*
X5750010Y-18736238D01*
X5750010Y-18736238D02*
X5635724Y-18850524D01*
X5635724Y-18850524D02*
X5759533Y-18850524D01*
X5883343Y-18650524D02*
X5902391Y-18650524D01*
X5902391Y-18650524D02*
X5921438Y-18660048D01*
X5921438Y-18660048D02*
X5930962Y-18669571D01*
X5930962Y-18669571D02*
X5940486Y-18688619D01*
X5940486Y-18688619D02*
X5950010Y-18726714D01*
X5950010Y-18726714D02*
X5950010Y-18774333D01*
X5950010Y-18774333D02*
X5940486Y-18812429D01*
X5940486Y-18812429D02*
X5930962Y-18831476D01*
X5930962Y-18831476D02*
X5921438Y-18841000D01*
X5921438Y-18841000D02*
X5902391Y-18850524D01*
X5902391Y-18850524D02*
X5883343Y-18850524D01*
X5883343Y-18850524D02*
X5864295Y-18841000D01*
X5864295Y-18841000D02*
X5854772Y-18831476D01*
X5854772Y-18831476D02*
X5845248Y-18812429D01*
X5845248Y-18812429D02*
X5835724Y-18774333D01*
X5835724Y-18774333D02*
X5835724Y-18726714D01*
X5835724Y-18726714D02*
X5845248Y-18688619D01*
X5845248Y-18688619D02*
X5854772Y-18669571D01*
X5854772Y-18669571D02*
X5864295Y-18660048D01*
X5864295Y-18660048D02*
X5883343Y-18650524D01*
X6140486Y-18850524D02*
X6026200Y-18850524D01*
X6083343Y-18850524D02*
X6083343Y-18650524D01*
X6083343Y-18650524D02*
X6064295Y-18679095D01*
X6064295Y-18679095D02*
X6045248Y-18698143D01*
X6045248Y-18698143D02*
X6026200Y-18707667D01*
X6216676Y-18650524D02*
X6216676Y-18688619D01*
X6292867Y-18650524D02*
X6292867Y-18688619D01*
X6588105Y-18926714D02*
X6578581Y-18917190D01*
X6578581Y-18917190D02*
X6559534Y-18888619D01*
X6559534Y-18888619D02*
X6550010Y-18869571D01*
X6550010Y-18869571D02*
X6540486Y-18841000D01*
X6540486Y-18841000D02*
X6530962Y-18793381D01*
X6530962Y-18793381D02*
X6530962Y-18755286D01*
X6530962Y-18755286D02*
X6540486Y-18707667D01*
X6540486Y-18707667D02*
X6550010Y-18679095D01*
X6550010Y-18679095D02*
X6559534Y-18660048D01*
X6559534Y-18660048D02*
X6578581Y-18631476D01*
X6578581Y-18631476D02*
X6588105Y-18621952D01*
X6769057Y-18850524D02*
X6654772Y-18850524D01*
X6711914Y-18850524D02*
X6711914Y-18650524D01*
X6711914Y-18650524D02*
X6692867Y-18679095D01*
X6692867Y-18679095D02*
X6673819Y-18698143D01*
X6673819Y-18698143D02*
X6654772Y-18707667D01*
X6835724Y-18650524D02*
X6969057Y-18650524D01*
X6969057Y-18650524D02*
X6883343Y-18850524D01*
X7130962Y-18717190D02*
X7130962Y-18850524D01*
X7083343Y-18641000D02*
X7035724Y-18783857D01*
X7035724Y-18783857D02*
X7159534Y-18783857D01*
X7388105Y-18850524D02*
X7388105Y-18650524D01*
X7473819Y-18850524D02*
X7473819Y-18745762D01*
X7473819Y-18745762D02*
X7464296Y-18726714D01*
X7464296Y-18726714D02*
X7445248Y-18717190D01*
X7445248Y-18717190D02*
X7416676Y-18717190D01*
X7416676Y-18717190D02*
X7397629Y-18726714D01*
X7397629Y-18726714D02*
X7388105Y-18736238D01*
X7597629Y-18850524D02*
X7578581Y-18841000D01*
X7578581Y-18841000D02*
X7569057Y-18831476D01*
X7569057Y-18831476D02*
X7559534Y-18812429D01*
X7559534Y-18812429D02*
X7559534Y-18755286D01*
X7559534Y-18755286D02*
X7569057Y-18736238D01*
X7569057Y-18736238D02*
X7578581Y-18726714D01*
X7578581Y-18726714D02*
X7597629Y-18717190D01*
X7597629Y-18717190D02*
X7626200Y-18717190D01*
X7626200Y-18717190D02*
X7645248Y-18726714D01*
X7645248Y-18726714D02*
X7654772Y-18736238D01*
X7654772Y-18736238D02*
X7664296Y-18755286D01*
X7664296Y-18755286D02*
X7664296Y-18812429D01*
X7664296Y-18812429D02*
X7654772Y-18831476D01*
X7654772Y-18831476D02*
X7645248Y-18841000D01*
X7645248Y-18841000D02*
X7626200Y-18850524D01*
X7626200Y-18850524D02*
X7597629Y-18850524D01*
X7778581Y-18850524D02*
X7759534Y-18841000D01*
X7759534Y-18841000D02*
X7750010Y-18821952D01*
X7750010Y-18821952D02*
X7750010Y-18650524D01*
X7930962Y-18841000D02*
X7911915Y-18850524D01*
X7911915Y-18850524D02*
X7873819Y-18850524D01*
X7873819Y-18850524D02*
X7854772Y-18841000D01*
X7854772Y-18841000D02*
X7845248Y-18821952D01*
X7845248Y-18821952D02*
X7845248Y-18745762D01*
X7845248Y-18745762D02*
X7854772Y-18726714D01*
X7854772Y-18726714D02*
X7873819Y-18717190D01*
X7873819Y-18717190D02*
X7911915Y-18717190D01*
X7911915Y-18717190D02*
X7930962Y-18726714D01*
X7930962Y-18726714D02*
X7940486Y-18745762D01*
X7940486Y-18745762D02*
X7940486Y-18764810D01*
X7940486Y-18764810D02*
X7845248Y-18783857D01*
X8016677Y-18841000D02*
X8035724Y-18850524D01*
X8035724Y-18850524D02*
X8073819Y-18850524D01*
X8073819Y-18850524D02*
X8092867Y-18841000D01*
X8092867Y-18841000D02*
X8102391Y-18821952D01*
X8102391Y-18821952D02*
X8102391Y-18812429D01*
X8102391Y-18812429D02*
X8092867Y-18793381D01*
X8092867Y-18793381D02*
X8073819Y-18783857D01*
X8073819Y-18783857D02*
X8045248Y-18783857D01*
X8045248Y-18783857D02*
X8026200Y-18774333D01*
X8026200Y-18774333D02*
X8016677Y-18755286D01*
X8016677Y-18755286D02*
X8016677Y-18745762D01*
X8016677Y-18745762D02*
X8026200Y-18726714D01*
X8026200Y-18726714D02*
X8045248Y-18717190D01*
X8045248Y-18717190D02*
X8073819Y-18717190D01*
X8073819Y-18717190D02*
X8092867Y-18726714D01*
X8169058Y-18926714D02*
X8178581Y-18917190D01*
X8178581Y-18917190D02*
X8197629Y-18888619D01*
X8197629Y-18888619D02*
X8207153Y-18869571D01*
X8207153Y-18869571D02*
X8216677Y-18841000D01*
X8216677Y-18841000D02*
X8226200Y-18793381D01*
X8226200Y-18793381D02*
X8226200Y-18755286D01*
X8226200Y-18755286D02*
X8216677Y-18707667D01*
X8216677Y-18707667D02*
X8207153Y-18679095D01*
X8207153Y-18679095D02*
X8197629Y-18660048D01*
X8197629Y-18660048D02*
X8178581Y-18631476D01*
X8178581Y-18631476D02*
X8169058Y-18621952D01*
X8530962Y-18926714D02*
X8521439Y-18917190D01*
X8521439Y-18917190D02*
X8502391Y-18888619D01*
X8502391Y-18888619D02*
X8492867Y-18869571D01*
X8492867Y-18869571D02*
X8483343Y-18841000D01*
X8483343Y-18841000D02*
X8473820Y-18793381D01*
X8473820Y-18793381D02*
X8473820Y-18755286D01*
X8473820Y-18755286D02*
X8483343Y-18707667D01*
X8483343Y-18707667D02*
X8492867Y-18679095D01*
X8492867Y-18679095D02*
X8502391Y-18660048D01*
X8502391Y-18660048D02*
X8521439Y-18631476D01*
X8521439Y-18631476D02*
X8530962Y-18621952D01*
X8607153Y-18717190D02*
X8607153Y-18850524D01*
X8607153Y-18736238D02*
X8616677Y-18726714D01*
X8616677Y-18726714D02*
X8635724Y-18717190D01*
X8635724Y-18717190D02*
X8664296Y-18717190D01*
X8664296Y-18717190D02*
X8683343Y-18726714D01*
X8683343Y-18726714D02*
X8692867Y-18745762D01*
X8692867Y-18745762D02*
X8692867Y-18850524D01*
X8816677Y-18850524D02*
X8797629Y-18841000D01*
X8797629Y-18841000D02*
X8788105Y-18831476D01*
X8788105Y-18831476D02*
X8778581Y-18812429D01*
X8778581Y-18812429D02*
X8778581Y-18755286D01*
X8778581Y-18755286D02*
X8788105Y-18736238D01*
X8788105Y-18736238D02*
X8797629Y-18726714D01*
X8797629Y-18726714D02*
X8816677Y-18717190D01*
X8816677Y-18717190D02*
X8845248Y-18717190D01*
X8845248Y-18717190D02*
X8864296Y-18726714D01*
X8864296Y-18726714D02*
X8873820Y-18736238D01*
X8873820Y-18736238D02*
X8883343Y-18755286D01*
X8883343Y-18755286D02*
X8883343Y-18812429D01*
X8883343Y-18812429D02*
X8873820Y-18831476D01*
X8873820Y-18831476D02*
X8864296Y-18841000D01*
X8864296Y-18841000D02*
X8845248Y-18850524D01*
X8845248Y-18850524D02*
X8816677Y-18850524D01*
X8940486Y-18717190D02*
X9016677Y-18717190D01*
X8969058Y-18650524D02*
X8969058Y-18821952D01*
X8969058Y-18821952D02*
X8978581Y-18841000D01*
X8978581Y-18841000D02*
X8997629Y-18850524D01*
X8997629Y-18850524D02*
X9016677Y-18850524D01*
X9235724Y-18717190D02*
X9235724Y-18917190D01*
X9235724Y-18726714D02*
X9254772Y-18717190D01*
X9254772Y-18717190D02*
X9292867Y-18717190D01*
X9292867Y-18717190D02*
X9311915Y-18726714D01*
X9311915Y-18726714D02*
X9321439Y-18736238D01*
X9321439Y-18736238D02*
X9330962Y-18755286D01*
X9330962Y-18755286D02*
X9330962Y-18812429D01*
X9330962Y-18812429D02*
X9321439Y-18831476D01*
X9321439Y-18831476D02*
X9311915Y-18841000D01*
X9311915Y-18841000D02*
X9292867Y-18850524D01*
X9292867Y-18850524D02*
X9254772Y-18850524D01*
X9254772Y-18850524D02*
X9235724Y-18841000D01*
X9445248Y-18850524D02*
X9426201Y-18841000D01*
X9426201Y-18841000D02*
X9416677Y-18821952D01*
X9416677Y-18821952D02*
X9416677Y-18650524D01*
X9607153Y-18850524D02*
X9607153Y-18745762D01*
X9607153Y-18745762D02*
X9597629Y-18726714D01*
X9597629Y-18726714D02*
X9578582Y-18717190D01*
X9578582Y-18717190D02*
X9540486Y-18717190D01*
X9540486Y-18717190D02*
X9521439Y-18726714D01*
X9607153Y-18841000D02*
X9588105Y-18850524D01*
X9588105Y-18850524D02*
X9540486Y-18850524D01*
X9540486Y-18850524D02*
X9521439Y-18841000D01*
X9521439Y-18841000D02*
X9511915Y-18821952D01*
X9511915Y-18821952D02*
X9511915Y-18802905D01*
X9511915Y-18802905D02*
X9521439Y-18783857D01*
X9521439Y-18783857D02*
X9540486Y-18774333D01*
X9540486Y-18774333D02*
X9588105Y-18774333D01*
X9588105Y-18774333D02*
X9607153Y-18764810D01*
X9673820Y-18717190D02*
X9750010Y-18717190D01*
X9702391Y-18650524D02*
X9702391Y-18821952D01*
X9702391Y-18821952D02*
X9711915Y-18841000D01*
X9711915Y-18841000D02*
X9730962Y-18850524D01*
X9730962Y-18850524D02*
X9750010Y-18850524D01*
X9892867Y-18841000D02*
X9873820Y-18850524D01*
X9873820Y-18850524D02*
X9835724Y-18850524D01*
X9835724Y-18850524D02*
X9816677Y-18841000D01*
X9816677Y-18841000D02*
X9807153Y-18821952D01*
X9807153Y-18821952D02*
X9807153Y-18745762D01*
X9807153Y-18745762D02*
X9816677Y-18726714D01*
X9816677Y-18726714D02*
X9835724Y-18717190D01*
X9835724Y-18717190D02*
X9873820Y-18717190D01*
X9873820Y-18717190D02*
X9892867Y-18726714D01*
X9892867Y-18726714D02*
X9902391Y-18745762D01*
X9902391Y-18745762D02*
X9902391Y-18764810D01*
X9902391Y-18764810D02*
X9807153Y-18783857D01*
X10073820Y-18850524D02*
X10073820Y-18650524D01*
X10073820Y-18841000D02*
X10054772Y-18850524D01*
X10054772Y-18850524D02*
X10016677Y-18850524D01*
X10016677Y-18850524D02*
X9997629Y-18841000D01*
X9997629Y-18841000D02*
X9988105Y-18831476D01*
X9988105Y-18831476D02*
X9978582Y-18812429D01*
X9978582Y-18812429D02*
X9978582Y-18755286D01*
X9978582Y-18755286D02*
X9988105Y-18736238D01*
X9988105Y-18736238D02*
X9997629Y-18726714D01*
X9997629Y-18726714D02*
X10016677Y-18717190D01*
X10016677Y-18717190D02*
X10054772Y-18717190D01*
X10054772Y-18717190D02*
X10073820Y-18726714D01*
X10150010Y-18926714D02*
X10159534Y-18917190D01*
X10159534Y-18917190D02*
X10178582Y-18888619D01*
X10178582Y-18888619D02*
X10188105Y-18869571D01*
X10188105Y-18869571D02*
X10197629Y-18841000D01*
X10197629Y-18841000D02*
X10207153Y-18793381D01*
X10207153Y-18793381D02*
X10207153Y-18755286D01*
X10207153Y-18755286D02*
X10197629Y-18707667D01*
X10197629Y-18707667D02*
X10188105Y-18679095D01*
X10188105Y-18679095D02*
X10178582Y-18660048D01*
X10178582Y-18660048D02*
X10159534Y-18631476D01*
X10159534Y-18631476D02*
X10150010Y-18621952D01*
X2926200Y-18978000D02*
X2926200Y-19178000D01*
X2826200Y-19078000D02*
X3026200Y-19078000D01*
X3359533Y-19037190D02*
X3359533Y-19170524D01*
X3311914Y-18961000D02*
X3264295Y-19103857D01*
X3264295Y-19103857D02*
X3388105Y-19103857D01*
X3464295Y-19151476D02*
X3473819Y-19161000D01*
X3473819Y-19161000D02*
X3464295Y-19170524D01*
X3464295Y-19170524D02*
X3454771Y-19161000D01*
X3454771Y-19161000D02*
X3464295Y-19151476D01*
X3464295Y-19151476D02*
X3464295Y-19170524D01*
X3597628Y-18970524D02*
X3616676Y-18970524D01*
X3616676Y-18970524D02*
X3635724Y-18980048D01*
X3635724Y-18980048D02*
X3645248Y-18989571D01*
X3645248Y-18989571D02*
X3654771Y-19008619D01*
X3654771Y-19008619D02*
X3664295Y-19046714D01*
X3664295Y-19046714D02*
X3664295Y-19094333D01*
X3664295Y-19094333D02*
X3654771Y-19132429D01*
X3654771Y-19132429D02*
X3645248Y-19151476D01*
X3645248Y-19151476D02*
X3635724Y-19161000D01*
X3635724Y-19161000D02*
X3616676Y-19170524D01*
X3616676Y-19170524D02*
X3597628Y-19170524D01*
X3597628Y-19170524D02*
X3578581Y-19161000D01*
X3578581Y-19161000D02*
X3569057Y-19151476D01*
X3569057Y-19151476D02*
X3559533Y-19132429D01*
X3559533Y-19132429D02*
X3550009Y-19094333D01*
X3550009Y-19094333D02*
X3550009Y-19046714D01*
X3550009Y-19046714D02*
X3559533Y-19008619D01*
X3559533Y-19008619D02*
X3569057Y-18989571D01*
X3569057Y-18989571D02*
X3578581Y-18980048D01*
X3578581Y-18980048D02*
X3597628Y-18970524D01*
X3788105Y-18970524D02*
X3807152Y-18970524D01*
X3807152Y-18970524D02*
X3826200Y-18980048D01*
X3826200Y-18980048D02*
X3835724Y-18989571D01*
X3835724Y-18989571D02*
X3845248Y-19008619D01*
X3845248Y-19008619D02*
X3854771Y-19046714D01*
X3854771Y-19046714D02*
X3854771Y-19094333D01*
X3854771Y-19094333D02*
X3845248Y-19132429D01*
X3845248Y-19132429D02*
X3835724Y-19151476D01*
X3835724Y-19151476D02*
X3826200Y-19161000D01*
X3826200Y-19161000D02*
X3807152Y-19170524D01*
X3807152Y-19170524D02*
X3788105Y-19170524D01*
X3788105Y-19170524D02*
X3769057Y-19161000D01*
X3769057Y-19161000D02*
X3759533Y-19151476D01*
X3759533Y-19151476D02*
X3750009Y-19132429D01*
X3750009Y-19132429D02*
X3740486Y-19094333D01*
X3740486Y-19094333D02*
X3740486Y-19046714D01*
X3740486Y-19046714D02*
X3750009Y-19008619D01*
X3750009Y-19008619D02*
X3759533Y-18989571D01*
X3759533Y-18989571D02*
X3769057Y-18980048D01*
X3769057Y-18980048D02*
X3788105Y-18970524D01*
X3978581Y-18970524D02*
X3997629Y-18970524D01*
X3997629Y-18970524D02*
X4016676Y-18980048D01*
X4016676Y-18980048D02*
X4026200Y-18989571D01*
X4026200Y-18989571D02*
X4035724Y-19008619D01*
X4035724Y-19008619D02*
X4045248Y-19046714D01*
X4045248Y-19046714D02*
X4045248Y-19094333D01*
X4045248Y-19094333D02*
X4035724Y-19132429D01*
X4035724Y-19132429D02*
X4026200Y-19151476D01*
X4026200Y-19151476D02*
X4016676Y-19161000D01*
X4016676Y-19161000D02*
X3997629Y-19170524D01*
X3997629Y-19170524D02*
X3978581Y-19170524D01*
X3978581Y-19170524D02*
X3959533Y-19161000D01*
X3959533Y-19161000D02*
X3950009Y-19151476D01*
X3950009Y-19151476D02*
X3940486Y-19132429D01*
X3940486Y-19132429D02*
X3930962Y-19094333D01*
X3930962Y-19094333D02*
X3930962Y-19046714D01*
X3930962Y-19046714D02*
X3940486Y-19008619D01*
X3940486Y-19008619D02*
X3950009Y-18989571D01*
X3950009Y-18989571D02*
X3959533Y-18980048D01*
X3959533Y-18980048D02*
X3978581Y-18970524D01*
X4130962Y-19170524D02*
X4130962Y-19037190D01*
X4130962Y-19056238D02*
X4140486Y-19046714D01*
X4140486Y-19046714D02*
X4159533Y-19037190D01*
X4159533Y-19037190D02*
X4188105Y-19037190D01*
X4188105Y-19037190D02*
X4207152Y-19046714D01*
X4207152Y-19046714D02*
X4216676Y-19065762D01*
X4216676Y-19065762D02*
X4216676Y-19170524D01*
X4216676Y-19065762D02*
X4226200Y-19046714D01*
X4226200Y-19046714D02*
X4245248Y-19037190D01*
X4245248Y-19037190D02*
X4273819Y-19037190D01*
X4273819Y-19037190D02*
X4292867Y-19046714D01*
X4292867Y-19046714D02*
X4302391Y-19065762D01*
X4302391Y-19065762D02*
X4302391Y-19170524D01*
X4397629Y-19170524D02*
X4397629Y-19037190D01*
X4397629Y-19056238D02*
X4407152Y-19046714D01*
X4407152Y-19046714D02*
X4426200Y-19037190D01*
X4426200Y-19037190D02*
X4454772Y-19037190D01*
X4454772Y-19037190D02*
X4473819Y-19046714D01*
X4473819Y-19046714D02*
X4483343Y-19065762D01*
X4483343Y-19065762D02*
X4483343Y-19170524D01*
X4483343Y-19065762D02*
X4492867Y-19046714D01*
X4492867Y-19046714D02*
X4511914Y-19037190D01*
X4511914Y-19037190D02*
X4540486Y-19037190D01*
X4540486Y-19037190D02*
X4559533Y-19046714D01*
X4559533Y-19046714D02*
X4569057Y-19065762D01*
X4569057Y-19065762D02*
X4569057Y-19170524D01*
X4959533Y-18961000D02*
X4788105Y-19218143D01*
X5216676Y-18970524D02*
X5235724Y-18970524D01*
X5235724Y-18970524D02*
X5254772Y-18980048D01*
X5254772Y-18980048D02*
X5264295Y-18989571D01*
X5264295Y-18989571D02*
X5273819Y-19008619D01*
X5273819Y-19008619D02*
X5283343Y-19046714D01*
X5283343Y-19046714D02*
X5283343Y-19094333D01*
X5283343Y-19094333D02*
X5273819Y-19132429D01*
X5273819Y-19132429D02*
X5264295Y-19151476D01*
X5264295Y-19151476D02*
X5254772Y-19161000D01*
X5254772Y-19161000D02*
X5235724Y-19170524D01*
X5235724Y-19170524D02*
X5216676Y-19170524D01*
X5216676Y-19170524D02*
X5197629Y-19161000D01*
X5197629Y-19161000D02*
X5188105Y-19151476D01*
X5188105Y-19151476D02*
X5178581Y-19132429D01*
X5178581Y-19132429D02*
X5169057Y-19094333D01*
X5169057Y-19094333D02*
X5169057Y-19046714D01*
X5169057Y-19046714D02*
X5178581Y-19008619D01*
X5178581Y-19008619D02*
X5188105Y-18989571D01*
X5188105Y-18989571D02*
X5197629Y-18980048D01*
X5197629Y-18980048D02*
X5216676Y-18970524D01*
X5369057Y-19151476D02*
X5378581Y-19161000D01*
X5378581Y-19161000D02*
X5369057Y-19170524D01*
X5369057Y-19170524D02*
X5359534Y-19161000D01*
X5359534Y-19161000D02*
X5369057Y-19151476D01*
X5369057Y-19151476D02*
X5369057Y-19170524D01*
X5569057Y-19170524D02*
X5454772Y-19170524D01*
X5511914Y-19170524D02*
X5511914Y-18970524D01*
X5511914Y-18970524D02*
X5492867Y-18999095D01*
X5492867Y-18999095D02*
X5473819Y-19018143D01*
X5473819Y-19018143D02*
X5454772Y-19027667D01*
X5750010Y-18970524D02*
X5654772Y-18970524D01*
X5654772Y-18970524D02*
X5645248Y-19065762D01*
X5645248Y-19065762D02*
X5654772Y-19056238D01*
X5654772Y-19056238D02*
X5673819Y-19046714D01*
X5673819Y-19046714D02*
X5721438Y-19046714D01*
X5721438Y-19046714D02*
X5740486Y-19056238D01*
X5740486Y-19056238D02*
X5750010Y-19065762D01*
X5750010Y-19065762D02*
X5759533Y-19084810D01*
X5759533Y-19084810D02*
X5759533Y-19132429D01*
X5759533Y-19132429D02*
X5750010Y-19151476D01*
X5750010Y-19151476D02*
X5740486Y-19161000D01*
X5740486Y-19161000D02*
X5721438Y-19170524D01*
X5721438Y-19170524D02*
X5673819Y-19170524D01*
X5673819Y-19170524D02*
X5654772Y-19161000D01*
X5654772Y-19161000D02*
X5645248Y-19151476D01*
X5826200Y-18970524D02*
X5959533Y-18970524D01*
X5959533Y-18970524D02*
X5873819Y-19170524D01*
X6130962Y-18970524D02*
X6035724Y-18970524D01*
X6035724Y-18970524D02*
X6026200Y-19065762D01*
X6026200Y-19065762D02*
X6035724Y-19056238D01*
X6035724Y-19056238D02*
X6054772Y-19046714D01*
X6054772Y-19046714D02*
X6102391Y-19046714D01*
X6102391Y-19046714D02*
X6121438Y-19056238D01*
X6121438Y-19056238D02*
X6130962Y-19065762D01*
X6130962Y-19065762D02*
X6140486Y-19084810D01*
X6140486Y-19084810D02*
X6140486Y-19132429D01*
X6140486Y-19132429D02*
X6130962Y-19151476D01*
X6130962Y-19151476D02*
X6121438Y-19161000D01*
X6121438Y-19161000D02*
X6102391Y-19170524D01*
X6102391Y-19170524D02*
X6054772Y-19170524D01*
X6054772Y-19170524D02*
X6035724Y-19161000D01*
X6035724Y-19161000D02*
X6026200Y-19151476D01*
X6216676Y-18970524D02*
X6216676Y-19008619D01*
X6292867Y-18970524D02*
X6292867Y-19008619D01*
X6588105Y-19246714D02*
X6578581Y-19237190D01*
X6578581Y-19237190D02*
X6559534Y-19208619D01*
X6559534Y-19208619D02*
X6550010Y-19189571D01*
X6550010Y-19189571D02*
X6540486Y-19161000D01*
X6540486Y-19161000D02*
X6530962Y-19113381D01*
X6530962Y-19113381D02*
X6530962Y-19075286D01*
X6530962Y-19075286D02*
X6540486Y-19027667D01*
X6540486Y-19027667D02*
X6550010Y-18999095D01*
X6550010Y-18999095D02*
X6559534Y-18980048D01*
X6559534Y-18980048D02*
X6578581Y-18951476D01*
X6578581Y-18951476D02*
X6588105Y-18941952D01*
X6692867Y-19056238D02*
X6673819Y-19046714D01*
X6673819Y-19046714D02*
X6664295Y-19037190D01*
X6664295Y-19037190D02*
X6654772Y-19018143D01*
X6654772Y-19018143D02*
X6654772Y-19008619D01*
X6654772Y-19008619D02*
X6664295Y-18989571D01*
X6664295Y-18989571D02*
X6673819Y-18980048D01*
X6673819Y-18980048D02*
X6692867Y-18970524D01*
X6692867Y-18970524D02*
X6730962Y-18970524D01*
X6730962Y-18970524D02*
X6750010Y-18980048D01*
X6750010Y-18980048D02*
X6759534Y-18989571D01*
X6759534Y-18989571D02*
X6769057Y-19008619D01*
X6769057Y-19008619D02*
X6769057Y-19018143D01*
X6769057Y-19018143D02*
X6759534Y-19037190D01*
X6759534Y-19037190D02*
X6750010Y-19046714D01*
X6750010Y-19046714D02*
X6730962Y-19056238D01*
X6730962Y-19056238D02*
X6692867Y-19056238D01*
X6692867Y-19056238D02*
X6673819Y-19065762D01*
X6673819Y-19065762D02*
X6664295Y-19075286D01*
X6664295Y-19075286D02*
X6654772Y-19094333D01*
X6654772Y-19094333D02*
X6654772Y-19132429D01*
X6654772Y-19132429D02*
X6664295Y-19151476D01*
X6664295Y-19151476D02*
X6673819Y-19161000D01*
X6673819Y-19161000D02*
X6692867Y-19170524D01*
X6692867Y-19170524D02*
X6730962Y-19170524D01*
X6730962Y-19170524D02*
X6750010Y-19161000D01*
X6750010Y-19161000D02*
X6759534Y-19151476D01*
X6759534Y-19151476D02*
X6769057Y-19132429D01*
X6769057Y-19132429D02*
X6769057Y-19094333D01*
X6769057Y-19094333D02*
X6759534Y-19075286D01*
X6759534Y-19075286D02*
X6750010Y-19065762D01*
X6750010Y-19065762D02*
X6730962Y-19056238D01*
X6835724Y-18970524D02*
X6969057Y-18970524D01*
X6969057Y-18970524D02*
X6883343Y-19170524D01*
X7197629Y-19170524D02*
X7197629Y-18970524D01*
X7283343Y-19170524D02*
X7283343Y-19065762D01*
X7283343Y-19065762D02*
X7273819Y-19046714D01*
X7273819Y-19046714D02*
X7254772Y-19037190D01*
X7254772Y-19037190D02*
X7226200Y-19037190D01*
X7226200Y-19037190D02*
X7207153Y-19046714D01*
X7207153Y-19046714D02*
X7197629Y-19056238D01*
X7407153Y-19170524D02*
X7388105Y-19161000D01*
X7388105Y-19161000D02*
X7378581Y-19151476D01*
X7378581Y-19151476D02*
X7369057Y-19132429D01*
X7369057Y-19132429D02*
X7369057Y-19075286D01*
X7369057Y-19075286D02*
X7378581Y-19056238D01*
X7378581Y-19056238D02*
X7388105Y-19046714D01*
X7388105Y-19046714D02*
X7407153Y-19037190D01*
X7407153Y-19037190D02*
X7435724Y-19037190D01*
X7435724Y-19037190D02*
X7454772Y-19046714D01*
X7454772Y-19046714D02*
X7464296Y-19056238D01*
X7464296Y-19056238D02*
X7473819Y-19075286D01*
X7473819Y-19075286D02*
X7473819Y-19132429D01*
X7473819Y-19132429D02*
X7464296Y-19151476D01*
X7464296Y-19151476D02*
X7454772Y-19161000D01*
X7454772Y-19161000D02*
X7435724Y-19170524D01*
X7435724Y-19170524D02*
X7407153Y-19170524D01*
X7588105Y-19170524D02*
X7569057Y-19161000D01*
X7569057Y-19161000D02*
X7559534Y-19141952D01*
X7559534Y-19141952D02*
X7559534Y-18970524D01*
X7740486Y-19161000D02*
X7721438Y-19170524D01*
X7721438Y-19170524D02*
X7683343Y-19170524D01*
X7683343Y-19170524D02*
X7664296Y-19161000D01*
X7664296Y-19161000D02*
X7654772Y-19141952D01*
X7654772Y-19141952D02*
X7654772Y-19065762D01*
X7654772Y-19065762D02*
X7664296Y-19046714D01*
X7664296Y-19046714D02*
X7683343Y-19037190D01*
X7683343Y-19037190D02*
X7721438Y-19037190D01*
X7721438Y-19037190D02*
X7740486Y-19046714D01*
X7740486Y-19046714D02*
X7750010Y-19065762D01*
X7750010Y-19065762D02*
X7750010Y-19084810D01*
X7750010Y-19084810D02*
X7654772Y-19103857D01*
X7826200Y-19161000D02*
X7845248Y-19170524D01*
X7845248Y-19170524D02*
X7883343Y-19170524D01*
X7883343Y-19170524D02*
X7902391Y-19161000D01*
X7902391Y-19161000D02*
X7911915Y-19141952D01*
X7911915Y-19141952D02*
X7911915Y-19132429D01*
X7911915Y-19132429D02*
X7902391Y-19113381D01*
X7902391Y-19113381D02*
X7883343Y-19103857D01*
X7883343Y-19103857D02*
X7854772Y-19103857D01*
X7854772Y-19103857D02*
X7835724Y-19094333D01*
X7835724Y-19094333D02*
X7826200Y-19075286D01*
X7826200Y-19075286D02*
X7826200Y-19065762D01*
X7826200Y-19065762D02*
X7835724Y-19046714D01*
X7835724Y-19046714D02*
X7854772Y-19037190D01*
X7854772Y-19037190D02*
X7883343Y-19037190D01*
X7883343Y-19037190D02*
X7902391Y-19046714D01*
X7978581Y-19246714D02*
X7988105Y-19237190D01*
X7988105Y-19237190D02*
X8007153Y-19208619D01*
X8007153Y-19208619D02*
X8016677Y-19189571D01*
X8016677Y-19189571D02*
X8026200Y-19161000D01*
X8026200Y-19161000D02*
X8035724Y-19113381D01*
X8035724Y-19113381D02*
X8035724Y-19075286D01*
X8035724Y-19075286D02*
X8026200Y-19027667D01*
X8026200Y-19027667D02*
X8016677Y-18999095D01*
X8016677Y-18999095D02*
X8007153Y-18980048D01*
X8007153Y-18980048D02*
X7988105Y-18951476D01*
X7988105Y-18951476D02*
X7978581Y-18941952D01*
X8340486Y-19246714D02*
X8330962Y-19237190D01*
X8330962Y-19237190D02*
X8311915Y-19208619D01*
X8311915Y-19208619D02*
X8302391Y-19189571D01*
X8302391Y-19189571D02*
X8292867Y-19161000D01*
X8292867Y-19161000D02*
X8283343Y-19113381D01*
X8283343Y-19113381D02*
X8283343Y-19075286D01*
X8283343Y-19075286D02*
X8292867Y-19027667D01*
X8292867Y-19027667D02*
X8302391Y-18999095D01*
X8302391Y-18999095D02*
X8311915Y-18980048D01*
X8311915Y-18980048D02*
X8330962Y-18951476D01*
X8330962Y-18951476D02*
X8340486Y-18941952D01*
X8416677Y-19037190D02*
X8416677Y-19170524D01*
X8416677Y-19056238D02*
X8426200Y-19046714D01*
X8426200Y-19046714D02*
X8445248Y-19037190D01*
X8445248Y-19037190D02*
X8473820Y-19037190D01*
X8473820Y-19037190D02*
X8492867Y-19046714D01*
X8492867Y-19046714D02*
X8502391Y-19065762D01*
X8502391Y-19065762D02*
X8502391Y-19170524D01*
X8626200Y-19170524D02*
X8607153Y-19161000D01*
X8607153Y-19161000D02*
X8597629Y-19151476D01*
X8597629Y-19151476D02*
X8588105Y-19132429D01*
X8588105Y-19132429D02*
X8588105Y-19075286D01*
X8588105Y-19075286D02*
X8597629Y-19056238D01*
X8597629Y-19056238D02*
X8607153Y-19046714D01*
X8607153Y-19046714D02*
X8626200Y-19037190D01*
X8626200Y-19037190D02*
X8654772Y-19037190D01*
X8654772Y-19037190D02*
X8673820Y-19046714D01*
X8673820Y-19046714D02*
X8683343Y-19056238D01*
X8683343Y-19056238D02*
X8692867Y-19075286D01*
X8692867Y-19075286D02*
X8692867Y-19132429D01*
X8692867Y-19132429D02*
X8683343Y-19151476D01*
X8683343Y-19151476D02*
X8673820Y-19161000D01*
X8673820Y-19161000D02*
X8654772Y-19170524D01*
X8654772Y-19170524D02*
X8626200Y-19170524D01*
X8750010Y-19037190D02*
X8826200Y-19037190D01*
X8778581Y-18970524D02*
X8778581Y-19141952D01*
X8778581Y-19141952D02*
X8788105Y-19161000D01*
X8788105Y-19161000D02*
X8807153Y-19170524D01*
X8807153Y-19170524D02*
X8826200Y-19170524D01*
X9045248Y-19037190D02*
X9045248Y-19237190D01*
X9045248Y-19046714D02*
X9064296Y-19037190D01*
X9064296Y-19037190D02*
X9102391Y-19037190D01*
X9102391Y-19037190D02*
X9121439Y-19046714D01*
X9121439Y-19046714D02*
X9130962Y-19056238D01*
X9130962Y-19056238D02*
X9140486Y-19075286D01*
X9140486Y-19075286D02*
X9140486Y-19132429D01*
X9140486Y-19132429D02*
X9130962Y-19151476D01*
X9130962Y-19151476D02*
X9121439Y-19161000D01*
X9121439Y-19161000D02*
X9102391Y-19170524D01*
X9102391Y-19170524D02*
X9064296Y-19170524D01*
X9064296Y-19170524D02*
X9045248Y-19161000D01*
X9254772Y-19170524D02*
X9235724Y-19161000D01*
X9235724Y-19161000D02*
X9226201Y-19141952D01*
X9226201Y-19141952D02*
X9226201Y-18970524D01*
X9416677Y-19170524D02*
X9416677Y-19065762D01*
X9416677Y-19065762D02*
X9407153Y-19046714D01*
X9407153Y-19046714D02*
X9388105Y-19037190D01*
X9388105Y-19037190D02*
X9350010Y-19037190D01*
X9350010Y-19037190D02*
X9330962Y-19046714D01*
X9416677Y-19161000D02*
X9397629Y-19170524D01*
X9397629Y-19170524D02*
X9350010Y-19170524D01*
X9350010Y-19170524D02*
X9330962Y-19161000D01*
X9330962Y-19161000D02*
X9321439Y-19141952D01*
X9321439Y-19141952D02*
X9321439Y-19122905D01*
X9321439Y-19122905D02*
X9330962Y-19103857D01*
X9330962Y-19103857D02*
X9350010Y-19094333D01*
X9350010Y-19094333D02*
X9397629Y-19094333D01*
X9397629Y-19094333D02*
X9416677Y-19084810D01*
X9483343Y-19037190D02*
X9559534Y-19037190D01*
X9511915Y-18970524D02*
X9511915Y-19141952D01*
X9511915Y-19141952D02*
X9521439Y-19161000D01*
X9521439Y-19161000D02*
X9540486Y-19170524D01*
X9540486Y-19170524D02*
X9559534Y-19170524D01*
X9702391Y-19161000D02*
X9683343Y-19170524D01*
X9683343Y-19170524D02*
X9645248Y-19170524D01*
X9645248Y-19170524D02*
X9626201Y-19161000D01*
X9626201Y-19161000D02*
X9616677Y-19141952D01*
X9616677Y-19141952D02*
X9616677Y-19065762D01*
X9616677Y-19065762D02*
X9626201Y-19046714D01*
X9626201Y-19046714D02*
X9645248Y-19037190D01*
X9645248Y-19037190D02*
X9683343Y-19037190D01*
X9683343Y-19037190D02*
X9702391Y-19046714D01*
X9702391Y-19046714D02*
X9711915Y-19065762D01*
X9711915Y-19065762D02*
X9711915Y-19084810D01*
X9711915Y-19084810D02*
X9616677Y-19103857D01*
X9883343Y-19170524D02*
X9883343Y-18970524D01*
X9883343Y-19161000D02*
X9864296Y-19170524D01*
X9864296Y-19170524D02*
X9826201Y-19170524D01*
X9826201Y-19170524D02*
X9807153Y-19161000D01*
X9807153Y-19161000D02*
X9797629Y-19151476D01*
X9797629Y-19151476D02*
X9788105Y-19132429D01*
X9788105Y-19132429D02*
X9788105Y-19075286D01*
X9788105Y-19075286D02*
X9797629Y-19056238D01*
X9797629Y-19056238D02*
X9807153Y-19046714D01*
X9807153Y-19046714D02*
X9826201Y-19037190D01*
X9826201Y-19037190D02*
X9864296Y-19037190D01*
X9864296Y-19037190D02*
X9883343Y-19046714D01*
X9959534Y-19246714D02*
X9969058Y-19237190D01*
X9969058Y-19237190D02*
X9988105Y-19208619D01*
X9988105Y-19208619D02*
X9997629Y-19189571D01*
X9997629Y-19189571D02*
X10007153Y-19161000D01*
X10007153Y-19161000D02*
X10016677Y-19113381D01*
X10016677Y-19113381D02*
X10016677Y-19075286D01*
X10016677Y-19075286D02*
X10007153Y-19027667D01*
X10007153Y-19027667D02*
X9997629Y-18999095D01*
X9997629Y-18999095D02*
X9988105Y-18980048D01*
X9988105Y-18980048D02*
X9969058Y-18951476D01*
X9969058Y-18951476D02*
X9959534Y-18941952D01*
M02*
