G04 #@! TF.GenerationSoftware,KiCad,Pcbnew,7.0.2*
G04 #@! TF.CreationDate,2023-11-07T00:29:41+01:00*
G04 #@! TF.ProjectId,TKLTheSecond,544b4c54-6865-4536-9563-6f6e642e6b69,rev?*
G04 #@! TF.SameCoordinates,Original*
G04 #@! TF.FileFunction,Soldermask,Top*
G04 #@! TF.FilePolarity,Negative*
%FSLAX46Y46*%
G04 Gerber Fmt 4.6, Leading zero omitted, Abs format (unit mm)*
G04 Created by KiCad (PCBNEW 7.0.2) date 2023-11-07 00:29:41*
%MOMM*%
%LPD*%
G01*
G04 APERTURE LIST*
G04 Aperture macros list*
%AMRoundRect*
0 Rectangle with rounded corners*
0 $1 Rounding radius*
0 $2 $3 $4 $5 $6 $7 $8 $9 X,Y pos of 4 corners*
0 Add a 4 corners polygon primitive as box body*
4,1,4,$2,$3,$4,$5,$6,$7,$8,$9,$2,$3,0*
0 Add four circle primitives for the rounded corners*
1,1,$1+$1,$2,$3*
1,1,$1+$1,$4,$5*
1,1,$1+$1,$6,$7*
1,1,$1+$1,$8,$9*
0 Add four rect primitives between the rounded corners*
20,1,$1+$1,$2,$3,$4,$5,0*
20,1,$1+$1,$4,$5,$6,$7,0*
20,1,$1+$1,$6,$7,$8,$9,0*
20,1,$1+$1,$8,$9,$2,$3,0*%
G04 Aperture macros list end*
%ADD10R,0.850000X0.850000*%
%ADD11O,0.850000X0.850000*%
%ADD12C,1.750000*%
%ADD13C,3.050000*%
%ADD14C,4.000000*%
%ADD15R,2.000000X1.100000*%
%ADD16RoundRect,0.250000X0.650000X-0.325000X0.650000X0.325000X-0.650000X0.325000X-0.650000X-0.325000X0*%
%ADD17R,2.180000X1.600000*%
%ADD18C,0.700000*%
%ADD19O,0.900000X1.700000*%
%ADD20O,0.900000X2.400000*%
G04 APERTURE END LIST*
D10*
X34544000Y-160544000D03*
D11*
X34544000Y-161544000D03*
D12*
X264850529Y-147637624D03*
D13*
X263580529Y-150177624D03*
D14*
X259770529Y-147637624D03*
D13*
X257230529Y-152717624D03*
D12*
X254690529Y-147637624D03*
D15*
X85957881Y-85837576D03*
X85957881Y-84137576D03*
X85957881Y-82437576D03*
X81157881Y-82437576D03*
X81157881Y-84137576D03*
X81157881Y-85837576D03*
D12*
X379150625Y-166687640D03*
D13*
X377880625Y-169227640D03*
D14*
X374070625Y-166687640D03*
D13*
X371530625Y-171767640D03*
D12*
X368990625Y-166687640D03*
X300569309Y-147637624D03*
D13*
X299299309Y-150177624D03*
D14*
X295489309Y-147637624D03*
D13*
X292949309Y-152717624D03*
D12*
X290409309Y-147637624D03*
X136262921Y-109537592D03*
D13*
X134992921Y-112077592D03*
D14*
X131182921Y-109537592D03*
D13*
X128642921Y-114617592D03*
D12*
X126102921Y-109537592D03*
X226750497Y-147637624D03*
D13*
X225480497Y-150177624D03*
D14*
X221670497Y-147637624D03*
D13*
X219130497Y-152717624D03*
D12*
X216590497Y-147637624D03*
D15*
X276458041Y-85837576D03*
X276458041Y-84137576D03*
X276458041Y-82437576D03*
X271658041Y-82437576D03*
X271658041Y-84137576D03*
X271658041Y-85837576D03*
D12*
X83875377Y-128587608D03*
D13*
X82605377Y-131127608D03*
D14*
X78795377Y-128587608D03*
D13*
X76255377Y-133667608D03*
D12*
X73715377Y-128587608D03*
D15*
X90682889Y-101487592D03*
X90682889Y-103187592D03*
X90682889Y-104887592D03*
X95482889Y-104887592D03*
X95482889Y-103187592D03*
X95482889Y-101487592D03*
X162157945Y-85837576D03*
X162157945Y-84137576D03*
X162157945Y-82437576D03*
X157357945Y-82437576D03*
X157357945Y-84137576D03*
X157357945Y-85837576D03*
D12*
X307713065Y-90487576D03*
D13*
X306443065Y-93027576D03*
D14*
X302633065Y-90487576D03*
D13*
X300093065Y-95567576D03*
D12*
X297553065Y-90487576D03*
X126737913Y-61912552D03*
D13*
X125467913Y-64452552D03*
D14*
X121657913Y-61912552D03*
D13*
X119117913Y-66992552D03*
D12*
X116577913Y-61912552D03*
X131500417Y-147637624D03*
D13*
X130230417Y-150177624D03*
D14*
X126420417Y-147637624D03*
D13*
X123880417Y-152717624D03*
D12*
X121340417Y-147637624D03*
X69567945Y-90487504D03*
D13*
X68297945Y-93027504D03*
D14*
X64487945Y-90487504D03*
D13*
X61947945Y-95567504D03*
D12*
X59407945Y-90487504D03*
D15*
X204982985Y-101487592D03*
X204982985Y-103187592D03*
X204982985Y-104887592D03*
X209782985Y-104887592D03*
X209782985Y-103187592D03*
X209782985Y-101487592D03*
D12*
X102925393Y-128587608D03*
D13*
X101655393Y-131127608D03*
D14*
X97845393Y-128587608D03*
D13*
X95305393Y-133667608D03*
D12*
X92765393Y-128587608D03*
D15*
X181170465Y-139587624D03*
X181170465Y-141287624D03*
X181170465Y-142987624D03*
X185970465Y-142987624D03*
X185970465Y-141287624D03*
X185970465Y-139587624D03*
X293089309Y-139587624D03*
X293089309Y-141287624D03*
X293089309Y-142987624D03*
X297889309Y-142987624D03*
X297889309Y-141287624D03*
X297889309Y-139587624D03*
X271695537Y-123937608D03*
X271695537Y-122237608D03*
X271695537Y-120537608D03*
X266895537Y-120537608D03*
X266895537Y-122237608D03*
X266895537Y-123937608D03*
X185932969Y-101487592D03*
X185932969Y-103187592D03*
X185932969Y-104887592D03*
X190732969Y-104887592D03*
X190732969Y-103187592D03*
X190732969Y-101487592D03*
D12*
X231513001Y-109537592D03*
D13*
X230243001Y-112077592D03*
D14*
X226433001Y-109537592D03*
D13*
X223893001Y-114617592D03*
D12*
X221353001Y-109537592D03*
X198175473Y-128587608D03*
D13*
X196905473Y-131127608D03*
D14*
X193095473Y-128587608D03*
D13*
X190555473Y-133667608D03*
D12*
X188015473Y-128587608D03*
X243399049Y-166687440D03*
D13*
X242129049Y-169227440D03*
D14*
X238319049Y-166687440D03*
D13*
X235779049Y-171767440D03*
D12*
X233239049Y-166687440D03*
D15*
X47820329Y-101487540D03*
X47820329Y-103187540D03*
X47820329Y-104887540D03*
X52620329Y-104887540D03*
X52620329Y-103187540D03*
X52620329Y-101487540D03*
X147832937Y-101487592D03*
X147832937Y-103187592D03*
X147832937Y-104887592D03*
X152632937Y-104887592D03*
X152632937Y-103187592D03*
X152632937Y-101487592D03*
D12*
X117212905Y-109537592D03*
D13*
X115942905Y-112077592D03*
D14*
X112132905Y-109537592D03*
D13*
X109592905Y-114617592D03*
D12*
X107052905Y-109537592D03*
X241038009Y-90487576D03*
D13*
X239768009Y-93027576D03*
D14*
X235958009Y-90487576D03*
D13*
X233418009Y-95567576D03*
D12*
X230878009Y-90487576D03*
D15*
X290708057Y-53862552D03*
X290708057Y-55562552D03*
X290708057Y-57262552D03*
X295508057Y-57262552D03*
X295508057Y-55562552D03*
X295508057Y-53862552D03*
X371670625Y-53862552D03*
X371670625Y-55562552D03*
X371670625Y-57262552D03*
X376470625Y-57262552D03*
X376470625Y-55562552D03*
X376470625Y-53862552D03*
X43057849Y-53862552D03*
X43057849Y-55562552D03*
X43057849Y-57262552D03*
X47857849Y-57262552D03*
X47857849Y-55562552D03*
X47857849Y-53862552D03*
X119257913Y-53862552D03*
X119257913Y-55562552D03*
X119257913Y-57262552D03*
X124057913Y-57262552D03*
X124057913Y-55562552D03*
X124057913Y-53862552D03*
D12*
X217225489Y-128587608D03*
D13*
X215955489Y-131127608D03*
D14*
X212145489Y-128587608D03*
D13*
X209605489Y-133667608D03*
D12*
X207065489Y-128587608D03*
X76711689Y-166687440D03*
D13*
X75441689Y-169227440D03*
D14*
X71631689Y-166687440D03*
D13*
X69091689Y-171767440D03*
D12*
X66551689Y-166687440D03*
D16*
X67564000Y-43639000D03*
X67564000Y-40689000D03*
D12*
X171961609Y-166687440D03*
D13*
X170691609Y-169227440D03*
D14*
X166881609Y-166687440D03*
D13*
X164341609Y-171767440D03*
D12*
X161801609Y-166687440D03*
D15*
X195495473Y-123937608D03*
X195495473Y-122237608D03*
X195495473Y-120537608D03*
X190695473Y-120537608D03*
X190695473Y-122237608D03*
X190695473Y-123937608D03*
X85920385Y-139587624D03*
X85920385Y-141287624D03*
X85920385Y-142987624D03*
X90720385Y-142987624D03*
X90720385Y-141287624D03*
X90720385Y-139587624D03*
D12*
X107687897Y-90487576D03*
D13*
X106417897Y-93027576D03*
D14*
X102607897Y-90487576D03*
D13*
X100067897Y-95567576D03*
D12*
X97527897Y-90487576D03*
X112450401Y-147637624D03*
D13*
X111180401Y-150177624D03*
D14*
X107370401Y-147637624D03*
D13*
X104830401Y-152717624D03*
D12*
X102290401Y-147637624D03*
X169600449Y-147637624D03*
D13*
X168330449Y-150177624D03*
D14*
X164520449Y-147637624D03*
D13*
X161980449Y-152717624D03*
D12*
X159440449Y-147637624D03*
X245800513Y-147637624D03*
D13*
X244530513Y-150177624D03*
D14*
X240720513Y-147637624D03*
D13*
X238180513Y-152717624D03*
D12*
X235640513Y-147637624D03*
X379150625Y-61912552D03*
D13*
X377880625Y-64452552D03*
D14*
X374070625Y-61912552D03*
D13*
X371530625Y-66992552D03*
D12*
X368990625Y-61912552D03*
X202937977Y-90487576D03*
D13*
X201667977Y-93027576D03*
D14*
X197857977Y-90487576D03*
D13*
X195317977Y-95567576D03*
D12*
X192777977Y-90487576D03*
D15*
X302651813Y-123937608D03*
X302651813Y-122237608D03*
X302651813Y-120537608D03*
X297851813Y-120537608D03*
X297851813Y-122237608D03*
X297851813Y-123937608D03*
D12*
X52938905Y-166687440D03*
D13*
X51668905Y-169227440D03*
D14*
X47858905Y-166687440D03*
D13*
X45318905Y-171767440D03*
D12*
X42778905Y-166687440D03*
X255325521Y-128587608D03*
D13*
X254055521Y-131127608D03*
D14*
X250245521Y-128587608D03*
D13*
X247705521Y-133667608D03*
D12*
X245165521Y-128587608D03*
X274375537Y-128587608D03*
D13*
X273105537Y-131127608D03*
D14*
X269295537Y-128587608D03*
D13*
X266755537Y-133667608D03*
D12*
X264215537Y-128587608D03*
X269613033Y-109537592D03*
D13*
X268343033Y-112077592D03*
D14*
X264533033Y-109537592D03*
D13*
X261993033Y-114617592D03*
D12*
X259453033Y-109537592D03*
X212462985Y-109537592D03*
D13*
X211192985Y-112077592D03*
D14*
X207382985Y-109537592D03*
D13*
X204842985Y-114617592D03*
D12*
X202302985Y-109537592D03*
X221987993Y-90487576D03*
D13*
X220717993Y-93027576D03*
D14*
X216907993Y-90487576D03*
D13*
X214367993Y-95567576D03*
D12*
X211827993Y-90487576D03*
X341050593Y-166687640D03*
D13*
X339780593Y-169227640D03*
D14*
X335970593Y-166687640D03*
D13*
X333430593Y-171767640D03*
D12*
X330890593Y-166687640D03*
X288663049Y-109537592D03*
D13*
X287393049Y-112077592D03*
D14*
X283583049Y-109537592D03*
D13*
X281043049Y-114617592D03*
D12*
X278503049Y-109537592D03*
D15*
X240719049Y-162037440D03*
X240719049Y-160337440D03*
X240719049Y-158637440D03*
X235919049Y-158637440D03*
X235919049Y-160337440D03*
X235919049Y-162037440D03*
X312156489Y-162037440D03*
X312156489Y-160337440D03*
X312156489Y-158637440D03*
X307356489Y-158637440D03*
X307356489Y-160337440D03*
X307356489Y-162037440D03*
X288344009Y-162037440D03*
X288344009Y-160337440D03*
X288344009Y-158637440D03*
X283544009Y-158637440D03*
X283544009Y-160337440D03*
X283544009Y-162037440D03*
D12*
X193412969Y-61912552D03*
D13*
X192142969Y-64452552D03*
D14*
X188332969Y-61912552D03*
D13*
X185792969Y-66992552D03*
D12*
X183252969Y-61912552D03*
D15*
X219270497Y-139587624D03*
X219270497Y-141287624D03*
X219270497Y-142987624D03*
X224070497Y-142987624D03*
X224070497Y-141287624D03*
X224070497Y-139587624D03*
D17*
X120922000Y-41656000D03*
X111742000Y-41656000D03*
D12*
X174362953Y-61912552D03*
D13*
X173092953Y-64452552D03*
D14*
X169282953Y-61912552D03*
D13*
X166742953Y-66992552D03*
D12*
X164202953Y-61912552D03*
X126737913Y-90487576D03*
D13*
X125467913Y-93027576D03*
D14*
X121657913Y-90487576D03*
D13*
X119117913Y-95567576D03*
D12*
X116577913Y-90487576D03*
D15*
X371670625Y-101487592D03*
X371670625Y-103187592D03*
X371670625Y-104887592D03*
X376470625Y-104887592D03*
X376470625Y-103187592D03*
X376470625Y-101487592D03*
D12*
X145787929Y-61912552D03*
D13*
X144517929Y-64452552D03*
D14*
X140707929Y-61912552D03*
D13*
X138167929Y-66992552D03*
D12*
X135627929Y-61912552D03*
X55300329Y-109537540D03*
D13*
X54030329Y-112077540D03*
D14*
X50220329Y-109537540D03*
D13*
X47680329Y-114617540D03*
D12*
X45140329Y-109537540D03*
X155312937Y-109537592D03*
D13*
X154042937Y-112077592D03*
D14*
X150232937Y-109537592D03*
D13*
X147692937Y-114617592D03*
D12*
X145152937Y-109537592D03*
D15*
X352620609Y-139587624D03*
X352620609Y-141287624D03*
X352620609Y-142987624D03*
X357420609Y-142987624D03*
X357420609Y-141287624D03*
X357420609Y-139587624D03*
D12*
X62444079Y-147637540D03*
D13*
X61174079Y-150177540D03*
D14*
X57364079Y-147637540D03*
D13*
X54824079Y-152717540D03*
D12*
X52284079Y-147637540D03*
D15*
X185932969Y-53862552D03*
X185932969Y-55562552D03*
X185932969Y-57262552D03*
X190732969Y-57262552D03*
X190732969Y-55562552D03*
X190732969Y-53862552D03*
X214545489Y-123937608D03*
X214545489Y-122237608D03*
X214545489Y-120537608D03*
X209745489Y-120537608D03*
X209745489Y-122237608D03*
X209745489Y-123937608D03*
D12*
X50537849Y-61912552D03*
D13*
X49267849Y-64452552D03*
D14*
X45457849Y-61912552D03*
D13*
X42917849Y-66992552D03*
D12*
X40377849Y-61912552D03*
D15*
X200220481Y-139587624D03*
X200220481Y-141287624D03*
X200220481Y-142987624D03*
X205020481Y-142987624D03*
X205020481Y-141287624D03*
X205020481Y-139587624D03*
D12*
X360100609Y-166687640D03*
D13*
X358830609Y-169227640D03*
D14*
X355020609Y-166687640D03*
D13*
X352480609Y-171767640D03*
D12*
X349940609Y-166687640D03*
D15*
X281183049Y-101487592D03*
X281183049Y-103187592D03*
X281183049Y-104887592D03*
X285983049Y-104887592D03*
X285983049Y-103187592D03*
X285983049Y-101487592D03*
X166882953Y-53862552D03*
X166882953Y-55562552D03*
X166882953Y-57262552D03*
X171682953Y-57262552D03*
X171682953Y-55562552D03*
X171682953Y-53862552D03*
X143107929Y-85837576D03*
X143107929Y-84137576D03*
X143107929Y-82437576D03*
X138307929Y-82437576D03*
X138307929Y-84137576D03*
X138307929Y-85837576D03*
D12*
X145787929Y-90487576D03*
D13*
X144517929Y-93027576D03*
D14*
X140707929Y-90487576D03*
D13*
X138167929Y-95567576D03*
D12*
X135627929Y-90487576D03*
D15*
X124057913Y-85837576D03*
X124057913Y-84137576D03*
X124057913Y-82437576D03*
X119257913Y-82437576D03*
X119257913Y-84137576D03*
X119257913Y-85837576D03*
X271658041Y-53862552D03*
X271658041Y-55562552D03*
X271658041Y-57262552D03*
X276458041Y-57262552D03*
X276458041Y-55562552D03*
X276458041Y-53862552D03*
D12*
X212462985Y-61912552D03*
D13*
X211192985Y-64452552D03*
D14*
X207382985Y-61912552D03*
D13*
X204842985Y-66992552D03*
D12*
X202302985Y-61912552D03*
D15*
X262133033Y-101487592D03*
X262133033Y-103187592D03*
X262133033Y-104887592D03*
X266933033Y-104887592D03*
X266933033Y-103187592D03*
X266933033Y-101487592D03*
D12*
X360100609Y-109537592D03*
D13*
X358830609Y-112077592D03*
D14*
X355020609Y-109537592D03*
D13*
X352480609Y-114617592D03*
D12*
X349940609Y-109537592D03*
D15*
X233595505Y-123937608D03*
X233595505Y-122237608D03*
X233595505Y-120537608D03*
X228795505Y-120537608D03*
X228795505Y-122237608D03*
X228795505Y-123937608D03*
D12*
X279138041Y-90487576D03*
D13*
X277868041Y-93027576D03*
D14*
X274058041Y-90487576D03*
D13*
X271518041Y-95567576D03*
D12*
X268978041Y-90487576D03*
D15*
X352620609Y-53862552D03*
X352620609Y-55562552D03*
X352620609Y-57262552D03*
X357420609Y-57262552D03*
X357420609Y-55562552D03*
X357420609Y-53862552D03*
D12*
X305331813Y-128587608D03*
D13*
X304061813Y-131127608D03*
D14*
X300251813Y-128587608D03*
D13*
X297711813Y-133667608D03*
D12*
X295171813Y-128587608D03*
X298188057Y-61912552D03*
D13*
X296918057Y-64452552D03*
D14*
X293108057Y-61912552D03*
D13*
X290568057Y-66992552D03*
D12*
X288028057Y-61912552D03*
X314836489Y-166687440D03*
D13*
X313566489Y-169227440D03*
D14*
X309756489Y-166687440D03*
D13*
X307216489Y-171767440D03*
D12*
X304676489Y-166687440D03*
D15*
X333570593Y-101487592D03*
X333570593Y-103187592D03*
X333570593Y-104887592D03*
X338370593Y-104887592D03*
X338370593Y-103187592D03*
X338370593Y-101487592D03*
X124020417Y-139587624D03*
X124020417Y-141287624D03*
X124020417Y-142987624D03*
X128820417Y-142987624D03*
X128820417Y-141287624D03*
X128820417Y-139587624D03*
X162120449Y-139587624D03*
X162120449Y-141287624D03*
X162120449Y-142987624D03*
X166920449Y-142987624D03*
X166920449Y-141287624D03*
X166920449Y-139587624D03*
X199281609Y-168387440D03*
X199281609Y-166687440D03*
X199281609Y-164987440D03*
X194481609Y-164987440D03*
X194481609Y-166687440D03*
X194481609Y-168387440D03*
D16*
X72644000Y-43639000D03*
X72644000Y-40689000D03*
D15*
X105007897Y-85837576D03*
X105007897Y-84137576D03*
X105007897Y-82437576D03*
X100207897Y-82437576D03*
X100207897Y-84137576D03*
X100207897Y-85837576D03*
D16*
X70104000Y-43639000D03*
X70104000Y-40689000D03*
D12*
X57681579Y-128587540D03*
D13*
X56411579Y-131127540D03*
D14*
X52601579Y-128587540D03*
D13*
X50061579Y-133667540D03*
D12*
X47521579Y-128587540D03*
D15*
X169281609Y-162037440D03*
X169281609Y-160337440D03*
X169281609Y-158637440D03*
X164481609Y-158637440D03*
X164481609Y-160337440D03*
X164481609Y-162037440D03*
X66887945Y-85837504D03*
X66887945Y-84137504D03*
X66887945Y-82437504D03*
X62087945Y-82437504D03*
X62087945Y-84137504D03*
X62087945Y-85837504D03*
X224033001Y-101487592D03*
X224033001Y-103187592D03*
X224033001Y-104887592D03*
X228833001Y-104887592D03*
X228833001Y-103187592D03*
X228833001Y-101487592D03*
X238320513Y-139587624D03*
X238320513Y-141287624D03*
X238320513Y-142987624D03*
X243120513Y-142987624D03*
X243120513Y-141287624D03*
X243120513Y-139587624D03*
X243083017Y-101487592D03*
X243083017Y-103187592D03*
X243083017Y-104887592D03*
X247883017Y-104887592D03*
X247883017Y-103187592D03*
X247883017Y-101487592D03*
X100245393Y-123937608D03*
X100245393Y-122237608D03*
X100245393Y-120537608D03*
X95445393Y-120537608D03*
X95445393Y-122237608D03*
X95445393Y-123937608D03*
D12*
X260088025Y-61912552D03*
D13*
X258818025Y-64452552D03*
D14*
X255008025Y-61912552D03*
D13*
X252468025Y-66992552D03*
D12*
X249928025Y-61912552D03*
X231513001Y-61912552D03*
D13*
X230243001Y-64452552D03*
D14*
X226433001Y-61912552D03*
D13*
X223893001Y-66992552D03*
D12*
X221353001Y-61912552D03*
D15*
X128782921Y-101487592D03*
X128782921Y-103187592D03*
X128782921Y-104887592D03*
X133582921Y-104887592D03*
X133582921Y-103187592D03*
X133582921Y-101487592D03*
D12*
X312475569Y-109537592D03*
D13*
X311205569Y-112077592D03*
D14*
X307395569Y-109537592D03*
D13*
X304855569Y-114617592D03*
D12*
X302315569Y-109537592D03*
D15*
X200257977Y-85837576D03*
X200257977Y-84137576D03*
X200257977Y-82437576D03*
X195457977Y-82437576D03*
X195457977Y-84137576D03*
X195457977Y-85837576D03*
X81195377Y-123937608D03*
X81195377Y-122237608D03*
X81195377Y-120537608D03*
X76395377Y-120537608D03*
X76395377Y-122237608D03*
X76395377Y-123937608D03*
X55001579Y-123937540D03*
X55001579Y-122237540D03*
X55001579Y-120537540D03*
X50201579Y-120537540D03*
X50201579Y-122237540D03*
X50201579Y-123937540D03*
X257370529Y-139587624D03*
X257370529Y-141287624D03*
X257370529Y-142987624D03*
X262170529Y-142987624D03*
X262170529Y-141287624D03*
X262170529Y-139587624D03*
X50258905Y-162037440D03*
X50258905Y-160337440D03*
X50258905Y-158637440D03*
X45458905Y-158637440D03*
X45458905Y-160337440D03*
X45458905Y-162037440D03*
D12*
X267211529Y-166687440D03*
D13*
X265941529Y-169227440D03*
D14*
X262131529Y-166687440D03*
D13*
X259591529Y-171767440D03*
D12*
X257051529Y-166687440D03*
D15*
X47857829Y-85837540D03*
X47857829Y-84137540D03*
X47857829Y-82437540D03*
X43057829Y-82437540D03*
X43057829Y-84137540D03*
X43057829Y-85837540D03*
X139281609Y-168387440D03*
X139281609Y-166687440D03*
X139281609Y-164987440D03*
X134481609Y-164987440D03*
X134481609Y-166687440D03*
X134481609Y-168387440D03*
D12*
X79112873Y-109537592D03*
D13*
X77842873Y-112077592D03*
D14*
X74032873Y-109537592D03*
D13*
X71492873Y-114617592D03*
D12*
X68952873Y-109537592D03*
D15*
X352620609Y-101487592D03*
X352620609Y-103187592D03*
X352620609Y-104887592D03*
X357420609Y-104887592D03*
X357420609Y-103187592D03*
X357420609Y-101487592D03*
D12*
X341050593Y-61912552D03*
D13*
X339780593Y-64452552D03*
D14*
X335970593Y-61912552D03*
D13*
X333430593Y-66992552D03*
D12*
X330890593Y-61912552D03*
X179125457Y-128587608D03*
D13*
X177855457Y-131127608D03*
D14*
X174045457Y-128587608D03*
D13*
X171505457Y-133667608D03*
D12*
X168965457Y-128587608D03*
D15*
X138307929Y-53862552D03*
X138307929Y-55562552D03*
X138307929Y-57262552D03*
X143107929Y-57262552D03*
X143107929Y-55562552D03*
X143107929Y-53862552D03*
X376470625Y-162037640D03*
X376470625Y-160337640D03*
X376470625Y-158637640D03*
X371670625Y-158637640D03*
X371670625Y-160337640D03*
X371670625Y-162037640D03*
D12*
X88637881Y-90487576D03*
D13*
X87367881Y-93027576D03*
D14*
X83557881Y-90487576D03*
D13*
X81017881Y-95567576D03*
D12*
X78477881Y-90487576D03*
D15*
X143070433Y-139587624D03*
X143070433Y-141287624D03*
X143070433Y-142987624D03*
X147870433Y-142987624D03*
X147870433Y-141287624D03*
X147870433Y-139587624D03*
X264531529Y-162037440D03*
X264531529Y-160337440D03*
X264531529Y-158637440D03*
X259731529Y-158637440D03*
X259731529Y-160337440D03*
X259731529Y-162037440D03*
X181207961Y-85837576D03*
X181207961Y-84137576D03*
X181207961Y-82437576D03*
X176407961Y-82437576D03*
X176407961Y-84137576D03*
X176407961Y-85837576D03*
D12*
X88637881Y-61912552D03*
D13*
X87367881Y-64452552D03*
D14*
X83557881Y-61912552D03*
D13*
X81017881Y-66992552D03*
D12*
X78477881Y-61912552D03*
D15*
X54964079Y-139587540D03*
X54964079Y-141287540D03*
X54964079Y-142987540D03*
X59764079Y-142987540D03*
X59764079Y-141287540D03*
X59764079Y-139587540D03*
X357420609Y-85837576D03*
X357420609Y-84137576D03*
X357420609Y-82437576D03*
X352620609Y-82437576D03*
X352620609Y-84137576D03*
X352620609Y-85837576D03*
D12*
X379150625Y-90487576D03*
D13*
X377880625Y-93027576D03*
D14*
X374070625Y-90487576D03*
D13*
X371530625Y-95567576D03*
D12*
X368990625Y-90487576D03*
X341050593Y-109537592D03*
D13*
X339780593Y-112077592D03*
D14*
X335970593Y-109537592D03*
D13*
X333430593Y-114617592D03*
D12*
X330890593Y-109537592D03*
D15*
X157395441Y-123937608D03*
X157395441Y-122237608D03*
X157395441Y-120537608D03*
X152595441Y-120537608D03*
X152595441Y-122237608D03*
X152595441Y-123937608D03*
X333570593Y-53862552D03*
X333570593Y-55562552D03*
X333570593Y-57262552D03*
X338370593Y-57262552D03*
X338370593Y-55562552D03*
X338370593Y-53862552D03*
X305033065Y-85837576D03*
X305033065Y-84137576D03*
X305033065Y-82437576D03*
X300233065Y-82437576D03*
X300233065Y-84137576D03*
X300233065Y-85837576D03*
X204982985Y-53862552D03*
X204982985Y-55562552D03*
X204982985Y-57262552D03*
X209782985Y-57262552D03*
X209782985Y-55562552D03*
X209782985Y-53862552D03*
D12*
X279138041Y-61912552D03*
D13*
X277868041Y-64452552D03*
D14*
X274058041Y-61912552D03*
D13*
X271518041Y-66992552D03*
D12*
X268978041Y-61912552D03*
X236275505Y-128587608D03*
D13*
X235005505Y-131127608D03*
D14*
X231195505Y-128587608D03*
D13*
X228655505Y-133667608D03*
D12*
X226115505Y-128587608D03*
X107687897Y-61912552D03*
D13*
X106417897Y-64452552D03*
D14*
X102607897Y-61912552D03*
D13*
X100067897Y-66992552D03*
D12*
X97527897Y-61912552D03*
D15*
X338370593Y-162037640D03*
X338370593Y-160337640D03*
X338370593Y-158637640D03*
X333570593Y-158637640D03*
X333570593Y-160337640D03*
X333570593Y-162037640D03*
X119295409Y-123937608D03*
X119295409Y-122237608D03*
X119295409Y-120537608D03*
X114495409Y-120537608D03*
X114495409Y-122237608D03*
X114495409Y-123937608D03*
D16*
X65024000Y-43639000D03*
X65024000Y-40689000D03*
D15*
X219307993Y-85837576D03*
X219307993Y-84137576D03*
X219307993Y-82437576D03*
X214507993Y-82437576D03*
X214507993Y-84137576D03*
X214507993Y-85837576D03*
X97844169Y-162037440D03*
X97844169Y-160337440D03*
X97844169Y-158637440D03*
X93044169Y-158637440D03*
X93044169Y-160337440D03*
X93044169Y-162037440D03*
D12*
X121975409Y-128587608D03*
D13*
X120705409Y-131127608D03*
D14*
X116895409Y-128587608D03*
D13*
X114355409Y-133667608D03*
D12*
X111815409Y-128587608D03*
D15*
X357420609Y-162037640D03*
X357420609Y-160337640D03*
X357420609Y-158637640D03*
X352620609Y-158637640D03*
X352620609Y-160337640D03*
X352620609Y-162037640D03*
D12*
X207700481Y-147637624D03*
D13*
X206430481Y-150177624D03*
D14*
X202620481Y-147637624D03*
D13*
X200080481Y-152717624D03*
D12*
X197540481Y-147637624D03*
X360100609Y-61912552D03*
D13*
X358830609Y-64452552D03*
D14*
X355020609Y-61912552D03*
D13*
X352480609Y-66992552D03*
D12*
X349940609Y-61912552D03*
X360100609Y-147637624D03*
D13*
X358830609Y-150177624D03*
D14*
X355020609Y-147637624D03*
D13*
X352480609Y-152717624D03*
D12*
X349940609Y-147637624D03*
X164837945Y-90487576D03*
D13*
X163567945Y-93027576D03*
D14*
X159757945Y-90487576D03*
D13*
X157217945Y-95567576D03*
D12*
X154677945Y-90487576D03*
D15*
X304995569Y-101487592D03*
X304995569Y-103187592D03*
X304995569Y-104887592D03*
X309795569Y-104887592D03*
X309795569Y-103187592D03*
X309795569Y-101487592D03*
D12*
X291024009Y-166687440D03*
D13*
X289754009Y-169227440D03*
D14*
X285944009Y-166687440D03*
D13*
X283404009Y-171767440D03*
D12*
X280864009Y-166687440D03*
D10*
X154915062Y-50552512D03*
D11*
X155915062Y-50552512D03*
X154915062Y-51552512D03*
X155915062Y-51552512D03*
D15*
X104970401Y-139587624D03*
X104970401Y-141287624D03*
X104970401Y-142987624D03*
X109770401Y-142987624D03*
X109770401Y-141287624D03*
X109770401Y-139587624D03*
X138345425Y-123937608D03*
X138345425Y-122237608D03*
X138345425Y-120537608D03*
X133545425Y-120537608D03*
X133545425Y-122237608D03*
X133545425Y-123937608D03*
D12*
X98162889Y-109537592D03*
D13*
X96892889Y-112077592D03*
D14*
X93082889Y-109537592D03*
D13*
X90542889Y-114617592D03*
D12*
X88002889Y-109537592D03*
X141025425Y-128587608D03*
D13*
X139755425Y-131127608D03*
D14*
X135945425Y-128587608D03*
D13*
X133405425Y-133667608D03*
D12*
X130865425Y-128587608D03*
X100524169Y-166687440D03*
D13*
X99254169Y-169227440D03*
D14*
X95444169Y-166687440D03*
D13*
X92904169Y-171767440D03*
D12*
X90364169Y-166687440D03*
X379150625Y-109537592D03*
D13*
X377880625Y-112077592D03*
D14*
X374070625Y-109537592D03*
D13*
X371530625Y-114617592D03*
D12*
X368990625Y-109537592D03*
D15*
X81157881Y-53862552D03*
X81157881Y-55562552D03*
X81157881Y-57262552D03*
X85957881Y-57262552D03*
X85957881Y-55562552D03*
X85957881Y-53862552D03*
X252645521Y-123937608D03*
X252645521Y-122237608D03*
X252645521Y-120537608D03*
X247845521Y-120537608D03*
X247845521Y-122237608D03*
X247845521Y-123937608D03*
D12*
X188650465Y-147637624D03*
D13*
X187380465Y-150177624D03*
D14*
X183570465Y-147637624D03*
D13*
X181030465Y-152717624D03*
D12*
X178490465Y-147637624D03*
X150550433Y-147637624D03*
D13*
X149280433Y-150177624D03*
D14*
X145470433Y-147637624D03*
D13*
X142930433Y-152717624D03*
D12*
X140390433Y-147637624D03*
X50537829Y-90487540D03*
D13*
X49267829Y-93027540D03*
D14*
X45457829Y-90487540D03*
D13*
X42917829Y-95567540D03*
D12*
X40377829Y-90487540D03*
D15*
X376470625Y-85837576D03*
X376470625Y-84137576D03*
X376470625Y-82437576D03*
X371670625Y-82437576D03*
X371670625Y-84137576D03*
X371670625Y-85837576D03*
X100207897Y-53862552D03*
X100207897Y-55562552D03*
X100207897Y-57262552D03*
X105007897Y-57262552D03*
X105007897Y-55562552D03*
X105007897Y-53862552D03*
X224033001Y-53862552D03*
X224033001Y-55562552D03*
X224033001Y-57262552D03*
X228833001Y-57262552D03*
X228833001Y-55562552D03*
X228833001Y-53862552D03*
D12*
X160075441Y-128587608D03*
D13*
X158805441Y-131127608D03*
D14*
X154995441Y-128587608D03*
D13*
X152455441Y-133667608D03*
D12*
X149915441Y-128587608D03*
X250563017Y-109537592D03*
D13*
X249293017Y-112077592D03*
D14*
X245483017Y-109537592D03*
D13*
X242943017Y-114617592D03*
D12*
X240403017Y-109537592D03*
D15*
X109732905Y-101487592D03*
X109732905Y-103187592D03*
X109732905Y-104887592D03*
X114532905Y-104887592D03*
X114532905Y-103187592D03*
X114532905Y-101487592D03*
D12*
X174362953Y-109537592D03*
D13*
X173092953Y-112077592D03*
D14*
X169282953Y-109537592D03*
D13*
X166742953Y-114617592D03*
D12*
X164202953Y-109537592D03*
D15*
X74031689Y-162037440D03*
X74031689Y-160337440D03*
X74031689Y-158637440D03*
X69231689Y-158637440D03*
X69231689Y-160337440D03*
X69231689Y-162037440D03*
X309758073Y-53862552D03*
X309758073Y-55562552D03*
X309758073Y-57262552D03*
X314558073Y-57262552D03*
X314558073Y-55562552D03*
X314558073Y-53862552D03*
D12*
X183887961Y-90487576D03*
D13*
X182617961Y-93027576D03*
D14*
X178807961Y-90487576D03*
D13*
X176267961Y-95567576D03*
D12*
X173727961Y-90487576D03*
D15*
X257408025Y-85837576D03*
X257408025Y-84137576D03*
X257408025Y-82437576D03*
X252608025Y-82437576D03*
X252608025Y-84137576D03*
X252608025Y-85837576D03*
X238358009Y-85837576D03*
X238358009Y-84137576D03*
X238358009Y-82437576D03*
X233558009Y-82437576D03*
X233558009Y-84137576D03*
X233558009Y-85837576D03*
X71632873Y-101487592D03*
X71632873Y-103187592D03*
X71632873Y-104887592D03*
X76432873Y-104887592D03*
X76432873Y-103187592D03*
X76432873Y-101487592D03*
D12*
X193412969Y-109537592D03*
D13*
X192142969Y-112077592D03*
D14*
X188332969Y-109537592D03*
D13*
X185792969Y-114617592D03*
D12*
X183252969Y-109537592D03*
X360100609Y-90487576D03*
D13*
X358830609Y-93027576D03*
D14*
X355020609Y-90487576D03*
D13*
X352480609Y-95567576D03*
D12*
X349940609Y-90487576D03*
D15*
X166882953Y-101487592D03*
X166882953Y-103187592D03*
X166882953Y-104887592D03*
X171682953Y-104887592D03*
X171682953Y-103187592D03*
X171682953Y-101487592D03*
D12*
X260088025Y-90487576D03*
D13*
X258818025Y-93027576D03*
D14*
X255008025Y-90487576D03*
D13*
X252468025Y-95567576D03*
D12*
X249928025Y-90487576D03*
X341050593Y-90487576D03*
D13*
X339780593Y-93027576D03*
D14*
X335970593Y-90487576D03*
D13*
X333430593Y-95567576D03*
D12*
X330890593Y-90487576D03*
D15*
X252608025Y-53862552D03*
X252608025Y-55562552D03*
X252608025Y-57262552D03*
X257408025Y-57262552D03*
X257408025Y-55562552D03*
X257408025Y-53862552D03*
X176445457Y-123937608D03*
X176445457Y-122237608D03*
X176445457Y-120537608D03*
X171645457Y-120537608D03*
X171645457Y-122237608D03*
X171645457Y-123937608D03*
D12*
X93400385Y-147637624D03*
D13*
X92130385Y-150177624D03*
D14*
X88320385Y-147637624D03*
D13*
X85780385Y-152717624D03*
D12*
X83240385Y-147637624D03*
D15*
X338370593Y-85837576D03*
X338370593Y-84137576D03*
X338370593Y-82437576D03*
X333570593Y-82437576D03*
X333570593Y-84137576D03*
X333570593Y-85837576D03*
D12*
X317238073Y-61912552D03*
D13*
X315968073Y-64452552D03*
D14*
X312158073Y-61912552D03*
D13*
X309618073Y-66992552D03*
D12*
X307078073Y-61912552D03*
D18*
X194666303Y-46941135D03*
X195516303Y-46941135D03*
X196366303Y-46941135D03*
X197216303Y-46941135D03*
X198066303Y-46941135D03*
X198916303Y-46941135D03*
X199766303Y-46941135D03*
X200616303Y-46941135D03*
X200616303Y-45591135D03*
X199766303Y-45591135D03*
X198916303Y-45591135D03*
X198066303Y-45591135D03*
X197216303Y-45591135D03*
X196366303Y-45591135D03*
X195516303Y-45591135D03*
X194666303Y-45591135D03*
D19*
X193316303Y-42581135D03*
D20*
X193316303Y-45961135D03*
D19*
X201966303Y-42581135D03*
D20*
X201966303Y-45961135D03*
M02*
